# MagicaVoxel @ Ephtracy

# group
o 

# material
mtllib observation-platform.mtl
usemtl palette

# normals
vn -1 0 0
vn 1 0 0
vn 0 0 1
vn 0 0 -1
vn 0 -1 0
vn 0 1 0

# texcoords
vt 0.201172 0.5
vt 0.373047 0.5
vt 0.533203 0.5

# verts
v -1.5 0 1.3
v -1.5 0 0.2
v -1.5 0.1 1.2
v -1.5 0.1 1.1
v -1.5 0.1 1
v -1.5 0.1 0.9
v -1.5 0.1 0.8
v -1.5 0.1 0.7
v -1.5 0.1 0.6
v -1.5 0.1 0.5
v -1.5 0.1 0.4
v -1.5 0.1 0.3
v -1.5 0.2 1.2
v -1.5 0.2 1.1
v -1.5 0.2 1
v -1.5 0.2 0.9
v -1.5 0.2 0.8
v -1.5 0.2 0.7
v -1.5 0.2 0.6
v -1.5 0.2 0.5
v -1.5 0.2 0.4
v -1.5 0.2 0.3
v -1.5 0.3 1.2
v -1.5 0.3 0.2
v -1.5 0.4 1.3
v -1.5 0.4 1.2
v -1.3 0.1 1.2
v -1.3 0.1 1.1
v -1.3 0.2 1.2
v -1.3 0.2 1.1
v -1.1 0.1 1.2
v -1.1 0.1 1.1
v -1.1 0.2 1.2
v -1.1 0.2 1.1
v -0.9 0.1 1.2
v -0.9 0.1 1.1
v -0.9 0.2 1.2
v -0.9 0.2 1.1
v -0.7 0.1 1.2
v -0.7 0.1 1.1
v -0.7 0.2 1.2
v -0.7 0.2 1.1
v -0.6 0 1.3
v -0.6 0 1.2
v -0.6 0.1 1.1
v -0.6 0.1 1
v -0.6 0.2 1.1
v -0.6 0.2 1
v -0.6 0.3 1.2
v -0.6 0.4 1.3
v -0.6 0.4 1.2
v -0.3 0.1 1.2
v -0.3 0.1 1.1
v -0.3 0.2 1.2
v -0.3 0.2 1.1
v -0.1 0.1 1.2
v -0.1 0.1 1.1
v -0.1 0.2 1.2
v -0.1 0.2 1.1
v 0.1 0.1 1.2
v 0.1 0.1 1.1
v 0.1 0.2 1.2
v 0.1 0.2 1.1
v 0.3 0.1 1.2
v 0.3 0.1 1.1
v 0.3 0.2 1.2
v 0.3 0.2 1.1
v 0.5 0.1 1.2
v 0.5 0.1 1.1
v 0.5 0.2 1.2
v 0.5 0.2 1.1
v 0.6 0 1.3
v 0.6 0 1.2
v 0.6 0.1 1.1
v 0.6 0.1 1
v 0.6 0.2 1.1
v 0.6 0.2 1
v 0.6 0.3 1.2
v 0.6 0.4 1.3
v 0.6 0.4 1.2
v 0.9 0.1 1.2
v 0.9 0.1 1.1
v 0.9 0.2 1.2
v 0.9 0.2 1.1
v 1.1 0.1 1.2
v 1.1 0.1 1.1
v 1.1 0.2 1.2
v 1.1 0.2 1.1
v 1.3 0.1 1.2
v 1.3 0.1 1.1
v 1.3 0.2 1.2
v 1.3 0.2 1.1
v 1.5 0 1.3
v 1.5 0 1.2
v 1.5 0 0.3
v 1.5 0 0.2
v 1.5 0.1 1.2
v 1.5 0.1 1.1
v 1.5 0.1 1
v 1.5 0.1 0.9
v 1.5 0.1 0.8
v 1.5 0.1 0.7
v 1.5 0.1 0.6
v 1.5 0.1 0.5
v 1.5 0.1 0.4
v 1.5 0.1 0.3
v 1.5 0.2 1.2
v 1.5 0.2 1.1
v 1.5 0.2 1
v 1.5 0.2 0.9
v 1.5 0.2 0.8
v 1.5 0.2 0.7
v 1.5 0.2 0.6
v 1.5 0.2 0.5
v 1.5 0.2 0.4
v 1.5 0.2 0.3
v 1.5 0.3 1.2
v 1.5 0.3 1.1
v 1.5 0.3 0.2
v 1.5 0.4 1.3
v 1.5 0.4 1.2
v -1.4 0 1.3
v -1.4 0 1.2
v -1.4 0 0.3
v -1.4 0 0.2
v -1.4 0.1 1.2
v -1.4 0.1 1.1
v -1.4 0.1 1
v -1.4 0.1 0.9
v -1.4 0.1 0.8
v -1.4 0.1 0.7
v -1.4 0.1 0.6
v -1.4 0.1 0.5
v -1.4 0.1 0.4
v -1.4 0.1 0.3
v -1.4 0.2 1.2
v -1.4 0.2 1.1
v -1.4 0.2 1
v -1.4 0.2 0.9
v -1.4 0.2 0.8
v -1.4 0.2 0.7
v -1.4 0.2 0.6
v -1.4 0.2 0.5
v -1.4 0.2 0.4
v -1.4 0.2 0.3
v -1.4 0.3 1.2
v -1.4 0.3 1.1
v -1.4 0.3 0.2
v -1.4 0.4 1.3
v -1.4 0.4 1.2
v -1.2 0.1 1.2
v -1.2 0.1 1.1
v -1.2 0.2 1.2
v -1.2 0.2 1.1
v -1 0.1 1.2
v -1 0.1 1.1
v -1 0.2 1.2
v -1 0.2 1.1
v -0.8 0.1 1.2
v -0.8 0.1 1.1
v -0.8 0.2 1.2
v -0.8 0.2 1.1
v -0.5 0 1.3
v -0.5 0 1.2
v -0.5 0.1 1.1
v -0.5 0.1 1
v -0.5 0.2 1.1
v -0.5 0.2 1
v -0.5 0.3 1.2
v -0.5 0.4 1.3
v -0.5 0.4 1.2
v -0.4 0.1 1.2
v -0.4 0.1 1.1
v -0.4 0.2 1.2
v -0.4 0.2 1.1
v -0.2 0.1 1.2
v -0.2 0.1 1.1
v -0.2 0.2 1.2
v -0.2 0.2 1.1
v 0 0.1 1.2
v 0 0.1 1.1
v 0 0.2 1.2
v 0 0.2 1.1
v 0.2 0.1 1.2
v 0.2 0.1 1.1
v 0.2 0.2 1.2
v 0.2 0.2 1.1
v 0.4 0.1 1.2
v 0.4 0.1 1.1
v 0.4 0.2 1.2
v 0.4 0.2 1.1
v 0.7 0 1.3
v 0.7 0 1.2
v 0.7 0.1 1.1
v 0.7 0.1 1
v 0.7 0.2 1.1
v 0.7 0.2 1
v 0.7 0.3 1.2
v 0.7 0.4 1.3
v 0.7 0.4 1.2
v 0.8 0.1 1.2
v 0.8 0.1 1.1
v 0.8 0.2 1.2
v 0.8 0.2 1.1
v 1 0.1 1.2
v 1 0.1 1.1
v 1 0.2 1.2
v 1 0.2 1.1
v 1.2 0.1 1.2
v 1.2 0.1 1.1
v 1.2 0.2 1.2
v 1.2 0.2 1.1
v 1.4 0.1 1.2
v 1.4 0.1 1.1
v 1.4 0.2 1.2
v 1.4 0.2 1.1
v 1.6 0 1.3
v 1.6 0 0.2
v 1.6 0.1 1.2
v 1.6 0.1 1.1
v 1.6 0.1 1
v 1.6 0.1 0.9
v 1.6 0.1 0.8
v 1.6 0.1 0.7
v 1.6 0.1 0.6
v 1.6 0.1 0.5
v 1.6 0.1 0.4
v 1.6 0.1 0.3
v 1.6 0.2 1.2
v 1.6 0.2 1.1
v 1.6 0.2 1
v 1.6 0.2 0.9
v 1.6 0.2 0.8
v 1.6 0.2 0.7
v 1.6 0.2 0.6
v 1.6 0.2 0.5
v 1.6 0.2 0.4
v 1.6 0.2 0.3
v 1.6 0.3 1.2
v 1.6 0.3 0.2
v 1.6 0.4 1.3
v 1.6 0.4 1.2
v -1.5 0 1.3
v -1.5 0.4 1.3
v -1.4 0 1.3
v -1.4 0.4 1.3
v -0.6 0 1.3
v -0.6 0.4 1.3
v -0.5 0 1.3
v -0.5 0.4 1.3
v 0.6 0 1.3
v 0.6 0.4 1.3
v 0.7 0 1.3
v 0.7 0.4 1.3
v 1.5 0 1.3
v 1.5 0.4 1.3
v 1.6 0 1.3
v 1.6 0.4 1.3
v -1.4 0 1.2
v -1.4 0.1 1.2
v -1.4 0.2 1.2
v -1.4 0.3 1.2
v -1.3 0.1 1.2
v -1.3 0.2 1.2
v -1.2 0.1 1.2
v -1.2 0.2 1.2
v -1.1 0.1 1.2
v -1.1 0.2 1.2
v -1 0.1 1.2
v -1 0.2 1.2
v -0.9 0.1 1.2
v -0.9 0.2 1.2
v -0.8 0.1 1.2
v -0.8 0.2 1.2
v -0.7 0.1 1.2
v -0.7 0.2 1.2
v -0.6 0 1.2
v -0.6 0.3 1.2
v -0.5 0 1.2
v -0.5 0.3 1.2
v -0.4 0.1 1.2
v -0.4 0.2 1.2
v -0.3 0.1 1.2
v -0.3 0.2 1.2
v -0.2 0.1 1.2
v -0.2 0.2 1.2
v -0.1 0.1 1.2
v -0.1 0.2 1.2
v 0 0.1 1.2
v 0 0.2 1.2
v 0.1 0.1 1.2
v 0.1 0.2 1.2
v 0.2 0.1 1.2
v 0.2 0.2 1.2
v 0.3 0.1 1.2
v 0.3 0.2 1.2
v 0.4 0.1 1.2
v 0.4 0.2 1.2
v 0.5 0.1 1.2
v 0.5 0.2 1.2
v 0.6 0 1.2
v 0.6 0.3 1.2
v 0.7 0 1.2
v 0.7 0.3 1.2
v 0.8 0.1 1.2
v 0.8 0.2 1.2
v 0.9 0.1 1.2
v 0.9 0.2 1.2
v 1 0.1 1.2
v 1 0.2 1.2
v 1.1 0.1 1.2
v 1.1 0.2 1.2
v 1.2 0.1 1.2
v 1.2 0.2 1.2
v 1.3 0.1 1.2
v 1.3 0.2 1.2
v 1.4 0.1 1.2
v 1.4 0.2 1.2
v 1.5 0 1.2
v 1.5 0.1 1.2
v 1.5 0.2 1.2
v 1.5 0.3 1.2
v -1.5 0.1 1.1
v -1.5 0.2 1.1
v -1.4 0.1 1.1
v -1.4 0.2 1.1
v 1.5 0.1 1.1
v 1.5 0.2 1.1
v 1.6 0.1 1.1
v 1.6 0.2 1.1
v -1.5 0.1 0.9
v -1.5 0.2 0.9
v -1.4 0.1 0.9
v -1.4 0.2 0.9
v 1.5 0.1 0.9
v 1.5 0.2 0.9
v 1.6 0.1 0.9
v 1.6 0.2 0.9
v -1.5 0.1 0.7
v -1.5 0.2 0.7
v -1.4 0.1 0.7
v -1.4 0.2 0.7
v 1.5 0.1 0.7
v 1.5 0.2 0.7
v 1.6 0.1 0.7
v 1.6 0.2 0.7
v -1.5 0.1 0.5
v -1.5 0.2 0.5
v -1.4 0.1 0.5
v -1.4 0.2 0.5
v 1.5 0.1 0.5
v 1.5 0.2 0.5
v 1.6 0.1 0.5
v 1.6 0.2 0.5
v -1.5 0.1 0.3
v -1.5 0.2 0.3
v -1.4 0.1 0.3
v -1.4 0.2 0.3
v 1.5 0.1 0.3
v 1.5 0.2 0.3
v 1.6 0.1 0.3
v 1.6 0.2 0.3
v -1.5 0.1 1.2
v -1.5 0.2 1.2
v -1.5 0.3 1.2
v -1.5 0.4 1.2
v -1.4 0.1 1.2
v -1.4 0.2 1.2
v -1.4 0.3 1.2
v -1.4 0.4 1.2
v -0.6 0.3 1.2
v -0.6 0.4 1.2
v -0.5 0.3 1.2
v -0.5 0.4 1.2
v 0.6 0.3 1.2
v 0.6 0.4 1.2
v 0.7 0.3 1.2
v 0.7 0.4 1.2
v 1.5 0.1 1.2
v 1.5 0.2 1.2
v 1.5 0.3 1.2
v 1.5 0.4 1.2
v 1.6 0.1 1.2
v 1.6 0.2 1.2
v 1.6 0.3 1.2
v 1.6 0.4 1.2
v -1.4 0.2 1.1
v -1.4 0.3 1.1
v -1.3 0.1 1.1
v -1.3 0.2 1.1
v -1.2 0.1 1.1
v -1.2 0.2 1.1
v -1.1 0.1 1.1
v -1.1 0.2 1.1
v -1 0.1 1.1
v -1 0.2 1.1
v -0.9 0.1 1.1
v -0.9 0.2 1.1
v -0.8 0.1 1.1
v -0.8 0.2 1.1
v -0.7 0.1 1.1
v -0.7 0.2 1.1
v -0.6 0.1 1.1
v -0.6 0.2 1.1
v -0.5 0.1 1.1
v -0.5 0.2 1.1
v -0.4 0.1 1.1
v -0.4 0.2 1.1
v -0.3 0.1 1.1
v -0.3 0.2 1.1
v -0.2 0.1 1.1
v -0.2 0.2 1.1
v -0.1 0.1 1.1
v -0.1 0.2 1.1
v 0 0.1 1.1
v 0 0.2 1.1
v 0.1 0.1 1.1
v 0.1 0.2 1.1
v 0.2 0.1 1.1
v 0.2 0.2 1.1
v 0.3 0.1 1.1
v 0.3 0.2 1.1
v 0.4 0.1 1.1
v 0.4 0.2 1.1
v 0.5 0.1 1.1
v 0.5 0.2 1.1
v 0.6 0.1 1.1
v 0.6 0.2 1.1
v 0.7 0.1 1.1
v 0.7 0.2 1.1
v 0.8 0.1 1.1
v 0.8 0.2 1.1
v 0.9 0.1 1.1
v 0.9 0.2 1.1
v 1 0.1 1.1
v 1 0.2 1.1
v 1.1 0.1 1.1
v 1.1 0.2 1.1
v 1.2 0.1 1.1
v 1.2 0.2 1.1
v 1.3 0.1 1.1
v 1.3 0.2 1.1
v 1.4 0.1 1.1
v 1.4 0.2 1.1
v 1.5 0.2 1.1
v 1.5 0.3 1.1
v -1.5 0.1 1
v -1.5 0.2 1
v -1.4 0.1 1
v -1.4 0.2 1
v -0.6 0.1 1
v -0.6 0.2 1
v -0.5 0.1 1
v -0.5 0.2 1
v 0.6 0.1 1
v 0.6 0.2 1
v 0.7 0.1 1
v 0.7 0.2 1
v 1.5 0.1 1
v 1.5 0.2 1
v 1.6 0.1 1
v 1.6 0.2 1
v -1.5 0.1 0.8
v -1.5 0.2 0.8
v -1.4 0.1 0.8
v -1.4 0.2 0.8
v 1.5 0.1 0.8
v 1.5 0.2 0.8
v 1.6 0.1 0.8
v 1.6 0.2 0.8
v -1.5 0.1 0.6
v -1.5 0.2 0.6
v -1.4 0.1 0.6
v -1.4 0.2 0.6
v 1.5 0.1 0.6
v 1.5 0.2 0.6
v 1.6 0.1 0.6
v 1.6 0.2 0.6
v -1.5 0.1 0.4
v -1.5 0.2 0.4
v -1.4 0.1 0.4
v -1.4 0.2 0.4
v 1.5 0.1 0.4
v 1.5 0.2 0.4
v 1.6 0.1 0.4
v 1.6 0.2 0.4
v -1.4 0 0.3
v -1.4 0.1 0.3
v 1.5 0 0.3
v 1.5 0.1 0.3
v -1.5 0 0.2
v -1.5 0.3 0.2
v -1.4 0 0.2
v -1.4 0.3 0.2
v 1.5 0 0.2
v 1.5 0.3 0.2
v 1.6 0 0.2
v 1.6 0.3 0.2
v -1.5 0 1.3
v -1.4 0 1.3
v -0.6 0 1.3
v -0.5 0 1.3
v 0.6 0 1.3
v 0.7 0 1.3
v 1.5 0 1.3
v 1.6 0 1.3
v -1.4 0 1.2
v -0.6 0 1.2
v -0.5 0 1.2
v 0.6 0 1.2
v 0.7 0 1.2
v 1.5 0 1.2
v -1.4 0 1.1
v 1.5 0 1.1
v -1.4 0 1
v 1.5 0 1
v -1.4 0 0.9
v 1.5 0 0.9
v -1.4 0 0.8
v 1.5 0 0.8
v -1.4 0 0.7
v 1.5 0 0.7
v -1.4 0 0.6
v 1.5 0 0.6
v -1.4 0 0.5
v 1.5 0 0.5
v -1.4 0 0.4
v 1.5 0 0.4
v -1.4 0 0.3
v 1.5 0 0.3
v -1.5 0 0.2
v -1.4 0 0.2
v 1.5 0 0.2
v 1.6 0 0.2
v -1.5 0.2 1.2
v -1.4 0.2 1.2
v -1.3 0.2 1.2
v -1.2 0.2 1.2
v -1.1 0.2 1.2
v -1 0.2 1.2
v -0.9 0.2 1.2
v -0.8 0.2 1.2
v -0.7 0.2 1.2
v -0.4 0.2 1.2
v -0.3 0.2 1.2
v -0.2 0.2 1.2
v -0.1 0.2 1.2
v 0 0.2 1.2
v 0.1 0.2 1.2
v 0.2 0.2 1.2
v 0.3 0.2 1.2
v 0.4 0.2 1.2
v 0.5 0.2 1.2
v 0.8 0.2 1.2
v 0.9 0.2 1.2
v 1 0.2 1.2
v 1.1 0.2 1.2
v 1.2 0.2 1.2
v 1.3 0.2 1.2
v 1.4 0.2 1.2
v 1.5 0.2 1.2
v 1.6 0.2 1.2
v -1.5 0.2 1.1
v -1.4 0.2 1.1
v -1.3 0.2 1.1
v -1.2 0.2 1.1
v -1.1 0.2 1.1
v -1 0.2 1.1
v -0.9 0.2 1.1
v -0.8 0.2 1.1
v -0.7 0.2 1.1
v -0.4 0.2 1.1
v -0.3 0.2 1.1
v -0.2 0.2 1.1
v -0.1 0.2 1.1
v 0 0.2 1.1
v 0.1 0.2 1.1
v 0.2 0.2 1.1
v 0.3 0.2 1.1
v 0.4 0.2 1.1
v 0.5 0.2 1.1
v 0.8 0.2 1.1
v 0.9 0.2 1.1
v 1 0.2 1.1
v 1.1 0.2 1.1
v 1.2 0.2 1.1
v 1.3 0.2 1.1
v 1.4 0.2 1.1
v 1.5 0.2 1.1
v 1.6 0.2 1.1
v -1.5 0.2 1
v -1.4 0.2 1
v 1.5 0.2 1
v 1.6 0.2 1
v -1.5 0.2 0.9
v -1.4 0.2 0.9
v 1.5 0.2 0.9
v 1.6 0.2 0.9
v -1.5 0.2 0.8
v -1.4 0.2 0.8
v 1.5 0.2 0.8
v 1.6 0.2 0.8
v -1.5 0.2 0.7
v -1.4 0.2 0.7
v 1.5 0.2 0.7
v 1.6 0.2 0.7
v -1.5 0.2 0.6
v -1.4 0.2 0.6
v 1.5 0.2 0.6
v 1.6 0.2 0.6
v -1.5 0.2 0.5
v -1.4 0.2 0.5
v 1.5 0.2 0.5
v 1.6 0.2 0.5
v -1.5 0.2 0.4
v -1.4 0.2 0.4
v 1.5 0.2 0.4
v 1.6 0.2 0.4
v -1.5 0.2 0.3
v -1.4 0.2 0.3
v 1.5 0.2 0.3
v 1.6 0.2 0.3
v -1.5 0.1 1.2
v -1.4 0.1 1.2
v -1.3 0.1 1.2
v -1.2 0.1 1.2
v -1.1 0.1 1.2
v -1 0.1 1.2
v -0.9 0.1 1.2
v -0.8 0.1 1.2
v -0.7 0.1 1.2
v -0.4 0.1 1.2
v -0.3 0.1 1.2
v -0.2 0.1 1.2
v -0.1 0.1 1.2
v 0 0.1 1.2
v 0.1 0.1 1.2
v 0.2 0.1 1.2
v 0.3 0.1 1.2
v 0.4 0.1 1.2
v 0.5 0.1 1.2
v 0.8 0.1 1.2
v 0.9 0.1 1.2
v 1 0.1 1.2
v 1.1 0.1 1.2
v 1.2 0.1 1.2
v 1.3 0.1 1.2
v 1.4 0.1 1.2
v 1.5 0.1 1.2
v 1.6 0.1 1.2
v -1.5 0.1 1.1
v -1.4 0.1 1.1
v -1.3 0.1 1.1
v -1.2 0.1 1.1
v -1.1 0.1 1.1
v -1 0.1 1.1
v -0.9 0.1 1.1
v -0.8 0.1 1.1
v -0.7 0.1 1.1
v -0.6 0.1 1.1
v -0.5 0.1 1.1
v -0.4 0.1 1.1
v -0.3 0.1 1.1
v -0.2 0.1 1.1
v -0.1 0.1 1.1
v 0 0.1 1.1
v 0.1 0.1 1.1
v 0.2 0.1 1.1
v 0.3 0.1 1.1
v 0.4 0.1 1.1
v 0.5 0.1 1.1
v 0.6 0.1 1.1
v 0.7 0.1 1.1
v 0.8 0.1 1.1
v 0.9 0.1 1.1
v 1 0.1 1.1
v 1.1 0.1 1.1
v 1.2 0.1 1.1
v 1.3 0.1 1.1
v 1.4 0.1 1.1
v 1.5 0.1 1.1
v 1.6 0.1 1.1
v -1.5 0.1 1
v -1.4 0.1 1
v -0.6 0.1 1
v -0.5 0.1 1
v 0.6 0.1 1
v 0.7 0.1 1
v 1.5 0.1 1
v 1.6 0.1 1
v -1.5 0.1 0.9
v -1.4 0.1 0.9
v 1.5 0.1 0.9
v 1.6 0.1 0.9
v -1.5 0.1 0.8
v -1.4 0.1 0.8
v 1.5 0.1 0.8
v 1.6 0.1 0.8
v -1.5 0.1 0.7
v -1.4 0.1 0.7
v 1.5 0.1 0.7
v 1.6 0.1 0.7
v -1.5 0.1 0.6
v -1.4 0.1 0.6
v 1.5 0.1 0.6
v 1.6 0.1 0.6
v -1.5 0.1 0.5
v -1.4 0.1 0.5
v 1.5 0.1 0.5
v 1.6 0.1 0.5
v -1.5 0.1 0.4
v -1.4 0.1 0.4
v 1.5 0.1 0.4
v 1.6 0.1 0.4
v -1.5 0.1 0.3
v -1.4 0.1 0.3
v 1.5 0.1 0.3
v 1.6 0.1 0.3
v -0.6 0.2 1.1
v -0.5 0.2 1.1
v 0.6 0.2 1.1
v 0.7 0.2 1.1
v -0.6 0.2 1
v -0.5 0.2 1
v 0.6 0.2 1
v 0.7 0.2 1
v -1.5 0.3 1.2
v -1.4 0.3 1.2
v -0.6 0.3 1.2
v -0.5 0.3 1.2
v 0.6 0.3 1.2
v 0.7 0.3 1.2
v 1.5 0.3 1.2
v 1.6 0.3 1.2
v -1.4 0.3 1.1
v 1.5 0.3 1.1
v -1.5 0.3 0.2
v -1.4 0.3 0.2
v 1.5 0.3 0.2
v 1.6 0.3 0.2
v -1.5 0.4 1.3
v -1.4 0.4 1.3
v -0.6 0.4 1.3
v -0.5 0.4 1.3
v 0.6 0.4 1.3
v 0.7 0.4 1.3
v 1.5 0.4 1.3
v 1.6 0.4 1.3
v -1.5 0.4 1.2
v -1.4 0.4 1.2
v -0.6 0.4 1.2
v -0.5 0.4 1.2
v 0.6 0.4 1.2
v 0.7 0.4 1.2
v 1.5 0.4 1.2
v 1.6 0.4 1.2

# faces
f 3/3/1 2/3/1 1/3/1
f 4/3/1 2/3/1 3/3/1
f 5/3/1 2/3/1 4/3/1
f 6/3/1 2/3/1 5/3/1
f 7/3/1 2/3/1 6/3/1
f 8/3/1 2/3/1 7/3/1
f 9/3/1 2/3/1 8/3/1
f 10/3/1 2/3/1 9/3/1
f 11/3/1 2/3/1 10/3/1
f 12/3/1 2/3/1 11/3/1
f 13/3/1 3/3/1 1/3/1
f 14/3/1 5/3/1 4/3/1
f 15/3/1 5/3/1 14/3/1
f 16/3/1 7/3/1 6/3/1
f 17/3/1 7/3/1 16/3/1
f 18/3/1 9/3/1 8/3/1
f 19/3/1 9/3/1 18/3/1
f 20/3/1 11/3/1 10/3/1
f 21/3/1 11/3/1 20/3/1
f 22/3/1 2/3/1 12/3/1
f 23/3/1 21/3/1 20/3/1
f 23/3/1 22/3/1 21/3/1
f 23/3/1 19/3/1 18/3/1
f 23/3/1 13/3/1 1/3/1
f 23/3/1 20/3/1 19/3/1
f 23/3/1 17/3/1 16/3/1
f 23/3/1 18/3/1 17/3/1
f 23/3/1 15/3/1 14/3/1
f 23/3/1 16/3/1 15/3/1
f 23/3/1 14/3/1 13/3/1
f 24/3/1 2/3/1 22/3/1
f 24/3/1 22/3/1 23/3/1
f 25/3/1 23/3/1 1/3/1
f 26/3/1 23/3/1 25/3/1
f 29/3/1 28/3/1 27/3/1
f 30/3/1 28/3/1 29/3/1
f 33/3/1 32/3/1 31/3/1
f 34/3/1 32/3/1 33/3/1
f 37/3/1 36/3/1 35/3/1
f 38/3/1 36/3/1 37/3/1
f 41/3/1 40/3/1 39/3/1
f 42/3/1 40/3/1 41/3/1
f 47/3/1 46/3/1 45/3/1
f 48/3/1 46/3/1 47/3/1
f 49/3/1 44/3/1 43/3/1
f 50/3/1 49/3/1 43/3/1
f 51/3/1 49/3/1 50/3/1
f 54/3/1 53/3/1 52/3/1
f 55/3/1 53/3/1 54/3/1
f 58/3/1 57/3/1 56/3/1
f 59/3/1 57/3/1 58/3/1
f 62/3/1 61/3/1 60/3/1
f 63/3/1 61/3/1 62/3/1
f 66/3/1 65/3/1 64/3/1
f 67/3/1 65/3/1 66/3/1
f 70/3/1 69/3/1 68/3/1
f 71/3/1 69/3/1 70/3/1
f 76/3/1 75/3/1 74/3/1
f 77/3/1 75/3/1 76/3/1
f 78/3/1 73/3/1 72/3/1
f 79/3/1 78/3/1 72/3/1
f 80/3/1 78/3/1 79/3/1
f 83/3/1 82/3/1 81/3/1
f 84/3/1 82/3/1 83/3/1
f 87/3/1 86/3/1 85/3/1
f 88/3/1 86/3/1 87/3/1
f 91/3/1 90/3/1 89/3/1
f 92/3/1 90/3/1 91/3/1
f 97/3/1 94/3/1 93/3/1
f 106/3/1 96/3/1 95/3/1
f 107/3/1 97/3/1 93/3/1
f 108/3/1 99/3/1 98/3/1
f 109/3/1 99/3/1 108/3/1
f 110/3/1 101/3/1 100/3/1
f 111/3/1 101/3/1 110/3/1
f 112/3/1 103/3/1 102/3/1
f 113/3/1 103/3/1 112/3/1
f 114/3/1 105/3/1 104/3/1
f 115/3/1 105/3/1 114/3/1
f 116/3/1 96/3/1 106/3/1
f 117/3/1 107/3/1 93/3/1
f 118/3/1 113/3/1 112/3/1
f 118/3/1 115/3/1 114/3/1
f 118/3/1 116/3/1 115/3/1
f 118/3/1 109/3/1 108/3/1
f 118/3/1 114/3/1 113/3/1
f 118/3/1 111/3/1 110/3/1
f 118/3/1 112/3/1 111/3/1
f 118/3/1 110/3/1 109/3/1
f 119/3/1 96/3/1 116/3/1
f 119/3/1 116/3/1 118/3/1
f 120/3/1 117/3/1 93/3/1
f 121/3/1 117/3/1 120/3/1
f 122/3/2 123/3/2 126/3/2
f 124/3/2 125/3/2 135/3/2
f 122/3/2 126/3/2 136/3/2
f 127/3/2 128/3/2 137/3/2
f 137/3/2 128/3/2 138/3/2
f 129/3/2 130/3/2 139/3/2
f 139/3/2 130/3/2 140/3/2
f 131/3/2 132/3/2 141/3/2
f 141/3/2 132/3/2 142/3/2
f 133/3/2 134/3/2 143/3/2
f 143/3/2 134/3/2 144/3/2
f 135/3/2 125/3/2 145/3/2
f 122/3/2 136/3/2 146/3/2
f 141/3/2 142/3/2 147/3/2
f 143/3/2 144/3/2 147/3/2
f 144/3/2 145/3/2 147/3/2
f 137/3/2 138/3/2 147/3/2
f 142/3/2 143/3/2 147/3/2
f 139/3/2 140/3/2 147/3/2
f 140/3/2 141/3/2 147/3/2
f 138/3/2 139/3/2 147/3/2
f 145/3/2 125/3/2 148/3/2
f 147/3/2 145/3/2 148/3/2
f 122/3/2 146/3/2 149/3/2
f 149/3/2 146/3/2 150/3/2
f 151/3/2 152/3/2 153/3/2
f 153/3/2 152/3/2 154/3/2
f 155/3/2 156/3/2 157/3/2
f 157/3/2 156/3/2 158/3/2
f 159/3/2 160/3/2 161/3/2
f 161/3/2 160/3/2 162/3/2
f 165/3/2 166/3/2 167/3/2
f 167/3/2 166/3/2 168/3/2
f 163/3/2 164/3/2 169/3/2
f 163/3/2 169/3/2 170/3/2
f 170/3/2 169/3/2 171/3/2
f 172/3/2 173/3/2 174/3/2
f 174/3/2 173/3/2 175/3/2
f 176/3/2 177/3/2 178/3/2
f 178/3/2 177/3/2 179/3/2
f 180/3/2 181/3/2 182/3/2
f 182/3/2 181/3/2 183/3/2
f 184/3/2 185/3/2 186/3/2
f 186/3/2 185/3/2 187/3/2
f 188/3/2 189/3/2 190/3/2
f 190/3/2 189/3/2 191/3/2
f 194/3/2 195/3/2 196/3/2
f 196/3/2 195/3/2 197/3/2
f 192/3/2 193/3/2 198/3/2
f 192/3/2 198/3/2 199/3/2
f 199/3/2 198/3/2 200/3/2
f 201/3/2 202/3/2 203/3/2
f 203/3/2 202/3/2 204/3/2
f 205/3/2 206/3/2 207/3/2
f 207/3/2 206/3/2 208/3/2
f 209/3/2 210/3/2 211/3/2
f 211/3/2 210/3/2 212/3/2
f 213/3/2 214/3/2 215/3/2
f 215/3/2 214/3/2 216/3/2
f 217/3/2 218/3/2 219/3/2
f 219/3/2 218/3/2 220/3/2
f 220/3/2 218/3/2 221/3/2
f 221/3/2 218/3/2 222/3/2
f 222/3/2 218/3/2 223/3/2
f 223/3/2 218/3/2 224/3/2
f 224/3/2 218/3/2 225/3/2
f 225/3/2 218/3/2 226/3/2
f 226/3/2 218/3/2 227/3/2
f 227/3/2 218/3/2 228/3/2
f 217/3/2 219/3/2 229/3/2
f 220/3/2 221/3/2 230/3/2
f 230/3/2 221/3/2 231/3/2
f 222/3/2 223/3/2 232/3/2
f 232/3/2 223/3/2 233/3/2
f 224/3/2 225/3/2 234/3/2
f 234/3/2 225/3/2 235/3/2
f 226/3/2 227/3/2 236/3/2
f 236/3/2 227/3/2 237/3/2
f 228/3/2 218/3/2 238/3/2
f 236/3/2 237/3/2 239/3/2
f 237/3/2 238/3/2 239/3/2
f 234/3/2 235/3/2 239/3/2
f 217/3/2 229/3/2 239/3/2
f 235/3/2 236/3/2 239/3/2
f 232/3/2 233/3/2 239/3/2
f 233/3/2 234/3/2 239/3/2
f 230/3/2 231/3/2 239/3/2
f 231/3/2 232/3/2 239/3/2
f 229/3/2 230/3/2 239/3/2
f 238/3/2 218/3/2 240/3/2
f 239/3/2 238/3/2 240/3/2
f 217/3/2 239/3/2 241/3/2
f 241/3/2 239/3/2 242/3/2
f 245/3/3 244/3/3 243/3/3
f 246/3/3 244/3/3 245/3/3
f 249/3/3 248/3/3 247/3/3
f 250/3/3 248/3/3 249/3/3
f 253/3/3 252/3/3 251/3/3
f 254/3/3 252/3/3 253/3/3
f 257/3/3 256/3/3 255/3/3
f 258/3/3 256/3/3 257/3/3
f 263/3/3 260/3/3 259/3/3
f 264/3/3 262/3/3 261/3/3
f 265/3/3 263/3/3 259/3/3
f 265/3/3 264/3/3 263/3/3
f 266/3/3 262/3/3 264/3/3
f 266/3/3 264/3/3 265/3/3
f 267/3/3 265/3/3 259/3/3
f 268/3/3 262/3/3 266/3/3
f 269/3/3 267/3/3 259/3/3
f 269/3/3 268/3/3 267/3/3
f 270/3/3 262/3/3 268/3/3
f 270/3/3 268/3/3 269/3/3
f 271/3/3 269/3/3 259/3/3
f 272/3/3 262/3/3 270/3/3
f 273/3/3 271/3/3 259/3/3
f 273/3/3 272/3/3 271/3/3
f 274/3/3 262/3/3 272/3/3
f 274/3/3 272/3/3 273/3/3
f 275/3/3 273/3/3 259/3/3
f 276/3/3 262/3/3 274/3/3
f 277/3/3 275/3/3 259/3/3
f 277/3/3 276/3/3 275/3/3
f 278/3/3 262/3/3 276/3/3
f 278/3/3 276/3/3 277/3/3
f 281/3/3 280/3/3 279/3/3
f 282/3/3 280/3/3 281/3/3
f 283/3/3 281/3/3 279/3/3
f 284/3/3 280/3/3 282/3/3
f 285/3/3 283/3/3 279/3/3
f 285/3/3 284/3/3 283/3/3
f 286/3/3 280/3/3 284/3/3
f 286/3/3 284/3/3 285/3/3
f 287/3/3 285/3/3 279/3/3
f 288/3/3 280/3/3 286/3/3
f 289/3/3 287/3/3 279/3/3
f 289/3/3 288/3/3 287/3/3
f 290/3/3 280/3/3 288/3/3
f 290/3/3 288/3/3 289/3/3
f 291/3/3 289/3/3 279/3/3
f 292/3/3 280/3/3 290/3/3
f 293/3/3 291/3/3 279/3/3
f 293/3/3 292/3/3 291/3/3
f 294/3/3 280/3/3 292/3/3
f 294/3/3 292/3/3 293/3/3
f 295/3/3 293/3/3 279/3/3
f 296/3/3 280/3/3 294/3/3
f 297/3/3 295/3/3 279/3/3
f 297/3/3 296/3/3 295/3/3
f 298/3/3 280/3/3 296/3/3
f 298/3/3 296/3/3 297/3/3
f 299/3/3 297/3/3 279/3/3
f 300/3/3 280/3/3 298/3/3
f 301/3/3 299/3/3 279/3/3
f 301/3/3 300/3/3 299/3/3
f 302/3/3 280/3/3 300/3/3
f 302/3/3 300/3/3 301/3/3
f 305/3/3 304/3/3 303/3/3
f 306/3/3 304/3/3 305/3/3
f 307/3/3 305/3/3 303/3/3
f 308/3/3 304/3/3 306/3/3
f 309/3/3 307/3/3 303/3/3
f 309/3/3 308/3/3 307/3/3
f 310/3/3 304/3/3 308/3/3
f 310/3/3 308/3/3 309/3/3
f 311/3/3 309/3/3 303/3/3
f 312/3/3 304/3/3 310/3/3
f 313/3/3 311/3/3 303/3/3
f 313/3/3 312/3/3 311/3/3
f 314/3/3 304/3/3 312/3/3
f 314/3/3 312/3/3 313/3/3
f 315/3/3 313/3/3 303/3/3
f 316/3/3 304/3/3 314/3/3
f 317/3/3 315/3/3 303/3/3
f 317/3/3 316/3/3 315/3/3
f 318/3/3 304/3/3 316/3/3
f 318/3/3 316/3/3 317/3/3
f 319/3/3 317/3/3 303/3/3
f 320/3/3 317/3/3 319/3/3
f 321/3/3 304/3/3 318/3/3
f 322/3/3 304/3/3 321/3/3
f 325/3/3 324/3/3 323/3/3
f 326/3/3 324/3/3 325/3/3
f 329/3/3 328/3/3 327/3/3
f 330/3/3 328/3/3 329/3/3
f 333/3/3 332/3/3 331/3/3
f 334/3/3 332/3/3 333/3/3
f 337/3/3 336/3/3 335/3/3
f 338/3/3 336/3/3 337/3/3
f 341/3/3 340/3/3 339/3/3
f 342/3/3 340/3/3 341/3/3
f 345/3/3 344/3/3 343/3/3
f 346/3/3 344/3/3 345/3/3
f 349/3/3 348/3/3 347/3/3
f 350/3/3 348/3/3 349/3/3
f 353/3/3 352/3/3 351/3/3
f 354/3/3 352/3/3 353/3/3
f 357/3/3 356/3/3 355/3/3
f 358/3/3 356/3/3 357/3/3
f 361/3/3 360/3/3 359/3/3
f 362/3/3 360/3/3 361/3/3
f 363/3/4 364/3/4 367/3/4
f 367/3/4 364/3/4 368/3/4
f 365/3/4 366/3/4 369/3/4
f 369/3/4 366/3/4 370/3/4
f 371/3/4 372/3/4 373/3/4
f 373/3/4 372/3/4 374/3/4
f 375/3/4 376/3/4 377/3/4
f 377/3/4 376/3/4 378/3/4
f 379/3/4 380/3/4 383/3/4
f 383/3/4 380/3/4 384/3/4
f 381/3/4 382/3/4 385/3/4
f 385/3/4 382/3/4 386/3/4
f 387/3/4 388/3/4 390/3/4
f 389/3/4 390/3/4 391/3/4
f 390/3/4 388/3/4 392/3/4
f 391/3/4 390/3/4 392/3/4
f 392/3/4 388/3/4 394/3/4
f 393/3/4 394/3/4 395/3/4
f 394/3/4 388/3/4 396/3/4
f 395/3/4 394/3/4 396/3/4
f 396/3/4 388/3/4 398/3/4
f 397/3/4 398/3/4 399/3/4
f 398/3/4 388/3/4 400/3/4
f 399/3/4 398/3/4 400/3/4
f 400/3/4 388/3/4 402/3/4
f 401/3/4 402/3/4 403/3/4
f 402/3/4 388/3/4 404/3/4
f 403/3/4 402/3/4 404/3/4
f 404/3/4 388/3/4 406/3/4
f 405/3/4 406/3/4 407/3/4
f 406/3/4 388/3/4 408/3/4
f 407/3/4 406/3/4 408/3/4
f 408/3/4 388/3/4 410/3/4
f 409/3/4 410/3/4 411/3/4
f 410/3/4 388/3/4 412/3/4
f 411/3/4 410/3/4 412/3/4
f 412/3/4 388/3/4 414/3/4
f 413/3/4 414/3/4 415/3/4
f 414/3/4 388/3/4 416/3/4
f 415/3/4 414/3/4 416/3/4
f 416/3/4 388/3/4 418/3/4
f 417/3/4 418/3/4 419/3/4
f 418/3/4 388/3/4 420/3/4
f 419/3/4 418/3/4 420/3/4
f 420/3/4 388/3/4 422/3/4
f 421/3/4 422/3/4 423/3/4
f 422/3/4 388/3/4 424/3/4
f 423/3/4 422/3/4 424/3/4
f 424/3/4 388/3/4 426/3/4
f 425/3/4 426/3/4 427/3/4
f 426/3/4 388/3/4 428/3/4
f 427/3/4 426/3/4 428/3/4
f 428/3/4 388/3/4 430/3/4
f 429/3/4 430/3/4 431/3/4
f 430/3/4 388/3/4 432/3/4
f 431/3/4 430/3/4 432/3/4
f 432/3/4 388/3/4 434/3/4
f 433/3/4 434/3/4 435/3/4
f 434/3/4 388/3/4 436/3/4
f 435/3/4 434/3/4 436/3/4
f 436/3/4 388/3/4 438/3/4
f 437/3/4 438/3/4 439/3/4
f 438/3/4 388/3/4 440/3/4
f 439/3/4 438/3/4 440/3/4
f 440/3/4 388/3/4 442/3/4
f 441/3/4 442/3/4 443/3/4
f 442/3/4 388/3/4 444/3/4
f 443/3/4 442/3/4 444/3/4
f 444/3/4 388/3/4 445/3/4
f 445/3/4 388/3/4 446/3/4
f 447/3/4 448/3/4 449/3/4
f 449/3/4 448/3/4 450/3/4
f 451/3/4 452/3/4 453/3/4
f 453/3/4 452/3/4 454/3/4
f 455/3/4 456/3/4 457/3/4
f 457/3/4 456/3/4 458/3/4
f 459/3/4 460/3/4 461/3/4
f 461/3/4 460/3/4 462/3/4
f 463/3/4 464/3/4 465/3/4
f 465/3/4 464/3/4 466/3/4
f 467/3/4 468/3/4 469/3/4
f 469/3/4 468/3/4 470/3/4
f 471/3/4 472/3/4 473/3/4
f 473/3/4 472/3/4 474/3/4
f 475/3/4 476/3/4 477/3/4
f 477/3/4 476/3/4 478/3/4
f 479/3/4 480/3/4 481/3/4
f 481/3/4 480/3/4 482/3/4
f 483/3/4 484/3/4 485/3/4
f 485/3/4 484/3/4 486/3/4
f 487/1/4 488/1/4 489/1/4
f 489/1/4 488/1/4 490/1/4
f 491/3/4 492/3/4 493/3/4
f 493/3/4 492/3/4 494/3/4
f 495/3/4 496/3/4 497/3/4
f 497/3/4 496/3/4 498/3/4
f 507/3/5 500/3/5 499/3/5
f 508/3/5 502/3/5 501/3/5
f 509/3/5 502/3/5 508/3/5
f 510/3/5 504/3/5 503/3/5
f 511/3/5 504/3/5 510/3/5
f 512/3/5 506/3/5 505/3/5
f 513/3/5 511/3/5 510/3/5
f 513/3/5 512/3/5 511/3/5
f 513/3/5 507/3/5 499/3/5
f 513/3/5 509/3/5 508/3/5
f 513/3/5 510/3/5 509/3/5
f 513/3/5 508/3/5 507/3/5
f 514/3/5 506/3/5 512/3/5
f 514/3/5 512/3/5 513/3/5
f 515/3/5 513/3/5 499/3/5
f 515/2/5 514/2/5 513/2/5
f 516/3/5 506/3/5 514/3/5
f 516/2/5 514/2/5 515/2/5
f 517/3/5 515/3/5 499/3/5
f 517/1/5 516/1/5 515/1/5
f 518/3/5 506/3/5 516/3/5
f 518/1/5 516/1/5 517/1/5
f 519/3/5 517/3/5 499/3/5
f 519/2/5 518/2/5 517/2/5
f 520/3/5 506/3/5 518/3/5
f 520/2/5 518/2/5 519/2/5
f 521/3/5 519/3/5 499/3/5
f 521/1/5 520/1/5 519/1/5
f 522/3/5 506/3/5 520/3/5
f 522/1/5 520/1/5 521/1/5
f 523/3/5 521/3/5 499/3/5
f 523/2/5 522/2/5 521/2/5
f 524/3/5 506/3/5 522/3/5
f 524/2/5 522/2/5 523/2/5
f 525/3/5 523/3/5 499/3/5
f 525/1/5 524/1/5 523/1/5
f 526/3/5 506/3/5 524/3/5
f 526/1/5 524/1/5 525/1/5
f 527/3/5 525/3/5 499/3/5
f 527/2/5 526/2/5 525/2/5
f 528/3/5 506/3/5 526/3/5
f 528/2/5 526/2/5 527/2/5
f 529/3/5 527/3/5 499/3/5
f 529/1/5 528/1/5 527/1/5
f 530/3/5 506/3/5 528/3/5
f 530/1/5 528/1/5 529/1/5
f 531/3/5 529/3/5 499/3/5
f 532/3/5 529/3/5 531/3/5
f 533/3/5 506/3/5 530/3/5
f 534/3/5 506/3/5 533/3/5
f 563/3/5 536/3/5 535/3/5
f 563/3/5 537/3/5 536/3/5
f 564/3/5 537/3/5 563/3/5
f 565/3/5 537/3/5 564/3/5
f 566/3/5 539/3/5 538/3/5
f 567/3/5 539/3/5 566/3/5
f 568/3/5 541/3/5 540/3/5
f 569/3/5 541/3/5 568/3/5
f 570/3/5 543/3/5 542/3/5
f 571/3/5 543/3/5 570/3/5
f 572/3/5 545/3/5 544/3/5
f 573/3/5 545/3/5 572/3/5
f 574/3/5 547/3/5 546/3/5
f 575/3/5 547/3/5 574/3/5
f 576/3/5 549/3/5 548/3/5
f 577/3/5 549/3/5 576/3/5
f 578/3/5 551/3/5 550/3/5
f 579/3/5 551/3/5 578/3/5
f 580/3/5 553/3/5 552/3/5
f 581/3/5 553/3/5 580/3/5
f 582/3/5 555/3/5 554/3/5
f 583/3/5 555/3/5 582/3/5
f 584/3/5 557/3/5 556/3/5
f 585/3/5 557/3/5 584/3/5
f 586/3/5 559/3/5 558/3/5
f 587/3/5 559/3/5 586/3/5
f 588/3/5 562/3/5 561/3/5
f 588/3/5 561/3/5 560/3/5
f 589/3/5 562/3/5 588/3/5
f 590/3/5 562/3/5 589/3/5
f 595/3/5 592/3/5 591/3/5
f 596/3/5 592/3/5 595/3/5
f 597/3/5 594/3/5 593/3/5
f 598/3/5 594/3/5 597/3/5
f 603/3/5 600/3/5 599/3/5
f 604/3/5 600/3/5 603/3/5
f 605/3/5 602/3/5 601/3/5
f 606/3/5 602/3/5 605/3/5
f 611/3/5 608/3/5 607/3/5
f 612/3/5 608/3/5 611/3/5
f 613/3/5 610/3/5 609/3/5
f 614/3/5 610/3/5 613/3/5
f 619/3/5 616/3/5 615/3/5
f 620/3/5 616/3/5 619/3/5
f 621/3/5 618/3/5 617/3/5
f 622/3/5 618/3/5 621/3/5
f 623/3/6 624/3/6 651/3/6
f 624/3/6 625/3/6 651/3/6
f 651/3/6 625/3/6 652/3/6
f 652/3/6 625/3/6 653/3/6
f 626/3/6 627/3/6 654/3/6
f 654/3/6 627/3/6 655/3/6
f 628/3/6 629/3/6 656/3/6
f 656/3/6 629/3/6 657/3/6
f 630/3/6 631/3/6 658/3/6
f 658/3/6 631/3/6 659/3/6
f 632/3/6 633/3/6 662/3/6
f 662/3/6 633/3/6 663/3/6
f 634/3/6 635/3/6 664/3/6
f 664/3/6 635/3/6 665/3/6
f 636/3/6 637/3/6 666/3/6
f 666/3/6 637/3/6 667/3/6
f 638/3/6 639/3/6 668/3/6
f 668/3/6 639/3/6 669/3/6
f 640/3/6 641/3/6 670/3/6
f 670/3/6 641/3/6 671/3/6
f 642/3/6 643/3/6 674/3/6
f 674/3/6 643/3/6 675/3/6
f 644/3/6 645/3/6 676/3/6
f 676/3/6 645/3/6 677/3/6
f 646/3/6 647/3/6 678/3/6
f 678/3/6 647/3/6 679/3/6
f 649/3/6 650/3/6 680/3/6
f 648/3/6 649/3/6 680/3/6
f 680/3/6 650/3/6 681/3/6
f 681/3/6 650/3/6 682/3/6
f 652/2/6 653/2/6 684/2/6
f 654/2/6 655/2/6 684/2/6
f 656/2/6 657/2/6 684/2/6
f 659/2/6 660/2/6 684/2/6
f 653/2/6 654/2/6 684/2/6
f 655/2/6 656/2/6 684/2/6
f 657/2/6 658/2/6 684/2/6
f 658/2/6 659/2/6 684/2/6
f 684/2/6 660/2/6 685/2/6
f 662/2/6 663/2/6 686/2/6
f 664/2/6 665/2/6 686/2/6
f 666/2/6 667/2/6 686/2/6
f 668/2/6 669/2/6 686/2/6
f 670/2/6 671/2/6 686/2/6
f 669/2/6 670/2/6 686/2/6
f 671/2/6 672/2/6 686/2/6
f 667/2/6 668/2/6 686/2/6
f 661/2/6 662/2/6 686/2/6
f 665/2/6 666/2/6 686/2/6
f 663/2/6 664/2/6 686/2/6
f 686/2/6 672/2/6 687/2/6
f 678/2/6 679/2/6 688/2/6
f 677/2/6 678/2/6 688/2/6
f 680/2/6 681/2/6 688/2/6
f 679/2/6 680/2/6 688/2/6
f 674/2/6 675/2/6 688/2/6
f 676/2/6 677/2/6 688/2/6
f 675/2/6 676/2/6 688/2/6
f 673/2/6 674/2/6 688/2/6
f 688/2/6 681/2/6 689/2/6
f 683/3/6 684/3/6 691/3/6
f 686/1/6 687/1/6 692/1/6
f 691/3/6 684/3/6 692/3/6
f 685/1/6 686/1/6 692/1/6
f 688/1/6 689/1/6 692/1/6
f 687/1/6 688/1/6 692/1/6
f 684/1/6 685/1/6 692/1/6
f 689/3/6 690/3/6 693/3/6
f 692/1/6 689/1/6 693/1/6
f 693/3/6 690/3/6 694/3/6
f 692/2/6 693/2/6 696/2/6
f 696/2/6 693/2/6 697/2/6
f 695/3/6 696/3/6 699/3/6
f 696/1/6 697/1/6 700/1/6
f 699/3/6 696/3/6 700/3/6
f 697/3/6 698/3/6 701/3/6
f 700/1/6 697/1/6 701/1/6
f 701/3/6 698/3/6 702/3/6
f 700/2/6 701/2/6 704/2/6
f 704/2/6 701/2/6 705/2/6
f 703/3/6 704/3/6 707/3/6
f 704/1/6 705/1/6 708/1/6
f 707/3/6 704/3/6 708/3/6
f 705/3/6 706/3/6 709/3/6
f 708/1/6 705/1/6 709/1/6
f 709/3/6 706/3/6 710/3/6
f 708/2/6 709/2/6 712/2/6
f 712/2/6 709/2/6 713/2/6
f 711/3/6 712/3/6 715/3/6
f 712/1/6 713/1/6 716/1/6
f 715/3/6 712/3/6 716/3/6
f 713/3/6 714/3/6 717/3/6
f 716/1/6 713/1/6 717/1/6
f 717/3/6 714/3/6 718/3/6
f 719/3/6 720/3/6 723/3/6
f 723/3/6 720/3/6 724/3/6
f 721/3/6 722/3/6 725/3/6
f 725/3/6 722/3/6 726/3/6
f 727/3/6 728/3/6 735/3/6
f 733/3/6 734/3/6 735/3/6
f 732/3/6 733/3/6 735/3/6
f 731/3/6 732/3/6 735/3/6
f 730/3/6 731/3/6 735/3/6
f 729/3/6 730/3/6 735/3/6
f 728/3/6 729/3/6 735/3/6
f 735/3/6 734/3/6 736/3/6
f 727/3/6 735/3/6 737/3/6
f 737/3/6 735/3/6 738/3/6
f 736/3/6 734/3/6 739/3/6
f 739/3/6 734/3/6 740/3/6
f 741/3/6 742/3/6 749/3/6
f 749/3/6 742/3/6 750/3/6
f 743/3/6 744/3/6 751/3/6
f 751/3/6 744/3/6 752/3/6
f 745/3/6 746/3/6 753/3/6
f 753/3/6 746/3/6 754/3/6
f 747/3/6 748/3/6 755/3/6
f 755/3/6 748/3/6 756/3/6
