# Blender 5.0.0
# www.blender.org
mtllib column.mtl
o column
v 0.382127 0.168365 -0.000000
v 0.375712 0.192512 -0.000000
v 0.356732 0.211731 -0.000000
v 0.316425 0.234106 -0.000000
v 0.201971 3.702361 0.083659
v 0.154582 3.702361 0.154582
v 0.083659 3.702361 0.201971
v 0.000000 3.702361 0.218612
v -0.083659 3.702361 0.201971
v -0.154582 3.702361 0.154582
v 0.356732 0.125000 -0.000000
v 0.375712 0.144218 -0.000000
v 0.353040 0.168365 -0.146234
v 0.347113 0.192512 -0.143779
v 0.329577 0.211731 -0.136515
v 0.292338 0.234106 -0.121090
v -0.201971 3.702361 0.083659
v -0.218612 3.702361 -0.000000
v -0.201971 3.702361 -0.083659
v -0.154582 3.702361 -0.154582
v -0.083659 3.702361 -0.201971
v 0.000000 3.702361 -0.218612
v 0.329577 0.125000 -0.136515
v 0.347113 0.144218 -0.143779
v 0.270205 0.168365 -0.270205
v 0.265668 0.192512 -0.265669
v 0.252247 0.211731 -0.252247
v 0.223746 0.234106 -0.223746
v 0.083659 3.702361 -0.201971
v 0.154582 3.702361 -0.154582
v 0.201971 3.702361 -0.083659
v 0.218612 3.702361 -0.000000
v 0.218013 3.642172 -0.090304
v 0.166860 3.642172 -0.166860
v 0.252247 0.125000 -0.252247
v 0.265668 0.144218 -0.265669
v 0.146234 0.168365 -0.353040
v 0.143779 0.192512 -0.347113
v 0.136515 0.211731 -0.329577
v 0.121091 0.234106 -0.292338
v -0.090304 3.642172 -0.218013
v -0.166860 3.642172 -0.166860
v -0.235976 3.642172 -0.000000
v -0.218013 3.642172 0.090304
v 0.000000 3.642172 0.235976
v 0.090304 3.642172 0.218013
v 0.136515 0.125000 -0.329577
v 0.143779 0.144218 -0.347113
v 0.000000 0.168365 -0.382127
v 0.000000 0.192512 -0.375712
v 0.000000 0.211731 -0.356732
v 0.000000 0.234106 -0.316425
v 0.000000 3.642172 -0.235976
v 0.235975 3.642172 -0.000000
v -0.090304 3.642172 0.218013
v -0.218013 3.642172 -0.090304
v -0.166860 3.642172 0.166860
v 0.166860 3.642172 0.166860
v 0.000000 0.125000 -0.356732
v 0.000000 0.144218 -0.375712
v -0.146234 0.168365 -0.353040
v -0.143779 0.192512 -0.347113
v -0.136515 0.211731 -0.329577
v -0.121091 0.234106 -0.292338
v 0.218013 3.642172 0.090304
v 0.090304 3.642172 -0.218013
v 0.240623 3.656967 -0.000000
v 0.222307 3.656967 -0.092082
v 0.170146 3.656967 -0.170146
v 0.092082 3.656967 -0.222307
v -0.136515 0.125000 -0.329577
v -0.143779 0.144218 -0.347113
v -0.270205 0.168365 -0.270205
v -0.265669 0.192512 -0.265668
v -0.252247 0.211731 -0.252247
v -0.223746 0.234106 -0.223746
v 0.000000 3.656967 -0.240623
v -0.092082 3.656967 -0.222307
v -0.170146 3.656967 -0.170146
v -0.222307 3.656967 -0.092082
v -0.240623 3.656967 -0.000000
v -0.222307 3.656967 0.092082
v -0.252247 0.125000 -0.252247
v -0.265669 0.144218 -0.265668
v -0.353040 0.168365 -0.146234
v -0.347113 0.192512 -0.143779
v -0.329577 0.211731 -0.136515
v -0.292338 0.234106 -0.121090
v -0.170146 3.656967 0.170146
v -0.092082 3.656967 0.222307
v 0.000000 3.656967 0.240623
v 0.092082 3.656967 0.222307
v 0.170146 3.656967 0.170146
v 0.222307 3.656967 0.092083
v -0.329577 0.125000 -0.136515
v -0.347113 0.144218 -0.143779
v -0.382127 0.168365 -0.000000
v -0.375712 0.192512 -0.000000
v -0.356732 0.211731 -0.000000
v -0.316425 0.234106 -0.000000
v 0.203617 3.628964 0.084341
v 0.155841 3.628964 0.155842
v 0.084341 3.628964 0.203617
v 0.000000 3.628964 0.220393
v -0.084341 3.628964 0.203617
v -0.155842 3.628964 0.155841
v -0.356732 0.125000 -0.000000
v -0.375712 0.144218 -0.000000
v -0.353040 0.168365 0.146234
v -0.347113 0.192512 0.143779
v -0.329577 0.211731 0.136515
v -0.292338 0.234106 0.121090
v -0.203617 3.628964 0.084341
v -0.220393 3.628964 -0.000000
v -0.203617 3.628964 -0.084341
v -0.155842 3.628964 -0.155841
v -0.084341 3.628964 -0.203617
v 0.000000 3.628964 -0.220393
v -0.329577 0.125000 0.136515
v -0.347113 0.144218 0.143779
v -0.270205 0.168365 0.270205
v -0.265669 0.192512 0.265668
v -0.252247 0.211731 0.252247
v -0.223746 0.234106 0.223746
v 0.084341 3.628964 -0.203617
v 0.155842 3.628964 -0.155842
v 0.203617 3.628964 -0.084341
v 0.220393 3.628964 -0.000000
v 0.257320 1.994693 -0.005693
v 0.237647 1.994693 -0.104598
v -0.252247 0.125000 0.252247
v -0.265669 0.144218 0.265668
v -0.146234 0.168365 0.353040
v -0.143779 0.192512 0.347113
v -0.136515 0.211731 0.329577
v -0.121091 0.234106 0.292338
v 0.181621 1.994693 -0.188446
v 0.097773 1.994693 -0.244472
v -0.001132 1.994693 -0.264145
v -0.100038 1.994693 -0.244472
v -0.183886 1.994693 -0.188446
v -0.239911 1.994693 -0.104598
v -0.136515 0.125000 0.329577
v -0.143779 0.144218 0.347113
v 0.000000 0.168365 0.382127
v 0.000000 0.192512 0.375712
v 0.000000 0.211731 0.356732
v 0.000000 0.234106 0.316425
v -0.259585 1.994693 -0.005693
v -0.239911 1.994693 0.093213
v -0.183886 1.994693 0.177061
v -0.100038 1.994693 0.233086
v -0.001132 1.994693 0.252760
v 0.097773 1.994693 0.233086
v 0.000000 0.125000 0.356732
v 0.000000 0.144218 0.375712
v 0.146234 0.168365 0.353040
v 0.143779 0.192512 0.347113
v 0.136515 0.211731 0.329577
v 0.121091 0.234106 0.292338
v 0.181621 1.994693 0.177061
v 0.237647 1.994693 0.093213
v 0.253309 0.271154 0.104924
v 0.193874 0.271154 0.193874
v 0.104924 0.271154 0.253309
v 0.000000 0.271154 0.274180
v 0.136515 0.125000 0.329577
v 0.143779 0.144218 0.347113
v 0.270205 0.168365 0.270205
v 0.265668 0.192512 0.265669
v 0.252247 0.211731 0.252248
v 0.223746 0.234106 0.223746
v -0.104924 0.271154 0.253309
v -0.193874 0.271154 0.193874
v -0.253309 0.271154 0.104924
v -0.274180 0.271154 -0.000000
v -0.253309 0.271154 -0.104924
v -0.193874 0.271154 -0.193874
v 0.252247 0.125000 0.252248
v 0.265668 0.144218 0.265669
v 0.353040 0.168365 0.146234
v 0.347113 0.192512 0.143779
v 0.329577 0.211731 0.136515
v 0.292338 0.234106 0.121091
v -0.104924 0.271154 -0.253309
v 0.000000 0.271154 -0.274180
v 0.104924 0.271154 -0.253309
v 0.193874 0.271154 -0.193874
v 0.253309 0.271154 -0.104924
v 0.274180 0.271154 -0.000000
v 0.329577 0.125000 0.136515
v 0.347113 0.144218 0.143779
v -0.097702 3.665835 0.235875
v -0.098890 3.679334 0.238740
v -0.091057 3.700773 0.219830
v 0.219830 3.700773 0.091057
v 0.238740 3.679334 0.098890
v 0.235875 3.665835 0.097703
v -0.180531 3.665835 0.180531
v -0.182724 3.679334 0.182724
v -0.168251 3.700773 0.168250
v 0.180531 3.665835 0.180531
v 0.182724 3.679334 0.182724
v 0.168250 3.700773 0.168251
v 0.097703 3.665835 0.235875
v 0.098890 3.679334 0.238740
v 0.091057 3.700773 0.219830
v 0.000000 3.700773 0.237942
v 0.000000 3.679334 0.258411
v 0.000000 3.665835 0.255309
v 0.180531 3.665835 -0.180531
v 0.182724 3.679334 -0.182724
v 0.168250 3.700773 -0.168250
v -0.180531 3.665835 -0.180531
v -0.182724 3.679334 -0.182724
v -0.168251 3.700773 -0.168250
v 0.235875 3.665835 -0.097702
v 0.238740 3.679334 -0.098890
v 0.219830 3.700773 -0.091056
v 0.237942 3.700773 -0.000000
v 0.258411 3.679334 -0.000000
v 0.255309 3.665835 -0.000000
v -0.097702 3.665835 -0.235875
v -0.098890 3.679334 -0.238740
v -0.091057 3.700773 -0.219830
v -0.235875 3.665835 0.097702
v -0.238741 3.679334 0.098889
v -0.219830 3.700773 0.091056
v 0.000000 3.665835 -0.255309
v 0.000000 3.679334 -0.258411
v 0.000000 3.700773 -0.237942
v 0.091057 3.700773 -0.219830
v 0.098890 3.679334 -0.238740
v 0.097703 3.665835 -0.235875
v -0.255309 3.665835 -0.000000
v -0.258411 3.679334 -0.000000
v -0.237942 3.700773 -0.000000
v -0.219830 3.700773 -0.091057
v -0.238740 3.679334 -0.098890
v -0.235875 3.665835 -0.097702
v 0.097201 3.692039 0.234664
v 0.179604 3.692039 0.179604
v -0.179604 3.692039 0.179604
v 0.234664 3.692039 0.097201
v -0.097201 3.692039 0.234664
v 0.000000 3.692039 0.253998
v 0.179604 3.692039 -0.179604
v -0.179604 3.692039 -0.179604
v 0.234664 3.692039 -0.097201
v 0.253998 3.692039 -0.000000
v -0.097201 3.692039 -0.234664
v -0.234664 3.692039 0.097201
v 0.000000 3.692039 -0.253998
v 0.097201 3.692039 -0.234664
v -0.253998 3.692039 -0.000000
v -0.234664 3.692039 -0.097201
v 0.201971 3.763409 0.083659
v 0.154582 3.763409 0.154582
v 0.083659 3.763409 0.201971
v 0.000000 3.763409 0.218612
v -0.083659 3.763409 0.201971
v -0.154582 3.763409 0.154582
v -0.201971 3.763409 0.083659
v -0.218612 3.763409 -0.000000
v -0.201971 3.763409 -0.083659
v -0.154582 3.763409 -0.154582
v -0.083659 3.763409 -0.201971
v 0.000000 3.763409 -0.218612
v 0.083659 3.763409 -0.201971
v 0.154582 3.763409 -0.154582
v 0.201971 3.763409 -0.083659
v 0.218612 3.763409 -0.000000
v 0.224166 3.791201 0.092853
v 0.171569 3.791201 0.171570
v 0.092853 3.791201 0.224166
v 0.000000 3.791201 0.242636
v -0.092853 3.791201 0.224166
v -0.171570 3.791201 0.171570
v -0.224167 3.791201 0.092853
v -0.242636 3.791201 -0.000000
v -0.224166 3.791201 -0.092853
v -0.171570 3.791201 -0.171570
v -0.092853 3.791201 -0.224166
v 0.000000 3.791201 -0.242636
v 0.092853 3.791201 -0.224166
v 0.171570 3.791201 -0.171570
v 0.224166 3.791201 -0.092853
v 0.242636 3.791201 -0.000000
v -0.164357 3.768394 0.164357
v -0.088949 3.768394 0.214743
v 0.164357 3.768394 -0.164357
v 0.088949 3.768394 -0.214743
v -0.214743 3.768394 0.088949
v 0.214743 3.768394 -0.088949
v -0.232436 3.768394 -0.000000
v 0.232436 3.768394 -0.000000
v -0.214743 3.768394 -0.088949
v 0.164357 3.768394 0.164357
v 0.214743 3.768394 0.088949
v -0.164357 3.768394 -0.164357
v 0.088949 3.768394 0.214743
v -0.088949 3.768394 -0.214743
v 0.000000 3.768394 0.232436
v 0.000000 3.768394 -0.232436
v -0.092006 3.777812 0.222122
v 0.092006 3.777812 -0.222122
v 0.222122 3.777812 0.092006
v -0.170005 3.777812 0.170005
v 0.170005 3.777812 -0.170005
v -0.222122 3.777812 0.092006
v 0.222122 3.777812 -0.092006
v -0.240423 3.777812 -0.000000
v 0.240423 3.777812 -0.000000
v -0.222122 3.777812 -0.092006
v 0.170005 3.777812 0.170005
v -0.170005 3.777812 -0.170005
v 0.092006 3.777812 0.222122
v -0.092006 3.777812 -0.222122
v 0.000000 3.777812 0.240423
v 0.000000 3.777812 -0.240423
v 0.263296 3.875000 0.109061
v 0.201518 3.875000 0.201519
v 0.109061 3.875000 0.263297
v 0.000000 3.875000 0.284990
v -0.109061 3.875000 0.263297
v -0.201518 3.875000 0.201518
v -0.263297 3.875000 0.109061
v -0.284990 3.875000 -0.000000
v -0.263297 3.875000 -0.109061
v -0.201518 3.875000 -0.201518
v -0.109061 3.875000 -0.263296
v 0.000000 3.875000 -0.284990
v 0.109061 3.875000 -0.263296
v 0.201518 3.875000 -0.201518
v 0.263297 3.875000 -0.109061
v 0.284990 3.875000 -0.000000
v -0.106880 3.842303 -0.258030
v -0.101309 3.809606 -0.244581
v -0.187195 3.809606 -0.187195
v -0.197488 3.842303 -0.197488
v 0.000000 3.842303 0.279290
v 0.000000 3.809606 0.264733
v 0.101309 3.809606 0.244581
v 0.106880 3.842303 0.258030
v 0.000000 3.842303 -0.279290
v 0.000000 3.809606 -0.264733
v -0.106880 3.842303 0.258030
v -0.101309 3.809606 0.244582
v 0.106880 3.842303 -0.258030
v 0.101309 3.809606 -0.244581
v -0.197488 3.842303 0.197488
v -0.187195 3.809606 0.187195
v 0.197488 3.842303 -0.197488
v 0.187195 3.809606 -0.187195
v -0.258030 3.842303 0.106880
v -0.244582 3.809606 0.101309
v 0.258030 3.842303 -0.106880
v 0.244581 3.809606 -0.101309
v -0.279290 3.842303 -0.000000
v -0.264733 3.809606 -0.000000
v 0.279290 3.842303 -0.000000
v 0.264733 3.809606 -0.000000
v -0.258030 3.842303 -0.106880
v -0.244582 3.809606 -0.101309
v 0.197488 3.842303 0.197488
v 0.187194 3.809606 0.187195
v 0.244581 3.809606 0.101309
v 0.258030 3.842303 0.106880
v -0.375000 0.000000 0.375000
v -0.375000 0.125000 0.375000
v -0.375000 -0.000000 -0.375000
v -0.375000 0.125000 -0.375000
v 0.375000 0.000000 0.375000
v 0.375000 0.125000 0.375000
v 0.375000 -0.000000 -0.375000
v 0.375000 0.125000 -0.375000
v -0.300001 3.875000 0.300001
v -0.300001 4.000000 0.300001
v -0.300001 3.875000 -0.300001
v -0.300001 4.000000 -0.300001
v 0.300001 3.875000 0.300001
v 0.300001 4.000000 0.300001
v 0.300001 3.875000 -0.300001
v 0.300001 4.000000 -0.300001
vn 1.0000 -0.0000 -0.0000
vn 0.9239 -0.0000 -0.3827
vn 0.8089 0.4831 -0.3351
vn 0.8756 0.4831 -0.0000
vn 0.5687 0.7881 -0.2356
vn 0.6155 0.7881 -0.0000
vn 0.5235 0.8240 -0.2168
vn 0.5666 0.8240 -0.0000
vn -0.1978 -0.8560 -0.4776
vn -0.3655 -0.8560 -0.3655
vn -0.5837 -0.5645 -0.5837
vn -0.3159 -0.5645 -0.7626
vn -0.5974 -0.7628 0.2474
vn -0.4572 -0.7628 0.4572
vn -0.5962 -0.5377 0.5962
vn -0.7790 -0.5377 0.3227
vn -0.4572 -0.7628 -0.4572
vn -0.5974 -0.7628 -0.2474
vn -0.7790 -0.5377 -0.3227
vn -0.5962 -0.5377 -0.5962
vn 0.4572 -0.7628 -0.4572
vn 0.2474 -0.7628 -0.5974
vn 0.3227 -0.5377 -0.7790
vn 0.5962 -0.5377 -0.5962
vn -0.0000 -0.7628 -0.6466
vn -0.0000 -0.5377 -0.8431
vn 0.2474 -0.7628 0.5974
vn 0.4572 -0.7628 0.4572
vn 0.5962 -0.5377 0.5962
vn 0.3227 -0.5377 0.7790
vn 0.7802 0.6255 -0.0000
vn 0.7208 0.6255 -0.2986
vn 0.2858 0.9509 -0.1184
vn 0.3094 0.9509 -0.0000
vn 0.7115 -0.7027 -0.0000
vn 0.6573 -0.7027 -0.2723
vn 0.8089 -0.4831 -0.3351
vn 0.8756 -0.4831 -0.0000
vn 0.7071 -0.0000 -0.7071
vn 0.6191 0.4831 -0.6191
vn 0.4353 0.7881 -0.4353
vn 0.4007 0.8240 -0.4007
vn 0.8255 -0.5645 -0.0000
vn 0.7626 -0.5645 -0.3159
vn 0.9226 0.0524 -0.3822
vn 0.9986 0.0524 -0.0000
vn 0.5974 -0.7628 0.2474
vn 0.6466 -0.7628 -0.0000
vn 0.8431 -0.5377 -0.0000
vn 0.7790 -0.5377 0.3227
vn -0.2474 -0.7628 0.5974
vn -0.3227 -0.5377 0.7790
vn -0.6466 -0.7628 -0.0000
vn -0.8432 -0.5377 -0.0000
vn -0.0000 -0.7628 0.6466
vn -0.0000 -0.5377 0.8431
vn 0.5169 -0.8560 -0.0000
vn 0.4776 -0.8560 -0.1978
vn 0.5031 -0.7027 -0.5031
vn 0.6191 -0.4831 -0.6191
vn 0.3827 -0.0000 -0.9239
vn 0.3351 0.4831 -0.8089
vn 0.2356 0.7881 -0.5687
vn 0.2168 0.8240 -0.5235
vn -0.0000 0.6255 -0.7802
vn -0.2986 0.6255 -0.7208
vn -0.1184 0.9509 -0.2858
vn -0.0000 0.9509 -0.3094
vn 0.5974 -0.7628 -0.2474
vn 0.7790 -0.5377 -0.3227
vn -0.2474 -0.7628 -0.5974
vn -0.3227 -0.5377 -0.7790
vn -0.0000 -0.5645 -0.8255
vn -0.3822 0.0524 -0.9226
vn -0.0000 0.0524 -0.9986
vn 0.2723 -0.7027 -0.6573
vn 0.3351 -0.4831 -0.8089
vn -0.0000 -0.0000 -1.0000
vn -0.0000 0.4831 -0.8756
vn -0.0000 0.7881 -0.6155
vn -0.0000 0.8240 -0.5666
vn -0.0000 -0.8560 -0.5169
vn -0.6746 -0.2997 0.6746
vn -0.8814 -0.2997 0.3651
vn -0.8814 -0.2997 -0.3651
vn -0.6746 -0.2997 -0.6746
vn 0.3651 -0.2997 -0.8814
vn 0.6746 -0.2997 -0.6746
vn -0.0000 -0.2997 -0.9540
vn -0.7802 0.6255 -0.0000
vn -0.7208 0.6255 0.2986
vn -0.2858 0.9509 0.1184
vn -0.3094 0.9509 -0.0000
vn -0.0000 -0.7027 -0.7115
vn -0.0000 -0.4831 -0.8756
vn -0.3827 -0.0000 -0.9239
vn -0.3351 0.4831 -0.8089
vn -0.2356 0.7881 -0.5687
vn -0.2168 0.8240 -0.5235
vn -0.8254 -0.5645 -0.0000
vn -0.7626 -0.5645 0.3159
vn -0.9226 0.0524 0.3822
vn -0.9986 0.0524 -0.0000
vn 0.6746 -0.2997 0.6746
vn 0.3651 -0.2997 0.8814
vn 0.9540 -0.2997 -0.0000
vn 0.8814 -0.2997 0.3651
vn -0.3651 -0.2997 0.8814
vn -0.9540 -0.2997 -0.0000
vn -0.5169 -0.8560 -0.0000
vn -0.4776 -0.8560 0.1978
vn -0.2723 -0.7027 -0.6573
vn -0.3351 -0.4831 -0.8089
vn -0.7071 -0.0000 -0.7071
vn -0.6191 0.4831 -0.6191
vn -0.4353 0.7881 -0.4353
vn -0.4007 0.8240 -0.4007
vn 0.2986 0.6255 -0.7208
vn 0.1184 0.9509 -0.2858
vn -0.0000 -0.2997 0.9540
vn 0.8814 -0.2997 -0.3651
vn -0.3651 -0.2997 -0.8814
vn 0.3159 -0.5645 -0.7626
vn 0.3822 0.0524 -0.9226
vn -0.5031 -0.7027 -0.5031
vn -0.6191 -0.4831 -0.6191
vn -0.9239 -0.0000 -0.3827
vn -0.8089 0.4831 -0.3351
vn -0.5687 0.7881 -0.2356
vn -0.5235 0.8240 -0.2168
vn 0.1978 -0.8560 -0.4776
vn -0.8306 0.4377 0.3443
vn -0.6355 0.4382 0.6357
vn -0.7073 0.0161 0.7068
vn -0.9239 0.0162 0.3822
vn -0.9236 0.0162 -0.3830
vn -0.9999 0.0162 -0.0004
vn -0.9997 0.0240 0.0004
vn -0.9237 0.0253 -0.3822
vn -0.3829 0.0161 0.9237
vn -0.3824 0.0203 0.9238
vn -0.7067 0.0213 0.7072
vn -0.7208 0.6255 -0.2986
vn -0.2858 0.9509 -0.1184
vn -0.6573 -0.7027 -0.2723
vn -0.8089 -0.4831 -0.3351
vn -1.0000 -0.0000 -0.0000
vn -0.8756 0.4831 -0.0000
vn -0.6155 0.7881 -0.0000
vn -0.5666 0.8240 -0.0000
vn -0.7626 -0.5645 -0.3159
vn -0.9226 0.0524 -0.3822
vn 0.9999 0.0162 -0.0004
vn 0.9236 0.0162 -0.3830
vn 0.9238 0.0240 -0.3822
vn 0.9997 0.0226 0.0004
vn -0.0001 0.0161 0.9999
vn 0.3827 0.0161 0.9237
vn 0.3825 0.0198 0.9237
vn 0.0001 0.0198 0.9998
vn -0.9235 0.0226 0.3830
vn 0.9239 0.0161 0.3823
vn 0.9235 0.0213 0.3829
vn -0.4776 -0.8560 -0.1978
vn -0.7115 -0.7027 -0.0000
vn -0.8756 -0.4831 -0.0000
vn -0.9239 -0.0000 0.3827
vn -0.8089 0.4831 0.3351
vn -0.5687 0.7881 0.2356
vn -0.5235 0.8240 0.2168
vn -0.1184 0.9509 0.2858
vn -0.0000 0.9509 0.3094
vn -0.0000 0.9966 0.0819
vn -0.0313 0.9966 0.0757
vn 0.7068 0.0162 -0.7073
vn 0.3824 0.0163 -0.9238
vn 0.3828 0.0262 -0.9235
vn 0.7071 0.0253 -0.7066
vn 0.7072 0.0161 0.7068
vn 0.7068 0.0203 0.7071
vn -0.0001 0.0163 -0.9999
vn -0.3826 0.0163 -0.9238
vn -0.3826 0.0268 -0.9235
vn 0.0001 0.0268 -0.9996
vn -0.2188 0.9509 -0.2188
vn -0.0756 0.9966 -0.0313
vn -0.0579 0.9966 -0.0579
vn -0.6573 -0.7027 0.2723
vn -0.8089 -0.4831 0.3351
vn -0.7071 -0.0000 0.7071
vn -0.6191 0.4831 0.6191
vn -0.4353 0.7881 0.4353
vn -0.4007 0.8240 0.4007
vn -0.2188 0.9509 0.2188
vn -0.0579 0.9966 0.0579
vn -0.7068 0.0163 -0.7072
vn -0.7070 0.0262 -0.7067
vn -0.0000 0.4359 -0.9000
vn -0.3445 0.4359 -0.8315
vn 0.2188 0.9509 0.2188
vn 0.2858 0.9509 0.1184
vn 0.0756 0.9966 0.0313
vn 0.0579 0.9966 0.0579
vn -0.5031 -0.7027 0.5031
vn -0.6191 -0.4831 0.6191
vn -0.3827 -0.0000 0.9239
vn -0.3351 0.4831 0.8089
vn -0.2356 0.7881 0.5687
vn -0.2168 0.8240 0.5235
vn 0.0819 0.9966 -0.0000
vn -0.3438 0.4386 0.8303
vn 0.8991 0.4377 0.0002
vn 0.8310 0.4371 -0.3440
vn 0.6363 0.4366 -0.6360
vn -0.8313 0.4366 -0.3441
vn -0.8994 0.4371 0.0002
vn 0.3445 0.4361 -0.8313
vn -0.0756 0.9966 0.0313
vn -0.2723 -0.7027 0.6573
vn -0.3351 -0.4831 0.8089
vn -0.0000 -0.0000 1.0000
vn -0.0000 0.4831 0.8756
vn -0.0000 0.7881 0.6155
vn -0.0000 0.8240 0.5666
vn 0.1184 0.9509 0.2858
vn 0.0313 0.9966 0.0757
vn 0.3438 0.4389 0.8302
vn 0.6354 0.4386 0.6355
vn 0.8304 0.4382 0.3441
vn -0.6364 0.4361 -0.6362
vn 0.2188 0.9509 -0.2188
vn 0.0313 0.9966 -0.0757
vn 0.0579 0.9966 -0.0579
vn -0.0000 -0.7027 0.7115
vn -0.0000 -0.4831 0.8756
vn 0.3827 -0.0000 0.9239
vn 0.3351 0.4831 0.8089
vn 0.2356 0.7881 0.5687
vn 0.2168 0.8240 0.5235
vn -0.0000 0.4389 0.8986
vn 0.0756 0.9966 -0.0313
vn 0.2723 -0.7027 0.6573
vn 0.3351 -0.4831 0.8089
vn 0.7071 -0.0000 0.7071
vn 0.6191 0.4831 0.6191
vn 0.4353 0.7881 0.4353
vn 0.4007 0.8240 0.4007
vn -0.0313 0.9966 -0.0757
vn 0.5031 -0.7027 0.5031
vn 0.6191 -0.4831 0.6191
vn 0.9239 -0.0000 0.3827
vn 0.8089 0.4831 0.3351
vn 0.5687 0.7881 0.2356
vn 0.5235 0.8240 0.2168
vn -0.0000 0.9966 -0.0819
vn -0.0819 0.9966 -0.0000
vn 0.6573 -0.7027 0.2723
vn 0.8089 -0.4831 0.3351
vn -0.7061 0.0524 -0.7061
vn -0.5517 0.6255 -0.5517
vn 0.3655 -0.8560 -0.3655
vn 0.5837 -0.5645 -0.5837
vn 0.7061 0.0524 -0.7061
vn 0.5517 0.6255 -0.5517
vn -0.0000 -0.8560 0.5169
vn 0.1978 -0.8560 0.4776
vn 0.3159 -0.5645 0.7626
vn -0.0000 -0.5645 0.8255
vn 0.3822 0.0524 0.9226
vn -0.0000 0.0524 0.9986
vn -0.0000 0.6255 0.7802
vn 0.2986 0.6255 0.7208
vn 0.3655 -0.8560 0.3655
vn 0.5837 -0.5645 0.5837
vn 0.7061 0.0524 0.7061
vn 0.5517 0.6255 0.5517
vn -0.3655 -0.8560 0.3655
vn -0.5837 -0.5645 0.5837
vn -0.7061 0.0524 0.7061
vn -0.5517 0.6255 0.5517
vn 0.4776 -0.8560 0.1978
vn 0.7626 -0.5645 0.3159
vn 0.9226 0.0524 0.3822
vn 0.7208 0.6255 0.2986
vn -0.1978 -0.8560 0.4776
vn -0.3159 -0.5645 0.7626
vn -0.3822 0.0524 0.9226
vn -0.2986 0.6255 0.7208
vn -0.6456 -0.4080 0.6456
vn -0.3494 -0.4080 0.8435
vn -0.3776 -0.1631 0.9115
vn -0.6976 -0.1631 0.6976
vn 0.6456 -0.4080 -0.6456
vn 0.3494 -0.4080 -0.8435
vn 0.3776 -0.1631 -0.9115
vn 0.6976 -0.1631 -0.6976
vn -0.8435 -0.4080 0.3494
vn -0.9115 -0.1631 0.3776
vn 0.8435 -0.4080 -0.3494
vn 0.9115 -0.1631 -0.3776
vn -0.9130 -0.4080 -0.0000
vn -0.9866 -0.1631 -0.0000
vn 0.9130 -0.4080 -0.0000
vn 0.9866 -0.1631 -0.0000
vn -0.8435 -0.4080 -0.3494
vn -0.9115 -0.1631 -0.3776
vn 0.6456 -0.4080 0.6456
vn 0.8435 -0.4080 0.3494
vn 0.9115 -0.1630 0.3776
vn 0.6976 -0.1630 0.6976
vn -0.6456 -0.4080 -0.6456
vn -0.6976 -0.1631 -0.6976
vn 0.3494 -0.4080 0.8435
vn 0.3776 -0.1630 0.9115
vn -0.3494 -0.4080 -0.8435
vn -0.3776 -0.1631 -0.9115
vn -0.0000 -0.4080 0.9130
vn -0.0000 -0.1631 0.9866
vn -0.0000 -0.4080 -0.9130
vn -0.0000 -0.1631 -0.9866
vn 0.1298 -0.9407 -0.3134
vn -0.0000 -0.9407 -0.3392
vn -0.0000 -0.8066 -0.5911
vn 0.2262 -0.8066 -0.5461
vn -0.1298 -0.9407 0.3134
vn -0.0000 -0.9407 0.3392
vn -0.0000 -0.8066 0.5911
vn -0.2262 -0.8066 0.5461
vn -0.1298 -0.9407 -0.3134
vn -0.2262 -0.8066 -0.5461
vn 0.1298 -0.9407 0.3134
vn 0.2262 -0.8066 0.5461
vn -0.2399 -0.9407 -0.2399
vn -0.4180 -0.8066 -0.4180
vn 0.2399 -0.9407 0.2399
vn 0.4180 -0.8066 0.4180
vn -0.3134 -0.9407 -0.1298
vn -0.5461 -0.8066 -0.2262
vn 0.3134 -0.9407 0.1298
vn 0.3392 -0.9407 -0.0000
vn 0.5911 -0.8066 -0.0000
vn 0.5461 -0.8066 0.2262
vn -0.3392 -0.9407 -0.0000
vn -0.5911 -0.8066 -0.0000
vn 0.3134 -0.9407 -0.1298
vn 0.5461 -0.8066 -0.2262
vn -0.3134 -0.9407 0.1298
vn -0.5461 -0.8066 0.2262
vn 0.2399 -0.9407 -0.2399
vn 0.4180 -0.8066 -0.4180
vn -0.2399 -0.9407 0.2399
vn -0.4180 -0.8066 0.4180
vn -0.3666 -0.2873 -0.8849
vn -0.6773 -0.2873 -0.6773
vn -0.6966 -0.1717 -0.6966
vn -0.3770 -0.1717 -0.9102
vn -0.0000 -0.2873 0.9578
vn 0.3666 -0.2873 0.8849
vn 0.3770 -0.1717 0.9102
vn -0.0000 -0.1718 0.9851
vn -0.0000 -0.2873 -0.9578
vn -0.0000 -0.1717 -0.9851
vn -0.3666 -0.2873 0.8849
vn -0.3770 -0.1717 0.9102
vn 0.3666 -0.2873 -0.8849
vn 0.3770 -0.1717 -0.9102
vn -0.6773 -0.2873 0.6773
vn -0.6966 -0.1717 0.6966
vn 0.6773 -0.2873 -0.6773
vn 0.6966 -0.1717 -0.6966
vn -0.8849 -0.2873 0.3666
vn -0.9102 -0.1717 0.3770
vn 0.8849 -0.2873 -0.3666
vn 0.9102 -0.1717 -0.3770
vn -0.9578 -0.2873 -0.0000
vn -0.9851 -0.1717 -0.0000
vn 0.9578 -0.2873 -0.0000
vn 0.9851 -0.1717 -0.0000
vn -0.8849 -0.2873 -0.3666
vn -0.9102 -0.1717 -0.3770
vn 0.6773 -0.2873 0.6773
vn 0.8849 -0.2873 0.3666
vn 0.9102 -0.1717 0.3770
vn 0.6966 -0.1717 0.6966
vn 0.2449 -0.7684 0.5913
vn 0.4525 -0.7684 0.4525
vn 0.5709 -0.5900 0.5709
vn 0.3090 -0.5900 0.7459
vn -0.4525 -0.7684 -0.4525
vn -0.5913 -0.7684 -0.2449
vn -0.7459 -0.5900 -0.3090
vn -0.5709 -0.5900 -0.5709
vn 0.5913 -0.7684 0.2449
vn 0.6400 -0.7684 -0.0000
vn 0.8074 -0.5900 -0.0000
vn 0.7459 -0.5900 0.3090
vn -0.6400 -0.7684 -0.0000
vn -0.8074 -0.5900 -0.0000
vn 0.5913 -0.7684 -0.2449
vn 0.7459 -0.5900 -0.3090
vn -0.5913 -0.7684 0.2449
vn -0.7459 -0.5900 0.3090
vn 0.4525 -0.7684 -0.4525
vn 0.5709 -0.5900 -0.5709
vn -0.4525 -0.7684 0.4525
vn -0.5709 -0.5900 0.5709
vn 0.2449 -0.7684 -0.5913
vn 0.3090 -0.5900 -0.7459
vn -0.2449 -0.7684 0.5913
vn -0.3090 -0.5900 0.7459
vn -0.0000 -0.7684 -0.6400
vn -0.0000 -0.5900 -0.8074
vn -0.0000 -0.7684 0.6400
vn -0.0000 -0.5900 0.8074
vn -0.2449 -0.7684 -0.5913
vn -0.3090 -0.5900 -0.7459
vn -0.0000 -1.0000 -0.0000
vn -0.0000 1.0000 -0.0000
vt 0.666667 0.042091
vt 0.722222 0.042091
vt 0.722222 0.048128
vt 0.666667 0.048128
vt 0.722222 0.052933
vt 0.666667 0.052933
vt 0.722222 0.058527
vt 0.666667 0.058527
vt 0.055555 0.914242
vt 0.111111 0.914242
vt 0.111111 0.916459
vt 0.055555 0.916459
vt 0.277778 0.907241
vt 0.333333 0.907241
vt 0.333333 0.910543
vt 0.277778 0.910543
vt 0.111111 0.907241
vt 0.166667 0.907241
vt 0.166667 0.910543
vt 0.111111 0.910543
vt 0.777778 0.907241
vt 0.833333 0.907241
vt 0.833333 0.910543
vt 0.777778 0.910543
vt 0.888889 0.907241
vt 0.888889 0.910543
vt 0.500000 0.907241
vt 0.555555 0.907241
vt 0.555556 0.910543
vt 0.500000 0.910543
vt 0.666667 0.923010
vt 0.722222 0.923010
vt 0.722222 0.925193
vt 0.666667 0.925193
vt 0.666667 0.031250
vt 0.722222 0.031250
vt 0.722222 0.036054
vt 0.666667 0.036054
vt 0.777778 0.042091
vt 0.777778 0.048128
vt 0.777778 0.052933
vt 0.777778 0.058527
vt 0.666667 0.916459
vt 0.722222 0.916459
vt 0.722223 0.919833
vt 0.666667 0.919833
vt 0.611111 0.907241
vt 0.666667 0.907241
vt 0.666667 0.910543
vt 0.611111 0.910543
vt 0.388889 0.907241
vt 0.388889 0.910543
vt 0.222222 0.907241
vt 0.222222 0.910543
vt 0.444444 0.907241
vt 0.444444 0.910543
vt 0.666667 0.914242
vt 0.722222 0.914242
vt 0.777778 0.031250
vt 0.777778 0.036054
vt 0.833333 0.042091
vt 0.833333 0.048128
vt 0.833333 0.052933
vt 0.833333 0.058527
vt 0.000000 0.923010
vt 0.055556 0.923010
vt 0.055556 0.925193
vt 0.000000 0.925193
vt 0.722222 0.907241
vt 0.722222 0.910543
vt 0.000000 0.907241
vt 0.055556 0.907241
vt 0.055556 0.910543
vt 0.000000 0.910543
vt 0.000000 0.916459
vt 0.055556 0.919833
vt 0.000000 0.919833
vt 0.833333 0.031250
vt 0.833333 0.036054
vt 0.888889 0.042091
vt 0.888889 0.048128
vt 0.888889 0.052933
vt 0.888889 0.058527
vt 0.000000 0.914242
vt 0.333333 0.914242
vt 0.277777 0.914242
vt 0.166667 0.914242
vt 0.833334 0.914242
vt 0.777778 0.914242
vt 0.888889 0.914242
vt 0.222222 0.923010
vt 0.277778 0.923010
vt 0.277777 0.925193
vt 0.222222 0.925193
vt 0.888889 0.031250
vt 0.888889 0.036054
vt 0.000000 0.042091
vt 0.055556 0.042091
vt 0.055556 0.048128
vt 0.000000 0.048128
vt 0.055555 0.052933
vt 0.000000 0.052933
vt 0.055556 0.058527
vt 0.000000 0.058527
vt 0.222222 0.916459
vt 0.277777 0.916459
vt 0.277777 0.919833
vt 0.222222 0.919833
vt 0.555556 0.914242
vt 0.500000 0.914242
vt 0.611111 0.914242
vt 0.388889 0.914242
vt 0.222222 0.914242
vt 0.000000 0.031250
vt 0.055555 0.031250
vt 0.055556 0.036054
vt 0.000000 0.036054
vt 0.111111 0.042091
vt 0.111111 0.048128
vt 0.111111 0.052933
vt 0.111111 0.058527
vt 0.833333 0.923010
vt 0.888889 0.923010
vt 0.888889 0.925193
vt 0.833333 0.925193
vt 0.444444 0.914242
vt 0.833333 0.916459
vt 0.888889 0.916459
vt 0.888889 0.919833
vt 0.833333 0.919833
vt 0.111111 0.031250
vt 0.111111 0.036054
vt 0.166667 0.042091
vt 0.166667 0.048128
vt 0.166667 0.052933
vt 0.166667 0.058527
vt 0.277778 0.067788
vt 0.333333 0.067788
vt 0.330659 0.498673
vt 0.274649 0.498673
vt 0.164058 0.498673
vt 0.219120 0.498673
vt 0.387090 0.498673
vt 0.166667 0.923010
vt 0.166666 0.925193
vt 0.166667 0.031250
vt 0.166667 0.036054
vt 0.222222 0.042091
vt 0.222222 0.048128
vt 0.222222 0.052933
vt 0.222222 0.058527
vt 0.166667 0.916459
vt 0.166666 0.919833
vt 0.669796 0.498673
vt 0.725324 0.498673
vt 0.443811 0.498673
vt 0.500634 0.498673
vt 0.613786 0.498673
vt 0.222222 0.031250
vt 0.222222 0.036054
vt 0.277778 0.042091
vt 0.277778 0.048128
vt 0.277778 0.052933
vt 0.277778 0.058527
vt 0.388889 0.925193
vt 0.444444 0.925193
vt 0.444444 0.925590
vt 0.388889 0.925590
vt 0.780387 0.498673
vt 0.835066 0.498673
vt 0.557354 0.498673
vt 0.000606 0.498673
vt 0.054949 0.498673
vt 0.889495 0.498673
vt 0.111111 0.925193
vt 0.166667 0.925590
vt 0.111111 0.925590
vt 0.277778 0.031250
vt 0.277778 0.036054
vt 0.333333 0.042091
vt 0.333333 0.048128
vt 0.333333 0.052933
vt 0.333333 0.058527
vt 0.333333 0.925193
vt 0.333333 0.925590
vt 0.109379 0.498673
vt 0.000000 0.067788
vt 0.055556 0.067788
vt 0.555555 0.925193
vt 0.611111 0.925193
vt 0.611111 0.925590
vt 0.555556 0.925590
vt 0.333333 0.031250
vt 0.333333 0.036054
vt 0.388889 0.042091
vt 0.388889 0.048128
vt 0.388889 0.052933
vt 0.388889 0.058527
vt 0.666667 0.925590
vt 0.388889 0.067788
vt 0.666667 0.067788
vt 0.722222 0.067788
vt 0.777778 0.067788
vt 0.166667 0.067788
vt 0.222222 0.067788
vt 0.833333 0.067788
vt 0.277778 0.925590
vt 0.388889 0.031250
vt 0.388889 0.036054
vt 0.444444 0.042091
vt 0.444444 0.048128
vt 0.444444 0.052933
vt 0.444444 0.058527
vt 0.500000 0.925193
vt 0.500000 0.925590
vt 0.500000 0.067788
vt 0.555556 0.067788
vt 0.611111 0.067788
vt 0.111111 0.067788
vt 0.777778 0.925193
vt 0.833333 0.925590
vt 0.777778 0.925590
vt 0.444444 0.031250
vt 0.444444 0.036054
vt 0.500000 0.042091
vt 0.500000 0.048128
vt 0.500000 0.052933
vt 0.500000 0.058527
vt 0.444444 0.067788
vt 0.888889 0.067788
vt 0.722222 0.925590
vt 0.500000 0.031250
vt 0.500000 0.036054
vt 0.555556 0.042091
vt 0.555555 0.048128
vt 0.555555 0.052933
vt 0.555556 0.058527
vt 0.055555 0.925590
vt 0.555555 0.031250
vt 0.555555 0.036054
vt 0.611111 0.042091
vt 0.611111 0.048128
vt 0.611111 0.052933
vt 0.611111 0.058527
vt 0.000000 0.925590
vt 0.222222 0.925590
vt 0.611111 0.031250
vt 0.611111 0.036054
vt 0.888889 0.925590
vt 0.111111 0.919833
vt 0.111111 0.923010
vt 0.777778 0.916459
vt 0.777778 0.919833
vt 0.777778 0.923010
vt 0.500000 0.916459
vt 0.444444 0.916459
vt 0.500000 0.919833
vt 0.444444 0.919833
vt 0.444444 0.923010
vt 0.500000 0.923010
vt 0.555556 0.916459
vt 0.555556 0.919833
vt 0.555556 0.923010
vt 0.333333 0.916459
vt 0.333333 0.919833
vt 0.333333 0.923010
vt 0.611111 0.916459
vt 0.611111 0.919833
vt 0.611111 0.923010
vt 0.388889 0.916459
vt 0.388889 0.919833
vt 0.388889 0.923010
vt 0.722222 0.940852
vt 0.666667 0.940852
vt 0.055555 0.940852
vt 0.000000 0.940852
vt 0.277778 0.940852
vt 0.222222 0.940852
vt 0.611111 0.940852
vt 0.500000 0.940852
vt 0.444444 0.940852
vt 0.888889 0.940852
vt 0.833333 0.940852
vt 0.166667 0.940852
vt 0.388889 0.940852
vt 0.777778 0.940852
vt 0.111111 0.940852
vt 0.333333 0.940852
vt 0.555556 0.940852
vt 0.333333 0.944453
vt 0.388889 0.944453
vt 0.388889 0.947800
vt 0.333333 0.947800
vt 0.777778 0.944453
vt 0.833333 0.944453
vt 0.833333 0.947800
vt 0.777778 0.947800
vt 0.277778 0.944453
vt 0.277778 0.947800
vt 0.722222 0.944453
vt 0.722223 0.947800
vt 0.222222 0.944453
vt 0.222222 0.947800
vt 0.666667 0.944453
vt 0.666667 0.947800
vt 0.166667 0.944453
vt 0.166666 0.947800
vt 0.555556 0.944453
vt 0.611111 0.944453
vt 0.611111 0.947800
vt 0.555555 0.947800
vt 0.111111 0.944453
vt 0.111111 0.947800
vt 0.500000 0.944453
vt 0.500000 0.947800
vt 0.055556 0.944453
vt 0.055556 0.947800
vt 0.444444 0.944453
vt 0.444444 0.947800
vt 0.000000 0.944453
vt 0.000000 0.947800
vt 0.888889 0.944453
vt 0.888889 0.947800
vt 0.888889 0.942098
vt 0.833334 0.942098
vt 0.444444 0.942098
vt 0.388889 0.942098
vt 0.055555 0.942098
vt 0.000000 0.942098
vt 0.500000 0.942098
vt 0.111111 0.942098
vt 0.555556 0.942098
vt 0.166667 0.942098
vt 0.666667 0.942098
vt 0.611111 0.942098
vt 0.222222 0.942098
vt 0.722222 0.942098
vt 0.277777 0.942098
vt 0.777778 0.942098
vt 0.333333 0.942098
vt 0.055556 0.960576
vt 0.111111 0.960576
vt 0.111111 0.968750
vt 0.055556 0.968750
vt 0.444444 0.960576
vt 0.500000 0.960576
vt 0.500000 0.968750
vt 0.444444 0.968750
vt 0.000000 0.960576
vt 0.000000 0.968750
vt 0.388889 0.960576
vt 0.388889 0.968750
vt 0.833333 0.960576
vt 0.888889 0.960576
vt 0.888889 0.968750
vt 0.833333 0.968750
vt 0.333333 0.960576
vt 0.333333 0.968750
vt 0.777778 0.960576
vt 0.777778 0.968750
vt 0.277778 0.960576
vt 0.277778 0.968750
vt 0.722223 0.960576
vt 0.722222 0.968750
vt 0.222222 0.960576
vt 0.222222 0.968750
vt 0.666667 0.960576
vt 0.666667 0.968750
vt 0.166666 0.960576
vt 0.166667 0.968750
vt 0.555556 0.960576
vt 0.611111 0.960576
vt 0.611111 0.968750
vt 0.555555 0.968750
vt 0.555555 0.952402
vt 0.500000 0.952402
vt 0.166667 0.952402
vt 0.111111 0.952402
vt 0.666667 0.952402
vt 0.611111 0.952402
vt 0.222222 0.952402
vt 0.722222 0.952402
vt 0.277778 0.952402
vt 0.777778 0.952402
vt 0.333333 0.952402
vt 0.833333 0.952402
vt 0.388889 0.952402
vt 0.888889 0.952402
vt 0.444444 0.952402
vt 0.055556 0.952402
vt 0.000000 0.952402
vt 0.333333 0.000000
vt 0.333333 0.031250
vt 0.111111 0.031250
vt 0.111111 0.000000
vt 1.000000 0.000000
vt 1.000000 0.031250
vt 0.777778 0.000000
vt 0.555556 0.031250
vt 0.555556 0.000000
vt 0.333333 0.968750
vt 0.333333 1.000000
vt 0.111111 1.000000
vt 0.111111 0.968750
vt 1.000000 0.968750
vt 1.000000 1.000000
vt 0.777778 1.000000
vt 0.777778 0.968750
vt 0.555556 1.000000
vt 0.555556 0.968750
s 1
usemtl Material.001
f 1/1/1 13/2/2 14/3/3 2/4/4
f 2/4/4 14/3/3 15/5/5 3/6/6
f 3/6/6 15/5/5 16/7/7 4/8/8
f 78/9/9 79/10/10 214/11/11 223/12/12
f 113/13/13 106/14/14 57/15/15 44/16/16
f 116/17/17 115/18/18 56/19/19 42/20/20
f 126/21/21 125/22/22 66/23/23 34/24/24
f 125/22/22 118/25/25 53/26/26 66/23/23
f 103/27/27 102/28/28 58/29/29 46/30/30
f 250/31/31 249/32/32 219/33/33 220/34/34
f 11/35/35 23/36/36 24/37/37 12/38/38
f 12/38/38 24/37/37 13/2/2 1/1/1
f 13/2/2 25/39/39 26/40/40 14/3/3
f 14/3/3 26/40/40 27/41/41 15/5/5
f 15/5/5 27/41/41 28/42/42 16/7/7
f 222/43/43 217/44/44 218/45/45 221/46/46
f 101/47/47 128/48/48 54/49/49 65/50/50
f 102/28/28 101/47/47 65/50/50 58/29/29
f 106/14/14 105/51/51 55/52/52 57/15/15
f 115/18/18 114/53/53 43/54/54 56/19/19
f 105/51/51 104/55/55 45/56/56 55/52/52
f 67/57/57 68/58/58 217/44/44 222/43/43
f 23/36/36 35/59/59 36/60/60 24/37/37
f 24/37/37 36/60/60 25/39/39 13/2/2
f 25/39/39 37/61/61 38/62/62 26/40/40
f 26/40/40 38/62/62 39/63/63 27/41/41
f 27/41/41 39/63/63 40/64/64 28/42/42
f 253/65/65 251/66/66 225/67/67 231/68/68
f 128/48/48 127/69/69 33/70/70 54/49/49
f 118/71/25 117/72/71 41/73/72 53/74/26
f 104/55/55 103/27/27 46/30/30 45/56/56
f 114/53/53 113/13/13 44/16/16 43/54/54
f 117/72/71 116/17/17 42/20/20 41/73/72
f 229/75/73 223/12/12 224/76/74 230/77/75
f 35/59/59 47/78/76 48/79/77 36/60/60
f 36/60/60 48/79/77 37/61/61 25/39/39
f 37/61/61 49/80/78 50/81/79 38/62/62
f 38/62/62 50/81/79 51/82/80 39/63/63
f 39/63/63 51/82/80 52/83/81 40/64/64
f 77/84/82 78/9/9 223/12/12 229/75/73
f 127/69/69 126/21/21 34/24/24 33/70/70
f 44/16/16 57/15/15 89/85/83 82/86/84
f 42/20/20 56/19/19 80/87/85 79/10/86
f 34/24/24 66/23/23 70/88/87 69/89/88
f 66/23/23 53/26/26 77/90/89 70/88/87
f 255/91/90 252/92/91 228/93/92 237/94/93
f 47/78/76 59/95/94 60/96/95 48/79/77
f 48/79/77 60/96/95 49/80/78 37/61/61
f 49/97/78 61/98/96 62/99/97 50/100/79
f 50/100/79 62/99/97 63/101/98 51/102/80
f 51/102/80 63/101/98 64/103/99 52/104/81
f 235/105/100 226/106/101 227/107/102 236/108/103
f 46/30/30 58/29/29 93/109/104 92/110/105
f 65/50/50 54/49/49 67/57/106 94/111/107
f 58/29/29 65/50/50 94/111/107 93/109/104
f 57/15/15 55/52/52 90/112/108 89/85/83
f 56/19/19 43/54/54 81/113/109 80/87/85
f 81/113/110 82/86/111 226/106/101 235/105/100
f 59/114/94 71/115/112 72/116/113 60/117/95
f 60/117/95 72/116/113 61/98/96 49/97/78
f 61/98/96 73/118/114 74/119/115 62/99/97
f 62/99/97 74/119/115 75/120/116 63/101/98
f 63/101/98 75/120/116 76/121/117 64/103/99
f 254/122/118 253/123/65 231/124/68 232/125/119
f 55/52/52 45/56/56 91/126/120 90/112/108
f 54/49/49 33/70/70 68/58/121 67/57/106
f 53/74/26 41/73/72 78/9/122 77/84/89
f 45/56/56 46/30/30 92/110/105 91/126/120
f 43/54/54 44/16/16 82/86/84 81/113/109
f 234/127/123 229/128/73 230/129/75 233/130/124
f 71/115/112 83/131/125 84/132/126 72/116/113
f 72/116/113 84/132/126 73/118/114 61/98/96
f 73/118/114 85/133/127 86/134/128 74/119/115
f 74/119/115 86/134/128 87/135/129 75/120/116
f 75/120/116 87/135/129 88/136/130 76/121/117
f 70/88/131 77/90/82 229/128/73 234/127/123
f 41/73/72 42/20/20 79/10/86 78/9/122
f 33/70/70 34/24/24 69/89/88 68/58/121
f 175/137/132 174/138/133 151/139/134 150/140/135
f 142/141/136 149/142/137 114/53/138 115/18/139
f 151/139/134 152/143/140 105/51/141 106/14/142
f 256/144/143 255/91/90 237/94/93 238/145/144
f 83/131/125 95/146/145 96/147/146 84/132/126
f 84/132/126 96/147/146 85/133/127 73/118/114
f 85/133/127 97/148/147 98/149/148 86/134/128
f 86/134/128 98/149/148 99/150/149 87/135/129
f 87/135/129 99/150/149 100/151/150 88/136/130
f 240/152/151 235/105/100 236/108/103 239/153/152
f 129/154/153 130/155/154 127/69/155 128/48/156
f 153/156/157 154/157/158 103/27/159 104/55/160
f 150/140/135 151/139/134 106/14/142 113/13/161
f 152/143/140 153/156/157 104/55/160 105/51/141
f 162/158/162 129/154/153 128/48/156 101/47/163
f 80/87/164 81/113/110 235/105/100 240/152/151
f 95/146/145 107/159/165 108/160/166 96/147/146
f 96/147/146 108/160/166 97/148/147 85/133/127
f 97/148/147 109/161/167 110/162/168 98/149/148
f 98/149/148 110/162/168 111/163/169 99/150/149
f 99/150/149 111/163/169 112/164/170 100/151/150
f 195/165/171 208/166/172 8/167/173 9/168/174
f 137/169/175 138/170/176 125/22/177 126/21/178
f 130/155/154 137/169/175 126/21/178 127/69/155
f 161/171/179 162/158/162 101/47/163 102/28/180
f 139/172/181 140/173/182 117/72/183 118/71/184
f 138/170/176 139/174/181 118/25/184 125/22/177
f 216/175/185 238/145/144 19/176/186 20/177/187
f 107/159/165 119/178/188 120/179/189 108/160/166
f 108/160/166 120/179/189 109/161/167 97/148/147
f 109/161/167 121/180/190 122/181/191 110/162/168
f 110/162/168 122/181/191 123/182/192 111/163/169
f 111/163/169 123/182/192 124/183/193 112/164/170
f 201/184/194 195/165/171 9/168/174 10/185/195
f 141/186/196 142/141/136 115/18/139 116/17/197
f 154/157/158 161/171/179 102/28/180 103/27/159
f 140/173/182 141/186/196 116/17/197 117/72/183
f 186/187/198 185/188/199 140/173/182 139/172/181
f 204/189/200 196/190/201 5/191/202 6/192/203
f 119/178/188 131/193/204 132/194/205 120/179/189
f 120/179/189 132/194/205 121/180/190 109/161/167
f 121/180/190 133/195/206 134/196/207 122/181/191
f 122/181/191 134/196/207 135/197/208 123/182/192
f 123/182/192 135/197/208 136/198/209 124/183/193
f 196/190/201 220/34/34 32/199/210 5/191/202
f 174/138/133 173/200/211 152/143/140 151/139/134
f 190/201/212 189/202/213 130/155/154 129/154/153
f 189/202/213 188/203/214 137/169/175 130/155/154
f 177/204/215 176/205/216 149/142/137 142/141/136
f 188/203/214 187/206/217 138/170/176 137/169/175
f 228/93/92 201/184/194 10/185/195 17/207/218
f 131/193/204 143/208/219 144/209/220 132/194/205
f 132/194/205 144/209/220 133/195/206 121/180/190
f 133/195/206 145/210/221 146/211/222 134/196/207
f 134/196/207 146/211/222 147/212/223 135/197/208
f 135/197/208 147/212/223 148/213/224 136/198/209
f 207/214/225 204/189/200 6/192/203 7/215/226
f 176/205/216 175/137/132 150/140/135 149/142/137
f 165/216/227 164/217/228 161/171/179 154/157/158
f 164/217/228 163/218/229 162/158/162 161/171/179
f 185/188/199 178/219/230 141/186/196 140/173/182
f 178/219/230 177/204/215 142/141/136 141/186/196
f 213/220/231 232/125/119 29/221/232 30/222/233
f 143/208/219 155/223/234 156/224/235 144/209/220
f 144/209/220 156/224/235 145/210/221 133/195/206
f 145/210/221 157/225/236 158/226/237 146/211/222
f 146/211/222 158/226/237 159/227/238 147/212/223
f 147/212/223 159/227/238 160/228/239 148/213/224
f 208/166/172 207/214/225 7/215/226 8/167/173
f 173/200/211 166/229/240 153/156/157 152/143/140
f 163/218/229 190/201/212 129/154/153 162/158/162
f 166/229/240 165/216/227 154/157/158 153/156/157
f 187/206/217 186/230/198 139/174/181 138/170/176
f 112/164/170 124/183/193 174/138/133 175/137/132
f 219/33/33 213/220/231 30/222/233 31/231/241
f 155/223/234 167/232/242 168/233/243 156/224/235
f 156/224/235 168/233/243 157/225/236 145/210/221
f 157/225/236 169/234/244 170/235/245 158/226/237
f 158/226/237 170/235/245 171/236/246 159/227/238
f 159/227/238 171/236/246 172/237/247 160/228/239
f 225/67/67 216/175/185 20/177/187 21/238/248
f 76/121/117 88/136/130 177/204/215 178/219/230
f 40/64/64 52/83/81 186/230/198 187/206/217
f 160/228/239 172/237/247 164/217/228 165/216/227
f 4/8/8 16/7/7 189/202/213 190/201/212
f 124/183/193 136/198/209 173/200/211 174/138/133
f 220/34/34 219/33/33 31/231/241 32/199/210
f 167/232/242 179/239/249 180/240/250 168/233/243
f 168/233/243 180/240/250 169/234/244 157/225/236
f 169/234/244 181/241/251 182/242/252 170/235/245
f 170/235/245 182/242/252 183/243/253 171/236/246
f 171/236/246 183/243/253 184/244/254 172/237/247
f 231/68/68 225/67/67 21/238/248 22/245/255
f 88/136/130 100/151/150 176/205/216 177/204/215
f 52/104/81 64/103/99 185/188/199 186/187/198
f 16/7/7 28/42/42 188/203/214 189/202/213
f 172/237/247 184/244/254 163/218/229 164/217/228
f 136/198/209 148/213/224 166/229/240 173/200/211
f 237/94/93 228/93/92 17/207/218 18/246/256
f 179/239/249 191/247/257 192/248/258 180/240/250
f 180/240/250 192/248/258 181/241/251 169/234/244
f 181/241/251 1/1/1 2/4/4 182/242/252
f 182/242/252 2/4/4 3/6/6 183/243/253
f 183/243/253 3/6/6 4/8/8 184/244/254
f 232/125/119 231/124/68 22/249/255 29/221/232
f 100/151/150 112/164/170 175/137/132 176/205/216
f 64/103/99 76/121/117 178/219/230 185/188/199
f 28/42/42 40/64/64 187/206/217 188/203/214
f 184/244/254 4/8/8 190/201/212 163/218/229
f 148/213/224 160/228/239 165/216/227 166/229/240
f 238/145/144 237/94/93 18/246/256 19/176/186
f 191/247/257 11/35/35 12/38/38 192/248/258
f 192/248/258 12/38/38 1/1/1 181/241/251
f 223/12/12 214/11/11 215/250/259 224/76/74
f 251/66/66 248/251/260 216/175/185 225/67/67
f 68/58/58 69/89/261 211/252/262 217/44/44
f 217/44/44 211/252/262 212/253/263 218/45/45
f 249/32/32 247/254/264 213/220/231 219/33/33
f 91/126/265 92/110/266 205/255/267 210/256/268
f 210/256/268 205/255/267 206/257/269 209/258/270
f 246/259/271 241/260/272 207/214/225 208/166/172
f 69/89/261 70/88/131 234/127/123 211/252/262
f 211/252/262 234/127/123 233/130/124 212/253/263
f 247/254/264 254/122/118 232/125/119 213/220/231
f 92/110/266 93/109/273 202/261/274 205/255/267
f 205/255/267 202/261/274 203/262/275 206/257/269
f 241/260/272 242/263/276 204/189/200 207/214/225
f 82/86/111 89/85/277 199/264/278 226/106/101
f 226/106/101 199/264/278 200/265/279 227/107/102
f 252/92/91 243/266/280 201/184/194 228/93/92
f 94/111/281 67/57/57 222/43/43 198/267/282
f 198/267/282 222/43/43 221/46/46 197/268/283
f 244/269/284 250/31/31 220/34/34 196/190/201
f 93/109/273 94/111/281 198/267/282 202/261/274
f 202/261/274 198/267/282 197/268/283 203/262/275
f 242/263/276 244/269/284 196/190/201 204/189/200
f 89/85/277 90/112/285 193/270/286 199/264/278
f 199/264/278 193/270/286 194/271/287 200/265/279
f 243/266/280 245/272/288 195/165/171 201/184/194
f 79/10/10 80/87/164 240/152/151 214/11/11
f 214/11/11 240/152/151 239/153/152 215/250/259
f 248/251/260 256/144/143 238/145/144 216/175/185
f 90/112/285 91/126/265 210/256/268 193/270/286
f 193/270/286 210/256/268 209/258/270 194/271/287
f 245/272/288 246/259/271 208/166/172 195/165/171
f 194/271/287 209/258/270 246/259/271 245/272/288
f 215/250/259 239/153/152 256/144/143 248/251/260
f 200/265/279 194/271/287 245/272/288 243/266/280
f 203/262/275 197/268/283 244/269/284 242/263/276
f 197/268/283 221/46/46 250/31/31 244/269/284
f 227/107/102 200/265/279 243/266/280 252/92/91
f 206/257/269 203/262/275 242/263/276 241/260/272
f 212/253/263 233/130/124 254/122/118 247/254/264
f 209/258/270 206/257/269 241/260/272 246/259/271
f 218/45/45 212/253/263 247/254/264 249/32/32
f 224/76/74 215/250/259 248/251/260 251/66/66
f 239/153/152 236/108/103 255/91/90 256/144/143
f 233/130/124 230/129/75 253/123/65 254/122/118
f 236/108/103 227/107/102 252/92/91 255/91/90
f 230/77/75 224/76/74 251/66/66 253/65/65
f 221/46/46 218/45/45 249/32/32 250/31/31
f 32/199/1 31/231/2 271/273/2 272/274/1
f 22/245/78 21/238/96 267/275/96 268/276/78
f 18/246/147 17/207/167 263/277/167 264/278/147
f 5/191/251 32/199/1 272/274/1 257/279/251
f 8/167/221 7/215/236 259/280/236 260/281/221
f 29/221/61 22/249/78 268/282/78 269/283/61
f 19/176/127 18/246/147 264/278/147 265/284/127
f 9/168/206 8/167/221 260/281/221 261/285/206
f 30/222/39 29/221/61 269/283/61 270/286/39
f 20/177/114 19/176/127 265/284/127 266/287/114
f 10/185/190 9/168/206 261/285/206 262/288/190
f 31/231/2 30/222/39 270/286/39 271/273/2
f 6/192/244 5/191/251 257/279/251 258/289/244
f 21/238/96 20/177/114 266/287/114 267/275/96
f 17/207/167 10/185/190 262/288/190 263/277/167
f 7/215/236 6/192/244 258/289/244 259/280/236
f 308/290/289 305/291/290 277/292/291 278/293/292
f 309/294/293 306/295/294 285/296/295 286/297/296
f 310/298/297 308/290/289 278/293/292 279/299/298
f 311/300/299 309/294/293 286/297/296 287/301/300
f 312/302/301 310/298/297 279/299/298 280/303/302
f 313/304/303 311/300/299 287/301/300 288/305/304
f 314/306/305 312/302/301 280/303/302 281/307/306
f 315/308/307 307/309/308 273/310/309 274/311/310
f 307/309/308 313/304/303 288/305/304 273/310/309
f 316/312/311 314/306/305 281/307/306 282/313/312
f 317/314/313 315/308/307 274/311/310 275/315/314
f 318/316/315 316/312/311 282/313/312 283/317/316
f 319/318/317 317/314/313 275/315/314 276/319/318
f 320/320/319 318/316/315 283/317/316 284/321/320
f 305/291/290 319/318/317 276/319/318 277/292/291
f 306/295/294 320/322/319 284/323/320 285/296/295
f 269/283/321 268/282/322 304/324/323 292/325/324
f 261/285/325 260/281/326 303/326/327 290/327/328
f 268/276/322 267/275/329 302/328/330 304/329/323
f 260/281/326 259/280/331 301/330/332 303/326/327
f 267/275/329 266/287/333 300/331/334 302/328/330
f 259/280/331 258/289/335 298/332/336 301/330/332
f 266/287/333 265/284/337 297/333/338 300/331/334
f 257/279/339 272/274/340 296/334/341 299/335/342
f 258/289/335 257/279/339 299/335/342 298/332/336
f 265/284/337 264/278/343 295/336/344 297/333/338
f 272/274/340 271/273/345 294/337/346 296/334/341
f 264/278/343 263/277/347 293/338/348 295/336/344
f 271/273/345 270/286/349 291/339/350 294/337/346
f 263/277/347 262/288/351 289/340/352 293/338/348
f 270/286/349 269/283/321 292/325/324 291/339/350
f 262/288/351 261/285/325 290/327/328 289/340/352
f 292/325/324 304/324/323 320/322/319 306/295/294
f 290/327/328 303/326/327 319/318/317 305/291/290
f 304/329/323 302/328/330 318/316/315 320/320/319
f 303/326/327 301/330/332 317/314/313 319/318/317
f 302/328/330 300/331/334 316/312/311 318/316/315
f 301/330/332 298/332/336 315/308/307 317/314/313
f 300/331/334 297/333/338 314/306/305 316/312/311
f 299/335/342 296/334/341 313/304/303 307/309/308
f 298/332/336 299/335/342 307/309/308 315/308/307
f 297/333/338 295/336/344 312/302/301 314/306/305
f 296/334/341 294/337/346 311/300/299 313/304/303
f 295/336/344 293/338/348 310/298/297 312/302/301
f 294/337/346 291/339/350 309/294/293 311/300/299
f 293/338/348 289/340/352 308/290/289 310/298/297
f 291/339/350 292/325/324 306/295/294 309/294/293
f 289/340/352 290/327/328 305/291/290 308/290/289
f 337/341/353 340/342/354 330/343/355 331/344/356
f 341/345/357 344/346/358 323/347/359 324/348/360
f 345/349/361 337/341/353 331/344/356 332/350/362
f 347/351/363 341/345/357 324/348/360 325/352/364
f 349/353/365 345/354/361 332/355/362 333/356/366
f 351/357/367 347/351/363 325/352/364 326/358/368
f 353/359/369 349/353/365 333/356/366 334/360/370
f 355/361/371 351/357/367 326/358/368 327/362/372
f 357/363/373 353/359/369 334/360/370 335/364/374
f 359/365/375 355/361/371 327/362/372 328/366/376
f 361/367/377 357/363/373 335/364/374 336/368/378
f 363/369/379 359/365/375 328/366/376 329/370/380
f 365/371/381 368/372/382 321/373/383 322/374/384
f 368/372/382 361/367/377 336/368/378 321/373/383
f 340/342/354 363/369/379 329/370/380 330/343/355
f 344/346/358 365/371/381 322/374/384 323/347/359
f 275/315/385 274/311/386 366/375/387 343/376/388
f 343/376/388 366/375/387 365/371/381 344/346/358
f 282/313/389 281/307/390 364/377/391 339/378/392
f 339/378/392 364/377/391 363/369/379 340/342/354
f 273/310/393 288/305/394 362/379/395 367/380/396
f 367/380/396 362/379/395 361/367/377 368/372/382
f 274/311/386 273/310/393 367/380/396 366/375/387
f 366/375/387 367/380/396 368/372/382 365/371/381
f 281/307/390 280/303/397 360/381/398 364/377/391
f 364/377/391 360/381/398 359/365/375 363/369/379
f 288/305/394 287/301/399 358/382/400 362/379/395
f 362/379/395 358/382/400 357/363/373 361/367/377
f 280/303/397 279/299/401 356/383/402 360/381/398
f 360/381/398 356/383/402 355/361/371 359/365/375
f 287/301/399 286/297/403 354/384/404 358/382/400
f 358/382/400 354/384/404 353/359/369 357/363/373
f 279/299/401 278/293/405 352/385/406 356/383/402
f 356/383/402 352/385/406 351/357/367 355/361/371
f 286/297/403 285/296/407 350/386/408 354/384/404
f 354/384/404 350/386/408 349/353/365 353/359/369
f 278/293/405 277/292/409 348/387/410 352/385/406
f 352/385/406 348/387/410 347/351/363 351/357/367
f 285/296/407 284/323/411 346/388/412 350/386/408
f 350/386/408 346/388/412 345/354/361 349/353/365
f 277/292/409 276/319/413 342/389/414 348/387/410
f 348/387/410 342/389/414 341/345/357 347/351/363
f 284/321/411 283/317/415 338/390/416 346/391/412
f 346/391/412 338/390/416 337/341/353 345/349/361
f 276/319/413 275/315/385 343/376/388 342/389/414
f 342/389/414 343/376/388 344/346/358 341/345/357
f 283/317/415 282/313/389 339/378/392 338/390/416
f 338/390/416 339/378/392 340/342/354 337/341/353
f 369/392/147 370/393/147 372/394/147 371/395/147
f 371/396/78 372/397/78 376/59/78 375/398/78
f 375/398/1 376/59/1 374/399/1 373/400/1
f 373/400/221 374/399/221 370/393/221 369/392/221
f 371/395/417 375/398/417 373/400/417 369/392/417
f 376/59/418 372/394/418 370/393/418 374/399/418
f 377/401/147 378/402/147 380/403/147 379/404/147
f 379/405/78 380/406/78 384/407/78 383/408/78
f 383/408/1 384/407/1 382/409/1 381/410/1
f 381/410/221 382/409/221 378/402/221 377/401/221
f 379/405/417 383/408/417 381/410/417 377/401/417
f 384/407/418 380/406/418 378/402/418 382/409/418
f 149/142/137 150/140/135 113/13/161 114/53/138
