# MagicaVoxel @ Ephtracy

# group
o 

# material
mtllib market-stall.mtl
usemtl palette

# normals
vn -1 0 0
vn 1 0 0
vn 0 0 1
vn 0 0 -1
vn 0 -1 0
vn 0 1 0

# texcoords
vt 0.185547 0.5
vt 0.208984 0.5
vt 0.330078 0.5
vt 0.388672 0.5
vt 0.416016 0.5
vt 0.509766 0.5
vt 0.513672 0.5
vt 0.537109 0.5
vt 0.599609 0.5
vt 0.607422 0.5
vt 0.654297 0.5
vt 0.693359 0.5
vt 0.701172 0.5
vt 0.845703 0.5
vt 0.853516 0.5
vt 0.861328 0.5
vt 0.990234 0.5

# verts
v -1.6 0 1.6
v -1.6 0 1.5
v -1.6 0 -1.5
v -1.6 0 -1.6
v -1.6 0.1 1.6
v -1.6 0.1 1.5
v -1.6 0.1 -1.5
v -1.6 0.1 -1.6
v -1.6 2.1 -1.5
v -1.6 2.1 -1.6
v -1.6 2.2 -1.5
v -1.6 2.2 -1.6
v -1.6 2.3 -1.5
v -1.6 2.3 -1.6
v -1.6 2.4 -1.5
v -1.6 2.4 -1.6
v -1.6 2.5 -1.5
v -1.6 2.5 -1.6
v -1.6 2.7 0.1
v -1.6 2.7 -0.1
v -1.6 2.8 1.4
v -1.6 2.8 1.3
v -1.6 2.8 1.2
v -1.6 2.8 1.1
v -1.6 2.8 1
v -1.6 2.8 0.9
v -1.6 2.8 0.8
v -1.6 2.8 0.7
v -1.6 2.8 0.6
v -1.6 2.8 0.5
v -1.6 2.8 0.4
v -1.6 2.8 0.3
v -1.6 2.8 0.2
v -1.6 2.8 0.1
v -1.6 2.8 -0.1
v -1.6 2.8 -0.2
v -1.6 2.8 -0.3
v -1.6 2.8 -0.4
v -1.6 2.8 -0.5
v -1.6 2.8 -0.6
v -1.6 2.8 -0.7
v -1.6 2.8 -0.8
v -1.6 2.8 -0.9
v -1.6 2.8 -1
v -1.6 2.8 -1.1
v -1.6 2.8 -1.2
v -1.6 2.8 -1.3
v -1.6 2.8 -1.4
v -1.6 2.9 1.6
v -1.6 2.9 1.5
v -1.6 2.9 1.4
v -1.6 2.9 1.3
v -1.6 2.9 1.2
v -1.6 2.9 1.1
v -1.6 2.9 1
v -1.6 2.9 0.9
v -1.6 2.9 0.8
v -1.6 2.9 0.7
v -1.6 2.9 0.6
v -1.6 2.9 0.5
v -1.6 2.9 0.4
v -1.6 2.9 0.3
v -1.6 2.9 0.2
v -1.6 2.9 -0.2
v -1.6 2.9 -0.3
v -1.6 2.9 -0.4
v -1.6 2.9 -0.5
v -1.6 2.9 -0.6
v -1.6 2.9 -0.7
v -1.6 2.9 -0.8
v -1.6 2.9 -0.9
v -1.6 2.9 -1
v -1.6 2.9 -1.1
v -1.6 2.9 -1.2
v -1.6 2.9 -1.3
v -1.6 2.9 -1.4
v -1.6 2.9 -1.5
v -1.6 2.9 -1.6
v -1.6 3.2 1.6
v -1.6 3.2 -1.6
v -1.4 2.8 1.6
v -1.4 2.8 1.5
v -1.4 2.8 -1.5
v -1.4 2.8 -1.6
v -1.4 2.9 1.6
v -1.4 2.9 1.5
v -1.4 2.9 -1.5
v -1.4 2.9 -1.6
v -1.2 0 0.3
v -1.2 0 0.2
v -1.2 0 -1.1
v -1.2 0 -1.2
v -1.2 0.3 0.2
v -1.2 0.3 -1.1
v -1.2 0.5 0.3
v -1.2 0.5 -1.2
v -1.2 0.6 0.3
v -1.2 0.6 -1.2
v -1.2 2.8 1.6
v -1.2 2.8 1.5
v -1.2 2.8 -1.5
v -1.2 2.8 -1.6
v -1.2 2.9 1.6
v -1.2 2.9 1.5
v -1.2 2.9 -1.5
v -1.2 2.9 -1.6
v -1 0.6 0.1
v -1 0.6 -0.3
v -1 0.6 -0.5
v -1 0.6 -1
v -1 0.7 0.1
v -1 0.7 -0.3
v -1 0.7 -0.5
v -1 0.7 -1
v -1 2.8 1.6
v -1 2.8 1.5
v -1 2.8 -1.5
v -1 2.8 -1.6
v -1 2.9 1.6
v -1 2.9 1.5
v -1 2.9 -1.5
v -1 2.9 -1.6
v -0.8 2.8 1.6
v -0.8 2.8 1.5
v -0.8 2.8 -1.5
v -0.8 2.8 -1.6
v -0.8 2.9 1.6
v -0.8 2.9 1.5
v -0.8 2.9 -1.5
v -0.8 2.9 -1.6
v -0.6 2.8 1.6
v -0.6 2.8 1.5
v -0.6 2.8 -1.5
v -0.6 2.8 -1.6
v -0.6 2.9 1.6
v -0.6 2.9 1.5
v -0.6 2.9 -1.5
v -0.6 2.9 -1.6
v -0.4 2.8 1.6
v -0.4 2.8 1.5
v -0.4 2.8 -1.5
v -0.4 2.8 -1.6
v -0.4 2.9 1.6
v -0.4 2.9 1.5
v -0.4 2.9 -1.5
v -0.4 2.9 -1.6
v -0.2 2.8 1.6
v -0.2 2.8 1.5
v -0.2 2.8 -1.5
v -0.2 2.8 -1.6
v -0.2 2.9 1.6
v -0.2 2.9 1.5
v -0.2 2.9 -1.5
v -0.2 2.9 -1.6
v -0.1 2.7 1.6
v -0.1 2.7 1.5
v -0.1 2.7 -1.5
v -0.1 2.7 -1.6
v -0.1 2.8 1.6
v -0.1 2.8 1.5
v -0.1 2.8 -1.5
v -0.1 2.8 -1.6
v 0.1 0.6 0.1
v 0.1 0.6 -0.3
v 0.1 0.6 -0.5
v 0.1 0.6 -1
v 0.1 0.7 0.1
v 0.1 0.7 -0.3
v 0.1 0.7 -0.5
v 0.1 0.7 -1
v 0.3 2.8 1.6
v 0.3 2.8 1.5
v 0.3 2.8 -1.5
v 0.3 2.8 -1.6
v 0.3 2.9 1.6
v 0.3 2.9 1.5
v 0.3 2.9 -1.5
v 0.3 2.9 -1.6
v 0.5 2.8 1.6
v 0.5 2.8 1.5
v 0.5 2.8 -1.5
v 0.5 2.8 -1.6
v 0.5 2.9 1.6
v 0.5 2.9 1.5
v 0.5 2.9 -1.5
v 0.5 2.9 -1.6
v 0.7 2.8 1.6
v 0.7 2.8 1.5
v 0.7 2.8 -1.5
v 0.7 2.8 -1.6
v 0.7 2.9 1.6
v 0.7 2.9 1.5
v 0.7 2.9 -1.5
v 0.7 2.9 -1.6
v 0.9 2.8 1.6
v 0.9 2.8 1.5
v 0.9 2.8 -1.5
v 0.9 2.8 -1.6
v 0.9 2.9 1.6
v 0.9 2.9 1.5
v 0.9 2.9 -1.5
v 0.9 2.9 -1.6
v 1.1 0 0.3
v 1.1 0 0.2
v 1.1 0 -1.1
v 1.1 0 -1.2
v 1.1 0.3 0.3
v 1.1 0.3 0.2
v 1.1 0.3 -1.1
v 1.1 0.3 -1.2
v 1.1 2.8 1.6
v 1.1 2.8 1.5
v 1.1 2.8 -1.5
v 1.1 2.8 -1.6
v 1.1 2.9 1.6
v 1.1 2.9 1.5
v 1.1 2.9 -1.5
v 1.1 2.9 -1.6
v 1.3 2.8 1.6
v 1.3 2.8 1.5
v 1.3 2.8 -1.5
v 1.3 2.8 -1.6
v 1.3 2.9 1.6
v 1.3 2.9 1.5
v 1.3 2.9 -1.5
v 1.3 2.9 -1.6
v 1.5 0 1.6
v 1.5 0 1.5
v 1.5 0 -1.5
v 1.5 0 -1.6
v 1.5 0.1 1.6
v 1.5 0.1 1.5
v 1.5 0.1 -1.5
v 1.5 0.1 -1.6
v 1.5 2.1 -1.5
v 1.5 2.1 -1.6
v 1.5 2.2 -1.5
v 1.5 2.2 -1.6
v 1.5 2.3 -1.5
v 1.5 2.3 -1.6
v 1.5 2.4 -1.5
v 1.5 2.4 -1.6
v 1.5 2.5 -1.5
v 1.5 2.5 -1.6
v 1.5 2.7 0.1
v 1.5 2.7 -0.1
v 1.5 2.8 1.4
v 1.5 2.8 1.3
v 1.5 2.8 1.2
v 1.5 2.8 1.1
v 1.5 2.8 1
v 1.5 2.8 0.9
v 1.5 2.8 0.8
v 1.5 2.8 0.7
v 1.5 2.8 0.6
v 1.5 2.8 0.5
v 1.5 2.8 0.4
v 1.5 2.8 0.3
v 1.5 2.8 0.2
v 1.5 2.8 0.1
v 1.5 2.8 -0.1
v 1.5 2.8 -0.2
v 1.5 2.8 -0.3
v 1.5 2.8 -0.4
v 1.5 2.8 -0.5
v 1.5 2.8 -0.6
v 1.5 2.8 -0.7
v 1.5 2.8 -0.8
v 1.5 2.8 -0.9
v 1.5 2.8 -1
v 1.5 2.8 -1.1
v 1.5 2.8 -1.2
v 1.5 2.8 -1.3
v 1.5 2.8 -1.4
v 1.5 2.9 1.6
v 1.5 2.9 1.5
v 1.5 2.9 1.4
v 1.5 2.9 1.3
v 1.5 2.9 1.2
v 1.5 2.9 1.1
v 1.5 2.9 1
v 1.5 2.9 0.9
v 1.5 2.9 0.8
v 1.5 2.9 0.7
v 1.5 2.9 0.6
v 1.5 2.9 0.5
v 1.5 2.9 0.4
v 1.5 2.9 0.3
v 1.5 2.9 0.2
v 1.5 2.9 -0.2
v 1.5 2.9 -0.3
v 1.5 2.9 -0.4
v 1.5 2.9 -0.5
v 1.5 2.9 -0.6
v 1.5 2.9 -0.7
v 1.5 2.9 -0.8
v 1.5 2.9 -0.9
v 1.5 2.9 -1
v 1.5 2.9 -1.1
v 1.5 2.9 -1.2
v 1.5 2.9 -1.3
v 1.5 2.9 -1.4
v 1.5 2.9 -1.5
v 1.5 2.9 -1.6
v 1.5 3 1.5
v 1.5 3 -1.5
v -1.5 0 1.6
v -1.5 0 1.5
v -1.5 0 -1.5
v -1.5 0 -1.6
v -1.5 0.1 1.6
v -1.5 0.1 1.5
v -1.5 0.1 -1.5
v -1.5 0.1 -1.6
v -1.5 2.1 -1.5
v -1.5 2.1 -1.6
v -1.5 2.2 -1.5
v -1.5 2.2 -1.6
v -1.5 2.3 -1.5
v -1.5 2.3 -1.6
v -1.5 2.4 -1.5
v -1.5 2.4 -1.6
v -1.5 2.5 -1.5
v -1.5 2.5 -1.6
v -1.5 2.7 0.1
v -1.5 2.7 -0.1
v -1.5 2.8 1.4
v -1.5 2.8 1.3
v -1.5 2.8 1.2
v -1.5 2.8 1.1
v -1.5 2.8 1
v -1.5 2.8 0.9
v -1.5 2.8 0.8
v -1.5 2.8 0.7
v -1.5 2.8 0.6
v -1.5 2.8 0.5
v -1.5 2.8 0.4
v -1.5 2.8 0.3
v -1.5 2.8 0.2
v -1.5 2.8 0.1
v -1.5 2.8 -0.1
v -1.5 2.8 -0.2
v -1.5 2.8 -0.3
v -1.5 2.8 -0.4
v -1.5 2.8 -0.5
v -1.5 2.8 -0.6
v -1.5 2.8 -0.7
v -1.5 2.8 -0.8
v -1.5 2.8 -0.9
v -1.5 2.8 -1
v -1.5 2.8 -1.1
v -1.5 2.8 -1.2
v -1.5 2.8 -1.3
v -1.5 2.8 -1.4
v -1.5 2.9 1.6
v -1.5 2.9 1.5
v -1.5 2.9 1.4
v -1.5 2.9 1.3
v -1.5 2.9 1.2
v -1.5 2.9 1.1
v -1.5 2.9 1
v -1.5 2.9 0.9
v -1.5 2.9 0.8
v -1.5 2.9 0.7
v -1.5 2.9 0.6
v -1.5 2.9 0.5
v -1.5 2.9 0.4
v -1.5 2.9 0.3
v -1.5 2.9 0.2
v -1.5 2.9 -0.2
v -1.5 2.9 -0.3
v -1.5 2.9 -0.4
v -1.5 2.9 -0.5
v -1.5 2.9 -0.6
v -1.5 2.9 -0.7
v -1.5 2.9 -0.8
v -1.5 2.9 -0.9
v -1.5 2.9 -1
v -1.5 2.9 -1.1
v -1.5 2.9 -1.2
v -1.5 2.9 -1.3
v -1.5 2.9 -1.4
v -1.5 2.9 -1.5
v -1.5 2.9 -1.6
v -1.5 3 1.5
v -1.5 3 -1.5
v -1.3 2.8 1.6
v -1.3 2.8 1.5
v -1.3 2.8 -1.5
v -1.3 2.8 -1.6
v -1.3 2.9 1.6
v -1.3 2.9 1.5
v -1.3 2.9 -1.5
v -1.3 2.9 -1.6
v -1.1 0 0.3
v -1.1 0 0.2
v -1.1 0 -1.1
v -1.1 0 -1.2
v -1.1 0.3 0.3
v -1.1 0.3 0.2
v -1.1 0.3 -1.1
v -1.1 0.3 -1.2
v -1.1 2.8 1.6
v -1.1 2.8 1.5
v -1.1 2.8 -1.5
v -1.1 2.8 -1.6
v -1.1 2.9 1.6
v -1.1 2.9 1.5
v -1.1 2.9 -1.5
v -1.1 2.9 -1.6
v -0.9 2.8 1.6
v -0.9 2.8 1.5
v -0.9 2.8 -1.5
v -0.9 2.8 -1.6
v -0.9 2.9 1.6
v -0.9 2.9 1.5
v -0.9 2.9 -1.5
v -0.9 2.9 -1.6
v -0.7 2.8 1.6
v -0.7 2.8 1.5
v -0.7 2.8 -1.5
v -0.7 2.8 -1.6
v -0.7 2.9 1.6
v -0.7 2.9 1.5
v -0.7 2.9 -1.5
v -0.7 2.9 -1.6
v -0.5 2.8 1.6
v -0.5 2.8 1.5
v -0.5 2.8 -1.5
v -0.5 2.8 -1.6
v -0.5 2.9 1.6
v -0.5 2.9 1.5
v -0.5 2.9 -1.5
v -0.5 2.9 -1.6
v -0.3 2.8 1.6
v -0.3 2.8 1.5
v -0.3 2.8 -1.5
v -0.3 2.8 -1.6
v -0.3 2.9 1.6
v -0.3 2.9 1.5
v -0.3 2.9 -1.5
v -0.3 2.9 -1.6
v -0.1 0.6 0.1
v -0.1 0.6 -0.3
v -0.1 0.6 -0.5
v -0.1 0.6 -1
v -0.1 0.7 0.1
v -0.1 0.7 -0.3
v -0.1 0.7 -0.5
v -0.1 0.7 -1
v 0.1 2.7 1.6
v 0.1 2.7 1.5
v 0.1 2.7 -1.5
v 0.1 2.7 -1.6
v 0.1 2.8 1.6
v 0.1 2.8 1.5
v 0.1 2.8 -1.5
v 0.1 2.8 -1.6
v 0.2 2.8 1.6
v 0.2 2.8 1.5
v 0.2 2.8 -1.5
v 0.2 2.8 -1.6
v 0.2 2.9 1.6
v 0.2 2.9 1.5
v 0.2 2.9 -1.5
v 0.2 2.9 -1.6
v 0.4 2.8 1.6
v 0.4 2.8 1.5
v 0.4 2.8 -1.5
v 0.4 2.8 -1.6
v 0.4 2.9 1.6
v 0.4 2.9 1.5
v 0.4 2.9 -1.5
v 0.4 2.9 -1.6
v 0.6 2.8 1.6
v 0.6 2.8 1.5
v 0.6 2.8 -1.5
v 0.6 2.8 -1.6
v 0.6 2.9 1.6
v 0.6 2.9 1.5
v 0.6 2.9 -1.5
v 0.6 2.9 -1.6
v 0.8 2.8 1.6
v 0.8 2.8 1.5
v 0.8 2.8 -1.5
v 0.8 2.8 -1.6
v 0.8 2.9 1.6
v 0.8 2.9 1.5
v 0.8 2.9 -1.5
v 0.8 2.9 -1.6
v 1 0.6 0.1
v 1 0.6 -0.3
v 1 0.6 -0.5
v 1 0.6 -1
v 1 0.7 0.1
v 1 0.7 -0.3
v 1 0.7 -0.5
v 1 0.7 -1
v 1 2.8 1.6
v 1 2.8 1.5
v 1 2.8 -1.5
v 1 2.8 -1.6
v 1 2.9 1.6
v 1 2.9 1.5
v 1 2.9 -1.5
v 1 2.9 -1.6
v 1.2 0 0.3
v 1.2 0 0.2
v 1.2 0 -1.1
v 1.2 0 -1.2
v 1.2 0.3 0.2
v 1.2 0.3 -1.1
v 1.2 0.5 0.3
v 1.2 0.5 -1.2
v 1.2 0.6 0.3
v 1.2 0.6 -1.2
v 1.2 2.8 1.6
v 1.2 2.8 1.5
v 1.2 2.8 -1.5
v 1.2 2.8 -1.6
v 1.2 2.9 1.6
v 1.2 2.9 1.5
v 1.2 2.9 -1.5
v 1.2 2.9 -1.6
v 1.4 2.8 1.6
v 1.4 2.8 1.5
v 1.4 2.8 -1.5
v 1.4 2.8 -1.6
v 1.4 2.9 1.6
v 1.4 2.9 1.5
v 1.4 2.9 -1.5
v 1.4 2.9 -1.6
v 1.6 0 1.6
v 1.6 0 1.5
v 1.6 0 -1.5
v 1.6 0 -1.6
v 1.6 0.1 1.6
v 1.6 0.1 1.5
v 1.6 0.1 -1.5
v 1.6 0.1 -1.6
v 1.6 2.1 -1.5
v 1.6 2.1 -1.6
v 1.6 2.2 -1.5
v 1.6 2.2 -1.6
v 1.6 2.3 -1.5
v 1.6 2.3 -1.6
v 1.6 2.4 -1.5
v 1.6 2.4 -1.6
v 1.6 2.5 -1.5
v 1.6 2.5 -1.6
v 1.6 2.7 0.1
v 1.6 2.7 -0.1
v 1.6 2.8 1.4
v 1.6 2.8 1.3
v 1.6 2.8 1.2
v 1.6 2.8 1.1
v 1.6 2.8 1
v 1.6 2.8 0.9
v 1.6 2.8 0.8
v 1.6 2.8 0.7
v 1.6 2.8 0.6
v 1.6 2.8 0.5
v 1.6 2.8 0.4
v 1.6 2.8 0.3
v 1.6 2.8 0.2
v 1.6 2.8 0.1
v 1.6 2.8 -0.1
v 1.6 2.8 -0.2
v 1.6 2.8 -0.3
v 1.6 2.8 -0.4
v 1.6 2.8 -0.5
v 1.6 2.8 -0.6
v 1.6 2.8 -0.7
v 1.6 2.8 -0.8
v 1.6 2.8 -0.9
v 1.6 2.8 -1
v 1.6 2.8 -1.1
v 1.6 2.8 -1.2
v 1.6 2.8 -1.3
v 1.6 2.8 -1.4
v 1.6 2.9 1.6
v 1.6 2.9 1.5
v 1.6 2.9 1.4
v 1.6 2.9 1.3
v 1.6 2.9 1.2
v 1.6 2.9 1.1
v 1.6 2.9 1
v 1.6 2.9 0.9
v 1.6 2.9 0.8
v 1.6 2.9 0.7
v 1.6 2.9 0.6
v 1.6 2.9 0.5
v 1.6 2.9 0.4
v 1.6 2.9 0.3
v 1.6 2.9 0.2
v 1.6 2.9 -0.2
v 1.6 2.9 -0.3
v 1.6 2.9 -0.4
v 1.6 2.9 -0.5
v 1.6 2.9 -0.6
v 1.6 2.9 -0.7
v 1.6 2.9 -0.8
v 1.6 2.9 -0.9
v 1.6 2.9 -1
v 1.6 2.9 -1.1
v 1.6 2.9 -1.2
v 1.6 2.9 -1.3
v 1.6 2.9 -1.4
v 1.6 2.9 -1.5
v 1.6 2.9 -1.6
v 1.6 3.2 1.6
v 1.6 3.2 -1.6
v -1.6 0 1.6
v -1.6 0.1 1.6
v -1.6 2.9 1.6
v -1.6 3.2 1.6
v -1.5 0 1.6
v -1.5 0.1 1.6
v -1.5 2.9 1.6
v -1.4 2.8 1.6
v -1.4 2.9 1.6
v -1.4 3.2 1.6
v -1.3 2.8 1.6
v -1.3 2.9 1.6
v -1.3 3.2 1.6
v -1.2 2.8 1.6
v -1.2 2.9 1.6
v -1.2 3.2 1.6
v -1.1 2.8 1.6
v -1.1 2.9 1.6
v -1.1 3.2 1.6
v -1 2.8 1.6
v -1 2.9 1.6
v -1 3.2 1.6
v -0.9 2.8 1.6
v -0.9 2.9 1.6
v -0.9 3.2 1.6
v -0.8 2.8 1.6
v -0.8 2.9 1.6
v -0.8 3.2 1.6
v -0.7 2.8 1.6
v -0.7 2.9 1.6
v -0.7 3.2 1.6
v -0.6 2.8 1.6
v -0.6 2.9 1.6
v -0.6 3.2 1.6
v -0.5 2.8 1.6
v -0.5 2.9 1.6
v -0.5 3.2 1.6
v -0.4 2.8 1.6
v -0.4 2.9 1.6
v -0.4 3.2 1.6
v -0.3 2.8 1.6
v -0.3 2.9 1.6
v -0.3 3.2 1.6
v -0.2 2.8 1.6
v -0.2 2.9 1.6
v -0.1 2.7 1.6
v -0.1 2.8 1.6
v -0.1 3.2 1.6
v 0.1 2.7 1.6
v 0.1 2.8 1.6
v 0.1 3.2 1.6
v 0.2 2.8 1.6
v 0.2 2.9 1.6
v 0.3 2.8 1.6
v 0.3 2.9 1.6
v 0.3 3.2 1.6
v 0.4 2.8 1.6
v 0.4 2.9 1.6
v 0.4 3.2 1.6
v 0.5 2.8 1.6
v 0.5 2.9 1.6
v 0.5 3.2 1.6
v 0.6 2.8 1.6
v 0.6 2.9 1.6
v 0.6 3.2 1.6
v 0.7 2.8 1.6
v 0.7 2.9 1.6
v 0.7 3.2 1.6
v 0.8 2.8 1.6
v 0.8 2.9 1.6
v 0.8 3.2 1.6
v 0.9 2.8 1.6
v 0.9 2.9 1.6
v 0.9 3.2 1.6
v 1 2.8 1.6
v 1 2.9 1.6
v 1 3.2 1.6
v 1.1 2.8 1.6
v 1.1 2.9 1.6
v 1.1 3.2 1.6
v 1.2 2.8 1.6
v 1.2 2.9 1.6
v 1.2 3.2 1.6
v 1.3 2.8 1.6
v 1.3 2.9 1.6
v 1.3 3.2 1.6
v 1.4 2.8 1.6
v 1.4 2.9 1.6
v 1.4 3.2 1.6
v 1.5 0 1.6
v 1.5 0.1 1.6
v 1.5 2.9 1.6
v 1.6 0 1.6
v 1.6 0.1 1.6
v 1.6 2.9 1.6
v 1.6 3.2 1.6
v -1.6 2.8 1.4
v -1.6 2.9 1.4
v -1.5 2.8 1.4
v -1.5 2.9 1.4
v 1.5 2.8 1.4
v 1.5 2.9 1.4
v 1.6 2.8 1.4
v 1.6 2.9 1.4
v -1.6 2.8 1.2
v -1.6 2.9 1.2
v -1.5 2.8 1.2
v -1.5 2.9 1.2
v 1.5 2.8 1.2
v 1.5 2.9 1.2
v 1.6 2.8 1.2
v 1.6 2.9 1.2
v -1.6 2.8 1
v -1.6 2.9 1
v -1.5 2.8 1
v -1.5 2.9 1
v 1.5 2.8 1
v 1.5 2.9 1
v 1.6 2.8 1
v 1.6 2.9 1
v -1.6 2.8 0.8
v -1.6 2.9 0.8
v -1.5 2.8 0.8
v -1.5 2.9 0.8
v 1.5 2.8 0.8
v 1.5 2.9 0.8
v 1.6 2.8 0.8
v 1.6 2.9 0.8
v -1.6 2.8 0.6
v -1.6 2.9 0.6
v -1.5 2.8 0.6
v -1.5 2.9 0.6
v 1.5 2.8 0.6
v 1.5 2.9 0.6
v 1.6 2.8 0.6
v 1.6 2.9 0.6
v -1.6 2.8 0.4
v -1.6 2.9 0.4
v -1.5 2.8 0.4
v -1.5 2.9 0.4
v 1.5 2.8 0.4
v 1.5 2.9 0.4
v 1.6 2.8 0.4
v 1.6 2.9 0.4
v -1.2 0 0.3
v -1.2 0.5 0.3
v -1.2 0.6 0.3
v -1.1 0 0.3
v -1.1 0.3 0.3
v 1.1 0 0.3
v 1.1 0.3 0.3
v 1.2 0 0.3
v 1.2 0.5 0.3
v 1.2 0.6 0.3
v -1.6 2.8 0.2
v -1.6 2.9 0.2
v -1.5 2.8 0.2
v -1.5 2.9 0.2
v 1.5 2.8 0.2
v 1.5 2.9 0.2
v 1.6 2.8 0.2
v 1.6 2.9 0.2
v -1.6 2.7 0.1
v -1.6 2.8 0.1
v -1.5 2.7 0.1
v -1.5 2.8 0.1
v -1 0.6 0.1
v -1 0.7 0.1
v -0.1 0.6 0.1
v -0.1 0.7 0.1
v 0.1 0.6 0.1
v 0.1 0.7 0.1
v 1 0.6 0.1
v 1 0.7 0.1
v 1.5 2.7 0.1
v 1.5 2.8 0.1
v 1.6 2.7 0.1
v 1.6 2.8 0.1
v -1.6 2.8 -0.3
v -1.6 2.9 -0.3
v -1.5 2.8 -0.3
v -1.5 2.9 -0.3
v 1.5 2.8 -0.3
v 1.5 2.9 -0.3
v 1.6 2.8 -0.3
v 1.6 2.9 -0.3
v -1.6 2.8 -0.5
v -1.6 2.9 -0.5
v -1.5 2.8 -0.5
v -1.5 2.9 -0.5
v -1 0.6 -0.5
v -1 0.7 -0.5
v -0.1 0.6 -0.5
v -0.1 0.7 -0.5
v 0.1 0.6 -0.5
v 0.1 0.7 -0.5
v 1 0.6 -0.5
v 1 0.7 -0.5
v 1.5 2.8 -0.5
v 1.5 2.9 -0.5
v 1.6 2.8 -0.5
v 1.6 2.9 -0.5
v -1.6 2.8 -0.7
v -1.6 2.9 -0.7
v -1.5 2.8 -0.7
v -1.5 2.9 -0.7
v 1.5 2.8 -0.7
v 1.5 2.9 -0.7
v 1.6 2.8 -0.7
v 1.6 2.9 -0.7
v -1.6 2.8 -0.9
v -1.6 2.9 -0.9
v -1.5 2.8 -0.9
v -1.5 2.9 -0.9
v 1.5 2.8 -0.9
v 1.5 2.9 -0.9
v 1.6 2.8 -0.9
v 1.6 2.9 -0.9
v -1.6 2.8 -1.1
v -1.6 2.9 -1.1
v -1.5 2.8 -1.1
v -1.5 2.9 -1.1
v -1.2 0 -1.1
v -1.2 0.3 -1.1
v -1.1 0 -1.1
v -1.1 0.3 -1.1
v 1.1 0 -1.1
v 1.1 0.3 -1.1
v 1.2 0 -1.1
v 1.2 0.3 -1.1
v 1.5 2.8 -1.1
v 1.5 2.9 -1.1
v 1.6 2.8 -1.1
v 1.6 2.9 -1.1
v -1.6 2.8 -1.3
v -1.6 2.9 -1.3
v -1.5 2.8 -1.3
v -1.5 2.9 -1.3
v 1.5 2.8 -1.3
v 1.5 2.9 -1.3
v 1.6 2.8 -1.3
v 1.6 2.9 -1.3
v -1.6 0 -1.5
v -1.6 0.1 -1.5
v -1.6 2.1 -1.5
v -1.6 2.2 -1.5
v -1.6 2.3 -1.5
v -1.6 2.4 -1.5
v -1.6 2.5 -1.5
v -1.6 2.9 -1.5
v -1.5 0 -1.5
v -1.5 0.1 -1.5
v -1.5 2.1 -1.5
v -1.5 2.2 -1.5
v -1.5 2.3 -1.5
v -1.5 2.4 -1.5
v -1.5 2.5 -1.5
v -1.5 2.9 -1.5
v -1.5 3 -1.5
v -1.4 2.8 -1.5
v -1.4 2.9 -1.5
v -1.4 3 -1.5
v -1.3 2.8 -1.5
v -1.3 2.9 -1.5
v -1.3 3 -1.5
v -1.2 2.8 -1.5
v -1.2 2.9 -1.5
v -1.2 3 -1.5
v -1.1 2.8 -1.5
v -1.1 2.9 -1.5
v -1.1 3 -1.5
v -1 2.8 -1.5
v -1 2.9 -1.5
v -1 3 -1.5
v -0.9 2.8 -1.5
v -0.9 2.9 -1.5
v -0.9 3 -1.5
v -0.8 2.8 -1.5
v -0.8 2.9 -1.5
v -0.8 3 -1.5
v -0.7 2.8 -1.5
v -0.7 2.9 -1.5
v -0.7 3 -1.5
v -0.6 2.8 -1.5
v -0.6 2.9 -1.5
v -0.6 3 -1.5
v -0.5 2.8 -1.5
v -0.5 2.9 -1.5
v -0.5 3 -1.5
v -0.4 2.8 -1.5
v -0.4 2.9 -1.5
v -0.4 3 -1.5
v -0.3 2.8 -1.5
v -0.3 2.9 -1.5
v -0.3 3 -1.5
v -0.2 2.8 -1.5
v -0.2 2.9 -1.5
v -0.1 2.7 -1.5
v -0.1 2.8 -1.5
v -0.1 3 -1.5
v 0.1 2.7 -1.5
v 0.1 2.8 -1.5
v 0.1 3 -1.5
v 0.2 2.8 -1.5
v 0.2 2.9 -1.5
v 0.3 2.8 -1.5
v 0.3 2.9 -1.5
v 0.3 3 -1.5
v 0.4 2.8 -1.5
v 0.4 2.9 -1.5
v 0.4 3 -1.5
v 0.5 2.8 -1.5
v 0.5 2.9 -1.5
v 0.5 3 -1.5
v 0.6 2.8 -1.5
v 0.6 2.9 -1.5
v 0.6 3 -1.5
v 0.7 2.8 -1.5
v 0.7 2.9 -1.5
v 0.7 3 -1.5
v 0.8 2.8 -1.5
v 0.8 2.9 -1.5
v 0.8 3 -1.5
v 0.9 2.8 -1.5
v 0.9 2.9 -1.5
v 0.9 3 -1.5
v 1 2.8 -1.5
v 1 2.9 -1.5
v 1 3 -1.5
v 1.1 2.8 -1.5
v 1.1 2.9 -1.5
v 1.1 3 -1.5
v 1.2 2.8 -1.5
v 1.2 2.9 -1.5
v 1.2 3 -1.5
v 1.3 2.8 -1.5
v 1.3 2.9 -1.5
v 1.3 3 -1.5
v 1.4 2.8 -1.5
v 1.4 2.9 -1.5
v 1.4 3 -1.5
v 1.5 0 -1.5
v 1.5 0.1 -1.5
v 1.5 2.1 -1.5
v 1.5 2.2 -1.5
v 1.5 2.3 -1.5
v 1.5 2.4 -1.5
v 1.5 2.5 -1.5
v 1.5 2.9 -1.5
v 1.5 3 -1.5
v 1.6 0 -1.5
v 1.6 0.1 -1.5
v 1.6 2.1 -1.5
v 1.6 2.2 -1.5
v 1.6 2.3 -1.5
v 1.6 2.4 -1.5
v 1.6 2.5 -1.5
v 1.6 2.9 -1.5
v -1.6 0 1.5
v -1.6 0.1 1.5
v -1.6 2.9 1.5
v -1.5 0 1.5
v -1.5 0.1 1.5
v -1.5 2.9 1.5
v -1.5 3 1.5
v -1.4 2.8 1.5
v -1.4 2.9 1.5
v -1.4 3 1.5
v -1.3 2.8 1.5
v -1.3 2.9 1.5
v -1.3 3 1.5
v -1.2 2.8 1.5
v -1.2 2.9 1.5
v -1.2 3 1.5
v -1.1 2.8 1.5
v -1.1 2.9 1.5
v -1.1 3 1.5
v -1 2.8 1.5
v -1 2.9 1.5
v -1 3 1.5
v -0.9 2.8 1.5
v -0.9 2.9 1.5
v -0.9 3 1.5
v -0.8 2.8 1.5
v -0.8 2.9 1.5
v -0.8 3 1.5
v -0.7 2.8 1.5
v -0.7 2.9 1.5
v -0.7 3 1.5
v -0.6 2.8 1.5
v -0.6 2.9 1.5
v -0.6 3 1.5
v -0.5 2.8 1.5
v -0.5 2.9 1.5
v -0.5 3 1.5
v -0.4 2.8 1.5
v -0.4 2.9 1.5
v -0.4 3 1.5
v -0.3 2.8 1.5
v -0.3 2.9 1.5
v -0.3 3 1.5
v -0.2 2.8 1.5
v -0.2 2.9 1.5
v -0.1 2.7 1.5
v -0.1 2.8 1.5
v -0.1 3 1.5
v 0.1 2.7 1.5
v 0.1 2.8 1.5
v 0.1 3 1.5
v 0.2 2.8 1.5
v 0.2 2.9 1.5
v 0.3 2.8 1.5
v 0.3 2.9 1.5
v 0.3 3 1.5
v 0.4 2.8 1.5
v 0.4 2.9 1.5
v 0.4 3 1.5
v 0.5 2.8 1.5
v 0.5 2.9 1.5
v 0.5 3 1.5
v 0.6 2.8 1.5
v 0.6 2.9 1.5
v 0.6 3 1.5
v 0.7 2.8 1.5
v 0.7 2.9 1.5
v 0.7 3 1.5
v 0.8 2.8 1.5
v 0.8 2.9 1.5
v 0.8 3 1.5
v 0.9 2.8 1.5
v 0.9 2.9 1.5
v 0.9 3 1.5
v 1 2.8 1.5
v 1 2.9 1.5
v 1 3 1.5
v 1.1 2.8 1.5
v 1.1 2.9 1.5
v 1.1 3 1.5
v 1.2 2.8 1.5
v 1.2 2.9 1.5
v 1.2 3 1.5
v 1.3 2.8 1.5
v 1.3 2.9 1.5
v 1.3 3 1.5
v 1.4 2.8 1.5
v 1.4 2.9 1.5
v 1.4 3 1.5
v 1.5 0 1.5
v 1.5 0.1 1.5
v 1.5 2.9 1.5
v 1.5 3 1.5
v 1.6 0 1.5
v 1.6 0.1 1.5
v 1.6 2.9 1.5
v -1.6 2.8 1.3
v -1.6 2.9 1.3
v -1.5 2.8 1.3
v -1.5 2.9 1.3
v 1.5 2.8 1.3
v 1.5 2.9 1.3
v 1.6 2.8 1.3
v 1.6 2.9 1.3
v -1.6 2.8 1.1
v -1.6 2.9 1.1
v -1.5 2.8 1.1
v -1.5 2.9 1.1
v 1.5 2.8 1.1
v 1.5 2.9 1.1
v 1.6 2.8 1.1
v 1.6 2.9 1.1
v -1.6 2.8 0.9
v -1.6 2.9 0.9
v -1.5 2.8 0.9
v -1.5 2.9 0.9
v 1.5 2.8 0.9
v 1.5 2.9 0.9
v 1.6 2.8 0.9
v 1.6 2.9 0.9
v -1.6 2.8 0.7
v -1.6 2.9 0.7
v -1.5 2.8 0.7
v -1.5 2.9 0.7
v 1.5 2.8 0.7
v 1.5 2.9 0.7
v 1.6 2.8 0.7
v 1.6 2.9 0.7
v -1.6 2.8 0.5
v -1.6 2.9 0.5
v -1.5 2.8 0.5
v -1.5 2.9 0.5
v 1.5 2.8 0.5
v 1.5 2.9 0.5
v 1.6 2.8 0.5
v 1.6 2.9 0.5
v -1.6 2.8 0.3
v -1.6 2.9 0.3
v -1.5 2.8 0.3
v -1.5 2.9 0.3
v 1.5 2.8 0.3
v 1.5 2.9 0.3
v 1.6 2.8 0.3
v 1.6 2.9 0.3
v -1.2 0 0.2
v -1.2 0.3 0.2
v -1.1 0 0.2
v -1.1 0.3 0.2
v 1.1 0 0.2
v 1.1 0.3 0.2
v 1.2 0 0.2
v 1.2 0.3 0.2
v -1.6 2.7 -0.1
v -1.6 2.8 -0.1
v -1.5 2.7 -0.1
v -1.5 2.8 -0.1
v 1.5 2.7 -0.1
v 1.5 2.8 -0.1
v 1.6 2.7 -0.1
v 1.6 2.8 -0.1
v -1.6 2.8 -0.2
v -1.6 2.9 -0.2
v -1.5 2.8 -0.2
v -1.5 2.9 -0.2
v 1.5 2.8 -0.2
v 1.5 2.9 -0.2
v 1.6 2.8 -0.2
v 1.6 2.9 -0.2
v -1 0.6 -0.3
v -1 0.7 -0.3
v -0.1 0.6 -0.3
v -0.1 0.7 -0.3
v 0.1 0.6 -0.3
v 0.1 0.7 -0.3
v 1 0.6 -0.3
v 1 0.7 -0.3
v -1.6 2.8 -0.4
v -1.6 2.9 -0.4
v -1.5 2.8 -0.4
v -1.5 2.9 -0.4
v 1.5 2.8 -0.4
v 1.5 2.9 -0.4
v 1.6 2.8 -0.4
v 1.6 2.9 -0.4
v -1.6 2.8 -0.6
v -1.6 2.9 -0.6
v -1.5 2.8 -0.6
v -1.5 2.9 -0.6
v 1.5 2.8 -0.6
v 1.5 2.9 -0.6
v 1.6 2.8 -0.6
v 1.6 2.9 -0.6
v -1.6 2.8 -0.8
v -1.6 2.9 -0.8
v -1.5 2.8 -0.8
v -1.5 2.9 -0.8
v 1.5 2.8 -0.8
v 1.5 2.9 -0.8
v 1.6 2.8 -0.8
v 1.6 2.9 -0.8
v -1.6 2.8 -1
v -1.6 2.9 -1
v -1.5 2.8 -1
v -1.5 2.9 -1
v -1 0.6 -1
v -1 0.7 -1
v -0.1 0.6 -1
v -0.1 0.7 -1
v 0.1 0.6 -1
v 0.1 0.7 -1
v 1 0.6 -1
v 1 0.7 -1
v 1.5 2.8 -1
v 1.5 2.9 -1
v 1.6 2.8 -1
v 1.6 2.9 -1
v -1.6 2.8 -1.2
v -1.6 2.9 -1.2
v -1.5 2.8 -1.2
v -1.5 2.9 -1.2
v -1.2 0 -1.2
v -1.2 0.5 -1.2
v -1.2 0.6 -1.2
v -1.1 0 -1.2
v -1.1 0.3 -1.2
v 1.1 0 -1.2
v 1.1 0.3 -1.2
v 1.2 0 -1.2
v 1.2 0.5 -1.2
v 1.2 0.6 -1.2
v 1.5 2.8 -1.2
v 1.5 2.9 -1.2
v 1.6 2.8 -1.2
v 1.6 2.9 -1.2
v -1.6 2.8 -1.4
v -1.6 2.9 -1.4
v -1.5 2.8 -1.4
v -1.5 2.9 -1.4
v 1.5 2.8 -1.4
v 1.5 2.9 -1.4
v 1.6 2.8 -1.4
v 1.6 2.9 -1.4
v -1.6 0 -1.6
v -1.6 0.1 -1.6
v -1.6 2.1 -1.6
v -1.6 2.2 -1.6
v -1.6 2.3 -1.6
v -1.6 2.4 -1.6
v -1.6 2.5 -1.6
v -1.6 2.9 -1.6
v -1.6 3.2 -1.6
v -1.5 0 -1.6
v -1.5 0.1 -1.6
v -1.5 2.1 -1.6
v -1.5 2.2 -1.6
v -1.5 2.3 -1.6
v -1.5 2.4 -1.6
v -1.5 2.5 -1.6
v -1.5 2.9 -1.6
v -1.4 2.8 -1.6
v -1.4 2.9 -1.6
v -1.4 3.2 -1.6
v -1.3 2.8 -1.6
v -1.3 2.9 -1.6
v -1.3 3.2 -1.6
v -1.2 2.8 -1.6
v -1.2 2.9 -1.6
v -1.2 3.2 -1.6
v -1.1 2.8 -1.6
v -1.1 2.9 -1.6
v -1.1 3.2 -1.6
v -1 2.8 -1.6
v -1 2.9 -1.6
v -1 3.2 -1.6
v -0.9 2.8 -1.6
v -0.9 2.9 -1.6
v -0.9 3.2 -1.6
v -0.8 2.8 -1.6
v -0.8 2.9 -1.6
v -0.8 3.2 -1.6
v -0.7 2.8 -1.6
v -0.7 2.9 -1.6
v -0.7 3.2 -1.6
v -0.6 2.8 -1.6
v -0.6 2.9 -1.6
v -0.6 3.2 -1.6
v -0.5 2.8 -1.6
v -0.5 2.9 -1.6
v -0.5 3.2 -1.6
v -0.4 2.8 -1.6
v -0.4 2.9 -1.6
v -0.4 3.2 -1.6
v -0.3 2.8 -1.6
v -0.3 2.9 -1.6
v -0.3 3.2 -1.6
v -0.2 2.8 -1.6
v -0.2 2.9 -1.6
v -0.1 2.7 -1.6
v -0.1 2.8 -1.6
v -0.1 3.2 -1.6
v 0.1 2.7 -1.6
v 0.1 2.8 -1.6
v 0.1 3.2 -1.6
v 0.2 2.8 -1.6
v 0.2 2.9 -1.6
v 0.3 2.8 -1.6
v 0.3 2.9 -1.6
v 0.3 3.2 -1.6
v 0.4 2.8 -1.6
v 0.4 2.9 -1.6
v 0.4 3.2 -1.6
v 0.5 2.8 -1.6
v 0.5 2.9 -1.6
v 0.5 3.2 -1.6
v 0.6 2.8 -1.6
v 0.6 2.9 -1.6
v 0.6 3.2 -1.6
v 0.7 2.8 -1.6
v 0.7 2.9 -1.6
v 0.7 3.2 -1.6
v 0.8 2.8 -1.6
v 0.8 2.9 -1.6
v 0.8 3.2 -1.6
v 0.9 2.8 -1.6
v 0.9 2.9 -1.6
v 0.9 3.2 -1.6
v 1 2.8 -1.6
v 1 2.9 -1.6
v 1 3.2 -1.6
v 1.1 2.8 -1.6
v 1.1 2.9 -1.6
v 1.1 3.2 -1.6
v 1.2 2.8 -1.6
v 1.2 2.9 -1.6
v 1.2 3.2 -1.6
v 1.3 2.8 -1.6
v 1.3 2.9 -1.6
v 1.3 3.2 -1.6
v 1.4 2.8 -1.6
v 1.4 2.9 -1.6
v 1.4 3.2 -1.6
v 1.5 0 -1.6
v 1.5 0.1 -1.6
v 1.5 2.1 -1.6
v 1.5 2.2 -1.6
v 1.5 2.3 -1.6
v 1.5 2.4 -1.6
v 1.5 2.5 -1.6
v 1.5 2.9 -1.6
v 1.6 0 -1.6
v 1.6 0.1 -1.6
v 1.6 2.1 -1.6
v 1.6 2.2 -1.6
v 1.6 2.3 -1.6
v 1.6 2.4 -1.6
v 1.6 2.5 -1.6
v 1.6 2.9 -1.6
v 1.6 3.2 -1.6
v -1.6 0 1.6
v -1.5 0 1.6
v 1.5 0 1.6
v 1.6 0 1.6
v -1.6 0 1.5
v -1.5 0 1.5
v 1.5 0 1.5
v 1.6 0 1.5
v -1.2 0 0.3
v -1.1 0 0.3
v 1.1 0 0.3
v 1.2 0 0.3
v -1.2 0 0.2
v -1.1 0 0.2
v 1.1 0 0.2
v 1.2 0 0.2
v -1.2 0 -1.1
v -1.1 0 -1.1
v 1.1 0 -1.1
v 1.2 0 -1.1
v -1.2 0 -1.2
v -1.1 0 -1.2
v 1.1 0 -1.2
v 1.2 0 -1.2
v -1.6 0 -1.5
v -1.5 0 -1.5
v 1.5 0 -1.5
v 1.6 0 -1.5
v -1.6 0 -1.6
v -1.5 0 -1.6
v 1.5 0 -1.6
v 1.6 0 -1.6
v -1.1 0.3 0.3
v 1.1 0.3 0.3
v -1.2 0.3 0.2
v -1.1 0.3 0.2
v 1.1 0.3 0.2
v 1.2 0.3 0.2
v -1.2 0.3 -1.1
v -1.1 0.3 -1.1
v 1.1 0.3 -1.1
v 1.2 0.3 -1.1
v -1.1 0.3 -1.2
v 1.1 0.3 -1.2
v -0.1 2.7 1.6
v 0.1 2.7 1.6
v -0.1 2.7 1.5
v 0.1 2.7 1.5
v -1.6 2.7 0.1
v -1.5 2.7 0.1
v 1.5 2.7 0.1
v 1.6 2.7 0.1
v -1.6 2.7 -0.1
v -1.5 2.7 -0.1
v 1.5 2.7 -0.1
v 1.6 2.7 -0.1
v -0.1 2.7 -1.5
v 0.1 2.7 -1.5
v -0.1 2.7 -1.6
v 0.1 2.7 -1.6
v -1.4 2.8 1.6
v -1.3 2.8 1.6
v -1.2 2.8 1.6
v -1.1 2.8 1.6
v -1 2.8 1.6
v -0.9 2.8 1.6
v -0.8 2.8 1.6
v -0.7 2.8 1.6
v -0.6 2.8 1.6
v -0.5 2.8 1.6
v -0.4 2.8 1.6
v -0.3 2.8 1.6
v -0.2 2.8 1.6
v -0.1 2.8 1.6
v 0.1 2.8 1.6
v 0.2 2.8 1.6
v 0.3 2.8 1.6
v 0.4 2.8 1.6
v 0.5 2.8 1.6
v 0.6 2.8 1.6
v 0.7 2.8 1.6
v 0.8 2.8 1.6
v 0.9 2.8 1.6
v 1 2.8 1.6
v 1.1 2.8 1.6
v 1.2 2.8 1.6
v 1.3 2.8 1.6
v 1.4 2.8 1.6
v -1.4 2.8 1.5
v -1.3 2.8 1.5
v -1.2 2.8 1.5
v -1.1 2.8 1.5
v -1 2.8 1.5
v -0.9 2.8 1.5
v -0.8 2.8 1.5
v -0.7 2.8 1.5
v -0.6 2.8 1.5
v -0.5 2.8 1.5
v -0.4 2.8 1.5
v -0.3 2.8 1.5
v -0.2 2.8 1.5
v -0.1 2.8 1.5
v 0.1 2.8 1.5
v 0.2 2.8 1.5
v 0.3 2.8 1.5
v 0.4 2.8 1.5
v 0.5 2.8 1.5
v 0.6 2.8 1.5
v 0.7 2.8 1.5
v 0.8 2.8 1.5
v 0.9 2.8 1.5
v 1 2.8 1.5
v 1.1 2.8 1.5
v 1.2 2.8 1.5
v 1.3 2.8 1.5
v 1.4 2.8 1.5
v -1.6 2.8 1.4
v -1.5 2.8 1.4
v 1.5 2.8 1.4
v 1.6 2.8 1.4
v -1.6 2.8 1.3
v -1.5 2.8 1.3
v 1.5 2.8 1.3
v 1.6 2.8 1.3
v -1.6 2.8 1.2
v -1.5 2.8 1.2
v 1.5 2.8 1.2
v 1.6 2.8 1.2
v -1.6 2.8 1.1
v -1.5 2.8 1.1
v 1.5 2.8 1.1
v 1.6 2.8 1.1
v -1.6 2.8 1
v -1.5 2.8 1
v 1.5 2.8 1
v 1.6 2.8 1
v -1.6 2.8 0.9
v -1.5 2.8 0.9
v 1.5 2.8 0.9
v 1.6 2.8 0.9
v -1.6 2.8 0.8
v -1.5 2.8 0.8
v 1.5 2.8 0.8
v 1.6 2.8 0.8
v -1.6 2.8 0.7
v -1.5 2.8 0.7
v 1.5 2.8 0.7
v 1.6 2.8 0.7
v -1.6 2.8 0.6
v -1.5 2.8 0.6
v 1.5 2.8 0.6
v 1.6 2.8 0.6
v -1.6 2.8 0.5
v -1.5 2.8 0.5
v 1.5 2.8 0.5
v 1.6 2.8 0.5
v -1.6 2.8 0.4
v -1.5 2.8 0.4
v 1.5 2.8 0.4
v 1.6 2.8 0.4
v -1.6 2.8 0.3
v -1.5 2.8 0.3
v 1.5 2.8 0.3
v 1.6 2.8 0.3
v -1.6 2.8 0.2
v -1.5 2.8 0.2
v 1.5 2.8 0.2
v 1.6 2.8 0.2
v -1.6 2.8 0.1
v -1.5 2.8 0.1
v 1.5 2.8 0.1
v 1.6 2.8 0.1
v -1.6 2.8 -0.1
v -1.5 2.8 -0.1
v 1.5 2.8 -0.1
v 1.6 2.8 -0.1
v -1.6 2.8 -0.2
v -1.5 2.8 -0.2
v 1.5 2.8 -0.2
v 1.6 2.8 -0.2
v -1.6 2.8 -0.3
v -1.5 2.8 -0.3
v 1.5 2.8 -0.3
v 1.6 2.8 -0.3
v -1.6 2.8 -0.4
v -1.5 2.8 -0.4
v 1.5 2.8 -0.4
v 1.6 2.8 -0.4
v -1.6 2.8 -0.5
v -1.5 2.8 -0.5
v 1.5 2.8 -0.5
v 1.6 2.8 -0.5
v -1.6 2.8 -0.6
v -1.5 2.8 -0.6
v 1.5 2.8 -0.6
v 1.6 2.8 -0.6
v -1.6 2.8 -0.7
v -1.5 2.8 -0.7
v 1.5 2.8 -0.7
v 1.6 2.8 -0.7
v -1.6 2.8 -0.8
v -1.5 2.8 -0.8
v 1.5 2.8 -0.8
v 1.6 2.8 -0.8
v -1.6 2.8 -0.9
v -1.5 2.8 -0.9
v 1.5 2.8 -0.9
v 1.6 2.8 -0.9
v -1.6 2.8 -1
v -1.5 2.8 -1
v 1.5 2.8 -1
v 1.6 2.8 -1
v -1.6 2.8 -1.1
v -1.5 2.8 -1.1
v 1.5 2.8 -1.1
v 1.6 2.8 -1.1
v -1.6 2.8 -1.2
v -1.5 2.8 -1.2
v 1.5 2.8 -1.2
v 1.6 2.8 -1.2
v -1.6 2.8 -1.3
v -1.5 2.8 -1.3
v 1.5 2.8 -1.3
v 1.6 2.8 -1.3
v -1.6 2.8 -1.4
v -1.5 2.8 -1.4
v 1.5 2.8 -1.4
v 1.6 2.8 -1.4
v -1.4 2.8 -1.5
v -1.3 2.8 -1.5
v -1.2 2.8 -1.5
v -1.1 2.8 -1.5
v -1 2.8 -1.5
v -0.9 2.8 -1.5
v -0.8 2.8 -1.5
v -0.7 2.8 -1.5
v -0.6 2.8 -1.5
v -0.5 2.8 -1.5
v -0.4 2.8 -1.5
v -0.3 2.8 -1.5
v -0.2 2.8 -1.5
v -0.1 2.8 -1.5
v 0.1 2.8 -1.5
v 0.2 2.8 -1.5
v 0.3 2.8 -1.5
v 0.4 2.8 -1.5
v 0.5 2.8 -1.5
v 0.6 2.8 -1.5
v 0.7 2.8 -1.5
v 0.8 2.8 -1.5
v 0.9 2.8 -1.5
v 1 2.8 -1.5
v 1.1 2.8 -1.5
v 1.2 2.8 -1.5
v 1.3 2.8 -1.5
v 1.4 2.8 -1.5
v -1.4 2.8 -1.6
v -1.3 2.8 -1.6
v -1.2 2.8 -1.6
v -1.1 2.8 -1.6
v -1 2.8 -1.6
v -0.9 2.8 -1.6
v -0.8 2.8 -1.6
v -0.7 2.8 -1.6
v -0.6 2.8 -1.6
v -0.5 2.8 -1.6
v -0.4 2.8 -1.6
v -0.3 2.8 -1.6
v -0.2 2.8 -1.6
v -0.1 2.8 -1.6
v 0.1 2.8 -1.6
v 0.2 2.8 -1.6
v 0.3 2.8 -1.6
v 0.4 2.8 -1.6
v 0.5 2.8 -1.6
v 0.6 2.8 -1.6
v 0.7 2.8 -1.6
v 0.8 2.8 -1.6
v 0.9 2.8 -1.6
v 1 2.8 -1.6
v 1.1 2.8 -1.6
v 1.2 2.8 -1.6
v 1.3 2.8 -1.6
v 1.4 2.8 -1.6
v -1.5 2.9 1.6
v -1.4 2.9 1.6
v -1.3 2.9 1.6
v -1.2 2.9 1.6
v -1.1 2.9 1.6
v -1 2.9 1.6
v -0.9 2.9 1.6
v -0.8 2.9 1.6
v -0.7 2.9 1.6
v -0.6 2.9 1.6
v -0.5 2.9 1.6
v -0.4 2.9 1.6
v -0.3 2.9 1.6
v -0.2 2.9 1.6
v 0.2 2.9 1.6
v 0.3 2.9 1.6
v 0.4 2.9 1.6
v 0.5 2.9 1.6
v 0.6 2.9 1.6
v 0.7 2.9 1.6
v 0.8 2.9 1.6
v 0.9 2.9 1.6
v 1 2.9 1.6
v 1.1 2.9 1.6
v 1.2 2.9 1.6
v 1.3 2.9 1.6
v 1.4 2.9 1.6
v 1.5 2.9 1.6
v -1.6 2.9 1.5
v -1.5 2.9 1.5
v -1.4 2.9 1.5
v -1.3 2.9 1.5
v -1.2 2.9 1.5
v -1.1 2.9 1.5
v -1 2.9 1.5
v -0.9 2.9 1.5
v -0.8 2.9 1.5
v -0.7 2.9 1.5
v -0.6 2.9 1.5
v -0.5 2.9 1.5
v -0.4 2.9 1.5
v -0.3 2.9 1.5
v -0.2 2.9 1.5
v 0.2 2.9 1.5
v 0.3 2.9 1.5
v 0.4 2.9 1.5
v 0.5 2.9 1.5
v 0.6 2.9 1.5
v 0.7 2.9 1.5
v 0.8 2.9 1.5
v 0.9 2.9 1.5
v 1 2.9 1.5
v 1.1 2.9 1.5
v 1.2 2.9 1.5
v 1.3 2.9 1.5
v 1.4 2.9 1.5
v 1.5 2.9 1.5
v 1.6 2.9 1.5
v -1.6 2.9 1.4
v -1.5 2.9 1.4
v 1.5 2.9 1.4
v 1.6 2.9 1.4
v -1.6 2.9 1.3
v -1.5 2.9 1.3
v 1.5 2.9 1.3
v 1.6 2.9 1.3
v -1.6 2.9 1.2
v -1.5 2.9 1.2
v 1.5 2.9 1.2
v 1.6 2.9 1.2
v -1.6 2.9 1.1
v -1.5 2.9 1.1
v 1.5 2.9 1.1
v 1.6 2.9 1.1
v -1.6 2.9 1
v -1.5 2.9 1
v 1.5 2.9 1
v 1.6 2.9 1
v -1.6 2.9 0.9
v -1.5 2.9 0.9
v 1.5 2.9 0.9
v 1.6 2.9 0.9
v -1.6 2.9 0.8
v -1.5 2.9 0.8
v 1.5 2.9 0.8
v 1.6 2.9 0.8
v -1.6 2.9 0.7
v -1.5 2.9 0.7
v 1.5 2.9 0.7
v 1.6 2.9 0.7
v -1.6 2.9 0.6
v -1.5 2.9 0.6
v 1.5 2.9 0.6
v 1.6 2.9 0.6
v -1.6 2.9 0.5
v -1.5 2.9 0.5
v 1.5 2.9 0.5
v 1.6 2.9 0.5
v -1.6 2.9 0.4
v -1.5 2.9 0.4
v 1.5 2.9 0.4
v 1.6 2.9 0.4
v -1.6 2.9 0.3
v -1.5 2.9 0.3
v 1.5 2.9 0.3
v 1.6 2.9 0.3
v -1.6 2.9 0.2
v -1.5 2.9 0.2
v 1.5 2.9 0.2
v 1.6 2.9 0.2
v -1.6 2.9 -0.2
v -1.5 2.9 -0.2
v 1.5 2.9 -0.2
v 1.6 2.9 -0.2
v -1.6 2.9 -0.3
v -1.5 2.9 -0.3
v 1.5 2.9 -0.3
v 1.6 2.9 -0.3
v -1.6 2.9 -0.4
v -1.5 2.9 -0.4
v 1.5 2.9 -0.4
v 1.6 2.9 -0.4
v -1.6 2.9 -0.5
v -1.5 2.9 -0.5
v 1.5 2.9 -0.5
v 1.6 2.9 -0.5
v -1.6 2.9 -0.6
v -1.5 2.9 -0.6
v 1.5 2.9 -0.6
v 1.6 2.9 -0.6
v -1.6 2.9 -0.7
v -1.5 2.9 -0.7
v 1.5 2.9 -0.7
v 1.6 2.9 -0.7
v -1.6 2.9 -0.8
v -1.5 2.9 -0.8
v 1.5 2.9 -0.8
v 1.6 2.9 -0.8
v -1.6 2.9 -0.9
v -1.5 2.9 -0.9
v 1.5 2.9 -0.9
v 1.6 2.9 -0.9
v -1.6 2.9 -1
v -1.5 2.9 -1
v 1.5 2.9 -1
v 1.6 2.9 -1
v -1.6 2.9 -1.1
v -1.5 2.9 -1.1
v 1.5 2.9 -1.1
v 1.6 2.9 -1.1
v -1.6 2.9 -1.2
v -1.5 2.9 -1.2
v 1.5 2.9 -1.2
v 1.6 2.9 -1.2
v -1.6 2.9 -1.3
v -1.5 2.9 -1.3
v 1.5 2.9 -1.3
v 1.6 2.9 -1.3
v -1.6 2.9 -1.4
v -1.5 2.9 -1.4
v 1.5 2.9 -1.4
v 1.6 2.9 -1.4
v -1.6 2.9 -1.5
v -1.5 2.9 -1.5
v -1.4 2.9 -1.5
v -1.3 2.9 -1.5
v -1.2 2.9 -1.5
v -1.1 2.9 -1.5
v -1 2.9 -1.5
v -0.9 2.9 -1.5
v -0.8 2.9 -1.5
v -0.7 2.9 -1.5
v -0.6 2.9 -1.5
v -0.5 2.9 -1.5
v -0.4 2.9 -1.5
v -0.3 2.9 -1.5
v -0.2 2.9 -1.5
v 0.2 2.9 -1.5
v 0.3 2.9 -1.5
v 0.4 2.9 -1.5
v 0.5 2.9 -1.5
v 0.6 2.9 -1.5
v 0.7 2.9 -1.5
v 0.8 2.9 -1.5
v 0.9 2.9 -1.5
v 1 2.9 -1.5
v 1.1 2.9 -1.5
v 1.2 2.9 -1.5
v 1.3 2.9 -1.5
v 1.4 2.9 -1.5
v 1.5 2.9 -1.5
v 1.6 2.9 -1.5
v -1.5 2.9 -1.6
v -1.4 2.9 -1.6
v -1.3 2.9 -1.6
v -1.2 2.9 -1.6
v -1.1 2.9 -1.6
v -1 2.9 -1.6
v -0.9 2.9 -1.6
v -0.8 2.9 -1.6
v -0.7 2.9 -1.6
v -0.6 2.9 -1.6
v -0.5 2.9 -1.6
v -0.4 2.9 -1.6
v -0.3 2.9 -1.6
v -0.2 2.9 -1.6
v 0.2 2.9 -1.6
v 0.3 2.9 -1.6
v 0.4 2.9 -1.6
v 0.5 2.9 -1.6
v 0.6 2.9 -1.6
v 0.7 2.9 -1.6
v 0.8 2.9 -1.6
v 0.9 2.9 -1.6
v 1 2.9 -1.6
v 1.1 2.9 -1.6
v 1.2 2.9 -1.6
v 1.3 2.9 -1.6
v 1.4 2.9 -1.6
v 1.5 2.9 -1.6
v -1.5 3 1.5
v -1.4 3 1.5
v -1.3 3 1.5
v -1.2 3 1.5
v -1.1 3 1.5
v -1 3 1.5
v -0.9 3 1.5
v -0.8 3 1.5
v -0.7 3 1.5
v -0.6 3 1.5
v -0.5 3 1.5
v -0.4 3 1.5
v -0.3 3 1.5
v -0.1 3 1.5
v 0.1 3 1.5
v 0.3 3 1.5
v 0.4 3 1.5
v 0.5 3 1.5
v 0.6 3 1.5
v 0.7 3 1.5
v 0.8 3 1.5
v 0.9 3 1.5
v 1 3 1.5
v 1.1 3 1.5
v 1.2 3 1.5
v 1.3 3 1.5
v 1.4 3 1.5
v 1.5 3 1.5
v -1.5 3 -1.5
v -1.4 3 -1.5
v -1.3 3 -1.5
v -1.2 3 -1.5
v -1.1 3 -1.5
v -1 3 -1.5
v -0.9 3 -1.5
v -0.8 3 -1.5
v -0.7 3 -1.5
v -0.6 3 -1.5
v -0.5 3 -1.5
v -0.4 3 -1.5
v -0.3 3 -1.5
v -0.1 3 -1.5
v 0.1 3 -1.5
v 0.3 3 -1.5
v 0.4 3 -1.5
v 0.5 3 -1.5
v 0.6 3 -1.5
v 0.7 3 -1.5
v 0.8 3 -1.5
v 0.9 3 -1.5
v 1 3 -1.5
v 1.1 3 -1.5
v 1.2 3 -1.5
v 1.3 3 -1.5
v 1.4 3 -1.5
v 1.5 3 -1.5
v -1.2 0.6 0.3
v 1.2 0.6 0.3
v -1.1 0.6 0.2
v 1.1 0.6 0.2
v -1 0.6 0.1
v -0.1 0.6 0.1
v 0.1 0.6 0.1
v 1 0.6 0.1
v -1 0.6 -0.3
v -0.1 0.6 -0.3
v 0.1 0.6 -0.3
v 1 0.6 -0.3
v -1 0.6 -0.5
v -0.1 0.6 -0.5
v 0.1 0.6 -0.5
v 1 0.6 -0.5
v -1 0.6 -1
v -0.1 0.6 -1
v 0.1 0.6 -1
v 1 0.6 -1
v -1.1 0.6 -1.1
v 1.1 0.6 -1.1
v -1.2 0.6 -1.2
v 1.2 0.6 -1.2
v -1 0.7 0.1
v -0.1 0.7 0.1
v 0.1 0.7 0.1
v 1 0.7 0.1
v -0.9 0.7 0
v -0.8 0.7 0
v -0.7 0.7 0
v -0.6 0.7 0
v -0.5 0.7 0
v -0.4 0.7 0
v -0.3 0.7 0
v -0.2 0.7 0
v 0.2 0.7 0
v 0.3 0.7 0
v 0.4 0.7 0
v 0.5 0.7 0
v 0.6 0.7 0
v 0.7 0.7 0
v 0.8 0.7 0
v 0.9 0.7 0
v -0.9 0.7 -0.1
v -0.8 0.7 -0.1
v -0.7 0.7 -0.1
v -0.6 0.7 -0.1
v -0.5 0.7 -0.1
v -0.4 0.7 -0.1
v -0.3 0.7 -0.1
v -0.2 0.7 -0.1
v 0.3 0.7 -0.1
v 0.4 0.7 -0.1
v 0.5 0.7 -0.1
v 0.6 0.7 -0.1
v 0.7 0.7 -0.1
v 0.8 0.7 -0.1
v 0.9 0.7 -0.1
v -0.9 0.7 -0.2
v -0.8 0.7 -0.2
v -0.7 0.7 -0.2
v -0.6 0.7 -0.2
v -0.5 0.7 -0.2
v -0.4 0.7 -0.2
v -0.3 0.7 -0.2
v -0.2 0.7 -0.2
v 0.2 0.7 -0.2
v 0.3 0.7 -0.2
v 0.4 0.7 -0.2
v 0.5 0.7 -0.2
v 0.6 0.7 -0.2
v 0.7 0.7 -0.2
v 0.8 0.7 -0.2
v 0.9 0.7 -0.2
v -1 0.7 -0.3
v -0.1 0.7 -0.3
v 0.1 0.7 -0.3
v 1 0.7 -0.3
v -1 0.7 -0.5
v -0.1 0.7 -0.5
v 0.1 0.7 -0.5
v 1 0.7 -0.5
v -0.9 0.7 -0.6
v -0.8 0.7 -0.6
v -0.7 0.7 -0.6
v -0.6 0.7 -0.6
v -0.5 0.7 -0.6
v -0.4 0.7 -0.6
v -0.3 0.7 -0.6
v -0.2 0.7 -0.6
v 0.2 0.7 -0.6
v 0.3 0.7 -0.6
v 0.4 0.7 -0.6
v 0.5 0.7 -0.6
v 0.6 0.7 -0.6
v 0.8 0.7 -0.6
v 0.9 0.7 -0.6
v -0.9 0.7 -0.7
v -0.8 0.7 -0.7
v -0.7 0.7 -0.7
v -0.6 0.7 -0.7
v -0.5 0.7 -0.7
v -0.4 0.7 -0.7
v -0.3 0.7 -0.7
v -0.2 0.7 -0.7
v 0.2 0.7 -0.7
v 0.3 0.7 -0.7
v 0.4 0.7 -0.7
v 0.5 0.7 -0.7
v 0.6 0.7 -0.7
v 0.7 0.7 -0.7
v 0.8 0.7 -0.7
v 0.9 0.7 -0.7
v -0.9 0.7 -0.8
v -0.8 0.7 -0.8
v -0.7 0.7 -0.8
v -0.6 0.7 -0.8
v -0.5 0.7 -0.8
v -0.4 0.7 -0.8
v -0.3 0.7 -0.8
v -0.2 0.7 -0.8
v 0.2 0.7 -0.8
v 0.3 0.7 -0.8
v 0.4 0.7 -0.8
v 0.5 0.7 -0.8
v 0.6 0.7 -0.8
v 0.7 0.7 -0.8
v 0.8 0.7 -0.8
v 0.9 0.7 -0.8
v -0.9 0.7 -0.9
v -0.8 0.7 -0.9
v -0.7 0.7 -0.9
v -0.6 0.7 -0.9
v -0.5 0.7 -0.9
v -0.4 0.7 -0.9
v -0.3 0.7 -0.9
v -0.2 0.7 -0.9
v 0.2 0.7 -0.9
v 0.3 0.7 -0.9
v 0.4 0.7 -0.9
v 0.5 0.7 -0.9
v 0.6 0.7 -0.9
v 0.7 0.7 -0.9
v 0.8 0.7 -0.9
v 0.9 0.7 -0.9
v -1 0.7 -1
v -0.1 0.7 -1
v 0.1 0.7 -1
v 1 0.7 -1
v -1.6 3.2 1.6
v -1.4 3.2 1.6
v -1.3 3.2 1.6
v -1.2 3.2 1.6
v -1.1 3.2 1.6
v -1 3.2 1.6
v -0.9 3.2 1.6
v -0.8 3.2 1.6
v -0.7 3.2 1.6
v -0.6 3.2 1.6
v -0.5 3.2 1.6
v -0.4 3.2 1.6
v -0.3 3.2 1.6
v -0.1 3.2 1.6
v 0.1 3.2 1.6
v 0.3 3.2 1.6
v 0.4 3.2 1.6
v 0.5 3.2 1.6
v 0.6 3.2 1.6
v 0.7 3.2 1.6
v 0.8 3.2 1.6
v 0.9 3.2 1.6
v 1 3.2 1.6
v 1.1 3.2 1.6
v 1.2 3.2 1.6
v 1.3 3.2 1.6
v 1.4 3.2 1.6
v 1.6 3.2 1.6
v -1.6 3.2 -1.6
v -1.4 3.2 -1.6
v -1.3 3.2 -1.6
v -1.2 3.2 -1.6
v -1.1 3.2 -1.6
v -1 3.2 -1.6
v -0.9 3.2 -1.6
v -0.8 3.2 -1.6
v -0.7 3.2 -1.6
v -0.6 3.2 -1.6
v -0.5 3.2 -1.6
v -0.4 3.2 -1.6
v -0.3 3.2 -1.6
v -0.1 3.2 -1.6
v 0.1 3.2 -1.6
v 0.3 3.2 -1.6
v 0.4 3.2 -1.6
v 0.5 3.2 -1.6
v 0.6 3.2 -1.6
v 0.7 3.2 -1.6
v 0.8 3.2 -1.6
v 0.9 3.2 -1.6
v 1 3.2 -1.6
v 1.1 3.2 -1.6
v 1.2 3.2 -1.6
v 1.3 3.2 -1.6
v 1.4 3.2 -1.6
v 1.6 3.2 -1.6

# faces
f 5/17/1 2/17/1 1/17/1
f 6/17/1 2/17/1 5/17/1
f 7/17/1 4/17/1 3/17/1
f 8/17/1 4/17/1 7/17/1
f 9/8/1 8/8/1 7/8/1
f 10/8/1 8/8/1 9/8/1
f 11/13/1 10/13/1 9/13/1
f 12/13/1 10/13/1 11/13/1
f 13/8/1 12/8/1 11/8/1
f 14/8/1 12/8/1 13/8/1
f 15/13/1 14/13/1 13/13/1
f 16/13/1 14/13/1 15/13/1
f 17/8/1 16/8/1 15/8/1
f 18/8/1 16/8/1 17/8/1
f 34/3/1 20/3/1 19/3/1
f 35/3/1 20/3/1 34/3/1
f 49/8/1 6/8/1 5/8/1
f 50/8/1 6/8/1 49/8/1
f 51/3/1 22/3/1 21/3/1
f 52/3/1 22/3/1 51/3/1
f 53/3/1 24/3/1 23/3/1
f 54/3/1 24/3/1 53/3/1
f 55/3/1 26/3/1 25/3/1
f 56/3/1 26/3/1 55/3/1
f 57/3/1 28/3/1 27/3/1
f 58/3/1 28/3/1 57/3/1
f 59/3/1 30/3/1 29/3/1
f 60/3/1 30/3/1 59/3/1
f 61/3/1 32/3/1 31/3/1
f 62/3/1 32/3/1 61/3/1
f 63/3/1 34/3/1 33/3/1
f 63/3/1 35/3/1 34/3/1
f 63/3/1 36/3/1 35/3/1
f 64/3/1 36/3/1 63/3/1
f 65/3/1 38/3/1 37/3/1
f 66/3/1 38/3/1 65/3/1
f 67/3/1 40/3/1 39/3/1
f 68/3/1 40/3/1 67/3/1
f 69/3/1 42/3/1 41/3/1
f 70/3/1 42/3/1 69/3/1
f 71/3/1 44/3/1 43/3/1
f 72/3/1 44/3/1 71/3/1
f 73/3/1 46/3/1 45/3/1
f 74/3/1 46/3/1 73/3/1
f 75/3/1 48/3/1 47/3/1
f 76/3/1 48/3/1 75/3/1
f 77/13/1 18/13/1 17/13/1
f 78/13/1 18/13/1 77/13/1
f 79/3/1 74/3/1 73/3/1
f 79/3/1 76/3/1 75/3/1
f 79/3/1 78/3/1 77/3/1
f 79/3/1 77/3/1 76/3/1
f 79/3/1 60/3/1 59/3/1
f 79/3/1 75/3/1 74/3/1
f 79/3/1 50/3/1 49/3/1
f 79/3/1 73/3/1 72/3/1
f 79/3/1 52/3/1 51/3/1
f 79/3/1 71/3/1 70/3/1
f 79/3/1 54/3/1 53/3/1
f 79/3/1 69/3/1 68/3/1
f 79/3/1 56/3/1 55/3/1
f 79/3/1 67/3/1 66/3/1
f 79/3/1 58/3/1 57/3/1
f 79/3/1 65/3/1 64/3/1
f 79/3/1 62/3/1 61/3/1
f 79/3/1 63/3/1 62/3/1
f 79/3/1 61/3/1 60/3/1
f 79/3/1 59/3/1 58/3/1
f 79/3/1 64/3/1 63/3/1
f 79/3/1 57/3/1 56/3/1
f 79/3/1 66/3/1 65/3/1
f 79/3/1 55/3/1 54/3/1
f 79/3/1 68/3/1 67/3/1
f 79/3/1 53/3/1 52/3/1
f 79/3/1 70/3/1 69/3/1
f 79/3/1 51/3/1 50/3/1
f 79/3/1 72/3/1 71/3/1
f 80/3/1 78/3/1 79/3/1
f 85/12/1 82/12/1 81/12/1
f 86/12/1 82/12/1 85/12/1
f 87/12/1 84/12/1 83/12/1
f 88/12/1 84/12/1 87/12/1
f 93/8/1 90/8/1 89/8/1
f 94/8/1 92/8/1 91/8/1
f 95/8/1 93/8/1 89/8/1
f 95/8/1 94/8/1 93/8/1
f 96/8/1 92/8/1 94/8/1
f 96/8/1 94/8/1 95/8/1
f 97/13/1 96/13/1 95/13/1
f 98/13/1 96/13/1 97/13/1
f 103/12/1 100/12/1 99/12/1
f 104/12/1 100/12/1 103/12/1
f 105/12/1 102/12/1 101/12/1
f 106/12/1 102/12/1 105/12/1
f 111/6/1 108/6/1 107/6/1
f 112/6/1 108/6/1 111/6/1
f 113/6/1 110/6/1 109/6/1
f 114/6/1 110/6/1 113/6/1
f 119/12/1 116/12/1 115/12/1
f 120/12/1 116/12/1 119/12/1
f 121/12/1 118/12/1 117/12/1
f 122/12/1 118/12/1 121/12/1
f 127/12/1 124/12/1 123/12/1
f 128/12/1 124/12/1 127/12/1
f 129/12/1 126/12/1 125/12/1
f 130/12/1 126/12/1 129/12/1
f 135/12/1 132/12/1 131/12/1
f 136/12/1 132/12/1 135/12/1
f 137/12/1 134/12/1 133/12/1
f 138/12/1 134/12/1 137/12/1
f 143/12/1 140/12/1 139/12/1
f 144/12/1 140/12/1 143/12/1
f 145/12/1 142/12/1 141/12/1
f 146/12/1 142/12/1 145/12/1
f 151/3/1 148/3/1 147/3/1
f 152/3/1 148/3/1 151/3/1
f 153/3/1 150/3/1 149/3/1
f 154/3/1 150/3/1 153/3/1
f 159/1/1 156/1/1 155/1/1
f 160/1/1 156/1/1 159/1/1
f 161/1/1 158/1/1 157/1/1
f 162/1/1 158/1/1 161/1/1
f 167/6/1 164/6/1 163/6/1
f 168/6/1 164/6/1 167/6/1
f 169/6/1 166/6/1 165/6/1
f 170/6/1 166/6/1 169/6/1
f 175/12/1 172/12/1 171/12/1
f 176/12/1 172/12/1 175/12/1
f 177/12/1 174/12/1 173/12/1
f 178/12/1 174/12/1 177/12/1
f 183/12/1 180/12/1 179/12/1
f 184/12/1 180/12/1 183/12/1
f 185/12/1 182/12/1 181/12/1
f 186/12/1 182/12/1 185/12/1
f 191/12/1 188/12/1 187/12/1
f 192/12/1 188/12/1 191/12/1
f 193/12/1 190/12/1 189/12/1
f 194/12/1 190/12/1 193/12/1
f 199/12/1 196/12/1 195/12/1
f 200/12/1 196/12/1 199/12/1
f 201/12/1 198/12/1 197/12/1
f 202/12/1 198/12/1 201/12/1
f 207/8/1 204/8/1 203/8/1
f 208/8/1 204/8/1 207/8/1
f 209/8/1 206/8/1 205/8/1
f 210/8/1 206/8/1 209/8/1
f 215/12/1 212/12/1 211/12/1
f 216/12/1 212/12/1 215/12/1
f 217/12/1 214/12/1 213/12/1
f 218/12/1 214/12/1 217/12/1
f 223/12/1 220/12/1 219/12/1
f 224/12/1 220/12/1 223/12/1
f 225/12/1 222/12/1 221/12/1
f 226/12/1 222/12/1 225/12/1
f 231/17/1 228/17/1 227/17/1
f 232/17/1 228/17/1 231/17/1
f 233/17/1 230/17/1 229/17/1
f 234/17/1 230/17/1 233/17/1
f 235/8/1 234/8/1 233/8/1
f 236/8/1 234/8/1 235/8/1
f 237/13/1 236/13/1 235/13/1
f 238/13/1 236/13/1 237/13/1
f 239/8/1 238/8/1 237/8/1
f 240/8/1 238/8/1 239/8/1
f 241/13/1 240/13/1 239/13/1
f 242/13/1 240/13/1 241/13/1
f 243/8/1 242/8/1 241/8/1
f 244/8/1 242/8/1 243/8/1
f 260/3/1 246/3/1 245/3/1
f 261/3/1 246/3/1 260/3/1
f 275/8/1 232/8/1 231/8/1
f 276/8/1 232/8/1 275/8/1
f 277/3/1 248/3/1 247/3/1
f 278/3/1 248/3/1 277/3/1
f 279/3/1 250/3/1 249/3/1
f 280/3/1 250/3/1 279/3/1
f 281/3/1 252/3/1 251/3/1
f 282/3/1 252/3/1 281/3/1
f 283/3/1 254/3/1 253/3/1
f 284/3/1 254/3/1 283/3/1
f 285/3/1 256/3/1 255/3/1
f 286/3/1 256/3/1 285/3/1
f 287/3/1 258/3/1 257/3/1
f 288/3/1 258/3/1 287/3/1
f 289/3/1 260/3/1 259/3/1
f 289/3/1 261/3/1 260/3/1
f 289/3/1 262/3/1 261/3/1
f 290/3/1 262/3/1 289/3/1
f 291/3/1 264/3/1 263/3/1
f 292/3/1 264/3/1 291/3/1
f 293/3/1 266/3/1 265/3/1
f 294/3/1 266/3/1 293/3/1
f 295/3/1 268/3/1 267/3/1
f 296/3/1 268/3/1 295/3/1
f 297/3/1 270/3/1 269/3/1
f 298/3/1 270/3/1 297/3/1
f 299/3/1 272/3/1 271/3/1
f 300/3/1 272/3/1 299/3/1
f 301/3/1 274/3/1 273/3/1
f 302/3/1 274/3/1 301/3/1
f 303/13/1 244/13/1 243/13/1
f 304/13/1 244/13/1 303/13/1
f 305/3/1 300/3/1 299/3/1
f 305/3/1 302/3/1 301/3/1
f 305/3/1 303/3/1 302/3/1
f 305/3/1 286/3/1 285/3/1
f 305/3/1 301/3/1 300/3/1
f 305/3/1 299/3/1 298/3/1
f 305/3/1 278/3/1 277/3/1
f 305/3/1 297/3/1 296/3/1
f 305/3/1 280/3/1 279/3/1
f 305/3/1 295/3/1 294/3/1
f 305/3/1 282/3/1 281/3/1
f 305/3/1 293/3/1 292/3/1
f 305/3/1 284/3/1 283/3/1
f 305/3/1 291/3/1 290/3/1
f 305/3/1 288/3/1 287/3/1
f 305/3/1 289/3/1 288/3/1
f 305/3/1 287/3/1 286/3/1
f 305/3/1 285/3/1 284/3/1
f 305/3/1 290/3/1 289/3/1
f 305/3/1 283/3/1 282/3/1
f 305/3/1 292/3/1 291/3/1
f 305/3/1 281/3/1 280/3/1
f 305/3/1 294/3/1 293/3/1
f 305/3/1 279/3/1 278/3/1
f 305/3/1 296/3/1 295/3/1
f 305/3/1 277/3/1 276/3/1
f 305/3/1 298/3/1 297/3/1
f 306/3/1 303/3/1 305/3/1
f 307/17/2 308/17/2 311/17/2
f 311/17/2 308/17/2 312/17/2
f 309/17/2 310/17/2 313/17/2
f 313/17/2 310/17/2 314/17/2
f 313/8/2 314/8/2 315/8/2
f 315/8/2 314/8/2 316/8/2
f 315/13/2 316/13/2 317/13/2
f 317/13/2 316/13/2 318/13/2
f 317/8/2 318/8/2 319/8/2
f 319/8/2 318/8/2 320/8/2
f 319/13/2 320/13/2 321/13/2
f 321/13/2 320/13/2 322/13/2
f 321/8/2 322/8/2 323/8/2
f 323/8/2 322/8/2 324/8/2
f 325/3/2 326/3/2 340/3/2
f 340/3/2 326/3/2 341/3/2
f 311/8/2 312/8/2 355/8/2
f 355/8/2 312/8/2 356/8/2
f 327/3/2 328/3/2 357/3/2
f 357/3/2 328/3/2 358/3/2
f 329/3/2 330/3/2 359/3/2
f 359/3/2 330/3/2 360/3/2
f 331/3/2 332/3/2 361/3/2
f 361/3/2 332/3/2 362/3/2
f 333/3/2 334/3/2 363/3/2
f 363/3/2 334/3/2 364/3/2
f 335/3/2 336/3/2 365/3/2
f 365/3/2 336/3/2 366/3/2
f 337/3/2 338/3/2 367/3/2
f 367/3/2 338/3/2 368/3/2
f 339/3/2 340/3/2 369/3/2
f 340/3/2 341/3/2 369/3/2
f 341/3/2 342/3/2 369/3/2
f 369/3/2 342/3/2 370/3/2
f 343/3/2 344/3/2 371/3/2
f 371/3/2 344/3/2 372/3/2
f 345/3/2 346/3/2 373/3/2
f 373/3/2 346/3/2 374/3/2
f 347/3/2 348/3/2 375/3/2
f 375/3/2 348/3/2 376/3/2
f 349/3/2 350/3/2 377/3/2
f 377/3/2 350/3/2 378/3/2
f 351/3/2 352/3/2 379/3/2
f 379/3/2 352/3/2 380/3/2
f 353/3/2 354/3/2 381/3/2
f 381/3/2 354/3/2 382/3/2
f 323/13/2 324/13/2 383/13/2
f 383/13/2 324/13/2 384/13/2
f 379/3/2 380/3/2 385/3/2
f 381/3/2 382/3/2 385/3/2
f 382/3/2 383/3/2 385/3/2
f 365/3/2 366/3/2 385/3/2
f 380/3/2 381/3/2 385/3/2
f 378/3/2 379/3/2 385/3/2
f 357/3/2 358/3/2 385/3/2
f 376/3/2 377/3/2 385/3/2
f 359/3/2 360/3/2 385/3/2
f 374/3/2 375/3/2 385/3/2
f 361/3/2 362/3/2 385/3/2
f 372/3/2 373/3/2 385/3/2
f 363/3/2 364/3/2 385/3/2
f 370/3/2 371/3/2 385/3/2
f 367/3/2 368/3/2 385/3/2
f 368/3/2 369/3/2 385/3/2
f 366/3/2 367/3/2 385/3/2
f 364/3/2 365/3/2 385/3/2
f 369/3/2 370/3/2 385/3/2
f 362/3/2 363/3/2 385/3/2
f 371/3/2 372/3/2 385/3/2
f 360/3/2 361/3/2 385/3/2
f 373/3/2 374/3/2 385/3/2
f 358/3/2 359/3/2 385/3/2
f 375/3/2 376/3/2 385/3/2
f 356/3/2 357/3/2 385/3/2
f 377/3/2 378/3/2 385/3/2
f 385/3/2 383/3/2 386/3/2
f 387/12/2 388/12/2 391/12/2
f 391/12/2 388/12/2 392/12/2
f 389/12/2 390/12/2 393/12/2
f 393/12/2 390/12/2 394/12/2
f 395/8/2 396/8/2 399/8/2
f 399/8/2 396/8/2 400/8/2
f 397/8/2 398/8/2 401/8/2
f 401/8/2 398/8/2 402/8/2
f 403/12/2 404/12/2 407/12/2
f 407/12/2 404/12/2 408/12/2
f 405/12/2 406/12/2 409/12/2
f 409/12/2 406/12/2 410/12/2
f 411/12/2 412/12/2 415/12/2
f 415/12/2 412/12/2 416/12/2
f 413/12/2 414/12/2 417/12/2
f 417/12/2 414/12/2 418/12/2
f 419/12/2 420/12/2 423/12/2
f 423/12/2 420/12/2 424/12/2
f 421/12/2 422/12/2 425/12/2
f 425/12/2 422/12/2 426/12/2
f 427/12/2 428/12/2 431/12/2
f 431/12/2 428/12/2 432/12/2
f 429/12/2 430/12/2 433/12/2
f 433/12/2 430/12/2 434/12/2
f 435/12/2 436/12/2 439/12/2
f 439/12/2 436/12/2 440/12/2
f 437/12/2 438/12/2 441/12/2
f 441/12/2 438/12/2 442/12/2
f 443/6/2 444/6/2 447/6/2
f 447/6/2 444/6/2 448/6/2
f 445/6/2 446/6/2 449/6/2
f 449/6/2 446/6/2 450/6/2
f 451/1/2 452/1/2 455/1/2
f 455/1/2 452/1/2 456/1/2
f 453/1/2 454/1/2 457/1/2
f 457/1/2 454/1/2 458/1/2
f 459/3/2 460/3/2 463/3/2
f 463/3/2 460/3/2 464/3/2
f 461/3/2 462/3/2 465/3/2
f 465/3/2 462/3/2 466/3/2
f 467/12/2 468/12/2 471/12/2
f 471/12/2 468/12/2 472/12/2
f 469/12/2 470/12/2 473/12/2
f 473/12/2 470/12/2 474/12/2
f 475/12/2 476/12/2 479/12/2
f 479/12/2 476/12/2 480/12/2
f 477/12/2 478/12/2 481/12/2
f 481/12/2 478/12/2 482/12/2
f 483/12/2 484/12/2 487/12/2
f 487/12/2 484/12/2 488/12/2
f 485/12/2 486/12/2 489/12/2
f 489/12/2 486/12/2 490/12/2
f 491/6/2 492/6/2 495/6/2
f 495/6/2 492/6/2 496/6/2
f 493/6/2 494/6/2 497/6/2
f 497/6/2 494/6/2 498/6/2
f 499/12/2 500/12/2 503/12/2
f 503/12/2 500/12/2 504/12/2
f 501/12/2 502/12/2 505/12/2
f 505/12/2 502/12/2 506/12/2
f 507/8/2 508/8/2 511/8/2
f 509/8/2 510/8/2 512/8/2
f 507/8/2 511/8/2 513/8/2
f 511/8/2 512/8/2 513/8/2
f 512/8/2 510/8/2 514/8/2
f 513/8/2 512/8/2 514/8/2
f 513/13/2 514/13/2 515/13/2
f 515/13/2 514/13/2 516/13/2
f 517/12/2 518/12/2 521/12/2
f 521/12/2 518/12/2 522/12/2
f 519/12/2 520/12/2 523/12/2
f 523/12/2 520/12/2 524/12/2
f 525/12/2 526/12/2 529/12/2
f 529/12/2 526/12/2 530/12/2
f 527/12/2 528/12/2 531/12/2
f 531/12/2 528/12/2 532/12/2
f 533/17/2 534/17/2 537/17/2
f 537/17/2 534/17/2 538/17/2
f 535/17/2 536/17/2 539/17/2
f 539/17/2 536/17/2 540/17/2
f 539/8/2 540/8/2 541/8/2
f 541/8/2 540/8/2 542/8/2
f 541/13/2 542/13/2 543/13/2
f 543/13/2 542/13/2 544/13/2
f 543/8/2 544/8/2 545/8/2
f 545/8/2 544/8/2 546/8/2
f 545/13/2 546/13/2 547/13/2
f 547/13/2 546/13/2 548/13/2
f 547/8/2 548/8/2 549/8/2
f 549/8/2 548/8/2 550/8/2
f 551/3/2 552/3/2 566/3/2
f 566/3/2 552/3/2 567/3/2
f 537/8/2 538/8/2 581/8/2
f 581/8/2 538/8/2 582/8/2
f 553/3/2 554/3/2 583/3/2
f 583/3/2 554/3/2 584/3/2
f 555/3/2 556/3/2 585/3/2
f 585/3/2 556/3/2 586/3/2
f 557/3/2 558/3/2 587/3/2
f 587/3/2 558/3/2 588/3/2
f 559/3/2 560/3/2 589/3/2
f 589/3/2 560/3/2 590/3/2
f 561/3/2 562/3/2 591/3/2
f 591/3/2 562/3/2 592/3/2
f 563/3/2 564/3/2 593/3/2
f 593/3/2 564/3/2 594/3/2
f 565/3/2 566/3/2 595/3/2
f 566/3/2 567/3/2 595/3/2
f 567/3/2 568/3/2 595/3/2
f 595/3/2 568/3/2 596/3/2
f 569/3/2 570/3/2 597/3/2
f 597/3/2 570/3/2 598/3/2
f 571/3/2 572/3/2 599/3/2
f 599/3/2 572/3/2 600/3/2
f 573/3/2 574/3/2 601/3/2
f 601/3/2 574/3/2 602/3/2
f 575/3/2 576/3/2 603/3/2
f 603/3/2 576/3/2 604/3/2
f 577/3/2 578/3/2 605/3/2
f 605/3/2 578/3/2 606/3/2
f 579/3/2 580/3/2 607/3/2
f 607/3/2 580/3/2 608/3/2
f 549/13/2 550/13/2 609/13/2
f 609/13/2 550/13/2 610/13/2
f 605/3/2 606/3/2 611/3/2
f 607/3/2 608/3/2 611/3/2
f 609/3/2 610/3/2 611/3/2
f 608/3/2 609/3/2 611/3/2
f 591/3/2 592/3/2 611/3/2
f 606/3/2 607/3/2 611/3/2
f 581/3/2 582/3/2 611/3/2
f 604/3/2 605/3/2 611/3/2
f 583/3/2 584/3/2 611/3/2
f 602/3/2 603/3/2 611/3/2
f 585/3/2 586/3/2 611/3/2
f 600/3/2 601/3/2 611/3/2
f 587/3/2 588/3/2 611/3/2
f 598/3/2 599/3/2 611/3/2
f 589/3/2 590/3/2 611/3/2
f 596/3/2 597/3/2 611/3/2
f 593/3/2 594/3/2 611/3/2
f 594/3/2 595/3/2 611/3/2
f 592/3/2 593/3/2 611/3/2
f 590/3/2 591/3/2 611/3/2
f 595/3/2 596/3/2 611/3/2
f 588/3/2 589/3/2 611/3/2
f 597/3/2 598/3/2 611/3/2
f 586/3/2 587/3/2 611/3/2
f 599/3/2 600/3/2 611/3/2
f 584/3/2 585/3/2 611/3/2
f 601/3/2 602/3/2 611/3/2
f 582/3/2 583/3/2 611/3/2
f 603/3/2 604/3/2 611/3/2
f 611/3/2 610/3/2 612/3/2
f 617/17/3 614/17/3 613/17/3
f 618/8/3 615/8/3 614/8/3
f 618/17/3 614/17/3 617/17/3
f 619/3/3 616/3/3 615/3/3
f 619/8/3 615/8/3 618/8/3
f 621/3/3 616/3/3 619/3/3
f 622/3/3 616/3/3 621/3/3
f 623/12/3 621/12/3 620/12/3
f 623/12/3 622/12/3 621/12/3
f 624/12/3 622/12/3 623/12/3
f 625/12/3 622/12/3 624/12/3
f 627/3/3 625/3/3 624/3/3
f 628/3/3 625/3/3 627/3/3
f 629/12/3 627/12/3 626/12/3
f 629/12/3 628/12/3 627/12/3
f 630/12/3 628/12/3 629/12/3
f 631/12/3 628/12/3 630/12/3
f 633/3/3 631/3/3 630/3/3
f 634/3/3 631/3/3 633/3/3
f 635/12/3 633/12/3 632/12/3
f 635/12/3 634/12/3 633/12/3
f 636/12/3 634/12/3 635/12/3
f 637/12/3 634/12/3 636/12/3
f 639/3/3 637/3/3 636/3/3
f 640/3/3 637/3/3 639/3/3
f 641/12/3 639/12/3 638/12/3
f 641/12/3 640/12/3 639/12/3
f 642/12/3 640/12/3 641/12/3
f 643/12/3 640/12/3 642/12/3
f 645/3/3 643/3/3 642/3/3
f 646/3/3 643/3/3 645/3/3
f 647/12/3 645/12/3 644/12/3
f 647/12/3 646/12/3 645/12/3
f 648/12/3 646/12/3 647/12/3
f 649/12/3 646/12/3 648/12/3
f 651/3/3 649/3/3 648/3/3
f 652/3/3 649/3/3 651/3/3
f 653/12/3 651/12/3 650/12/3
f 653/12/3 652/12/3 651/12/3
f 654/12/3 652/12/3 653/12/3
f 655/12/3 652/12/3 654/12/3
f 657/3/3 655/3/3 654/3/3
f 659/3/3 657/3/3 656/3/3
f 660/3/3 655/3/3 657/3/3
f 660/3/3 657/3/3 659/3/3
f 661/1/3 659/1/3 658/1/3
f 661/1/3 660/1/3 659/1/3
f 662/1/3 660/1/3 661/1/3
f 663/1/3 660/1/3 662/1/3
f 664/3/3 663/3/3 662/3/3
f 665/3/3 663/3/3 664/3/3
f 667/3/3 663/3/3 665/3/3
f 668/3/3 663/3/3 667/3/3
f 669/12/3 667/12/3 666/12/3
f 669/12/3 668/12/3 667/12/3
f 670/12/3 668/12/3 669/12/3
f 671/12/3 668/12/3 670/12/3
f 673/3/3 671/3/3 670/3/3
f 674/3/3 671/3/3 673/3/3
f 675/12/3 673/12/3 672/12/3
f 675/12/3 674/12/3 673/12/3
f 676/12/3 674/12/3 675/12/3
f 677/12/3 674/12/3 676/12/3
f 679/3/3 677/3/3 676/3/3
f 680/3/3 677/3/3 679/3/3
f 681/12/3 679/12/3 678/12/3
f 681/12/3 680/12/3 679/12/3
f 682/12/3 680/12/3 681/12/3
f 683/12/3 680/12/3 682/12/3
f 685/3/3 683/3/3 682/3/3
f 686/3/3 683/3/3 685/3/3
f 687/12/3 685/12/3 684/12/3
f 687/12/3 686/12/3 685/12/3
f 688/12/3 686/12/3 687/12/3
f 689/12/3 686/12/3 688/12/3
f 691/3/3 689/3/3 688/3/3
f 692/3/3 689/3/3 691/3/3
f 693/12/3 691/12/3 690/12/3
f 693/12/3 692/12/3 691/12/3
f 694/12/3 692/12/3 693/12/3
f 695/12/3 692/12/3 694/12/3
f 697/3/3 695/3/3 694/3/3
f 698/3/3 695/3/3 697/3/3
f 699/12/3 697/12/3 696/12/3
f 699/12/3 698/12/3 697/12/3
f 700/12/3 698/12/3 699/12/3
f 701/12/3 698/12/3 700/12/3
f 704/3/3 701/3/3 700/3/3
f 705/17/3 703/17/3 702/17/3
f 706/8/3 704/8/3 703/8/3
f 706/17/3 703/17/3 705/17/3
f 707/3/3 701/3/3 704/3/3
f 707/8/3 704/8/3 706/8/3
f 708/3/3 701/3/3 707/3/3
f 711/3/3 710/3/3 709/3/3
f 712/3/3 710/3/3 711/3/3
f 715/3/3 714/3/3 713/3/3
f 716/3/3 714/3/3 715/3/3
f 719/3/3 718/3/3 717/3/3
f 720/3/3 718/3/3 719/3/3
f 723/3/3 722/3/3 721/3/3
f 724/3/3 722/3/3 723/3/3
f 727/3/3 726/3/3 725/3/3
f 728/3/3 726/3/3 727/3/3
f 731/3/3 730/3/3 729/3/3
f 732/3/3 730/3/3 731/3/3
f 735/3/3 734/3/3 733/3/3
f 736/3/3 734/3/3 735/3/3
f 739/3/3 738/3/3 737/3/3
f 740/3/3 738/3/3 739/3/3
f 743/3/3 742/3/3 741/3/3
f 744/3/3 742/3/3 743/3/3
f 747/3/3 746/3/3 745/3/3
f 748/3/3 746/3/3 747/3/3
f 751/3/3 750/3/3 749/3/3
f 752/3/3 750/3/3 751/3/3
f 755/3/3 754/3/3 753/3/3
f 756/3/3 754/3/3 755/3/3
f 760/8/3 758/8/3 757/8/3
f 761/8/3 758/8/3 760/8/3
f 763/8/3 758/8/3 761/8/3
f 764/8/3 763/8/3 762/8/3
f 765/13/3 759/13/3 758/13/3
f 765/8/3 763/8/3 764/8/3
f 765/8/3 758/8/3 763/8/3
f 766/13/3 759/13/3 765/13/3
f 769/3/3 768/3/3 767/3/3
f 770/3/3 768/3/3 769/3/3
f 773/3/3 772/3/3 771/3/3
f 774/3/3 772/3/3 773/3/3
f 777/3/3 776/3/3 775/3/3
f 778/3/3 776/3/3 777/3/3
f 781/6/3 780/6/3 779/6/3
f 782/6/3 780/6/3 781/6/3
f 785/6/3 784/6/3 783/6/3
f 786/6/3 784/6/3 785/6/3
f 789/3/3 788/3/3 787/3/3
f 790/3/3 788/3/3 789/3/3
f 793/3/3 792/3/3 791/3/3
f 794/3/3 792/3/3 793/3/3
f 797/3/3 796/3/3 795/3/3
f 798/3/3 796/3/3 797/3/3
f 801/3/3 800/3/3 799/3/3
f 802/3/3 800/3/3 801/3/3
f 805/6/3 804/6/3 803/6/3
f 806/6/3 804/6/3 805/6/3
f 809/6/3 808/6/3 807/6/3
f 810/6/3 808/6/3 809/6/3
f 813/3/3 812/3/3 811/3/3
f 814/3/3 812/3/3 813/3/3
f 817/3/3 816/3/3 815/3/3
f 818/3/3 816/3/3 817/3/3
f 821/3/3 820/3/3 819/3/3
f 822/3/3 820/3/3 821/3/3
f 825/3/3 824/3/3 823/3/3
f 826/3/3 824/3/3 825/3/3
f 829/3/3 828/3/3 827/3/3
f 830/3/3 828/3/3 829/3/3
f 833/3/3 832/3/3 831/3/3
f 834/3/3 832/3/3 833/3/3
f 837/8/3 836/8/3 835/8/3
f 838/8/3 836/8/3 837/8/3
f 841/8/3 840/8/3 839/8/3
f 842/8/3 840/8/3 841/8/3
f 845/3/3 844/3/3 843/3/3
f 846/3/3 844/3/3 845/3/3
f 849/3/3 848/3/3 847/3/3
f 850/3/3 848/3/3 849/3/3
f 853/3/3 852/3/3 851/3/3
f 854/3/3 852/3/3 853/3/3
f 863/17/3 856/17/3 855/17/3
f 864/8/3 857/8/3 856/8/3
f 864/17/3 856/17/3 863/17/3
f 865/13/3 858/13/3 857/13/3
f 865/8/3 857/8/3 864/8/3
f 866/8/3 859/8/3 858/8/3
f 866/13/3 858/13/3 865/13/3
f 867/13/3 860/13/3 859/13/3
f 867/8/3 859/8/3 866/8/3
f 868/8/3 861/8/3 860/8/3
f 868/13/3 860/13/3 867/13/3
f 869/13/3 862/13/3 861/13/3
f 869/8/3 861/8/3 868/8/3
f 870/13/3 862/13/3 869/13/3
f 873/3/3 871/3/3 870/3/3
f 874/3/3 871/3/3 873/3/3
f 875/12/3 873/12/3 872/12/3
f 875/12/3 874/12/3 873/12/3
f 876/12/3 874/12/3 875/12/3
f 877/12/3 874/12/3 876/12/3
f 879/3/3 877/3/3 876/3/3
f 880/3/3 877/3/3 879/3/3
f 881/12/3 879/12/3 878/12/3
f 881/12/3 880/12/3 879/12/3
f 882/12/3 880/12/3 881/12/3
f 883/12/3 880/12/3 882/12/3
f 885/3/3 883/3/3 882/3/3
f 886/3/3 883/3/3 885/3/3
f 887/12/3 885/12/3 884/12/3
f 887/12/3 886/12/3 885/12/3
f 888/12/3 886/12/3 887/12/3
f 889/12/3 886/12/3 888/12/3
f 891/3/3 889/3/3 888/3/3
f 892/3/3 889/3/3 891/3/3
f 893/12/3 891/12/3 890/12/3
f 893/12/3 892/12/3 891/12/3
f 894/12/3 892/12/3 893/12/3
f 895/12/3 892/12/3 894/12/3
f 897/3/3 895/3/3 894/3/3
f 898/3/3 895/3/3 897/3/3
f 899/12/3 897/12/3 896/12/3
f 899/12/3 898/12/3 897/12/3
f 900/12/3 898/12/3 899/12/3
f 901/12/3 898/12/3 900/12/3
f 903/3/3 901/3/3 900/3/3
f 904/3/3 901/3/3 903/3/3
f 905/12/3 903/12/3 902/12/3
f 905/12/3 904/12/3 903/12/3
f 906/12/3 904/12/3 905/12/3
f 907/12/3 904/12/3 906/12/3
f 909/3/3 907/3/3 906/3/3
f 911/3/3 909/3/3 908/3/3
f 912/3/3 907/3/3 909/3/3
f 912/3/3 909/3/3 911/3/3
f 913/1/3 911/1/3 910/1/3
f 913/1/3 912/1/3 911/1/3
f 914/1/3 912/1/3 913/1/3
f 915/1/3 912/1/3 914/1/3
f 916/3/3 915/3/3 914/3/3
f 917/3/3 915/3/3 916/3/3
f 919/3/3 915/3/3 917/3/3
f 920/3/3 915/3/3 919/3/3
f 921/12/3 919/12/3 918/12/3
f 921/12/3 920/12/3 919/12/3
f 922/12/3 920/12/3 921/12/3
f 923/12/3 920/12/3 922/12/3
f 925/3/3 923/3/3 922/3/3
f 926/3/3 923/3/3 925/3/3
f 927/12/3 925/12/3 924/12/3
f 927/12/3 926/12/3 925/12/3
f 928/12/3 926/12/3 927/12/3
f 929/12/3 926/12/3 928/12/3
f 931/3/3 929/3/3 928/3/3
f 932/3/3 929/3/3 931/3/3
f 933/12/3 931/12/3 930/12/3
f 933/12/3 932/12/3 931/12/3
f 934/12/3 932/12/3 933/12/3
f 935/12/3 932/12/3 934/12/3
f 937/3/3 935/3/3 934/3/3
f 938/3/3 935/3/3 937/3/3
f 939/12/3 937/12/3 936/12/3
f 939/12/3 938/12/3 937/12/3
f 940/12/3 938/12/3 939/12/3
f 941/12/3 938/12/3 940/12/3
f 943/3/3 941/3/3 940/3/3
f 944/3/3 941/3/3 943/3/3
f 945/12/3 943/12/3 942/12/3
f 945/12/3 944/12/3 943/12/3
f 946/12/3 944/12/3 945/12/3
f 947/12/3 944/12/3 946/12/3
f 949/3/3 947/3/3 946/3/3
f 950/3/3 947/3/3 949/3/3
f 951/12/3 949/12/3 948/12/3
f 951/12/3 950/12/3 949/12/3
f 952/12/3 950/12/3 951/12/3
f 953/12/3 950/12/3 952/12/3
f 961/3/3 953/3/3 952/3/3
f 962/3/3 953/3/3 961/3/3
f 963/17/3 955/17/3 954/17/3
f 964/8/3 956/8/3 955/8/3
f 964/17/3 955/17/3 963/17/3
f 965/13/3 957/13/3 956/13/3
f 965/8/3 956/8/3 964/8/3
f 966/8/3 958/8/3 957/8/3
f 966/13/3 957/13/3 965/13/3
f 967/13/3 959/13/3 958/13/3
f 967/8/3 958/8/3 966/8/3
f 968/8/3 960/8/3 959/8/3
f 968/13/3 959/13/3 967/13/3
f 969/13/3 961/13/3 960/13/3
f 969/8/3 960/8/3 968/8/3
f 970/13/3 961/13/3 969/13/3
f 971/17/4 972/17/4 974/17/4
f 972/8/4 973/8/4 975/8/4
f 974/17/4 972/17/4 975/17/4
f 975/8/4 973/8/4 976/8/4
f 976/3/4 977/3/4 979/3/4
f 979/3/4 977/3/4 980/3/4
f 978/12/4 979/12/4 981/12/4
f 979/12/4 980/12/4 981/12/4
f 981/12/4 980/12/4 982/12/4
f 982/12/4 980/12/4 983/12/4
f 982/3/4 983/3/4 985/3/4
f 985/3/4 983/3/4 986/3/4
f 984/12/4 985/12/4 987/12/4
f 985/12/4 986/12/4 987/12/4
f 987/12/4 986/12/4 988/12/4
f 988/12/4 986/12/4 989/12/4
f 988/3/4 989/3/4 991/3/4
f 991/3/4 989/3/4 992/3/4
f 990/12/4 991/12/4 993/12/4
f 991/12/4 992/12/4 993/12/4
f 993/12/4 992/12/4 994/12/4
f 994/12/4 992/12/4 995/12/4
f 994/3/4 995/3/4 997/3/4
f 997/3/4 995/3/4 998/3/4
f 996/12/4 997/12/4 999/12/4
f 997/12/4 998/12/4 999/12/4
f 999/12/4 998/12/4 1000/12/4
f 1000/12/4 998/12/4 1001/12/4
f 1000/3/4 1001/3/4 1003/3/4
f 1003/3/4 1001/3/4 1004/3/4
f 1002/12/4 1003/12/4 1005/12/4
f 1003/12/4 1004/12/4 1005/12/4
f 1005/12/4 1004/12/4 1006/12/4
f 1006/12/4 1004/12/4 1007/12/4
f 1006/3/4 1007/3/4 1009/3/4
f 1009/3/4 1007/3/4 1010/3/4
f 1008/12/4 1009/12/4 1011/12/4
f 1009/12/4 1010/12/4 1011/12/4
f 1011/12/4 1010/12/4 1012/12/4
f 1012/12/4 1010/12/4 1013/12/4
f 1012/3/4 1013/3/4 1015/3/4
f 1014/3/4 1015/3/4 1017/3/4
f 1015/3/4 1013/3/4 1018/3/4
f 1017/3/4 1015/3/4 1018/3/4
f 1016/1/4 1017/1/4 1019/1/4
f 1017/1/4 1018/1/4 1019/1/4
f 1019/1/4 1018/1/4 1020/1/4
f 1020/1/4 1018/1/4 1021/1/4
f 1020/3/4 1021/3/4 1022/3/4
f 1022/3/4 1021/3/4 1023/3/4
f 1023/3/4 1021/3/4 1025/3/4
f 1025/3/4 1021/3/4 1026/3/4
f 1024/12/4 1025/12/4 1027/12/4
f 1025/12/4 1026/12/4 1027/12/4
f 1027/12/4 1026/12/4 1028/12/4
f 1028/12/4 1026/12/4 1029/12/4
f 1028/3/4 1029/3/4 1031/3/4
f 1031/3/4 1029/3/4 1032/3/4
f 1030/12/4 1031/12/4 1033/12/4
f 1031/12/4 1032/12/4 1033/12/4
f 1033/12/4 1032/12/4 1034/12/4
f 1034/12/4 1032/12/4 1035/12/4
f 1034/3/4 1035/3/4 1037/3/4
f 1037/3/4 1035/3/4 1038/3/4
f 1036/12/4 1037/12/4 1039/12/4
f 1037/12/4 1038/12/4 1039/12/4
f 1039/12/4 1038/12/4 1040/12/4
f 1040/12/4 1038/12/4 1041/12/4
f 1040/3/4 1041/3/4 1043/3/4
f 1043/3/4 1041/3/4 1044/3/4
f 1042/12/4 1043/12/4 1045/12/4
f 1043/12/4 1044/12/4 1045/12/4
f 1045/12/4 1044/12/4 1046/12/4
f 1046/12/4 1044/12/4 1047/12/4
f 1046/3/4 1047/3/4 1049/3/4
f 1049/3/4 1047/3/4 1050/3/4
f 1048/12/4 1049/12/4 1051/12/4
f 1049/12/4 1050/12/4 1051/12/4
f 1051/12/4 1050/12/4 1052/12/4
f 1052/12/4 1050/12/4 1053/12/4
f 1052/3/4 1053/3/4 1055/3/4
f 1055/3/4 1053/3/4 1056/3/4
f 1054/12/4 1055/12/4 1057/12/4
f 1055/12/4 1056/12/4 1057/12/4
f 1057/12/4 1056/12/4 1058/12/4
f 1058/12/4 1056/12/4 1059/12/4
f 1058/3/4 1059/3/4 1062/3/4
f 1062/3/4 1059/3/4 1063/3/4
f 1060/17/4 1061/17/4 1064/17/4
f 1061/8/4 1062/8/4 1065/8/4
f 1064/17/4 1061/17/4 1065/17/4
f 1065/8/4 1062/8/4 1066/8/4
f 1067/3/4 1068/3/4 1069/3/4
f 1069/3/4 1068/3/4 1070/3/4
f 1071/3/4 1072/3/4 1073/3/4
f 1073/3/4 1072/3/4 1074/3/4
f 1075/3/4 1076/3/4 1077/3/4
f 1077/3/4 1076/3/4 1078/3/4
f 1079/3/4 1080/3/4 1081/3/4
f 1081/3/4 1080/3/4 1082/3/4
f 1083/3/4 1084/3/4 1085/3/4
f 1085/3/4 1084/3/4 1086/3/4
f 1087/3/4 1088/3/4 1089/3/4
f 1089/3/4 1088/3/4 1090/3/4
f 1091/3/4 1092/3/4 1093/3/4
f 1093/3/4 1092/3/4 1094/3/4
f 1095/3/4 1096/3/4 1097/3/4
f 1097/3/4 1096/3/4 1098/3/4
f 1099/3/4 1100/3/4 1101/3/4
f 1101/3/4 1100/3/4 1102/3/4
f 1103/3/4 1104/3/4 1105/3/4
f 1105/3/4 1104/3/4 1106/3/4
f 1107/3/4 1108/3/4 1109/3/4
f 1109/3/4 1108/3/4 1110/3/4
f 1111/3/4 1112/3/4 1113/3/4
f 1113/3/4 1112/3/4 1114/3/4
f 1115/8/4 1116/8/4 1117/8/4
f 1117/8/4 1116/8/4 1118/8/4
f 1119/8/4 1120/8/4 1121/8/4
f 1121/8/4 1120/8/4 1122/8/4
f 1123/3/4 1124/3/4 1125/3/4
f 1125/3/4 1124/3/4 1126/3/4
f 1127/3/4 1128/3/4 1129/3/4
f 1129/3/4 1128/3/4 1130/3/4
f 1131/3/4 1132/3/4 1133/3/4
f 1133/3/4 1132/3/4 1134/3/4
f 1135/3/4 1136/3/4 1137/3/4
f 1137/3/4 1136/3/4 1138/3/4
f 1139/6/4 1140/6/4 1141/6/4
f 1141/6/4 1140/6/4 1142/6/4
f 1143/6/4 1144/6/4 1145/6/4
f 1145/6/4 1144/6/4 1146/6/4
f 1147/3/4 1148/3/4 1149/3/4
f 1149/3/4 1148/3/4 1150/3/4
f 1151/3/4 1152/3/4 1153/3/4
f 1153/3/4 1152/3/4 1154/3/4
f 1155/3/4 1156/3/4 1157/3/4
f 1157/3/4 1156/3/4 1158/3/4
f 1159/3/4 1160/3/4 1161/3/4
f 1161/3/4 1160/3/4 1162/3/4
f 1163/3/4 1164/3/4 1165/3/4
f 1165/3/4 1164/3/4 1166/3/4
f 1167/3/4 1168/3/4 1169/3/4
f 1169/3/4 1168/3/4 1170/3/4
f 1171/3/4 1172/3/4 1173/3/4
f 1173/3/4 1172/3/4 1174/3/4
f 1175/6/4 1176/6/4 1177/6/4
f 1177/6/4 1176/6/4 1178/6/4
f 1179/6/4 1180/6/4 1181/6/4
f 1181/6/4 1180/6/4 1182/6/4
f 1183/3/4 1184/3/4 1185/3/4
f 1185/3/4 1184/3/4 1186/3/4
f 1187/3/4 1188/3/4 1189/3/4
f 1189/3/4 1188/3/4 1190/3/4
f 1191/8/4 1192/8/4 1194/8/4
f 1194/8/4 1192/8/4 1195/8/4
f 1195/8/4 1192/8/4 1197/8/4
f 1196/8/4 1197/8/4 1198/8/4
f 1192/13/4 1193/13/4 1199/13/4
f 1198/8/4 1197/8/4 1199/8/4
f 1197/8/4 1192/8/4 1199/8/4
f 1199/13/4 1193/13/4 1200/13/4
f 1201/3/4 1202/3/4 1203/3/4
f 1203/3/4 1202/3/4 1204/3/4
f 1205/3/4 1206/3/4 1207/3/4
f 1207/3/4 1206/3/4 1208/3/4
f 1209/3/4 1210/3/4 1211/3/4
f 1211/3/4 1210/3/4 1212/3/4
f 1213/17/4 1214/17/4 1222/17/4
f 1214/8/4 1215/8/4 1223/8/4
f 1222/17/4 1214/17/4 1223/17/4
f 1215/13/4 1216/13/4 1224/13/4
f 1223/8/4 1215/8/4 1224/8/4
f 1216/8/4 1217/8/4 1225/8/4
f 1224/13/4 1216/13/4 1225/13/4
f 1217/13/4 1218/13/4 1226/13/4
f 1225/8/4 1217/8/4 1226/8/4
f 1218/8/4 1219/8/4 1227/8/4
f 1226/13/4 1218/13/4 1227/13/4
f 1219/13/4 1220/13/4 1228/13/4
f 1227/8/4 1219/8/4 1228/8/4
f 1220/3/4 1221/3/4 1229/3/4
f 1228/13/4 1220/13/4 1229/13/4
f 1229/3/4 1221/3/4 1231/3/4
f 1231/3/4 1221/3/4 1232/3/4
f 1230/12/4 1231/12/4 1233/12/4
f 1231/12/4 1232/12/4 1233/12/4
f 1233/12/4 1232/12/4 1234/12/4
f 1234/12/4 1232/12/4 1235/12/4
f 1234/3/4 1235/3/4 1237/3/4
f 1237/3/4 1235/3/4 1238/3/4
f 1236/12/4 1237/12/4 1239/12/4
f 1237/12/4 1238/12/4 1239/12/4
f 1239/12/4 1238/12/4 1240/12/4
f 1240/12/4 1238/12/4 1241/12/4
f 1240/3/4 1241/3/4 1243/3/4
f 1243/3/4 1241/3/4 1244/3/4
f 1242/12/4 1243/12/4 1245/12/4
f 1243/12/4 1244/12/4 1245/12/4
f 1245/12/4 1244/12/4 1246/12/4
f 1246/12/4 1244/12/4 1247/12/4
f 1246/3/4 1247/3/4 1249/3/4
f 1249/3/4 1247/3/4 1250/3/4
f 1248/12/4 1249/12/4 1251/12/4
f 1249/12/4 1250/12/4 1251/12/4
f 1251/12/4 1250/12/4 1252/12/4
f 1252/12/4 1250/12/4 1253/12/4
f 1252/3/4 1253/3/4 1255/3/4
f 1255/3/4 1253/3/4 1256/3/4
f 1254/12/4 1255/12/4 1257/12/4
f 1255/12/4 1256/12/4 1257/12/4
f 1257/12/4 1256/12/4 1258/12/4
f 1258/12/4 1256/12/4 1259/12/4
f 1258/3/4 1259/3/4 1261/3/4
f 1261/3/4 1259/3/4 1262/3/4
f 1260/12/4 1261/12/4 1263/12/4
f 1261/12/4 1262/12/4 1263/12/4
f 1263/12/4 1262/12/4 1264/12/4
f 1264/12/4 1262/12/4 1265/12/4
f 1264/3/4 1265/3/4 1267/3/4
f 1266/3/4 1267/3/4 1269/3/4
f 1267/3/4 1265/3/4 1270/3/4
f 1269/3/4 1267/3/4 1270/3/4
f 1268/1/4 1269/1/4 1271/1/4
f 1269/1/4 1270/1/4 1271/1/4
f 1271/1/4 1270/1/4 1272/1/4
f 1272/1/4 1270/1/4 1273/1/4
f 1272/3/4 1273/3/4 1274/3/4
f 1274/3/4 1273/3/4 1275/3/4
f 1275/3/4 1273/3/4 1277/3/4
f 1277/3/4 1273/3/4 1278/3/4
f 1276/12/4 1277/12/4 1279/12/4
f 1277/12/4 1278/12/4 1279/12/4
f 1279/12/4 1278/12/4 1280/12/4
f 1280/12/4 1278/12/4 1281/12/4
f 1280/3/4 1281/3/4 1283/3/4
f 1283/3/4 1281/3/4 1284/3/4
f 1282/12/4 1283/12/4 1285/12/4
f 1283/12/4 1284/12/4 1285/12/4
f 1285/12/4 1284/12/4 1286/12/4
f 1286/12/4 1284/12/4 1287/12/4
f 1286/3/4 1287/3/4 1289/3/4
f 1289/3/4 1287/3/4 1290/3/4
f 1288/12/4 1289/12/4 1291/12/4
f 1289/12/4 1290/12/4 1291/12/4
f 1291/12/4 1290/12/4 1292/12/4
f 1292/12/4 1290/12/4 1293/12/4
f 1292/3/4 1293/3/4 1295/3/4
f 1295/3/4 1293/3/4 1296/3/4
f 1294/12/4 1295/12/4 1297/12/4
f 1295/12/4 1296/12/4 1297/12/4
f 1297/12/4 1296/12/4 1298/12/4
f 1298/12/4 1296/12/4 1299/12/4
f 1298/3/4 1299/3/4 1301/3/4
f 1301/3/4 1299/3/4 1302/3/4
f 1300/12/4 1301/12/4 1303/12/4
f 1301/12/4 1302/12/4 1303/12/4
f 1303/12/4 1302/12/4 1304/12/4
f 1304/12/4 1302/12/4 1305/12/4
f 1304/3/4 1305/3/4 1307/3/4
f 1307/3/4 1305/3/4 1308/3/4
f 1306/12/4 1307/12/4 1309/12/4
f 1307/12/4 1308/12/4 1309/12/4
f 1309/12/4 1308/12/4 1310/12/4
f 1310/12/4 1308/12/4 1311/12/4
f 1310/3/4 1311/3/4 1319/3/4
f 1312/17/4 1313/17/4 1320/17/4
f 1313/8/4 1314/8/4 1321/8/4
f 1320/17/4 1313/17/4 1321/17/4
f 1314/13/4 1315/13/4 1322/13/4
f 1321/8/4 1314/8/4 1322/8/4
f 1315/8/4 1316/8/4 1323/8/4
f 1322/13/4 1315/13/4 1323/13/4
f 1316/13/4 1317/13/4 1324/13/4
f 1323/8/4 1316/8/4 1324/8/4
f 1317/8/4 1318/8/4 1325/8/4
f 1324/13/4 1317/13/4 1325/13/4
f 1318/13/4 1319/13/4 1326/13/4
f 1325/8/4 1318/8/4 1326/8/4
f 1319/3/4 1311/3/4 1327/3/4
f 1326/13/4 1319/13/4 1327/13/4
f 1327/3/4 1311/3/4 1328/3/4
f 1333/17/5 1330/17/5 1329/17/5
f 1334/17/5 1330/17/5 1333/17/5
f 1335/17/5 1332/17/5 1331/17/5
f 1336/17/5 1332/17/5 1335/17/5
f 1341/8/5 1338/8/5 1337/8/5
f 1342/8/5 1338/8/5 1341/8/5
f 1343/8/5 1340/8/5 1339/8/5
f 1344/8/5 1340/8/5 1343/8/5
f 1349/8/5 1346/8/5 1345/8/5
f 1350/8/5 1346/8/5 1349/8/5
f 1351/8/5 1348/8/5 1347/8/5
f 1352/8/5 1348/8/5 1351/8/5
f 1357/17/5 1354/17/5 1353/17/5
f 1358/17/5 1354/17/5 1357/17/5
f 1359/17/5 1356/17/5 1355/17/5
f 1360/17/5 1356/17/5 1359/17/5
f 1364/8/5 1362/8/5 1361/8/5
f 1365/8/5 1362/8/5 1364/8/5
f 1367/8/5 1364/8/5 1363/8/5
f 1367/8/5 1366/8/5 1365/8/5
f 1367/8/5 1365/8/5 1364/8/5
f 1368/8/5 1366/8/5 1367/8/5
f 1369/8/5 1366/8/5 1368/8/5
f 1370/8/5 1366/8/5 1369/8/5
f 1371/8/5 1369/8/5 1368/8/5
f 1372/8/5 1369/8/5 1371/8/5
f 1375/1/5 1374/1/5 1373/1/5
f 1376/1/5 1374/1/5 1375/1/5
f 1381/3/5 1378/3/5 1377/3/5
f 1382/3/5 1378/3/5 1381/3/5
f 1383/3/5 1380/3/5 1379/3/5
f 1384/3/5 1380/3/5 1383/3/5
f 1387/1/5 1386/1/5 1385/1/5
f 1388/1/5 1386/1/5 1387/1/5
f 1417/12/5 1390/12/5 1389/12/5
f 1418/12/5 1390/12/5 1417/12/5
f 1419/12/5 1392/12/5 1391/12/5
f 1420/12/5 1392/12/5 1419/12/5
f 1421/12/5 1394/12/5 1393/12/5
f 1422/12/5 1394/12/5 1421/12/5
f 1423/12/5 1396/12/5 1395/12/5
f 1424/12/5 1396/12/5 1423/12/5
f 1425/12/5 1398/12/5 1397/12/5
f 1426/12/5 1398/12/5 1425/12/5
f 1427/12/5 1400/12/5 1399/12/5
f 1428/12/5 1400/12/5 1427/12/5
f 1429/3/5 1402/3/5 1401/3/5
f 1430/3/5 1402/3/5 1429/3/5
f 1431/3/5 1404/3/5 1403/3/5
f 1432/3/5 1404/3/5 1431/3/5
f 1433/12/5 1406/12/5 1405/12/5
f 1434/12/5 1406/12/5 1433/12/5
f 1435/12/5 1408/12/5 1407/12/5
f 1436/12/5 1408/12/5 1435/12/5
f 1437/12/5 1410/12/5 1409/12/5
f 1438/12/5 1410/12/5 1437/12/5
f 1439/12/5 1412/12/5 1411/12/5
f 1440/12/5 1412/12/5 1439/12/5
f 1441/12/5 1414/12/5 1413/12/5
f 1442/12/5 1414/12/5 1441/12/5
f 1443/12/5 1416/12/5 1415/12/5
f 1444/12/5 1416/12/5 1443/12/5
f 1449/3/5 1446/3/5 1445/3/5
f 1450/3/5 1446/3/5 1449/3/5
f 1451/3/5 1448/3/5 1447/3/5
f 1452/3/5 1448/3/5 1451/3/5
f 1457/3/5 1454/3/5 1453/3/5
f 1458/3/5 1454/3/5 1457/3/5
f 1459/3/5 1456/3/5 1455/3/5
f 1460/3/5 1456/3/5 1459/3/5
f 1465/3/5 1462/3/5 1461/3/5
f 1466/3/5 1462/3/5 1465/3/5
f 1467/3/5 1464/3/5 1463/3/5
f 1468/3/5 1464/3/5 1467/3/5
f 1473/3/5 1470/3/5 1469/3/5
f 1474/3/5 1470/3/5 1473/3/5
f 1475/3/5 1472/3/5 1471/3/5
f 1476/3/5 1472/3/5 1475/3/5
f 1481/3/5 1478/3/5 1477/3/5
f 1482/3/5 1478/3/5 1481/3/5
f 1483/3/5 1480/3/5 1479/3/5
f 1484/3/5 1480/3/5 1483/3/5
f 1489/3/5 1486/3/5 1485/3/5
f 1490/3/5 1486/3/5 1489/3/5
f 1491/3/5 1488/3/5 1487/3/5
f 1492/3/5 1488/3/5 1491/3/5
f 1497/3/5 1494/3/5 1493/3/5
f 1498/3/5 1494/3/5 1497/3/5
f 1499/3/5 1496/3/5 1495/3/5
f 1500/3/5 1496/3/5 1499/3/5
f 1505/3/5 1502/3/5 1501/3/5
f 1506/3/5 1502/3/5 1505/3/5
f 1507/3/5 1504/3/5 1503/3/5
f 1508/3/5 1504/3/5 1507/3/5
f 1513/3/5 1510/3/5 1509/3/5
f 1514/3/5 1510/3/5 1513/3/5
f 1515/3/5 1512/3/5 1511/3/5
f 1516/3/5 1512/3/5 1515/3/5
f 1521/3/5 1518/3/5 1517/3/5
f 1522/3/5 1518/3/5 1521/3/5
f 1523/3/5 1520/3/5 1519/3/5
f 1524/3/5 1520/3/5 1523/3/5
f 1529/3/5 1526/3/5 1525/3/5
f 1530/3/5 1526/3/5 1529/3/5
f 1531/3/5 1528/3/5 1527/3/5
f 1532/3/5 1528/3/5 1531/3/5
f 1537/3/5 1534/3/5 1533/3/5
f 1538/3/5 1534/3/5 1537/3/5
f 1539/3/5 1536/3/5 1535/3/5
f 1540/3/5 1536/3/5 1539/3/5
f 1545/3/5 1542/3/5 1541/3/5
f 1546/3/5 1542/3/5 1545/3/5
f 1547/3/5 1544/3/5 1543/3/5
f 1548/3/5 1544/3/5 1547/3/5
f 1553/3/5 1550/3/5 1549/3/5
f 1554/3/5 1550/3/5 1553/3/5
f 1555/3/5 1552/3/5 1551/3/5
f 1556/3/5 1552/3/5 1555/3/5
f 1585/12/5 1558/12/5 1557/12/5
f 1586/12/5 1558/12/5 1585/12/5
f 1587/12/5 1560/12/5 1559/12/5
f 1588/12/5 1560/12/5 1587/12/5
f 1589/12/5 1562/12/5 1561/12/5
f 1590/12/5 1562/12/5 1589/12/5
f 1591/12/5 1564/12/5 1563/12/5
f 1592/12/5 1564/12/5 1591/12/5
f 1593/12/5 1566/12/5 1565/12/5
f 1594/12/5 1566/12/5 1593/12/5
f 1595/12/5 1568/12/5 1567/12/5
f 1596/12/5 1568/12/5 1595/12/5
f 1597/3/5 1570/3/5 1569/3/5
f 1598/3/5 1570/3/5 1597/3/5
f 1599/3/5 1572/3/5 1571/3/5
f 1600/3/5 1572/3/5 1599/3/5
f 1601/12/5 1574/12/5 1573/12/5
f 1602/12/5 1574/12/5 1601/12/5
f 1603/12/5 1576/12/5 1575/12/5
f 1604/12/5 1576/12/5 1603/12/5
f 1605/12/5 1578/12/5 1577/12/5
f 1606/12/5 1578/12/5 1605/12/5
f 1607/12/5 1580/12/5 1579/12/5
f 1608/12/5 1580/12/5 1607/12/5
f 1609/12/5 1582/12/5 1581/12/5
f 1610/12/5 1582/12/5 1609/12/5
f 1611/12/5 1584/12/5 1583/12/5
f 1612/12/5 1584/12/5 1611/12/5
f 1642/3/5 1614/3/5 1613/3/5
f 1643/3/5 1614/3/5 1642/3/5
f 1644/3/5 1616/3/5 1615/3/5
f 1645/3/5 1616/3/5 1644/3/5
f 1646/3/5 1618/3/5 1617/3/5
f 1647/3/5 1618/3/5 1646/3/5
f 1648/3/5 1620/3/5 1619/3/5
f 1649/3/5 1620/3/5 1648/3/5
f 1650/3/5 1622/3/5 1621/3/5
f 1651/3/5 1622/3/5 1650/3/5
f 1652/3/5 1624/3/5 1623/3/5
f 1653/3/5 1624/3/5 1652/3/5
f 1654/3/5 1626/3/5 1625/3/5
f 1655/3/5 1626/3/5 1654/3/5
f 1656/3/5 1628/3/5 1627/3/5
f 1657/3/5 1628/3/5 1656/3/5
f 1658/3/5 1630/3/5 1629/3/5
f 1659/3/5 1630/3/5 1658/3/5
f 1660/3/5 1632/3/5 1631/3/5
f 1661/3/5 1632/3/5 1660/3/5
f 1662/3/5 1634/3/5 1633/3/5
f 1663/3/5 1634/3/5 1662/3/5
f 1664/3/5 1636/3/5 1635/3/5
f 1665/3/5 1636/3/5 1664/3/5
f 1666/3/5 1638/3/5 1637/3/5
f 1667/3/5 1638/3/5 1666/3/5
f 1668/3/5 1640/3/5 1639/3/5
f 1669/3/5 1640/3/5 1668/3/5
f 1671/3/5 1642/3/5 1641/3/5
f 1672/3/5 1642/3/5 1671/3/5
f 1673/3/5 1670/3/5 1669/3/5
f 1674/3/5 1670/3/5 1673/3/5
f 1679/3/5 1676/3/5 1675/3/5
f 1680/3/5 1676/3/5 1679/3/5
f 1681/3/5 1678/3/5 1677/3/5
f 1682/3/5 1678/3/5 1681/3/5
f 1687/3/5 1684/3/5 1683/3/5
f 1688/3/5 1684/3/5 1687/3/5
f 1689/3/5 1686/3/5 1685/3/5
f 1690/3/5 1686/3/5 1689/3/5
f 1695/3/5 1692/3/5 1691/3/5
f 1696/3/5 1692/3/5 1695/3/5
f 1697/3/5 1694/3/5 1693/3/5
f 1698/3/5 1694/3/5 1697/3/5
f 1703/3/5 1700/3/5 1699/3/5
f 1704/3/5 1700/3/5 1703/3/5
f 1705/3/5 1702/3/5 1701/3/5
f 1706/3/5 1702/3/5 1705/3/5
f 1711/3/5 1708/3/5 1707/3/5
f 1712/3/5 1708/3/5 1711/3/5
f 1713/3/5 1710/3/5 1709/3/5
f 1714/3/5 1710/3/5 1713/3/5
f 1719/3/5 1716/3/5 1715/3/5
f 1720/3/5 1716/3/5 1719/3/5
f 1721/3/5 1718/3/5 1717/3/5
f 1722/3/5 1718/3/5 1721/3/5
f 1727/3/5 1724/3/5 1723/3/5
f 1728/3/5 1724/3/5 1727/3/5
f 1729/3/5 1726/3/5 1725/3/5
f 1730/3/5 1726/3/5 1729/3/5
f 1735/3/5 1732/3/5 1731/3/5
f 1736/3/5 1732/3/5 1735/3/5
f 1737/3/5 1734/3/5 1733/3/5
f 1738/3/5 1734/3/5 1737/3/5
f 1743/3/5 1740/3/5 1739/3/5
f 1744/3/5 1740/3/5 1743/3/5
f 1745/3/5 1742/3/5 1741/3/5
f 1746/3/5 1742/3/5 1745/3/5
f 1751/3/5 1748/3/5 1747/3/5
f 1752/3/5 1748/3/5 1751/3/5
f 1753/3/5 1750/3/5 1749/3/5
f 1754/3/5 1750/3/5 1753/3/5
f 1759/3/5 1756/3/5 1755/3/5
f 1760/3/5 1756/3/5 1759/3/5
f 1761/3/5 1758/3/5 1757/3/5
f 1762/3/5 1758/3/5 1761/3/5
f 1767/3/5 1764/3/5 1763/3/5
f 1768/3/5 1764/3/5 1767/3/5
f 1769/3/5 1766/3/5 1765/3/5
f 1770/3/5 1766/3/5 1769/3/5
f 1775/3/5 1772/3/5 1771/3/5
f 1776/3/5 1772/3/5 1775/3/5
f 1803/3/5 1774/3/5 1773/3/5
f 1804/3/5 1774/3/5 1803/3/5
f 1805/3/5 1777/3/5 1776/3/5
f 1806/3/5 1777/3/5 1805/3/5
f 1807/3/5 1779/3/5 1778/3/5
f 1808/3/5 1779/3/5 1807/3/5
f 1809/3/5 1781/3/5 1780/3/5
f 1810/3/5 1781/3/5 1809/3/5
f 1811/3/5 1783/3/5 1782/3/5
f 1812/3/5 1783/3/5 1811/3/5
f 1813/3/5 1785/3/5 1784/3/5
f 1814/3/5 1785/3/5 1813/3/5
f 1815/3/5 1787/3/5 1786/3/5
f 1816/3/5 1787/3/5 1815/3/5
f 1817/3/5 1789/3/5 1788/3/5
f 1818/3/5 1789/3/5 1817/3/5
f 1819/3/5 1791/3/5 1790/3/5
f 1820/3/5 1791/3/5 1819/3/5
f 1821/3/5 1793/3/5 1792/3/5
f 1822/3/5 1793/3/5 1821/3/5
f 1823/3/5 1795/3/5 1794/3/5
f 1824/3/5 1795/3/5 1823/3/5
f 1825/3/5 1797/3/5 1796/3/5
f 1826/3/5 1797/3/5 1825/3/5
f 1827/3/5 1799/3/5 1798/3/5
f 1828/3/5 1799/3/5 1827/3/5
f 1829/3/5 1801/3/5 1800/3/5
f 1830/3/5 1801/3/5 1829/3/5
f 1831/3/5 1803/3/5 1802/3/5
f 1832/3/5 1803/3/5 1831/3/5
f 1861/3/5 1834/3/5 1833/3/5
f 1861/3/5 1860/3/5 1859/3/5
f 1861/3/5 1859/3/5 1858/3/5
f 1861/3/5 1858/3/5 1857/3/5
f 1861/3/5 1857/3/5 1856/3/5
f 1861/3/5 1856/3/5 1855/3/5
f 1861/3/5 1855/3/5 1854/3/5
f 1861/3/5 1854/3/5 1853/3/5
f 1861/3/5 1853/3/5 1852/3/5
f 1861/3/5 1852/3/5 1851/3/5
f 1861/3/5 1851/3/5 1850/3/5
f 1861/3/5 1850/3/5 1849/3/5
f 1861/3/5 1849/3/5 1848/3/5
f 1861/3/5 1848/3/5 1847/3/5
f 1861/3/5 1847/3/5 1846/3/5
f 1861/3/5 1846/3/5 1845/3/5
f 1861/3/5 1845/3/5 1844/3/5
f 1861/3/5 1844/3/5 1843/3/5
f 1861/3/5 1843/3/5 1842/3/5
f 1861/3/5 1842/3/5 1841/3/5
f 1861/3/5 1841/3/5 1840/3/5
f 1861/3/5 1840/3/5 1839/3/5
f 1861/3/5 1839/3/5 1838/3/5
f 1861/3/5 1838/3/5 1837/3/5
f 1861/3/5 1837/3/5 1836/3/5
f 1861/3/5 1836/3/5 1835/3/5
f 1861/3/5 1835/3/5 1834/3/5
f 1862/3/5 1860/3/5 1861/3/5
f 1863/3/5 1860/3/5 1862/3/5
f 1864/3/5 1860/3/5 1863/3/5
f 1865/3/5 1860/3/5 1864/3/5
f 1866/3/5 1860/3/5 1865/3/5
f 1867/3/5 1860/3/5 1866/3/5
f 1868/3/5 1860/3/5 1867/3/5
f 1869/3/5 1860/3/5 1868/3/5
f 1870/3/5 1860/3/5 1869/3/5
f 1871/3/5 1860/3/5 1870/3/5
f 1872/3/5 1860/3/5 1871/3/5
f 1873/3/5 1860/3/5 1872/3/5
f 1874/3/5 1860/3/5 1873/3/5
f 1875/3/5 1860/3/5 1874/3/5
f 1876/3/5 1860/3/5 1875/3/5
f 1877/3/5 1860/3/5 1876/3/5
f 1878/3/5 1860/3/5 1877/3/5
f 1879/3/5 1860/3/5 1878/3/5
f 1880/3/5 1860/3/5 1879/3/5
f 1881/3/5 1860/3/5 1880/3/5
f 1882/3/5 1860/3/5 1881/3/5
f 1883/3/5 1860/3/5 1882/3/5
f 1884/3/5 1860/3/5 1883/3/5
f 1885/3/5 1860/3/5 1884/3/5
f 1886/3/5 1860/3/5 1885/3/5
f 1887/3/5 1860/3/5 1886/3/5
f 1888/3/5 1860/3/5 1887/3/5
f 1889/13/6 1890/13/6 1891/13/6
f 1891/13/6 1890/13/6 1892/13/6
f 1891/8/6 1892/8/6 1893/8/6
f 1893/8/6 1892/8/6 1894/8/6
f 1894/8/6 1892/8/6 1895/8/6
f 1895/8/6 1892/8/6 1896/8/6
f 1891/8/6 1893/8/6 1897/8/6
f 1894/8/6 1895/8/6 1898/8/6
f 1898/8/6 1895/8/6 1899/8/6
f 1896/8/6 1892/8/6 1900/8/6
f 1898/8/6 1899/8/6 1901/8/6
f 1899/8/6 1900/8/6 1901/8/6
f 1891/8/6 1897/8/6 1901/8/6
f 1897/8/6 1898/8/6 1901/8/6
f 1901/8/6 1900/8/6 1902/8/6
f 1902/8/6 1900/8/6 1903/8/6
f 1900/8/6 1892/8/6 1904/8/6
f 1903/8/6 1900/8/6 1904/8/6
f 1891/8/6 1901/8/6 1905/8/6
f 1902/8/6 1903/8/6 1906/8/6
f 1906/8/6 1903/8/6 1907/8/6
f 1904/8/6 1892/8/6 1908/8/6
f 1889/13/6 1891/13/6 1909/13/6
f 1907/8/6 1908/8/6 1909/8/6
f 1891/8/6 1905/8/6 1909/8/6
f 1906/8/6 1907/8/6 1909/8/6
f 1905/8/6 1906/8/6 1909/8/6
f 1908/8/6 1892/8/6 1910/8/6
f 1909/8/6 1908/8/6 1910/8/6
f 1892/13/6 1890/13/6 1910/13/6
f 1889/13/6 1909/13/6 1911/13/6
f 1909/13/6 1910/13/6 1911/13/6
f 1910/13/6 1890/13/6 1912/13/6
f 1911/13/6 1910/13/6 1912/13/6
f 1913/6/6 1914/6/6 1917/6/6
f 1917/6/6 1914/6/6 1918/6/6
f 1918/6/6 1914/6/6 1919/6/6
f 1919/6/6 1914/6/6 1920/6/6
f 1920/6/6 1914/6/6 1921/6/6
f 1921/6/6 1914/6/6 1922/6/6
f 1922/6/6 1914/6/6 1923/6/6
f 1923/6/6 1914/6/6 1924/6/6
f 1915/6/6 1916/6/6 1925/6/6
f 1925/6/6 1916/6/6 1926/6/6
f 1926/6/6 1916/6/6 1927/6/6
f 1927/6/6 1916/6/6 1928/6/6
f 1928/6/6 1916/6/6 1929/6/6
f 1929/6/6 1916/6/6 1930/6/6
f 1930/6/6 1916/6/6 1931/6/6
f 1931/6/6 1916/6/6 1932/6/6
f 1913/6/6 1917/6/6 1933/6/6
f 1917/5/6 1918/5/6 1933/5/6
f 1918/15/6 1919/15/6 1934/15/6
f 1933/5/6 1918/5/6 1934/5/6
f 1919/14/6 1920/14/6 1935/14/6
f 1934/15/6 1919/15/6 1935/15/6
f 1920/10/6 1921/10/6 1936/10/6
f 1935/14/6 1920/14/6 1936/14/6
f 1921/15/6 1922/15/6 1937/15/6
f 1936/10/6 1921/10/6 1937/10/6
f 1922/11/6 1923/11/6 1938/11/6
f 1937/15/6 1922/15/6 1938/15/6
f 1923/2/6 1924/2/6 1939/2/6
f 1938/11/6 1923/11/6 1939/11/6
f 1924/6/6 1914/6/6 1940/6/6
f 1939/2/6 1924/2/6 1940/2/6
f 1925/10/6 1926/10/6 1941/10/6
f 1926/11/6 1927/11/6 1941/11/6
f 1927/16/6 1928/16/6 1942/16/6
f 1941/11/6 1927/11/6 1942/11/6
f 1928/10/6 1929/10/6 1943/10/6
f 1942/16/6 1928/16/6 1943/16/6
f 1929/2/6 1930/2/6 1944/2/6
f 1943/10/6 1929/10/6 1944/10/6
f 1930/11/6 1931/11/6 1945/11/6
f 1944/2/6 1930/2/6 1945/2/6
f 1931/5/6 1932/5/6 1946/5/6
f 1945/11/6 1931/11/6 1946/11/6
f 1932/6/6 1916/6/6 1947/6/6
f 1946/5/6 1932/5/6 1947/5/6
f 1913/6/6 1933/6/6 1948/6/6
f 1933/2/6 1934/2/6 1948/2/6
f 1934/9/6 1935/9/6 1949/9/6
f 1948/2/6 1934/2/6 1949/2/6
f 1935/16/6 1936/16/6 1950/16/6
f 1949/9/6 1935/9/6 1950/9/6
f 1936/7/6 1937/7/6 1951/7/6
f 1950/16/6 1936/16/6 1951/16/6
f 1937/9/6 1938/9/6 1952/9/6
f 1951/7/6 1937/7/6 1952/7/6
f 1938/15/6 1939/15/6 1953/15/6
f 1952/9/6 1938/9/6 1953/9/6
f 1939/4/6 1940/4/6 1954/4/6
f 1953/15/6 1939/15/6 1954/15/6
f 1940/6/6 1914/6/6 1955/6/6
f 1954/4/6 1940/4/6 1955/4/6
f 1915/6/6 1925/6/6 1956/6/6
f 1925/10/6 1941/10/6 1956/10/6
f 1941/14/6 1942/14/6 1957/14/6
f 1956/10/6 1941/10/6 1957/10/6
f 1942/9/6 1943/9/6 1958/9/6
f 1957/14/6 1942/14/6 1958/14/6
f 1943/11/6 1944/11/6 1959/11/6
f 1958/9/6 1943/9/6 1959/9/6
f 1944/4/6 1945/4/6 1960/4/6
f 1959/11/6 1944/11/6 1960/11/6
f 1945/11/6 1946/11/6 1961/11/6
f 1960/4/6 1945/4/6 1961/4/6
f 1946/7/6 1947/7/6 1962/7/6
f 1961/11/6 1946/11/6 1962/11/6
f 1947/6/6 1916/6/6 1963/6/6
f 1962/7/6 1947/7/6 1963/7/6
f 1951/6/6 1952/6/6 1964/6/6
f 1913/6/6 1948/6/6 1964/6/6
f 1948/6/6 1949/6/6 1964/6/6
f 1949/6/6 1950/6/6 1964/6/6
f 1950/6/6 1951/6/6 1964/6/6
f 1953/6/6 1954/6/6 1964/6/6
f 1954/6/6 1955/6/6 1964/6/6
f 1952/6/6 1953/6/6 1964/6/6
f 1955/6/6 1914/6/6 1965/6/6
f 1964/6/6 1955/6/6 1965/6/6
f 1959/6/6 1960/6/6 1966/6/6
f 1958/6/6 1959/6/6 1966/6/6
f 1961/6/6 1962/6/6 1966/6/6
f 1915/6/6 1956/6/6 1966/6/6
f 1956/6/6 1957/6/6 1966/6/6
f 1957/6/6 1958/6/6 1966/6/6
f 1962/6/6 1963/6/6 1966/6/6
f 1960/6/6 1961/6/6 1966/6/6
f 1963/6/6 1916/6/6 1967/6/6
f 1966/6/6 1963/6/6 1967/6/6
f 1968/6/6 1969/6/6 1972/6/6
f 1972/6/6 1969/6/6 1973/6/6
f 1973/6/6 1969/6/6 1974/6/6
f 1974/6/6 1969/6/6 1975/6/6
f 1975/6/6 1969/6/6 1976/6/6
f 1976/6/6 1969/6/6 1977/6/6
f 1977/6/6 1969/6/6 1978/6/6
f 1978/6/6 1969/6/6 1979/6/6
f 1970/6/6 1971/6/6 1980/6/6
f 1980/6/6 1971/6/6 1981/6/6
f 1981/6/6 1971/6/6 1982/6/6
f 1982/6/6 1971/6/6 1983/6/6
f 1983/6/6 1971/6/6 1984/6/6
f 1984/6/6 1971/6/6 1985/6/6
f 1985/6/6 1971/6/6 1986/6/6
f 1968/6/6 1972/6/6 1987/6/6
f 1972/11/6 1973/11/6 1987/11/6
f 1973/10/6 1974/10/6 1988/10/6
f 1987/11/6 1973/11/6 1988/11/6
f 1974/5/6 1975/5/6 1989/5/6
f 1988/10/6 1974/10/6 1989/10/6
f 1975/2/6 1976/2/6 1990/2/6
f 1989/5/6 1975/5/6 1990/5/6
f 1976/15/6 1977/15/6 1991/15/6
f 1990/2/6 1976/2/6 1991/2/6
f 1977/10/6 1978/10/6 1992/10/6
f 1991/15/6 1977/15/6 1992/15/6
f 1978/15/6 1979/15/6 1993/15/6
f 1992/10/6 1978/10/6 1993/10/6
f 1979/6/6 1969/6/6 1994/6/6
f 1993/15/6 1979/15/6 1994/15/6
f 1970/6/6 1980/6/6 1995/6/6
f 1980/16/6 1981/16/6 1995/16/6
f 1981/15/6 1982/15/6 1996/15/6
f 1995/16/6 1981/16/6 1996/16/6
f 1982/10/6 1983/10/6 1997/10/6
f 1996/15/6 1982/15/6 1997/15/6
f 1983/15/6 1984/15/6 1998/15/6
f 1997/10/6 1983/10/6 1998/10/6
f 1984/5/6 1985/5/6 1999/5/6
f 1998/15/6 1984/15/6 1999/15/6
f 1999/5/6 1985/5/6 2000/5/6
f 1985/15/6 1986/15/6 2001/15/6
f 2000/5/6 1985/5/6 2001/5/6
f 1986/6/6 1971/6/6 2002/6/6
f 2001/15/6 1986/15/6 2002/15/6
f 1968/6/6 1987/6/6 2003/6/6
f 1987/10/6 1988/10/6 2003/10/6
f 1988/11/6 1989/11/6 2004/11/6
f 2003/10/6 1988/10/6 2004/10/6
f 1989/4/6 1990/4/6 2005/4/6
f 2004/11/6 1989/11/6 2005/11/6
f 1990/11/6 1991/11/6 2006/11/6
f 2005/4/6 1990/4/6 2006/4/6
f 1991/14/6 1992/14/6 2007/14/6
f 2006/11/6 1991/11/6 2007/11/6
f 1992/15/6 1993/15/6 2008/15/6
f 2007/14/6 1992/14/6 2008/14/6
f 1993/4/6 1994/4/6 2009/4/6
f 2008/15/6 1993/15/6 2009/15/6
f 1994/6/6 1969/6/6 2010/6/6
f 2009/4/6 1994/4/6 2010/4/6
f 1970/6/6 1995/6/6 2011/6/6
f 1995/11/6 1996/11/6 2011/11/6
f 1996/4/6 1997/4/6 2012/4/6
f 2011/11/6 1996/11/6 2012/11/6
f 1997/2/6 1998/2/6 2013/2/6
f 2012/4/6 1997/4/6 2013/4/6
f 1998/2/6 1999/2/6 2013/2/6
f 2013/2/6 1999/2/6 2014/2/6
f 1999/14/6 2000/14/6 2015/14/6
f 2014/2/6 1999/2/6 2015/2/6
f 2000/10/6 2001/10/6 2016/10/6
f 2015/14/6 2000/14/6 2016/14/6
f 2001/2/6 2002/2/6 2017/2/6
f 2016/10/6 2001/10/6 2017/10/6
f 2002/6/6 1971/6/6 2018/6/6
f 2017/2/6 2002/2/6 2018/2/6
f 1968/6/6 2003/6/6 2019/6/6
f 2003/15/6 2004/15/6 2019/15/6
f 2004/9/6 2005/9/6 2020/9/6
f 2019/15/6 2004/15/6 2020/15/6
f 2005/16/6 2006/16/6 2021/16/6
f 2020/9/6 2005/9/6 2021/9/6
f 2006/7/6 2007/7/6 2022/7/6
f 2021/16/6 2006/16/6 2022/16/6
f 2007/16/6 2008/16/6 2023/16/6
f 2022/7/6 2007/7/6 2023/7/6
f 2008/9/6 2009/9/6 2024/9/6
f 2023/16/6 2008/16/6 2024/16/6
f 2009/2/6 2010/2/6 2025/2/6
f 2024/9/6 2009/9/6 2025/9/6
f 2010/6/6 1969/6/6 2026/6/6
f 2025/2/6 2010/2/6 2026/2/6
f 1970/6/6 2011/6/6 2027/6/6
f 2011/14/6 2012/14/6 2027/14/6
f 2012/10/6 2013/10/6 2028/10/6
f 2027/14/6 2012/14/6 2028/14/6
f 2013/11/6 2014/11/6 2029/11/6
f 2028/10/6 2013/10/6 2029/10/6
f 2014/7/6 2015/7/6 2030/7/6
f 2029/11/6 2014/11/6 2030/11/6
f 2015/5/6 2016/5/6 2031/5/6
f 2030/7/6 2015/7/6 2031/7/6
f 2016/9/6 2017/9/6 2032/9/6
f 2031/5/6 2016/5/6 2032/5/6
f 2017/11/6 2018/11/6 2033/11/6
f 2032/9/6 2017/9/6 2033/9/6
f 2018/6/6 1971/6/6 2034/6/6
f 2033/11/6 2018/11/6 2034/11/6
f 2020/6/6 2021/6/6 2035/6/6
f 1968/6/6 2019/6/6 2035/6/6
f 2019/6/6 2020/6/6 2035/6/6
f 2022/6/6 2023/6/6 2035/6/6
f 2025/6/6 2026/6/6 2035/6/6
f 2021/6/6 2022/6/6 2035/6/6
f 2023/6/6 2024/6/6 2035/6/6
f 2024/6/6 2025/6/6 2035/6/6
f 2026/6/6 1969/6/6 2036/6/6
f 2035/6/6 2026/6/6 2036/6/6
f 2028/6/6 2029/6/6 2037/6/6
f 2027/6/6 2028/6/6 2037/6/6
f 2030/6/6 2031/6/6 2037/6/6
f 1970/6/6 2027/6/6 2037/6/6
f 2033/6/6 2034/6/6 2037/6/6
f 2031/6/6 2032/6/6 2037/6/6
f 2032/6/6 2033/6/6 2037/6/6
f 2029/6/6 2030/6/6 2037/6/6
f 2034/6/6 1971/6/6 2038/6/6
f 2037/6/6 2034/6/6 2038/6/6
f 2039/3/6 2040/3/6 2067/3/6
f 2040/12/6 2041/12/6 2068/12/6
f 2067/3/6 2040/3/6 2068/3/6
f 2041/3/6 2042/3/6 2069/3/6
f 2068/12/6 2041/12/6 2069/12/6
f 2042/12/6 2043/12/6 2070/12/6
f 2069/3/6 2042/3/6 2070/3/6
f 2043/3/6 2044/3/6 2071/3/6
f 2070/12/6 2043/12/6 2071/12/6
f 2044/12/6 2045/12/6 2072/12/6
f 2071/3/6 2044/3/6 2072/3/6
f 2045/3/6 2046/3/6 2073/3/6
f 2072/12/6 2045/12/6 2073/12/6
f 2046/12/6 2047/12/6 2074/12/6
f 2073/3/6 2046/3/6 2074/3/6
f 2047/3/6 2048/3/6 2075/3/6
f 2074/12/6 2047/12/6 2075/12/6
f 2048/12/6 2049/12/6 2076/12/6
f 2075/3/6 2048/3/6 2076/3/6
f 2049/3/6 2050/3/6 2077/3/6
f 2076/12/6 2049/12/6 2077/12/6
f 2050/12/6 2051/12/6 2078/12/6
f 2077/3/6 2050/3/6 2078/3/6
f 2051/3/6 2052/3/6 2079/3/6
f 2078/12/6 2051/12/6 2079/12/6
f 2052/1/6 2053/1/6 2080/1/6
f 2079/3/6 2052/3/6 2080/3/6
f 2053/3/6 2054/3/6 2081/3/6
f 2080/1/6 2053/1/6 2081/1/6
f 2054/12/6 2055/12/6 2082/12/6
f 2081/3/6 2054/3/6 2082/3/6
f 2055/3/6 2056/3/6 2083/3/6
f 2082/12/6 2055/12/6 2083/12/6
f 2056/12/6 2057/12/6 2084/12/6
f 2083/3/6 2056/3/6 2084/3/6
f 2057/3/6 2058/3/6 2085/3/6
f 2084/12/6 2057/12/6 2085/12/6
f 2058/12/6 2059/12/6 2086/12/6
f 2085/3/6 2058/3/6 2086/3/6
f 2059/3/6 2060/3/6 2087/3/6
f 2086/12/6 2059/12/6 2087/12/6
f 2060/12/6 2061/12/6 2088/12/6
f 2087/3/6 2060/3/6 2088/3/6
f 2061/3/6 2062/3/6 2089/3/6
f 2088/12/6 2061/12/6 2089/12/6
f 2062/12/6 2063/12/6 2090/12/6
f 2089/3/6 2062/3/6 2090/3/6
f 2063/3/6 2064/3/6 2091/3/6
f 2090/12/6 2063/12/6 2091/12/6
f 2064/12/6 2065/12/6 2092/12/6
f 2091/3/6 2064/3/6 2092/3/6
f 2065/3/6 2066/3/6 2093/3/6
f 2092/12/6 2065/12/6 2093/12/6
f 2093/3/6 2066/3/6 2094/3/6
