# Blender 4.5.2 LTS
# www.blender.org
mtllib sierpinski_triangles.mtl
o Solid.015
v -0.000000 1.333334 1.632993
v 0.942809 0.000001 1.632993
v -0.471405 0.000001 0.816497
v -0.471405 0.000001 2.449490
vn 0.4714 0.3333 -0.8165
vn -0.9428 0.3333 -0.0000
vn 0.4714 0.3333 0.8165
vn -0.0000 -1.0000 -0.0000
vt 0.000000 0.000000
vt 1.000000 0.000000
vt 1.000000 1.000000
s 0
f 1/1/1 2/2/1 3/3/1
f 1/1/2 3/2/2 4/3/2
f 1/1/3 4/2/3 2/3/3
f 2/1/4 4/2/4 3/3/4
o Solid.014
v -1.414214 1.333334 0.816497
v -1.885618 0.000000 -0.000000
v -1.885618 0.000000 1.632993
v -0.471405 0.000000 0.816497
vn -0.9428 0.3333 -0.0000
vn 0.4714 0.3333 0.8165
vn 0.4714 0.3333 -0.8165
vn -0.0000 -1.0000 -0.0000
vt 0.000000 0.000000
vt 1.000000 0.000000
vt 1.000000 1.000000
s 0
f 5/4/5 6/5/5 7/6/5
f 5/4/6 7/5/6 8/6/6
f 5/4/7 8/5/7 6/6/7
f 6/4/8 8/5/8 7/6/8
o Solid.013
v -1.414214 1.333334 2.449490
v -1.885618 0.000000 3.265986
v -0.471404 0.000000 2.449490
v -1.885618 0.000000 1.632993
vn 0.4714 0.3333 0.8165
vn 0.4714 0.3333 -0.8165
vn -0.9428 0.3333 -0.0000
vn -0.0000 -1.0000 -0.0000
vt 0.000000 0.000000
vt 1.000000 0.000000
vt 1.000000 1.000000
s 0
f 9/7/9 10/8/9 11/9/9
f 9/7/10 11/8/10 12/9/10
f 9/7/11 12/8/11 10/9/11
f 10/7/12 12/8/12 11/9/12
o Solid.012
v -0.942809 2.666667 1.632993
v -1.414214 1.333334 2.449490
v -0.000000 1.333334 1.632993
v -1.414214 1.333334 0.816497
vn 0.4714 0.3333 0.8165
vn 0.4714 0.3333 -0.8165
vn -0.9428 0.3333 -0.0000
vn -0.0000 -1.0000 -0.0000
vt 0.000000 0.000000
vt 1.000000 0.000000
vt 1.000000 1.000000
s 0
f 13/10/13 14/11/13 15/12/13
f 13/10/14 15/11/14 16/12/14
f 13/10/15 16/11/15 14/12/15
f 14/10/16 16/11/16 15/12/16
o Solid.011
v -0.942809 2.666667 -1.632993
v -1.414214 1.333333 -2.449490
v -1.414214 1.333333 -0.816497
v -0.000000 1.333333 -1.632993
vn -0.9428 0.3333 -0.0000
vn 0.4714 0.3333 0.8165
vn 0.4714 0.3333 -0.8165
vn -0.0000 -1.0000 -0.0000
vt 0.000000 0.000000
vt 1.000000 0.000000
vt 1.000000 1.000000
s 0
f 17/13/17 18/14/17 19/15/17
f 17/13/18 19/14/18 20/15/18
f 17/13/19 20/14/19 18/15/19
f 18/13/20 20/14/20 19/15/20
o Solid.010
v -1.414214 1.333333 -2.449490
v -1.885618 0.000000 -3.265986
v -1.885618 0.000000 -1.632993
v -0.471405 0.000000 -2.449490
vn -0.9428 0.3333 -0.0000
vn 0.4714 0.3333 0.8165
vn 0.4714 0.3333 -0.8165
vn -0.0000 -1.0000 -0.0000
vt 0.000000 0.000000
vt 1.000000 0.000000
vt 1.000000 1.000000
s 0
f 21/16/21 22/17/21 23/18/21
f 21/16/22 23/17/22 24/18/22
f 21/16/23 24/17/23 22/18/23
f 22/16/24 24/17/24 23/18/24
o Solid.009
v -0.000000 1.333334 -1.632993
v 0.942809 0.000000 -1.632993
v -0.471405 0.000000 -2.449490
v -0.471405 0.000000 -0.816497
vn 0.4714 0.3333 -0.8165
vn -0.9428 0.3333 -0.0000
vn 0.4714 0.3333 0.8165
vn -0.0000 -1.0000 -0.0000
vt 0.000000 0.000000
vt 1.000000 0.000000
vt 1.000000 1.000000
s 0
f 25/19/25 26/20/25 27/21/25
f 25/19/26 27/20/26 28/21/26
f 25/19/27 28/20/27 26/21/27
f 26/19/28 28/20/28 27/21/28
o Solid.008
v -1.414214 1.333334 -0.816497
v -1.885618 0.000000 0.000000
v -0.471405 0.000000 -0.816497
v -1.885618 0.000000 -1.632993
vn 0.4714 0.3333 0.8165
vn 0.4714 0.3333 -0.8165
vn -0.9428 0.3333 -0.0000
vn -0.0000 -1.0000 -0.0000
vt 0.000000 0.000000
vt 1.000000 0.000000
vt 1.000000 1.000000
s 0
f 29/22/29 30/23/29 31/24/29
f 29/22/30 31/23/30 32/24/30
f 29/22/31 32/23/31 30/24/31
f 30/22/32 32/23/32 31/24/32
o Solid.007
v 0.000000 5.333333 0.000000
v 0.942809 4.000000 0.000000
v -0.471405 4.000000 -0.816497
v -0.471405 4.000000 0.816497
vn 0.4714 0.3333 -0.8165
vn -0.9428 0.3333 -0.0000
vn 0.4714 0.3333 0.8165
vn -0.0000 -1.0000 -0.0000
vt 0.000000 0.000000
vt 1.000000 0.000000
vt 1.000000 1.000000
s 0
f 33/25/33 34/26/33 35/27/33
f 33/25/34 35/26/34 36/27/34
f 33/25/35 36/26/35 34/27/35
f 34/25/36 36/26/36 35/27/36
o Solid.006
v 0.942809 4.000000 0.000000
v 1.885618 2.666667 0.000000
v 0.471405 2.666667 -0.816497
v 0.471405 2.666667 0.816497
vn 0.4714 0.3333 -0.8165
vn -0.9428 0.3333 -0.0000
vn 0.4714 0.3333 0.8165
vn -0.0000 -1.0000 -0.0000
vt 0.000000 0.000000
vt 1.000000 0.000000
vt 1.000000 1.000000
s 0
f 37/28/37 38/29/37 39/30/37
f 37/28/38 39/29/38 40/30/38
f 37/28/39 40/29/39 38/30/39
f 38/28/40 40/29/40 39/30/40
o Solid.005
v -0.471404 4.000000 0.816497
v -0.942809 2.666667 1.632993
v 0.471405 2.666667 0.816497
v -0.942809 2.666667 0.000000
vn 0.4714 0.3333 0.8165
vn 0.4714 0.3333 -0.8165
vn -0.9428 0.3333 -0.0000
vn -0.0000 -1.0000 -0.0000
vt 0.000000 0.000000
vt 1.000000 0.000000
vt 1.000000 1.000000
s 0
f 41/31/41 42/32/41 43/33/41
f 41/31/42 43/32/42 44/33/42
f 41/31/43 44/32/43 42/33/43
f 42/31/44 44/32/44 43/33/44
o Solid.000
v -0.471405 4.000000 -0.816496
v -0.942809 2.666667 -1.632993
v -0.942809 2.666667 0.000000
v 0.471404 2.666667 -0.816497
vn -0.9428 0.3333 -0.0000
vn 0.4714 0.3333 0.8165
vn 0.4714 0.3333 -0.8165
vn -0.0000 -1.0000 -0.0000
vt 0.000000 0.000000
vt 1.000000 0.000000
vt 1.000000 1.000000
s 0
f 45/34/45 46/35/45 47/36/45
f 45/34/46 47/35/46 48/36/46
f 45/34/47 48/35/47 46/36/47
f 46/34/48 48/35/48 47/36/48
o Solid.004
v 1.414214 1.333334 -0.816496
v 0.942809 0.000000 -1.632993
v 0.942809 0.000000 0.000000
v 2.357023 0.000000 -0.816497
vn -0.9428 0.3333 -0.0000
vn 0.4714 0.3333 0.8165
vn 0.4714 0.3333 -0.8165
vn -0.0000 -1.0000 -0.0000
vt 0.000000 0.000000
vt 1.000000 0.000000
vt 1.000000 1.000000
s 0
f 49/37/49 50/38/49 51/39/49
f 49/37/50 51/38/50 52/39/50
f 49/37/51 52/38/51 50/39/51
f 50/37/52 52/38/52 51/39/52
o Solid.003
v 1.414214 1.333334 0.816497
v 0.942809 0.000000 1.632993
v 2.357023 0.000000 0.816497
v 0.942809 0.000000 0.000000
vn 0.4714 0.3333 0.8165
vn 0.4714 0.3333 -0.8165
vn -0.9428 0.3333 -0.0000
vn -0.0000 -1.0000 -0.0000
vt 0.000000 0.000000
vt 1.000000 0.000000
vt 1.000000 1.000000
s 0
f 53/40/53 54/41/53 55/42/53
f 53/40/54 55/41/54 56/42/54
f 53/40/55 56/41/55 54/42/55
f 54/40/56 56/41/56 55/42/56
o Solid.002
v 2.828427 1.333333 0.000000
v 3.771236 0.000000 0.000000
v 2.357023 0.000000 -0.816497
v 2.357023 0.000000 0.816497
vn 0.4714 0.3333 -0.8165
vn -0.9428 0.3333 -0.0000
vn 0.4714 0.3333 0.8165
vn -0.0000 -1.0000 -0.0000
vt 0.000000 0.000000
vt 1.000000 0.000000
vt 1.000000 1.000000
s 0
f 57/43/57 58/44/57 59/45/57
f 57/43/58 59/44/58 60/45/58
f 57/43/59 60/44/59 58/45/59
f 58/43/60 60/44/60 59/45/60
o Solid.001
v 1.885618 2.666667 0.000000
v 2.828427 1.333333 0.000000
v 1.414214 1.333333 -0.816497
v 1.414214 1.333333 0.816497
vn 0.4714 0.3333 -0.8165
vn -0.9428 0.3333 -0.0000
vn 0.4714 0.3333 0.8165
vn -0.0000 -1.0000 -0.0000
vt 0.000000 0.000000
vt 1.000000 0.000000
vt 1.000000 1.000000
s 0
f 61/46/61 62/47/61 63/48/61
f 61/46/62 63/47/62 64/48/62
f 61/46/63 64/47/63 62/48/63
f 62/46/64 64/47/64 63/48/64
