# MagicaVoxel @ Ephtracy

# group
o 

# material
mtllib stone-fence.mtl
usemtl palette

# normals
vn -1 0 0
vn 1 0 0
vn 0 0 1
vn 0 0 -1
vn 0 -1 0
vn 0 1 0

# texcoords
vt 0.958984 0.5
vt 0.966797 0.5
vt 0.970703 0.5
vt 0.974609 0.5
vt 0.978516 0.5

# verts
v -4.5 0 3.8
v -4.5 0 -0.4
v -4.5 0.1 3.8
v -4.5 0.1 -0.4
v -4.5 1.2 3.8
v -4.5 1.2 3.2
v -4.5 1.2 2
v -4.5 1.2 1.4
v -4.5 1.2 0.2
v -4.5 1.2 -0.4
v -4.5 1.3 3.8
v -4.5 1.3 3.2
v -4.5 1.3 2
v -4.5 1.3 1.4
v -4.5 1.3 0.2
v -4.5 1.3 -0.4
v -4.4 0.1 3.7
v -4.4 0.1 3.3
v -4.4 0.1 1.9
v -4.4 0.1 1.5
v -4.4 0.1 0.0999999
v -4.4 0.1 -0.3
v -4.4 0.2 3.7
v -4.4 0.2 3.3
v -4.4 0.2 1.9
v -4.4 0.2 1.5
v -4.4 0.2 0.0999999
v -4.4 0.2 -0.3
v -4.4 0.3 3.7
v -4.4 0.3 3.3
v -4.4 0.3 1.9
v -4.4 0.3 1.5
v -4.4 0.3 0.0999999
v -4.4 0.3 -0.3
v -4.4 0.4 3.7
v -4.4 0.4 3.3
v -4.4 0.4 1.9
v -4.4 0.4 1.5
v -4.4 0.4 0.0999999
v -4.4 0.4 -0.3
v -4.4 0.5 3.7
v -4.4 0.5 3.4
v -4.4 0.5 1.8
v -4.4 0.5 1.5
v -4.4 0.5 -2.38419e-007
v -4.4 0.5 -0.3
v -4.4 0.6 3.7
v -4.4 0.6 3.5
v -4.4 0.6 1.7
v -4.4 0.6 1.5
v -4.4 0.6 -0.1
v -4.4 0.6 -0.3
v -4.4 0.7 3.6
v -4.4 0.7 3.5
v -4.4 0.7 1.7
v -4.4 0.7 1.6
v -4.4 0.7 -0.1
v -4.4 0.7 -0.2
v -4.4 0.8 3.5
v -4.4 0.8 3.4
v -4.4 0.8 1.8
v -4.4 0.8 1.7
v -4.4 0.8 -2.38419e-007
v -4.4 0.8 -0.1
v -4.4 0.9 3.5
v -4.4 0.9 3.3
v -4.4 0.9 1.9
v -4.4 0.9 1.7
v -4.4 0.9 0.0999999
v -4.4 0.9 -0.1
v -4.4 1 3.6
v -4.4 1 3.3
v -4.4 1 1.9
v -4.4 1 1.6
v -4.4 1 1.5
v -4.4 1 0.0999999
v -4.4 1 -0.2
v -4.4 1.1 3.7
v -4.4 1.1 3.3
v -4.4 1.1 1.9
v -4.4 1.1 1.5
v -4.4 1.1 0.0999999
v -4.4 1.1 -0.3
v -4.4 1.2 3.7
v -4.4 1.2 3.3
v -4.4 1.2 1.9
v -4.4 1.2 1.5
v -4.4 1.2 0.0999999
v -4.4 1.2 -0.3
v -4.3 0.2 3.1
v -4.3 0.2 2.9
v -4.3 0.2 2.7
v -4.3 0.2 2.5
v -4.3 0.2 2.3
v -4.3 0.2 2.1
v -4.3 0.2 1.3
v -4.3 0.2 1.1
v -4.3 0.2 0.9
v -4.3 0.2 0.7
v -4.3 0.2 0.5
v -4.3 0.2 0.3
v -4.3 0.3 3.1
v -4.3 0.3 2.9
v -4.3 0.3 2.7
v -4.3 0.3 2.5
v -4.3 0.3 2.3
v -4.3 0.3 2.1
v -4.3 0.3 1.3
v -4.3 0.3 1.1
v -4.3 0.3 0.9
v -4.3 0.3 0.7
v -4.3 0.3 0.5
v -4.3 0.3 0.3
v -4.3 0.4 3.1
v -4.3 0.4 2.9
v -4.3 0.4 2.7
v -4.3 0.4 2.5
v -4.3 0.4 2.3
v -4.3 0.4 2.1
v -4.3 0.4 1.3
v -4.3 0.4 1.1
v -4.3 0.4 0.9
v -4.3 0.4 0.7
v -4.3 0.4 0.5
v -4.3 0.4 0.3
v -4.3 0.5 3.1
v -4.3 0.5 2.9
v -4.3 0.5 2.7
v -4.3 0.5 2.5
v -4.3 0.5 2.3
v -4.3 0.5 2.1
v -4.3 0.5 1.3
v -4.3 0.5 1.1
v -4.3 0.5 0.9
v -4.3 0.5 0.7
v -4.3 0.5 0.5
v -4.3 0.5 0.3
v -4.3 0.8 3.1
v -4.3 0.8 2.9
v -4.3 0.8 2.7
v -4.3 0.8 2.5
v -4.3 0.8 2.3
v -4.3 0.8 2.1
v -4.3 0.8 1.3
v -4.3 0.8 1.1
v -4.3 0.8 0.9
v -4.3 0.8 0.7
v -4.3 0.8 0.5
v -4.3 0.8 0.3
v -4.3 0.9 3.1
v -4.3 0.9 2.9
v -4.3 0.9 2.7
v -4.3 0.9 2.5
v -4.3 0.9 2.3
v -4.3 0.9 2.1
v -4.3 0.9 1.3
v -4.3 0.9 1.1
v -4.3 0.9 0.9
v -4.3 0.9 0.7
v -4.3 0.9 0.5
v -4.3 0.9 0.3
v -4.3 1 3.1
v -4.3 1 2.9
v -4.3 1 2.7
v -4.3 1 2.5
v -4.3 1 2.3
v -4.3 1 2.1
v -4.3 1 1.3
v -4.3 1 1.1
v -4.3 1 0.9
v -4.3 1 0.7
v -4.3 1 0.5
v -4.3 1 0.3
v -3.8 0.2 3.6
v -3.8 0.2 3.4
v -3.8 0.3 3.6
v -3.8 0.3 3.4
v -3.8 0.4 3.6
v -3.8 0.4 3.4
v -3.8 0.5 3.6
v -3.8 0.5 3.4
v -3.8 0.8 3.6
v -3.8 0.8 3.4
v -3.8 0.9 3.6
v -3.8 0.9 3.4
v -3.8 1 3.6
v -3.8 1 3.4
v -3.4 0.2 3.6
v -3.4 0.2 3.4
v -3.4 0.3 3.6
v -3.4 0.3 3.4
v -3.4 0.4 3.6
v -3.4 0.4 3.4
v -3.4 0.5 3.6
v -3.4 0.5 3.4
v -3.4 0.8 3.6
v -3.4 0.8 3.4
v -3.4 0.9 3.6
v -3.4 0.9 3.4
v -3.4 1 3.6
v -3.4 1 3.4
v -3 0.2 3.6
v -3 0.2 3.4
v -3 0.3 3.6
v -3 0.3 3.4
v -3 0.4 3.6
v -3 0.4 3.4
v -3 0.5 3.6
v -3 0.5 3.4
v -3 0.8 3.6
v -3 0.8 3.4
v -3 0.9 3.6
v -3 0.9 3.4
v -3 1 3.6
v -3 1 3.4
v -2.7 1.2 3.8
v -2.7 1.2 3.2
v -2.7 1.3 3.8
v -2.7 1.3 3.2
v -2.6 0.2 3.7
v -2.6 0.2 3.3
v -2.6 0.3 3.7
v -2.6 0.3 3.3
v -2.6 0.4 3.7
v -2.6 0.4 3.3
v -2.6 0.5 3.7
v -2.6 0.5 3.4
v -2.6 0.6 3.7
v -2.6 0.6 3.5
v -2.6 0.7 3.6
v -2.6 0.7 3.5
v -2.6 0.8 3.5
v -2.6 0.8 3.4
v -2.6 0.9 3.5
v -2.6 0.9 3.3
v -2.6 1 3.7
v -2.6 1 3.6
v -2.6 1 3.3
v -2.6 1.1 3.7
v -2.6 1.1 3.3
v -2.6 1.2 3.7
v -2.6 1.2 3.3
v -2 0.2 3.6
v -2 0.2 3.4
v -2 0.3 3.6
v -2 0.3 3.4
v -2 0.4 3.6
v -2 0.4 3.4
v -2 0.5 3.6
v -2 0.5 3.4
v -2 0.8 3.6
v -2 0.8 3.4
v -2 0.9 3.6
v -2 0.9 3.4
v -2 1 3.6
v -2 1 3.4
v -1.6 0.2 3.6
v -1.6 0.2 3.4
v -1.6 0.3 3.6
v -1.6 0.3 3.4
v -1.6 0.4 3.6
v -1.6 0.4 3.4
v -1.6 0.5 3.6
v -1.6 0.5 3.4
v -1.6 0.8 3.6
v -1.6 0.8 3.4
v -1.6 0.9 3.6
v -1.6 0.9 3.4
v -1.6 1 3.6
v -1.6 1 3.4
v -1.2 0.2 3.6
v -1.2 0.2 3.4
v -1.2 0.3 3.6
v -1.2 0.3 3.4
v -1.2 0.4 3.6
v -1.2 0.4 3.4
v -1.2 0.5 3.6
v -1.2 0.5 3.4
v -1.2 0.8 3.6
v -1.2 0.8 3.4
v -1.2 0.9 3.6
v -1.2 0.9 3.4
v -1.2 1 3.6
v -1.2 1 3.4
v -0.9 1.2 3.8
v -0.9 1.2 3.2
v -0.9 1.3 3.8
v -0.9 1.3 3.2
v -0.8 0.2 3.7
v -0.8 0.2 3.3
v -0.8 0.3 3.7
v -0.8 0.3 3.3
v -0.8 0.4 3.7
v -0.8 0.4 3.3
v -0.8 0.5 3.6
v -0.8 0.5 3.3
v -0.8 0.6 3.5
v -0.8 0.6 3.3
v -0.8 0.7 3.5
v -0.8 0.7 3.4
v -0.8 0.8 3.6
v -0.8 0.8 3.5
v -0.8 0.9 3.7
v -0.8 0.9 3.5
v -0.8 1 3.7
v -0.8 1 3.4
v -0.8 1 3.3
v -0.8 1.1 3.7
v -0.8 1.1 3.3
v -0.8 1.2 3.7
v -0.8 1.2 3.3
v -0.5 0.2 3.6
v -0.5 0.2 3.4
v -0.5 0.3 3.6
v -0.5 0.3 3.4
v -0.5 0.4 3.6
v -0.5 0.4 3.4
v -0.5 0.5 3.6
v -0.5 0.5 3.4
v -0.5 0.6 3.6
v -0.5 0.6 3.5
v -0.5 0.7 3.6
v -0.5 0.7 3.5
v -0.5 0.8 3.5
v -0.5 0.8 3.4
v -0.5 0.9 3.5
v -0.5 0.9 3.4
v -0.5 1 3.6
v -0.5 1 3.4
v -0.5 1.1 3.6
v -0.5 1.1 3.4
v -0.5 1.2 3.6
v -0.5 1.2 3.4
v -4.1 0.2 3.1
v -4.1 0.2 2.9
v -4.1 0.2 2.7
v -4.1 0.2 2.5
v -4.1 0.2 2.3
v -4.1 0.2 2.1
v -4.1 0.2 1.3
v -4.1 0.2 1.1
v -4.1 0.2 0.9
v -4.1 0.2 0.7
v -4.1 0.2 0.5
v -4.1 0.2 0.3
v -4.1 0.3 3.1
v -4.1 0.3 2.9
v -4.1 0.3 2.7
v -4.1 0.3 2.5
v -4.1 0.3 2.3
v -4.1 0.3 2.1
v -4.1 0.3 1.3
v -4.1 0.3 1.1
v -4.1 0.3 0.9
v -4.1 0.3 0.7
v -4.1 0.3 0.5
v -4.1 0.3 0.3
v -4.1 0.4 3.1
v -4.1 0.4 2.9
v -4.1 0.4 2.7
v -4.1 0.4 2.5
v -4.1 0.4 2.3
v -4.1 0.4 2.1
v -4.1 0.4 1.3
v -4.1 0.4 1.1
v -4.1 0.4 0.9
v -4.1 0.4 0.7
v -4.1 0.4 0.5
v -4.1 0.4 0.3
v -4.1 0.5 3.1
v -4.1 0.5 2.9
v -4.1 0.5 2.7
v -4.1 0.5 2.5
v -4.1 0.5 2.3
v -4.1 0.5 2.1
v -4.1 0.5 1.3
v -4.1 0.5 1.1
v -4.1 0.5 0.9
v -4.1 0.5 0.7
v -4.1 0.5 0.5
v -4.1 0.5 0.3
v -4.1 0.8 3.1
v -4.1 0.8 2.9
v -4.1 0.8 2.7
v -4.1 0.8 2.5
v -4.1 0.8 2.3
v -4.1 0.8 2.1
v -4.1 0.8 1.3
v -4.1 0.8 1.1
v -4.1 0.8 0.9
v -4.1 0.8 0.7
v -4.1 0.8 0.5
v -4.1 0.8 0.3
v -4.1 0.9 3.1
v -4.1 0.9 2.9
v -4.1 0.9 2.7
v -4.1 0.9 2.5
v -4.1 0.9 2.3
v -4.1 0.9 2.1
v -4.1 0.9 1.3
v -4.1 0.9 1.1
v -4.1 0.9 0.9
v -4.1 0.9 0.7
v -4.1 0.9 0.5
v -4.1 0.9 0.3
v -4.1 1 3.1
v -4.1 1 2.9
v -4.1 1 2.7
v -4.1 1 2.5
v -4.1 1 2.3
v -4.1 1 2.1
v -4.1 1 1.3
v -4.1 1 1.1
v -4.1 1 0.9
v -4.1 1 0.7
v -4.1 1 0.5
v -4.1 1 0.3
v -4 0.1 3.3
v -4 0.1 1.9
v -4 0.1 1.5
v -4 0.1 0.0999999
v -4 0.1 -0.3
v -4 0.2 3.7
v -4 0.2 3.3
v -4 0.2 1.9
v -4 0.2 1.5
v -4 0.2 0.0999999
v -4 0.2 -0.3
v -4 0.3 3.7
v -4 0.3 3.3
v -4 0.3 1.9
v -4 0.3 1.5
v -4 0.3 0.0999999
v -4 0.3 -0.3
v -4 0.4 3.7
v -4 0.4 3.3
v -4 0.4 1.9
v -4 0.4 1.5
v -4 0.4 0.0999999
v -4 0.4 -0.3
v -4 0.5 3.6
v -4 0.5 3.3
v -4 0.5 1.9
v -4 0.5 1.6
v -4 0.5 0.0999999
v -4 0.5 -0.2
v -4 0.6 3.5
v -4 0.6 3.3
v -4 0.6 1.9
v -4 0.6 1.7
v -4 0.6 0.0999999
v -4 0.6 -0.1
v -4 0.7 3.5
v -4 0.7 3.4
v -4 0.7 1.8
v -4 0.7 1.7
v -4 0.7 -2.38419e-007
v -4 0.7 -0.1
v -4 0.8 3.6
v -4 0.8 3.5
v -4 0.8 1.7
v -4 0.8 1.6
v -4 0.8 -0.1
v -4 0.8 -0.2
v -4 0.9 3.7
v -4 0.9 3.5
v -4 0.9 1.7
v -4 0.9 1.5
v -4 0.9 -0.1
v -4 0.9 -0.3
v -4 1 3.7
v -4 1 3.4
v -4 1 3.3
v -4 1 1.9
v -4 1 1.8
v -4 1 1.5
v -4 1 0.0999999
v -4 1 -2.38419e-007
v -4 1 -0.3
v -4 1.1 3.7
v -4 1.1 3.3
v -4 1.1 1.9
v -4 1.1 1.5
v -4 1.1 0.0999999
v -4 1.1 -0.3
v -4 1.2 3.7
v -4 1.2 3.3
v -4 1.2 1.9
v -4 1.2 1.5
v -4 1.2 0.0999999
v -4 1.2 -0.3
v -3.9 0 3.2
v -3.9 0 -0.4
v -3.9 0.1 3.2
v -3.9 0.1 -0.4
v -3.9 1.2 3.8
v -3.9 1.2 3.2
v -3.9 1.2 2
v -3.9 1.2 1.4
v -3.9 1.2 0.2
v -3.9 1.2 -0.4
v -3.9 1.3 3.8
v -3.9 1.3 3.2
v -3.9 1.3 2
v -3.9 1.3 1.4
v -3.9 1.3 0.2
v -3.9 1.3 -0.4
v -3.6 0.2 3.6
v -3.6 0.2 3.4
v -3.6 0.3 3.6
v -3.6 0.3 3.4
v -3.6 0.4 3.6
v -3.6 0.4 3.4
v -3.6 0.5 3.6
v -3.6 0.5 3.4
v -3.6 0.8 3.6
v -3.6 0.8 3.4
v -3.6 0.9 3.6
v -3.6 0.9 3.4
v -3.6 1 3.6
v -3.6 1 3.4
v -3.2 0.2 3.6
v -3.2 0.2 3.4
v -3.2 0.3 3.6
v -3.2 0.3 3.4
v -3.2 0.4 3.6
v -3.2 0.4 3.4
v -3.2 0.5 3.6
v -3.2 0.5 3.4
v -3.2 0.8 3.6
v -3.2 0.8 3.4
v -3.2 0.9 3.6
v -3.2 0.9 3.4
v -3.2 1 3.6
v -3.2 1 3.4
v -2.8 0.2 3.6
v -2.8 0.2 3.4
v -2.8 0.3 3.6
v -2.8 0.3 3.4
v -2.8 0.4 3.6
v -2.8 0.4 3.4
v -2.8 0.5 3.6
v -2.8 0.5 3.4
v -2.8 0.8 3.6
v -2.8 0.8 3.4
v -2.8 0.9 3.6
v -2.8 0.9 3.4
v -2.8 1 3.6
v -2.8 1 3.4
v -2.2 0.2 3.7
v -2.2 0.2 3.3
v -2.2 0.3 3.7
v -2.2 0.3 3.3
v -2.2 0.4 3.7
v -2.2 0.4 3.3
v -2.2 0.5 3.6
v -2.2 0.5 3.3
v -2.2 0.6 3.5
v -2.2 0.6 3.3
v -2.2 0.7 3.5
v -2.2 0.7 3.4
v -2.2 0.8 3.6
v -2.2 0.8 3.5
v -2.2 0.9 3.7
v -2.2 0.9 3.5
v -2.2 1 3.7
v -2.2 1 3.4
v -2.2 1 3.3
v -2.2 1.1 3.7
v -2.2 1.1 3.3
v -2.2 1.2 3.7
v -2.2 1.2 3.3
v -2.1 1.2 3.8
v -2.1 1.2 3.2
v -2.1 1.3 3.8
v -2.1 1.3 3.2
v -1.8 0.2 3.6
v -1.8 0.2 3.4
v -1.8 0.3 3.6
v -1.8 0.3 3.4
v -1.8 0.4 3.6
v -1.8 0.4 3.4
v -1.8 0.5 3.6
v -1.8 0.5 3.4
v -1.8 0.8 3.6
v -1.8 0.8 3.4
v -1.8 0.9 3.6
v -1.8 0.9 3.4
v -1.8 1 3.6
v -1.8 1 3.4
v -1.4 0.2 3.6
v -1.4 0.2 3.4
v -1.4 0.3 3.6
v -1.4 0.3 3.4
v -1.4 0.4 3.6
v -1.4 0.4 3.4
v -1.4 0.5 3.6
v -1.4 0.5 3.4
v -1.4 0.8 3.6
v -1.4 0.8 3.4
v -1.4 0.9 3.6
v -1.4 0.9 3.4
v -1.4 1 3.6
v -1.4 1 3.4
v -1 0.2 3.6
v -1 0.2 3.4
v -1 0.3 3.6
v -1 0.3 3.4
v -1 0.4 3.6
v -1 0.4 3.4
v -1 0.5 3.6
v -1 0.5 3.4
v -1 0.8 3.6
v -1 0.8 3.4
v -1 0.9 3.6
v -1 0.9 3.4
v -1 1 3.6
v -1 1 3.4
v -0.7 0.2 3.6
v -0.7 0.2 3.4
v -0.7 0.3 3.6
v -0.7 0.3 3.4
v -0.7 0.4 3.6
v -0.7 0.4 3.4
v -0.7 0.5 3.6
v -0.7 0.5 3.4
v -0.7 0.6 3.5
v -0.7 0.6 3.4
v -0.7 0.7 3.5
v -0.7 0.7 3.4
v -0.7 0.8 3.6
v -0.7 0.8 3.5
v -0.7 0.9 3.6
v -0.7 0.9 3.5
v -0.7 1 3.6
v -0.7 1 3.4
v -0.7 1.1 3.6
v -0.7 1.1 3.4
v -0.7 1.2 3.6
v -0.7 1.2 3.4
v -0.4 0.1 3.7
v -0.4 0.1 3.3
v -0.4 0.2 3.7
v -0.4 0.2 3.3
v -0.4 0.3 3.7
v -0.4 0.3 3.3
v -0.4 0.4 3.7
v -0.4 0.4 3.3
v -0.4 0.5 3.7
v -0.4 0.5 3.4
v -0.4 0.6 3.7
v -0.4 0.6 3.5
v -0.4 0.7 3.6
v -0.4 0.7 3.5
v -0.4 0.8 3.5
v -0.4 0.8 3.4
v -0.4 0.9 3.5
v -0.4 0.9 3.3
v -0.4 1 3.6
v -0.4 1 3.3
v -0.4 1.1 3.7
v -0.4 1.1 3.3
v -0.4 1.2 3.7
v -0.4 1.2 3.3
v -0.3 0 3.8
v -0.3 0 3.2
v -0.3 0.1 3.8
v -0.3 0.1 3.2
v -0.3 1.2 3.8
v -0.3 1.2 3.2
v -0.3 1.3 3.8
v -0.3 1.3 3.2
v -4.5 0 3.8
v -4.5 0.1 3.8
v -4.5 1.2 3.8
v -4.5 1.3 3.8
v -3.9 1.2 3.8
v -3.9 1.3 3.8
v -2.7 1.2 3.8
v -2.7 1.3 3.8
v -2.1 1.2 3.8
v -2.1 1.3 3.8
v -0.9 1.2 3.8
v -0.9 1.3 3.8
v -0.3 0 3.8
v -0.3 0.1 3.8
v -0.3 1.2 3.8
v -0.3 1.3 3.8
v -4.4 0.1 3.7
v -4.4 0.2 3.7
v -4.4 0.3 3.7
v -4.4 0.4 3.7
v -4.4 0.5 3.7
v -4.4 0.6 3.7
v -4.4 1.1 3.7
v -4.4 1.2 3.7
v -4.3 0.7 3.7
v -4.3 1 3.7
v -4.2 0.6 3.7
v -4.2 0.7 3.7
v -4.2 0.8 3.7
v -4.2 0.9 3.7
v -4.1 0.5 3.7
v -4.1 0.8 3.7
v -4 0.1 3.7
v -4 0.2 3.7
v -4 0.3 3.7
v -4 0.4 3.7
v -4 0.9 3.7
v -4 1 3.7
v -4 1.1 3.7
v -4 1.2 3.7
v -2.6 0.1 3.7
v -2.6 0.2 3.7
v -2.6 0.3 3.7
v -2.6 0.4 3.7
v -2.6 0.5 3.7
v -2.6 0.6 3.7
v -2.6 1 3.7
v -2.6 1.1 3.7
v -2.6 1.2 3.7
v -2.5 0.7 3.7
v -2.5 1 3.7
v -2.4 0.6 3.7
v -2.4 0.7 3.7
v -2.4 0.8 3.7
v -2.4 0.9 3.7
v -2.3 0.5 3.7
v -2.3 0.8 3.7
v -2.2 0.1 3.7
v -2.2 0.2 3.7
v -2.2 0.3 3.7
v -2.2 0.4 3.7
v -2.2 0.9 3.7
v -2.2 1 3.7
v -2.2 1.1 3.7
v -2.2 1.2 3.7
v -0.8 0.1 3.7
v -0.8 0.2 3.7
v -0.8 0.3 3.7
v -0.8 0.4 3.7
v -0.8 0.9 3.7
v -0.8 1 3.7
v -0.8 1.1 3.7
v -0.8 1.2 3.7
v -0.7 0.5 3.7
v -0.7 0.8 3.7
v -0.6 0.6 3.7
v -0.6 0.7 3.7
v -0.6 0.8 3.7
v -0.6 0.9 3.7
v -0.5 0.7 3.7
v -0.5 1 3.7
v -0.4 0.1 3.7
v -0.4 0.2 3.7
v -0.4 0.3 3.7
v -0.4 0.4 3.7
v -0.4 0.5 3.7
v -0.4 0.6 3.7
v -0.4 1.1 3.7
v -0.4 1.2 3.7
v -3.8 0.2 3.6
v -3.8 0.3 3.6
v -3.8 0.4 3.6
v -3.8 0.5 3.6
v -3.8 0.8 3.6
v -3.8 0.9 3.6
v -3.8 1 3.6
v -3.6 0.2 3.6
v -3.6 0.3 3.6
v -3.6 0.4 3.6
v -3.6 0.5 3.6
v -3.6 0.8 3.6
v -3.6 0.9 3.6
v -3.6 1 3.6
v -3.4 0.2 3.6
v -3.4 0.3 3.6
v -3.4 0.4 3.6
v -3.4 0.5 3.6
v -3.4 0.8 3.6
v -3.4 0.9 3.6
v -3.4 1 3.6
v -3.2 0.2 3.6
v -3.2 0.3 3.6
v -3.2 0.4 3.6
v -3.2 0.5 3.6
v -3.2 0.8 3.6
v -3.2 0.9 3.6
v -3.2 1 3.6
v -3 0.2 3.6
v -3 0.3 3.6
v -3 0.4 3.6
v -3 0.5 3.6
v -3 0.8 3.6
v -3 0.9 3.6
v -3 1 3.6
v -2.8 0.2 3.6
v -2.8 0.3 3.6
v -2.8 0.4 3.6
v -2.8 0.5 3.6
v -2.8 0.8 3.6
v -2.8 0.9 3.6
v -2.8 1 3.6
v -2 0.2 3.6
v -2 0.3 3.6
v -2 0.4 3.6
v -2 0.5 3.6
v -2 0.8 3.6
v -2 0.9 3.6
v -2 1 3.6
v -1.8 0.2 3.6
v -1.8 0.3 3.6
v -1.8 0.4 3.6
v -1.8 0.5 3.6
v -1.8 0.8 3.6
v -1.8 0.9 3.6
v -1.8 1 3.6
v -1.6 0.2 3.6
v -1.6 0.3 3.6
v -1.6 0.4 3.6
v -1.6 0.5 3.6
v -1.6 0.8 3.6
v -1.6 0.9 3.6
v -1.6 1 3.6
v -1.4 0.2 3.6
v -1.4 0.3 3.6
v -1.4 0.4 3.6
v -1.4 0.5 3.6
v -1.4 0.8 3.6
v -1.4 0.9 3.6
v -1.4 1 3.6
v -1.2 0.2 3.6
v -1.2 0.3 3.6
v -1.2 0.4 3.6
v -1.2 0.5 3.6
v -1.2 0.8 3.6
v -1.2 0.9 3.6
v -1.2 1 3.6
v -1 0.2 3.6
v -1 0.3 3.6
v -1 0.4 3.6
v -1 0.5 3.6
v -1 0.8 3.6
v -1 0.9 3.6
v -1 1 3.6
v -0.7 0.2 3.4
v -0.7 0.3 3.4
v -0.7 0.4 3.4
v -0.7 0.5 3.4
v -0.7 0.6 3.4
v -0.7 0.7 3.4
v -0.7 1 3.4
v -0.7 1.1 3.4
v -0.7 1.2 3.4
v -0.6 0.6 3.4
v -0.6 0.7 3.4
v -0.6 0.8 3.4
v -0.6 0.9 3.4
v -0.5 0.2 3.4
v -0.5 0.3 3.4
v -0.5 0.4 3.4
v -0.5 0.5 3.4
v -0.5 0.8 3.4
v -0.5 0.9 3.4
v -0.5 1 3.4
v -0.5 1.1 3.4
v -0.5 1.2 3.4
v -4.3 0.2 3.1
v -4.3 0.3 3.1
v -4.3 0.4 3.1
v -4.3 0.5 3.1
v -4.3 0.8 3.1
v -4.3 0.9 3.1
v -4.3 1 3.1
v -4.1 0.2 3.1
v -4.1 0.3 3.1
v -4.1 0.4 3.1
v -4.1 0.5 3.1
v -4.1 0.8 3.1
v -4.1 0.9 3.1
v -4.1 1 3.1
v -4.3 0.2 2.7
v -4.3 0.3 2.7
v -4.3 0.4 2.7
v -4.3 0.5 2.7
v -4.3 0.8 2.7
v -4.3 0.9 2.7
v -4.3 1 2.7
v -4.1 0.2 2.7
v -4.1 0.3 2.7
v -4.1 0.4 2.7
v -4.1 0.5 2.7
v -4.1 0.8 2.7
v -4.1 0.9 2.7
v -4.1 1 2.7
v -4.3 0.2 2.3
v -4.3 0.3 2.3
v -4.3 0.4 2.3
v -4.3 0.5 2.3
v -4.3 0.8 2.3
v -4.3 0.9 2.3
v -4.3 1 2.3
v -4.1 0.2 2.3
v -4.1 0.3 2.3
v -4.1 0.4 2.3
v -4.1 0.5 2.3
v -4.1 0.8 2.3
v -4.1 0.9 2.3
v -4.1 1 2.3
v -4.5 1.2 2
v -4.5 1.3 2
v -3.9 1.2 2
v -3.9 1.3 2
v -4.4 0.2 1.9
v -4.4 0.3 1.9
v -4.4 0.4 1.9
v -4.4 0.9 1.9
v -4.4 1 1.9
v -4.4 1.1 1.9
v -4.4 1.2 1.9
v -4.3 0.5 1.9
v -4.3 0.8 1.9
v -4.2 0.6 1.9
v -4.2 0.7 1.9
v -4.2 0.8 1.9
v -4.2 0.9 1.9
v -4.1 0.7 1.9
v -4.1 1 1.9
v -4 0.2 1.9
v -4 0.3 1.9
v -4 0.4 1.9
v -4 0.5 1.9
v -4 0.6 1.9
v -4 1 1.9
v -4 1.1 1.9
v -4 1.2 1.9
v -4.3 0.2 1.3
v -4.3 0.3 1.3
v -4.3 0.4 1.3
v -4.3 0.5 1.3
v -4.3 0.8 1.3
v -4.3 0.9 1.3
v -4.3 1 1.3
v -4.1 0.2 1.3
v -4.1 0.3 1.3
v -4.1 0.4 1.3
v -4.1 0.5 1.3
v -4.1 0.8 1.3
v -4.1 0.9 1.3
v -4.1 1 1.3
v -4.3 0.2 0.9
v -4.3 0.3 0.9
v -4.3 0.4 0.9
v -4.3 0.5 0.9
v -4.3 0.8 0.9
v -4.3 0.9 0.9
v -4.3 1 0.9
v -4.1 0.2 0.9
v -4.1 0.3 0.9
v -4.1 0.4 0.9
v -4.1 0.5 0.9
v -4.1 0.8 0.9
v -4.1 0.9 0.9
v -4.1 1 0.9
v -4.3 0.2 0.5
v -4.3 0.3 0.5
v -4.3 0.4 0.5
v -4.3 0.5 0.5
v -4.3 0.8 0.5
v -4.3 0.9 0.5
v -4.3 1 0.5
v -4.1 0.2 0.5
v -4.1 0.3 0.5
v -4.1 0.4 0.5
v -4.1 0.5 0.5
v -4.1 0.8 0.5
v -4.1 0.9 0.5
v -4.1 1 0.5
v -4.5 1.2 0.2
v -4.5 1.3 0.2
v -3.9 1.2 0.2
v -3.9 1.3 0.2
v -4.4 0.2 0.0999999
v -4.4 0.3 0.0999999
v -4.4 0.4 0.0999999
v -4.4 0.9 0.0999999
v -4.4 1 0.0999999
v -4.4 1.1 0.0999999
v -4.4 1.2 0.0999999
v -4.3 0.5 0.0999999
v -4.3 0.8 0.0999999
v -4.2 0.6 0.0999999
v -4.2 0.7 0.0999999
v -4.2 0.8 0.0999999
v -4.2 0.9 0.0999999
v -4.1 0.7 0.0999999
v -4.1 1 0.0999999
v -4 0.2 0.0999999
v -4 0.3 0.0999999
v -4 0.4 0.0999999
v -4 0.5 0.0999999
v -4 0.6 0.0999999
v -4 1 0.0999999
v -4 1.1 0.0999999
v -4 1.2 0.0999999
v -0.7 0.2 3.6
v -0.7 0.3 3.6
v -0.7 0.4 3.6
v -0.7 0.5 3.6
v -0.7 0.8 3.6
v -0.7 0.9 3.6
v -0.7 1 3.6
v -0.7 1.1 3.6
v -0.7 1.2 3.6
v -0.6 0.6 3.6
v -0.6 0.7 3.6
v -0.6 0.8 3.6
v -0.6 0.9 3.6
v -0.5 0.2 3.6
v -0.5 0.3 3.6
v -0.5 0.4 3.6
v -0.5 0.5 3.6
v -0.5 0.6 3.6
v -0.5 0.7 3.6
v -0.5 1 3.6
v -0.5 1.1 3.6
v -0.5 1.2 3.6
v -3.8 0.2 3.4
v -3.8 0.3 3.4
v -3.8 0.4 3.4
v -3.8 0.5 3.4
v -3.8 0.8 3.4
v -3.8 0.9 3.4
v -3.8 1 3.4
v -3.6 0.2 3.4
v -3.6 0.3 3.4
v -3.6 0.4 3.4
v -3.6 0.5 3.4
v -3.6 0.8 3.4
v -3.6 0.9 3.4
v -3.6 1 3.4
v -3.4 0.2 3.4
v -3.4 0.3 3.4
v -3.4 0.4 3.4
v -3.4 0.5 3.4
v -3.4 0.8 3.4
v -3.4 0.9 3.4
v -3.4 1 3.4
v -3.2 0.2 3.4
v -3.2 0.3 3.4
v -3.2 0.4 3.4
v -3.2 0.5 3.4
v -3.2 0.8 3.4
v -3.2 0.9 3.4
v -3.2 1 3.4
v -3 0.2 3.4
v -3 0.3 3.4
v -3 0.4 3.4
v -3 0.5 3.4
v -3 0.8 3.4
v -3 0.9 3.4
v -3 1 3.4
v -2.8 0.2 3.4
v -2.8 0.3 3.4
v -2.8 0.4 3.4
v -2.8 0.5 3.4
v -2.8 0.8 3.4
v -2.8 0.9 3.4
v -2.8 1 3.4
v -2 0.2 3.4
v -2 0.3 3.4
v -2 0.4 3.4
v -2 0.5 3.4
v -2 0.8 3.4
v -2 0.9 3.4
v -2 1 3.4
v -1.8 0.2 3.4
v -1.8 0.3 3.4
v -1.8 0.4 3.4
v -1.8 0.5 3.4
v -1.8 0.8 3.4
v -1.8 0.9 3.4
v -1.8 1 3.4
v -1.6 0.2 3.4
v -1.6 0.3 3.4
v -1.6 0.4 3.4
v -1.6 0.5 3.4
v -1.6 0.8 3.4
v -1.6 0.9 3.4
v -1.6 1 3.4
v -1.4 0.2 3.4
v -1.4 0.3 3.4
v -1.4 0.4 3.4
v -1.4 0.5 3.4
v -1.4 0.8 3.4
v -1.4 0.9 3.4
v -1.4 1 3.4
v -1.2 0.2 3.4
v -1.2 0.3 3.4
v -1.2 0.4 3.4
v -1.2 0.5 3.4
v -1.2 0.8 3.4
v -1.2 0.9 3.4
v -1.2 1 3.4
v -1 0.2 3.4
v -1 0.3 3.4
v -1 0.4 3.4
v -1 0.5 3.4
v -1 0.8 3.4
v -1 0.9 3.4
v -1 1 3.4
v -4.4 0.2 3.3
v -4.4 0.3 3.3
v -4.4 0.4 3.3
v -4.4 0.9 3.3
v -4.4 1 3.3
v -4.4 1.1 3.3
v -4.4 1.2 3.3
v -4.3 0.5 3.3
v -4.3 0.8 3.3
v -4.2 0.6 3.3
v -4.2 0.7 3.3
v -4.2 0.8 3.3
v -4.2 0.9 3.3
v -4.1 0.7 3.3
v -4.1 1 3.3
v -4 0.1 3.3
v -4 0.2 3.3
v -4 0.3 3.3
v -4 0.4 3.3
v -4 0.5 3.3
v -4 0.6 3.3
v -4 1 3.3
v -4 1.1 3.3
v -4 1.2 3.3
v -2.6 0.1 3.3
v -2.6 0.2 3.3
v -2.6 0.3 3.3
v -2.6 0.4 3.3
v -2.6 0.9 3.3
v -2.6 1 3.3
v -2.6 1.1 3.3
v -2.6 1.2 3.3
v -2.5 0.5 3.3
v -2.5 0.8 3.3
v -2.4 0.6 3.3
v -2.4 0.7 3.3
v -2.4 0.8 3.3
v -2.4 0.9 3.3
v -2.3 0.7 3.3
v -2.3 1 3.3
v -2.2 0.1 3.3
v -2.2 0.2 3.3
v -2.2 0.3 3.3
v -2.2 0.4 3.3
v -2.2 0.5 3.3
v -2.2 0.6 3.3
v -2.2 1 3.3
v -2.2 1.1 3.3
v -2.2 1.2 3.3
v -0.8 0.1 3.3
v -0.8 0.2 3.3
v -0.8 0.3 3.3
v -0.8 0.4 3.3
v -0.8 0.5 3.3
v -0.8 0.6 3.3
v -0.8 1 3.3
v -0.8 1.1 3.3
v -0.8 1.2 3.3
v -0.7 0.7 3.3
v -0.7 1 3.3
v -0.6 0.6 3.3
v -0.6 0.7 3.3
v -0.6 0.8 3.3
v -0.6 0.9 3.3
v -0.5 0.5 3.3
v -0.5 0.8 3.3
v -0.4 0.1 3.3
v -0.4 0.2 3.3
v -0.4 0.3 3.3
v -0.4 0.4 3.3
v -0.4 0.9 3.3
v -0.4 1 3.3
v -0.4 1.1 3.3
v -0.4 1.2 3.3
v -4.5 1.2 3.2
v -4.5 1.3 3.2
v -3.9 0 3.2
v -3.9 0.1 3.2
v -3.9 1.2 3.2
v -3.9 1.3 3.2
v -2.7 1.2 3.2
v -2.7 1.3 3.2
v -2.1 1.2 3.2
v -2.1 1.3 3.2
v -0.9 1.2 3.2
v -0.9 1.3 3.2
v -0.3 0 3.2
v -0.3 0.1 3.2
v -0.3 1.2 3.2
v -0.3 1.3 3.2
v -4.3 0.2 2.9
v -4.3 0.3 2.9
v -4.3 0.4 2.9
v -4.3 0.5 2.9
v -4.3 0.8 2.9
v -4.3 0.9 2.9
v -4.3 1 2.9
v -4.1 0.2 2.9
v -4.1 0.3 2.9
v -4.1 0.4 2.9
v -4.1 0.5 2.9
v -4.1 0.8 2.9
v -4.1 0.9 2.9
v -4.1 1 2.9
v -4.3 0.2 2.5
v -4.3 0.3 2.5
v -4.3 0.4 2.5
v -4.3 0.5 2.5
v -4.3 0.8 2.5
v -4.3 0.9 2.5
v -4.3 1 2.5
v -4.1 0.2 2.5
v -4.1 0.3 2.5
v -4.1 0.4 2.5
v -4.1 0.5 2.5
v -4.1 0.8 2.5
v -4.1 0.9 2.5
v -4.1 1 2.5
v -4.3 0.2 2.1
v -4.3 0.3 2.1
v -4.3 0.4 2.1
v -4.3 0.5 2.1
v -4.3 0.8 2.1
v -4.3 0.9 2.1
v -4.3 1 2.1
v -4.1 0.2 2.1
v -4.1 0.3 2.1
v -4.1 0.4 2.1
v -4.1 0.5 2.1
v -4.1 0.8 2.1
v -4.1 0.9 2.1
v -4.1 1 2.1
v -4.4 0.2 1.5
v -4.4 0.3 1.5
v -4.4 0.4 1.5
v -4.4 0.5 1.5
v -4.4 0.6 1.5
v -4.4 1 1.5
v -4.4 1.1 1.5
v -4.4 1.2 1.5
v -4.3 0.7 1.5
v -4.3 1 1.5
v -4.2 0.6 1.5
v -4.2 0.7 1.5
v -4.2 0.8 1.5
v -4.2 0.9 1.5
v -4.1 0.5 1.5
v -4.1 0.8 1.5
v -4 0.2 1.5
v -4 0.3 1.5
v -4 0.4 1.5
v -4 0.9 1.5
v -4 1 1.5
v -4 1.1 1.5
v -4 1.2 1.5
v -4.5 1.2 1.4
v -4.5 1.3 1.4
v -3.9 1.2 1.4
v -3.9 1.3 1.4
v -4.3 0.2 1.1
v -4.3 0.3 1.1
v -4.3 0.4 1.1
v -4.3 0.5 1.1
v -4.3 0.8 1.1
v -4.3 0.9 1.1
v -4.3 1 1.1
v -4.1 0.2 1.1
v -4.1 0.3 1.1
v -4.1 0.4 1.1
v -4.1 0.5 1.1
v -4.1 0.8 1.1
v -4.1 0.9 1.1
v -4.1 1 1.1
v -4.3 0.2 0.7
v -4.3 0.3 0.7
v -4.3 0.4 0.7
v -4.3 0.5 0.7
v -4.3 0.8 0.7
v -4.3 0.9 0.7
v -4.3 1 0.7
v -4.1 0.2 0.7
v -4.1 0.3 0.7
v -4.1 0.4 0.7
v -4.1 0.5 0.7
v -4.1 0.8 0.7
v -4.1 0.9 0.7
v -4.1 1 0.7
v -4.3 0.2 0.3
v -4.3 0.3 0.3
v -4.3 0.4 0.3
v -4.3 0.5 0.3
v -4.3 0.8 0.3
v -4.3 0.9 0.3
v -4.3 1 0.3
v -4.1 0.2 0.3
v -4.1 0.3 0.3
v -4.1 0.4 0.3
v -4.1 0.5 0.3
v -4.1 0.8 0.3
v -4.1 0.9 0.3
v -4.1 1 0.3
v -4.4 0.1 -0.3
v -4.4 0.2 -0.3
v -4.4 0.3 -0.3
v -4.4 0.4 -0.3
v -4.4 0.5 -0.3
v -4.4 0.6 -0.3
v -4.4 1.1 -0.3
v -4.4 1.2 -0.3
v -4.3 0.7 -0.3
v -4.3 1 -0.3
v -4.2 0.6 -0.3
v -4.2 0.7 -0.3
v -4.2 0.8 -0.3
v -4.2 0.9 -0.3
v -4.1 0.5 -0.3
v -4.1 0.8 -0.3
v -4 0.1 -0.3
v -4 0.2 -0.3
v -4 0.3 -0.3
v -4 0.4 -0.3
v -4 0.9 -0.3
v -4 1 -0.3
v -4 1.1 -0.3
v -4 1.2 -0.3
v -4.5 0 -0.4
v -4.5 0.1 -0.4
v -4.5 1.2 -0.4
v -4.5 1.3 -0.4
v -3.9 0 -0.4
v -3.9 0.1 -0.4
v -3.9 1.2 -0.4
v -3.9 1.3 -0.4
v -4.5 0 3.8
v -0.3 0 3.8
v -3.9 0 3.2
v -0.3 0 3.2
v -4.5 0 -0.4
v -3.9 0 -0.4
v -4 1 3.7
v -2.6 1 3.7
v -2.2 1 3.7
v -0.8 1 3.7
v -3.8 1 3.6
v -3.6 1 3.6
v -3.4 1 3.6
v -3.2 1 3.6
v -3 1 3.6
v -2.8 1 3.6
v -2.6 1 3.6
v -2 1 3.6
v -1.8 1 3.6
v -1.6 1 3.6
v -1.4 1 3.6
v -1.2 1 3.6
v -1 1 3.6
v -0.7 1 3.6
v -0.5 1 3.6
v -4 1 3.4
v -3.8 1 3.4
v -3.6 1 3.4
v -3.4 1 3.4
v -3.2 1 3.4
v -3 1 3.4
v -2.8 1 3.4
v -2.2 1 3.4
v -2 1 3.4
v -1.8 1 3.4
v -1.6 1 3.4
v -1.4 1 3.4
v -1.2 1 3.4
v -1 1 3.4
v -0.8 1 3.4
v -0.7 1 3.4
v -0.5 1 3.4
v -4.4 1 3.3
v -4.1 1 3.3
v -4 1 3.3
v -2.6 1 3.3
v -2.2 1 3.3
v -0.8 1 3.3
v -4.3 1 3.1
v -4.1 1 3.1
v -4.3 1 2.9
v -4.1 1 2.9
v -4.3 1 2.7
v -4.1 1 2.7
v -4.3 1 2.5
v -4.1 1 2.5
v -4.3 1 2.3
v -4.1 1 2.3
v -4.3 1 2.1
v -4.1 1 2.1
v -4.4 1 1.9
v -4.1 1 1.9
v -4 1 1.9
v -4.4 1 1.5
v -4.3 1 1.5
v -4 1 1.5
v -4.3 1 1.3
v -4.1 1 1.3
v -4.3 1 1.1
v -4.1 1 1.1
v -4.3 1 0.9
v -4.1 1 0.9
v -4.3 1 0.7
v -4.1 1 0.7
v -4.3 1 0.5
v -4.1 1 0.5
v -4.3 1 0.3
v -4.1 1 0.3
v -4.4 1 0.0999999
v -4.1 1 0.0999999
v -4 1 0.0999999
v -4.5 1.2 3.8
v -3.9 1.2 3.8
v -2.7 1.2 3.8
v -2.1 1.2 3.8
v -0.9 1.2 3.8
v -0.3 1.2 3.8
v -4.4 1.2 3.7
v -4 1.2 3.7
v -2.6 1.2 3.7
v -2.2 1.2 3.7
v -0.8 1.2 3.7
v -0.4 1.2 3.7
v -0.7 1.2 3.6
v -0.5 1.2 3.6
v -0.7 1.2 3.4
v -0.5 1.2 3.4
v -4.4 1.2 3.3
v -4 1.2 3.3
v -2.6 1.2 3.3
v -2.2 1.2 3.3
v -0.8 1.2 3.3
v -0.4 1.2 3.3
v -4.5 1.2 3.2
v -3.9 1.2 3.2
v -2.7 1.2 3.2
v -2.1 1.2 3.2
v -0.9 1.2 3.2
v -0.3 1.2 3.2
v -4.5 1.2 2
v -3.9 1.2 2
v -4.4 1.2 1.9
v -4 1.2 1.9
v -4.4 1.2 1.5
v -4 1.2 1.5
v -4.5 1.2 1.4
v -3.9 1.2 1.4
v -4.5 1.2 0.2
v -3.9 1.2 0.2
v -4.4 1.2 0.0999999
v -4 1.2 0.0999999
v -4.4 1.2 -0.3
v -4 1.2 -0.3
v -4.5 1.2 -0.4
v -3.9 1.2 -0.4
v -4.5 0.1 3.8
v -0.3 0.1 3.8
v -4.4 0.1 3.7
v -4 0.1 3.7
v -2.6 0.1 3.7
v -2.2 0.1 3.7
v -0.8 0.1 3.7
v -0.4 0.1 3.7
v -4.4 0.1 3.3
v -4 0.1 3.3
v -2.6 0.1 3.3
v -2.2 0.1 3.3
v -0.8 0.1 3.3
v -0.4 0.1 3.3
v -3.9 0.1 3.2
v -0.3 0.1 3.2
v -4.4 0.1 1.9
v -4 0.1 1.9
v -4.4 0.1 1.5
v -4 0.1 1.5
v -4.4 0.1 0.0999999
v -4 0.1 0.0999999
v -4.4 0.1 -0.3
v -4 0.1 -0.3
v -4.5 0.1 -0.4
v -3.9 0.1 -0.4
v -4 0.2 3.7
v -2.6 0.2 3.7
v -2.2 0.2 3.7
v -0.8 0.2 3.7
v -3.8 0.2 3.6
v -3.6 0.2 3.6
v -3.4 0.2 3.6
v -3.2 0.2 3.6
v -3 0.2 3.6
v -2.8 0.2 3.6
v -2 0.2 3.6
v -1.8 0.2 3.6
v -1.6 0.2 3.6
v -1.4 0.2 3.6
v -1.2 0.2 3.6
v -1 0.2 3.6
v -0.7 0.2 3.6
v -0.5 0.2 3.6
v -3.8 0.2 3.4
v -3.6 0.2 3.4
v -3.4 0.2 3.4
v -3.2 0.2 3.4
v -3 0.2 3.4
v -2.8 0.2 3.4
v -2 0.2 3.4
v -1.8 0.2 3.4
v -1.6 0.2 3.4
v -1.4 0.2 3.4
v -1.2 0.2 3.4
v -1 0.2 3.4
v -0.7 0.2 3.4
v -0.5 0.2 3.4
v -4.4 0.2 3.3
v -4 0.2 3.3
v -2.6 0.2 3.3
v -2.2 0.2 3.3
v -0.8 0.2 3.3
v -4.3 0.2 3.1
v -4.1 0.2 3.1
v -4.3 0.2 2.9
v -4.1 0.2 2.9
v -4.3 0.2 2.7
v -4.1 0.2 2.7
v -4.3 0.2 2.5
v -4.1 0.2 2.5
v -4.3 0.2 2.3
v -4.1 0.2 2.3
v -4.3 0.2 2.1
v -4.1 0.2 2.1
v -4.4 0.2 1.9
v -4 0.2 1.9
v -4.4 0.2 1.5
v -4 0.2 1.5
v -4.3 0.2 1.3
v -4.1 0.2 1.3
v -4.3 0.2 1.1
v -4.1 0.2 1.1
v -4.3 0.2 0.9
v -4.1 0.2 0.9
v -4.3 0.2 0.7
v -4.1 0.2 0.7
v -4.3 0.2 0.5
v -4.1 0.2 0.5
v -4.3 0.2 0.3
v -4.1 0.2 0.3
v -4.4 0.2 0.0999999
v -4 0.2 0.0999999
v -4 1.1 3.7
v -2.6 1.1 3.7
v -2.2 1.1 3.7
v -0.8 1.1 3.7
v -0.7 1.1 3.6
v -0.5 1.1 3.6
v -0.7 1.1 3.4
v -0.5 1.1 3.4
v -4.4 1.1 3.3
v -4 1.1 3.3
v -2.6 1.1 3.3
v -2.2 1.1 3.3
v -0.8 1.1 3.3
v -4.4 1.1 1.9
v -4 1.1 1.9
v -4.4 1.1 1.5
v -4 1.1 1.5
v -4.4 1.1 0.0999999
v -4 1.1 0.0999999
v -4.5 1.3 3.8
v -3.9 1.3 3.8
v -2.7 1.3 3.8
v -2.1 1.3 3.8
v -0.9 1.3 3.8
v -0.3 1.3 3.8
v -4.5 1.3 3.2
v -3.9 1.3 3.2
v -2.7 1.3 3.2
v -2.1 1.3 3.2
v -0.9 1.3 3.2
v -0.3 1.3 3.2
v -4.5 1.3 2
v -3.9 1.3 2
v -4.5 1.3 1.4
v -3.9 1.3 1.4
v -4.5 1.3 0.2
v -3.9 1.3 0.2
v -4.5 1.3 -0.4
v -3.9 1.3 -0.4

# faces
f 3/2/1 2/2/1 1/2/1
f 4/2/1 2/2/1 3/2/1
f 11/2/1 6/2/1 5/2/1
f 12/2/1 6/2/1 11/2/1
f 13/2/1 8/2/1 7/2/1
f 14/2/1 8/2/1 13/2/1
f 15/2/1 10/2/1 9/2/1
f 16/2/1 10/2/1 15/2/1
f 23/4/1 18/4/1 17/4/1
f 24/1/1 19/1/1 18/1/1
f 24/4/1 18/4/1 23/4/1
f 25/4/1 20/4/1 19/4/1
f 25/1/1 19/1/1 24/1/1
f 26/1/1 21/1/1 20/1/1
f 26/4/1 20/4/1 25/4/1
f 27/4/1 22/4/1 21/4/1
f 27/1/1 21/1/1 26/1/1
f 28/4/1 22/4/1 27/4/1
f 29/3/1 24/3/1 23/3/1
f 30/3/1 24/3/1 29/3/1
f 31/3/1 26/3/1 25/3/1
f 32/3/1 26/3/1 31/3/1
f 33/3/1 28/3/1 27/3/1
f 34/3/1 28/3/1 33/3/1
f 35/4/1 30/4/1 29/4/1
f 36/4/1 30/4/1 35/4/1
f 37/4/1 32/4/1 31/4/1
f 38/4/1 32/4/1 37/4/1
f 39/4/1 34/4/1 33/4/1
f 40/4/1 34/4/1 39/4/1
f 41/3/1 36/3/1 35/3/1
f 42/3/1 36/3/1 41/3/1
f 43/3/1 38/3/1 37/3/1
f 44/3/1 38/3/1 43/3/1
f 45/3/1 40/3/1 39/3/1
f 46/3/1 40/3/1 45/3/1
f 47/4/1 42/4/1 41/4/1
f 48/4/1 42/4/1 47/4/1
f 49/4/1 44/4/1 43/4/1
f 50/4/1 44/4/1 49/4/1
f 51/4/1 46/4/1 45/4/1
f 52/4/1 46/4/1 51/4/1
f 53/3/1 48/3/1 47/3/1
f 54/4/1 42/4/1 48/4/1
f 54/3/1 48/3/1 53/3/1
f 55/3/1 50/3/1 49/3/1
f 55/4/1 49/4/1 43/4/1
f 56/3/1 50/3/1 55/3/1
f 57/4/1 51/4/1 45/4/1
f 57/3/1 52/3/1 51/3/1
f 58/3/1 52/3/1 57/3/1
f 59/4/1 42/4/1 54/4/1
f 59/4/1 54/4/1 53/4/1
f 60/3/1 36/3/1 42/3/1
f 60/4/1 42/4/1 59/4/1
f 61/3/1 43/3/1 37/3/1
f 61/4/1 56/4/1 55/4/1
f 61/4/1 55/4/1 43/4/1
f 62/4/1 56/4/1 61/4/1
f 63/3/1 45/3/1 39/3/1
f 63/4/1 58/4/1 57/4/1
f 63/4/1 57/4/1 45/4/1
f 64/4/1 58/4/1 63/4/1
f 65/4/1 59/4/1 53/4/1
f 65/3/1 60/3/1 59/3/1
f 66/3/1 36/3/1 60/3/1
f 66/3/1 60/3/1 65/3/1
f 67/3/1 62/3/1 61/3/1
f 67/3/1 61/3/1 37/3/1
f 68/4/1 56/4/1 62/4/1
f 68/3/1 62/3/1 67/3/1
f 69/3/1 64/3/1 63/3/1
f 69/3/1 63/3/1 39/3/1
f 70/4/1 58/4/1 64/4/1
f 70/3/1 64/3/1 69/3/1
f 71/3/1 53/3/1 47/3/1
f 71/4/1 65/4/1 53/4/1
f 71/4/1 66/4/1 65/4/1
f 72/4/1 66/4/1 71/4/1
f 73/4/1 68/4/1 67/4/1
f 74/3/1 50/3/1 56/3/1
f 74/4/1 56/4/1 68/4/1
f 74/4/1 68/4/1 73/4/1
f 75/3/1 50/3/1 74/3/1
f 76/4/1 70/4/1 69/4/1
f 77/4/1 58/4/1 70/4/1
f 77/3/1 52/3/1 58/3/1
f 77/4/1 70/4/1 76/4/1
f 78/3/1 72/3/1 71/3/1
f 78/3/1 71/3/1 47/3/1
f 79/1/1 73/1/1 72/1/1
f 79/3/1 72/3/1 78/3/1
f 80/3/1 75/3/1 74/3/1
f 80/1/1 73/1/1 79/1/1
f 80/3/1 74/3/1 73/3/1
f 81/1/1 76/1/1 75/1/1
f 81/3/1 75/3/1 80/3/1
f 82/3/1 77/3/1 76/3/1
f 82/1/1 76/1/1 81/1/1
f 83/3/1 52/3/1 77/3/1
f 83/3/1 77/3/1 82/3/1
f 84/4/1 79/4/1 78/4/1
f 85/4/1 79/4/1 84/4/1
f 86/4/1 81/4/1 80/4/1
f 87/4/1 81/4/1 86/4/1
f 88/4/1 83/4/1 82/4/1
f 89/4/1 83/4/1 88/4/1
f 102/3/1 91/3/1 90/3/1
f 103/3/1 91/3/1 102/3/1
f 104/3/1 93/3/1 92/3/1
f 105/3/1 93/3/1 104/3/1
f 106/3/1 95/3/1 94/3/1
f 107/3/1 95/3/1 106/3/1
f 108/3/1 97/3/1 96/3/1
f 109/3/1 97/3/1 108/3/1
f 110/3/1 99/3/1 98/3/1
f 111/3/1 99/3/1 110/3/1
f 112/3/1 101/3/1 100/3/1
f 113/3/1 101/3/1 112/3/1
f 114/4/1 103/4/1 102/4/1
f 115/4/1 103/4/1 114/4/1
f 116/4/1 105/4/1 104/4/1
f 117/4/1 105/4/1 116/4/1
f 118/4/1 107/4/1 106/4/1
f 119/4/1 107/4/1 118/4/1
f 120/4/1 109/4/1 108/4/1
f 121/4/1 109/4/1 120/4/1
f 122/4/1 111/4/1 110/4/1
f 123/4/1 111/4/1 122/4/1
f 124/4/1 113/4/1 112/4/1
f 125/4/1 113/4/1 124/4/1
f 126/2/1 115/2/1 114/2/1
f 127/2/1 115/2/1 126/2/1
f 128/2/1 117/2/1 116/2/1
f 129/2/1 117/2/1 128/2/1
f 130/2/1 119/2/1 118/2/1
f 131/2/1 119/2/1 130/2/1
f 132/2/1 121/2/1 120/2/1
f 133/2/1 121/2/1 132/2/1
f 134/2/1 123/2/1 122/2/1
f 135/2/1 123/2/1 134/2/1
f 136/2/1 125/2/1 124/2/1
f 137/2/1 125/2/1 136/2/1
f 138/3/1 127/3/1 126/3/1
f 139/3/1 127/3/1 138/3/1
f 140/3/1 129/3/1 128/3/1
f 141/3/1 129/3/1 140/3/1
f 142/3/1 131/3/1 130/3/1
f 143/3/1 131/3/1 142/3/1
f 144/3/1 133/3/1 132/3/1
f 145/3/1 133/3/1 144/3/1
f 146/3/1 135/3/1 134/3/1
f 147/3/1 135/3/1 146/3/1
f 148/3/1 137/3/1 136/3/1
f 149/3/1 137/3/1 148/3/1
f 150/4/1 139/4/1 138/4/1
f 151/4/1 139/4/1 150/4/1
f 152/4/1 141/4/1 140/4/1
f 153/4/1 141/4/1 152/4/1
f 154/4/1 143/4/1 142/4/1
f 155/4/1 143/4/1 154/4/1
f 156/4/1 145/4/1 144/4/1
f 157/4/1 145/4/1 156/4/1
f 158/4/1 147/4/1 146/4/1
f 159/4/1 147/4/1 158/4/1
f 160/4/1 149/4/1 148/4/1
f 161/4/1 149/4/1 160/4/1
f 162/5/1 151/5/1 150/5/1
f 163/5/1 151/5/1 162/5/1
f 164/5/1 153/5/1 152/5/1
f 165/5/1 153/5/1 164/5/1
f 166/5/1 155/5/1 154/5/1
f 167/5/1 155/5/1 166/5/1
f 168/5/1 157/5/1 156/5/1
f 169/5/1 157/5/1 168/5/1
f 170/5/1 159/5/1 158/5/1
f 171/5/1 159/5/1 170/5/1
f 172/5/1 161/5/1 160/5/1
f 173/5/1 161/5/1 172/5/1
f 176/3/1 175/3/1 174/3/1
f 177/3/1 175/3/1 176/3/1
f 178/4/1 177/4/1 176/4/1
f 179/4/1 177/4/1 178/4/1
f 180/2/1 179/2/1 178/2/1
f 181/2/1 179/2/1 180/2/1
f 182/3/1 181/3/1 180/3/1
f 183/3/1 181/3/1 182/3/1
f 184/4/1 183/4/1 182/4/1
f 185/4/1 183/4/1 184/4/1
f 186/5/1 185/5/1 184/5/1
f 187/5/1 185/5/1 186/5/1
f 190/3/1 189/3/1 188/3/1
f 191/3/1 189/3/1 190/3/1
f 192/4/1 191/4/1 190/4/1
f 193/4/1 191/4/1 192/4/1
f 194/2/1 193/2/1 192/2/1
f 195/2/1 193/2/1 194/2/1
f 196/3/1 195/3/1 194/3/1
f 197/3/1 195/3/1 196/3/1
f 198/4/1 197/4/1 196/4/1
f 199/4/1 197/4/1 198/4/1
f 200/5/1 199/5/1 198/5/1
f 201/5/1 199/5/1 200/5/1
f 204/3/1 203/3/1 202/3/1
f 205/3/1 203/3/1 204/3/1
f 206/4/1 205/4/1 204/4/1
f 207/4/1 205/4/1 206/4/1
f 208/2/1 207/2/1 206/2/1
f 209/2/1 207/2/1 208/2/1
f 210/3/1 209/3/1 208/3/1
f 211/3/1 209/3/1 210/3/1
f 212/4/1 211/4/1 210/4/1
f 213/4/1 211/4/1 212/4/1
f 214/5/1 213/5/1 212/5/1
f 215/5/1 213/5/1 214/5/1
f 218/2/1 217/2/1 216/2/1
f 219/2/1 217/2/1 218/2/1
f 222/3/1 221/3/1 220/3/1
f 223/3/1 221/3/1 222/3/1
f 224/4/1 223/4/1 222/4/1
f 225/4/1 223/4/1 224/4/1
f 226/3/1 225/3/1 224/3/1
f 227/3/1 225/3/1 226/3/1
f 228/4/1 227/4/1 226/4/1
f 229/4/1 227/4/1 228/4/1
f 230/3/1 229/3/1 228/3/1
f 231/4/1 227/4/1 229/4/1
f 231/3/1 229/3/1 230/3/1
f 232/4/1 231/4/1 230/4/1
f 232/4/1 227/4/1 231/4/1
f 233/3/1 225/3/1 227/3/1
f 233/4/1 227/4/1 232/4/1
f 234/4/1 232/4/1 230/4/1
f 234/3/1 233/3/1 232/3/1
f 235/3/1 225/3/1 233/3/1
f 235/3/1 233/3/1 234/3/1
f 236/3/1 230/3/1 228/3/1
f 237/4/1 234/4/1 230/4/1
f 237/3/1 230/3/1 236/3/1
f 237/4/1 235/4/1 234/4/1
f 238/4/1 235/4/1 237/4/1
f 241/4/1 240/4/1 239/4/1
f 242/4/1 240/4/1 241/4/1
f 245/3/1 244/3/1 243/3/1
f 246/3/1 244/3/1 245/3/1
f 247/4/1 246/4/1 245/4/1
f 248/4/1 246/4/1 247/4/1
f 249/2/1 248/2/1 247/2/1
f 250/2/1 248/2/1 249/2/1
f 251/3/1 250/3/1 249/3/1
f 252/3/1 250/3/1 251/3/1
f 253/4/1 252/4/1 251/4/1
f 254/4/1 252/4/1 253/4/1
f 255/5/1 254/5/1 253/5/1
f 256/5/1 254/5/1 255/5/1
f 259/3/1 258/3/1 257/3/1
f 260/3/1 258/3/1 259/3/1
f 261/4/1 260/4/1 259/4/1
f 262/4/1 260/4/1 261/4/1
f 263/2/1 262/2/1 261/2/1
f 264/2/1 262/2/1 263/2/1
f 265/3/1 264/3/1 263/3/1
f 266/3/1 264/3/1 265/3/1
f 267/4/1 266/4/1 265/4/1
f 268/4/1 266/4/1 267/4/1
f 269/5/1 268/5/1 267/5/1
f 270/5/1 268/5/1 269/5/1
f 273/3/1 272/3/1 271/3/1
f 274/3/1 272/3/1 273/3/1
f 275/4/1 274/4/1 273/4/1
f 276/4/1 274/4/1 275/4/1
f 277/2/1 276/2/1 275/2/1
f 278/2/1 276/2/1 277/2/1
f 279/3/1 278/3/1 277/3/1
f 280/3/1 278/3/1 279/3/1
f 281/4/1 280/4/1 279/4/1
f 282/4/1 280/4/1 281/4/1
f 283/5/1 282/5/1 281/5/1
f 284/5/1 282/5/1 283/5/1
f 287/2/1 286/2/1 285/2/1
f 288/2/1 286/2/1 287/2/1
f 291/3/1 290/3/1 289/3/1
f 292/3/1 290/3/1 291/3/1
f 293/4/1 292/4/1 291/4/1
f 294/4/1 292/4/1 293/4/1
f 295/3/1 294/3/1 293/3/1
f 296/3/1 294/3/1 295/3/1
f 297/4/1 296/4/1 295/4/1
f 298/4/1 296/4/1 297/4/1
f 299/4/1 297/4/1 295/4/1
f 299/3/1 298/3/1 297/3/1
f 300/3/1 298/3/1 299/3/1
f 301/3/1 295/3/1 293/3/1
f 301/4/1 299/4/1 295/4/1
f 301/4/1 300/4/1 299/4/1
f 302/4/1 300/4/1 301/4/1
f 303/3/1 301/3/1 293/3/1
f 303/3/1 302/3/1 301/3/1
f 304/4/1 300/4/1 302/4/1
f 304/3/1 302/3/1 303/3/1
f 305/4/1 304/4/1 303/4/1
f 306/3/1 298/3/1 300/3/1
f 306/4/1 304/4/1 305/4/1
f 306/4/1 300/4/1 304/4/1
f 307/3/1 298/3/1 306/3/1
f 310/4/1 309/4/1 308/4/1
f 311/4/1 309/4/1 310/4/1
f 314/3/1 313/3/1 312/3/1
f 315/3/1 313/3/1 314/3/1
f 316/4/1 315/4/1 314/4/1
f 317/4/1 315/4/1 316/4/1
f 318/3/1 317/3/1 316/3/1
f 319/3/1 317/3/1 318/3/1
f 320/4/1 319/4/1 318/4/1
f 321/4/1 319/4/1 320/4/1
f 322/3/1 321/3/1 320/3/1
f 323/4/1 319/4/1 321/4/1
f 323/3/1 321/3/1 322/3/1
f 324/4/1 323/4/1 322/4/1
f 324/4/1 319/4/1 323/4/1
f 325/4/1 319/4/1 324/4/1
f 326/4/1 324/4/1 322/4/1
f 326/3/1 325/3/1 324/3/1
f 327/3/1 325/3/1 326/3/1
f 328/4/1 326/4/1 322/4/1
f 328/4/1 327/4/1 326/4/1
f 329/4/1 327/4/1 328/4/1
f 332/4/1 331/4/1 330/4/1
f 333/4/1 331/4/1 332/4/1
f 334/3/2 335/3/2 346/3/2
f 346/3/2 335/3/2 347/3/2
f 336/3/2 337/3/2 348/3/2
f 348/3/2 337/3/2 349/3/2
f 338/3/2 339/3/2 350/3/2
f 350/3/2 339/3/2 351/3/2
f 340/3/2 341/3/2 352/3/2
f 352/3/2 341/3/2 353/3/2
f 342/3/2 343/3/2 354/3/2
f 354/3/2 343/3/2 355/3/2
f 344/3/2 345/3/2 356/3/2
f 356/3/2 345/3/2 357/3/2
f 346/4/2 347/4/2 358/4/2
f 358/4/2 347/4/2 359/4/2
f 348/4/2 349/4/2 360/4/2
f 360/4/2 349/4/2 361/4/2
f 350/4/2 351/4/2 362/4/2
f 362/4/2 351/4/2 363/4/2
f 352/4/2 353/4/2 364/4/2
f 364/4/2 353/4/2 365/4/2
f 354/4/2 355/4/2 366/4/2
f 366/4/2 355/4/2 367/4/2
f 356/4/2 357/4/2 368/4/2
f 368/4/2 357/4/2 369/4/2
f 358/2/2 359/2/2 370/2/2
f 370/2/2 359/2/2 371/2/2
f 360/2/2 361/2/2 372/2/2
f 372/2/2 361/2/2 373/2/2
f 362/2/2 363/2/2 374/2/2
f 374/2/2 363/2/2 375/2/2
f 364/2/2 365/2/2 376/2/2
f 376/2/2 365/2/2 377/2/2
f 366/2/2 367/2/2 378/2/2
f 378/2/2 367/2/2 379/2/2
f 368/2/2 369/2/2 380/2/2
f 380/2/2 369/2/2 381/2/2
f 370/3/2 371/3/2 382/3/2
f 382/3/2 371/3/2 383/3/2
f 372/3/2 373/3/2 384/3/2
f 384/3/2 373/3/2 385/3/2
f 374/3/2 375/3/2 386/3/2
f 386/3/2 375/3/2 387/3/2
f 376/3/2 377/3/2 388/3/2
f 388/3/2 377/3/2 389/3/2
f 378/3/2 379/3/2 390/3/2
f 390/3/2 379/3/2 391/3/2
f 380/3/2 381/3/2 392/3/2
f 392/3/2 381/3/2 393/3/2
f 382/4/2 383/4/2 394/4/2
f 394/4/2 383/4/2 395/4/2
f 384/4/2 385/4/2 396/4/2
f 396/4/2 385/4/2 397/4/2
f 386/4/2 387/4/2 398/4/2
f 398/4/2 387/4/2 399/4/2
f 388/4/2 389/4/2 400/4/2
f 400/4/2 389/4/2 401/4/2
f 390/4/2 391/4/2 402/4/2
f 402/4/2 391/4/2 403/4/2
f 392/4/2 393/4/2 404/4/2
f 404/4/2 393/4/2 405/4/2
f 394/5/2 395/5/2 406/5/2
f 406/5/2 395/5/2 407/5/2
f 396/5/2 397/5/2 408/5/2
f 408/5/2 397/5/2 409/5/2
f 398/5/2 399/5/2 410/5/2
f 410/5/2 399/5/2 411/5/2
f 400/5/2 401/5/2 412/5/2
f 412/5/2 401/5/2 413/5/2
f 402/5/2 403/5/2 414/5/2
f 414/5/2 403/5/2 415/5/2
f 404/5/2 405/5/2 416/5/2
f 416/5/2 405/5/2 417/5/2
f 418/1/2 419/1/2 424/1/2
f 419/4/2 420/4/2 425/4/2
f 424/1/2 419/1/2 425/1/2
f 420/1/2 421/1/2 426/1/2
f 425/4/2 420/4/2 426/4/2
f 421/4/2 422/4/2 427/4/2
f 426/1/2 421/1/2 427/1/2
f 427/4/2 422/4/2 428/4/2
f 423/3/2 424/3/2 429/3/2
f 429/3/2 424/3/2 430/3/2
f 425/3/2 426/3/2 431/3/2
f 431/3/2 426/3/2 432/3/2
f 427/3/2 428/3/2 433/3/2
f 433/3/2 428/3/2 434/3/2
f 429/4/2 430/4/2 435/4/2
f 435/4/2 430/4/2 436/4/2
f 431/4/2 432/4/2 437/4/2
f 437/4/2 432/4/2 438/4/2
f 433/4/2 434/4/2 439/4/2
f 439/4/2 434/4/2 440/4/2
f 435/3/2 436/3/2 441/3/2
f 441/3/2 436/3/2 442/3/2
f 437/3/2 438/3/2 443/3/2
f 443/3/2 438/3/2 444/3/2
f 439/3/2 440/3/2 445/3/2
f 445/3/2 440/3/2 446/3/2
f 441/4/2 442/4/2 447/4/2
f 447/4/2 442/4/2 448/4/2
f 443/4/2 444/4/2 449/4/2
f 449/4/2 444/4/2 450/4/2
f 445/4/2 446/4/2 451/4/2
f 451/4/2 446/4/2 452/4/2
f 447/3/2 448/3/2 453/3/2
f 441/4/2 447/4/2 453/4/2
f 453/3/2 448/3/2 454/3/2
f 449/3/2 450/3/2 455/3/2
f 450/4/2 444/4/2 456/4/2
f 455/3/2 450/3/2 456/3/2
f 451/3/2 452/3/2 457/3/2
f 452/4/2 446/4/2 458/4/2
f 457/3/2 452/3/2 458/3/2
f 435/3/2 441/3/2 459/3/2
f 441/4/2 453/4/2 459/4/2
f 453/4/2 454/4/2 459/4/2
f 459/4/2 454/4/2 460/4/2
f 456/4/2 444/4/2 461/4/2
f 455/4/2 456/4/2 461/4/2
f 444/3/2 438/3/2 462/3/2
f 461/4/2 444/4/2 462/4/2
f 458/4/2 446/4/2 463/4/2
f 457/4/2 458/4/2 463/4/2
f 446/3/2 440/3/2 464/3/2
f 463/4/2 446/4/2 464/4/2
f 459/3/2 460/3/2 465/3/2
f 435/3/2 459/3/2 465/3/2
f 460/4/2 454/4/2 466/4/2
f 465/3/2 460/3/2 466/3/2
f 455/4/2 461/4/2 467/4/2
f 461/3/2 462/3/2 467/3/2
f 462/3/2 438/3/2 468/3/2
f 467/3/2 462/3/2 468/3/2
f 457/4/2 463/4/2 469/4/2
f 463/3/2 464/3/2 469/3/2
f 464/3/2 440/3/2 470/3/2
f 469/3/2 464/3/2 470/3/2
f 465/4/2 466/4/2 471/4/2
f 466/4/2 454/4/2 472/4/2
f 471/4/2 466/4/2 472/4/2
f 454/3/2 448/3/2 472/3/2
f 472/3/2 448/3/2 473/3/2
f 449/3/2 455/3/2 474/3/2
f 467/4/2 468/4/2 475/4/2
f 455/4/2 467/4/2 475/4/2
f 474/3/2 455/3/2 475/3/2
f 475/4/2 468/4/2 476/4/2
f 451/3/2 457/3/2 477/3/2
f 469/4/2 470/4/2 478/4/2
f 457/4/2 469/4/2 478/4/2
f 477/3/2 457/3/2 478/3/2
f 478/4/2 470/4/2 479/4/2
f 473/1/2 474/1/2 481/1/2
f 475/3/2 476/3/2 482/3/2
f 474/3/2 475/3/2 482/3/2
f 481/1/2 474/1/2 482/1/2
f 476/1/2 477/1/2 483/1/2
f 482/3/2 476/3/2 483/3/2
f 477/3/2 478/3/2 484/3/2
f 483/1/2 477/1/2 484/1/2
f 478/3/2 479/3/2 484/3/2
f 484/3/2 479/3/2 485/3/2
f 480/4/2 481/4/2 486/4/2
f 486/4/2 481/4/2 487/4/2
f 482/4/2 483/4/2 488/4/2
f 488/4/2 483/4/2 489/4/2
f 484/4/2 485/4/2 490/4/2
f 490/4/2 485/4/2 491/4/2
f 492/2/2 493/2/2 494/2/2
f 494/2/2 493/2/2 495/2/2
f 496/2/2 497/2/2 502/2/2
f 502/2/2 497/2/2 503/2/2
f 498/2/2 499/2/2 504/2/2
f 504/2/2 499/2/2 505/2/2
f 500/2/2 501/2/2 506/2/2
f 506/2/2 501/2/2 507/2/2
f 508/3/2 509/3/2 510/3/2
f 510/3/2 509/3/2 511/3/2
f 510/4/2 511/4/2 512/4/2
f 512/4/2 511/4/2 513/4/2
f 512/2/2 513/2/2 514/2/2
f 514/2/2 513/2/2 515/2/2
f 514/3/2 515/3/2 516/3/2
f 516/3/2 515/3/2 517/3/2
f 516/4/2 517/4/2 518/4/2
f 518/4/2 517/4/2 519/4/2
f 518/5/2 519/5/2 520/5/2
f 520/5/2 519/5/2 521/5/2
f 522/3/2 523/3/2 524/3/2
f 524/3/2 523/3/2 525/3/2
f 524/4/2 525/4/2 526/4/2
f 526/4/2 525/4/2 527/4/2
f 526/2/2 527/2/2 528/2/2
f 528/2/2 527/2/2 529/2/2
f 528/3/2 529/3/2 530/3/2
f 530/3/2 529/3/2 531/3/2
f 530/4/2 531/4/2 532/4/2
f 532/4/2 531/4/2 533/4/2
f 532/5/2 533/5/2 534/5/2
f 534/5/2 533/5/2 535/5/2
f 536/3/2 537/3/2 538/3/2
f 538/3/2 537/3/2 539/3/2
f 538/4/2 539/4/2 540/4/2
f 540/4/2 539/4/2 541/4/2
f 540/2/2 541/2/2 542/2/2
f 542/2/2 541/2/2 543/2/2
f 542/3/2 543/3/2 544/3/2
f 544/3/2 543/3/2 545/3/2
f 544/4/2 545/4/2 546/4/2
f 546/4/2 545/4/2 547/4/2
f 546/5/2 547/5/2 548/5/2
f 548/5/2 547/5/2 549/5/2
f 550/3/2 551/3/2 552/3/2
f 552/3/2 551/3/2 553/3/2
f 552/4/2 553/4/2 554/4/2
f 554/4/2 553/4/2 555/4/2
f 554/3/2 555/3/2 556/3/2
f 556/3/2 555/3/2 557/3/2
f 556/4/2 557/4/2 558/4/2
f 558/4/2 557/4/2 559/4/2
f 556/4/2 558/4/2 560/4/2
f 558/3/2 559/3/2 560/3/2
f 560/3/2 559/3/2 561/3/2
f 554/3/2 556/3/2 562/3/2
f 556/4/2 560/4/2 562/4/2
f 560/4/2 561/4/2 562/4/2
f 562/4/2 561/4/2 563/4/2
f 554/3/2 562/3/2 564/3/2
f 562/3/2 563/3/2 564/3/2
f 563/4/2 561/4/2 565/4/2
f 564/3/2 563/3/2 565/3/2
f 564/4/2 565/4/2 566/4/2
f 561/3/2 559/3/2 567/3/2
f 566/4/2 565/4/2 567/4/2
f 565/4/2 561/4/2 567/4/2
f 567/3/2 559/3/2 568/3/2
f 569/4/2 570/4/2 571/4/2
f 571/4/2 570/4/2 572/4/2
f 573/2/2 574/2/2 575/2/2
f 575/2/2 574/2/2 576/2/2
f 577/3/2 578/3/2 579/3/2
f 579/3/2 578/3/2 580/3/2
f 579/4/2 580/4/2 581/4/2
f 581/4/2 580/4/2 582/4/2
f 581/2/2 582/2/2 583/2/2
f 583/2/2 582/2/2 584/2/2
f 583/3/2 584/3/2 585/3/2
f 585/3/2 584/3/2 586/3/2
f 585/4/2 586/4/2 587/4/2
f 587/4/2 586/4/2 588/4/2
f 587/5/2 588/5/2 589/5/2
f 589/5/2 588/5/2 590/5/2
f 591/3/2 592/3/2 593/3/2
f 593/3/2 592/3/2 594/3/2
f 593/4/2 594/4/2 595/4/2
f 595/4/2 594/4/2 596/4/2
f 595/2/2 596/2/2 597/2/2
f 597/2/2 596/2/2 598/2/2
f 597/3/2 598/3/2 599/3/2
f 599/3/2 598/3/2 600/3/2
f 599/4/2 600/4/2 601/4/2
f 601/4/2 600/4/2 602/4/2
f 601/5/2 602/5/2 603/5/2
f 603/5/2 602/5/2 604/5/2
f 605/3/2 606/3/2 607/3/2
f 607/3/2 606/3/2 608/3/2
f 607/4/2 608/4/2 609/4/2
f 609/4/2 608/4/2 610/4/2
f 609/2/2 610/2/2 611/2/2
f 611/2/2 610/2/2 612/2/2
f 611/3/2 612/3/2 613/3/2
f 613/3/2 612/3/2 614/3/2
f 613/4/2 614/4/2 615/4/2
f 615/4/2 614/4/2 616/4/2
f 615/5/2 616/5/2 617/5/2
f 617/5/2 616/5/2 618/5/2
f 619/3/2 620/3/2 621/3/2
f 621/3/2 620/3/2 622/3/2
f 621/4/2 622/4/2 623/4/2
f 623/4/2 622/4/2 624/4/2
f 623/3/2 624/3/2 625/3/2
f 625/3/2 624/3/2 626/3/2
f 625/4/2 626/4/2 627/4/2
f 627/4/2 626/4/2 628/4/2
f 625/4/2 627/4/2 629/4/2
f 627/3/2 628/3/2 629/3/2
f 629/3/2 628/3/2 630/3/2
f 625/4/2 629/4/2 631/4/2
f 629/4/2 630/4/2 631/4/2
f 631/4/2 630/4/2 632/4/2
f 631/3/2 632/3/2 633/3/2
f 632/4/2 630/4/2 634/4/2
f 633/3/2 632/3/2 634/3/2
f 633/4/2 634/4/2 635/4/2
f 634/4/2 630/4/2 636/4/2
f 635/4/2 634/4/2 636/4/2
f 637/4/2 638/4/2 639/4/2
f 639/4/2 638/4/2 640/4/2
f 641/4/2 642/4/2 643/4/2
f 643/4/2 642/4/2 644/4/2
f 643/3/2 644/3/2 645/3/2
f 645/3/2 644/3/2 646/3/2
f 645/4/2 646/4/2 647/4/2
f 647/4/2 646/4/2 648/4/2
f 647/3/2 648/3/2 649/3/2
f 649/3/2 648/3/2 650/3/2
f 649/4/2 650/4/2 651/4/2
f 651/4/2 650/4/2 652/4/2
f 651/3/2 652/3/2 653/3/2
f 652/4/2 650/4/2 654/4/2
f 653/3/2 652/3/2 654/3/2
f 653/4/2 654/4/2 655/4/2
f 654/4/2 650/4/2 655/4/2
f 650/3/2 648/3/2 656/3/2
f 655/4/2 650/4/2 656/4/2
f 653/4/2 655/4/2 657/4/2
f 655/3/2 656/3/2 657/3/2
f 656/3/2 648/3/2 658/3/2
f 657/3/2 656/3/2 658/3/2
f 653/4/2 657/4/2 659/4/2
f 651/3/2 653/3/2 659/3/2
f 657/4/2 658/4/2 659/4/2
f 659/4/2 658/4/2 660/4/2
f 651/3/2 659/3/2 661/3/2
f 659/3/2 660/3/2 661/3/2
f 661/3/2 660/3/2 662/3/2
f 661/4/2 662/4/2 663/4/2
f 663/4/2 662/4/2 664/4/2
f 665/2/2 666/2/2 667/2/2
f 667/2/2 666/2/2 668/2/2
f 669/2/2 670/2/2 671/2/2
f 671/2/2 670/2/2 672/2/2
f 677/2/3 676/2/3 675/2/3
f 678/2/3 676/2/3 677/2/3
f 681/2/3 680/2/3 679/2/3
f 682/2/3 680/2/3 681/2/3
f 685/2/3 674/2/3 673/2/3
f 686/2/3 674/2/3 685/2/3
f 687/2/3 684/2/3 683/2/3
f 688/2/3 684/2/3 687/2/3
f 697/3/3 695/3/3 694/3/3
f 698/3/3 695/3/3 697/3/3
f 699/4/3 694/4/3 693/4/3
f 699/3/3 697/3/3 694/3/3
f 700/4/3 698/4/3 697/4/3
f 700/3/3 697/3/3 699/3/3
f 701/4/3 698/4/3 700/4/3
f 702/4/3 698/4/3 701/4/3
f 703/3/3 693/3/3 692/3/3
f 703/4/3 699/4/3 693/4/3
f 703/4/3 700/4/3 699/4/3
f 703/4/3 701/4/3 700/4/3
f 704/3/3 702/3/3 701/3/3
f 704/4/3 701/4/3 703/4/3
f 705/4/3 690/4/3 689/4/3
f 706/3/3 691/3/3 690/3/3
f 706/4/3 690/4/3 705/4/3
f 707/4/3 692/4/3 691/4/3
f 707/3/3 691/3/3 706/3/3
f 708/3/3 703/3/3 692/3/3
f 708/4/3 692/4/3 707/4/3
f 708/3/3 704/3/3 703/3/3
f 709/3/3 702/3/3 704/3/3
f 709/3/3 704/3/3 708/3/3
f 709/4/3 698/4/3 702/4/3
f 710/3/3 695/3/3 698/3/3
f 710/4/3 698/4/3 709/4/3
f 711/4/3 696/4/3 695/4/3
f 711/3/3 695/3/3 710/3/3
f 712/4/3 696/4/3 711/4/3
f 713/1/3 706/1/3 705/1/3
f 714/1/3 706/1/3 713/1/3
f 719/1/3 711/1/3 710/1/3
f 720/1/3 711/1/3 719/1/3
f 722/3/3 719/3/3 718/3/3
f 722/3/3 720/3/3 719/3/3
f 723/3/3 720/3/3 722/3/3
f 724/4/3 718/4/3 717/4/3
f 724/3/3 722/3/3 718/3/3
f 725/4/3 723/4/3 722/4/3
f 725/3/3 722/3/3 724/3/3
f 726/4/3 723/4/3 725/4/3
f 727/4/3 723/4/3 726/4/3
f 728/3/3 717/3/3 716/3/3
f 728/4/3 724/4/3 717/4/3
f 728/4/3 725/4/3 724/4/3
f 728/4/3 726/4/3 725/4/3
f 729/3/3 727/3/3 726/3/3
f 729/4/3 726/4/3 728/4/3
f 730/4/3 714/4/3 713/4/3
f 731/3/3 715/3/3 714/3/3
f 731/4/3 714/4/3 730/4/3
f 732/4/3 716/4/3 715/4/3
f 732/3/3 715/3/3 731/3/3
f 733/3/3 728/3/3 716/3/3
f 733/4/3 716/4/3 732/4/3
f 733/3/3 729/3/3 728/3/3
f 734/3/3 727/3/3 729/3/3
f 734/3/3 729/3/3 733/3/3
f 734/4/3 723/4/3 727/4/3
f 735/3/3 720/3/3 723/3/3
f 735/4/3 723/4/3 734/4/3
f 736/4/3 721/4/3 720/4/3
f 736/3/3 720/3/3 735/3/3
f 737/4/3 721/4/3 736/4/3
f 738/1/3 731/1/3 730/1/3
f 739/1/3 731/1/3 738/1/3
f 743/1/3 736/1/3 735/1/3
f 744/1/3 736/1/3 743/1/3
f 746/3/3 742/3/3 741/3/3
f 747/3/3 742/3/3 746/3/3
f 748/4/3 747/4/3 746/4/3
f 749/4/3 747/4/3 748/4/3
f 750/3/3 742/3/3 747/3/3
f 750/4/3 747/4/3 749/4/3
f 751/4/3 743/4/3 742/4/3
f 751/3/3 742/3/3 750/3/3
f 752/4/3 750/4/3 749/4/3
f 752/3/3 749/3/3 748/3/3
f 752/4/3 751/4/3 750/4/3
f 753/4/3 743/4/3 751/4/3
f 753/4/3 751/4/3 752/4/3
f 753/3/3 744/3/3 743/3/3
f 754/4/3 739/4/3 738/4/3
f 755/3/3 740/3/3 739/3/3
f 755/4/3 739/4/3 754/4/3
f 756/4/3 741/4/3 740/4/3
f 756/3/3 740/3/3 755/3/3
f 757/3/3 746/3/3 741/3/3
f 757/4/3 741/4/3 756/4/3
f 758/4/3 748/4/3 746/4/3
f 758/3/3 746/3/3 757/3/3
f 759/3/3 752/3/3 748/3/3
f 759/4/3 748/4/3 758/4/3
f 759/3/3 753/3/3 752/3/3
f 760/4/3 745/4/3 744/4/3
f 760/3/3 753/3/3 759/3/3
f 760/3/3 744/3/3 753/3/3
f 761/4/3 745/4/3 760/4/3
f 769/3/3 763/3/3 762/3/3
f 770/4/3 764/4/3 763/4/3
f 770/3/3 763/3/3 769/3/3
f 771/2/3 765/2/3 764/2/3
f 771/4/3 764/4/3 770/4/3
f 772/3/3 766/3/3 765/3/3
f 772/2/3 765/2/3 771/2/3
f 773/4/3 767/4/3 766/4/3
f 773/3/3 766/3/3 772/3/3
f 774/5/3 768/5/3 767/5/3
f 774/4/3 767/4/3 773/4/3
f 775/5/3 768/5/3 774/5/3
f 783/3/3 777/3/3 776/3/3
f 784/4/3 778/4/3 777/4/3
f 784/3/3 777/3/3 783/3/3
f 785/2/3 779/2/3 778/2/3
f 785/4/3 778/4/3 784/4/3
f 786/3/3 780/3/3 779/3/3
f 786/2/3 779/2/3 785/2/3
f 787/4/3 781/4/3 780/4/3
f 787/3/3 780/3/3 786/3/3
f 788/5/3 782/5/3 781/5/3
f 788/4/3 781/4/3 787/4/3
f 789/5/3 782/5/3 788/5/3
f 797/3/3 791/3/3 790/3/3
f 798/4/3 792/4/3 791/4/3
f 798/3/3 791/3/3 797/3/3
f 799/2/3 793/2/3 792/2/3
f 799/4/3 792/4/3 798/4/3
f 800/3/3 794/3/3 793/3/3
f 800/2/3 793/2/3 799/2/3
f 801/4/3 795/4/3 794/4/3
f 801/3/3 794/3/3 800/3/3
f 802/5/3 796/5/3 795/5/3
f 802/4/3 795/4/3 801/4/3
f 803/5/3 796/5/3 802/5/3
f 811/3/3 805/3/3 804/3/3
f 812/4/3 806/4/3 805/4/3
f 812/3/3 805/3/3 811/3/3
f 813/2/3 807/2/3 806/2/3
f 813/4/3 806/4/3 812/4/3
f 814/3/3 808/3/3 807/3/3
f 814/2/3 807/2/3 813/2/3
f 815/4/3 809/4/3 808/4/3
f 815/3/3 808/3/3 814/3/3
f 816/5/3 810/5/3 809/5/3
f 816/4/3 809/4/3 815/4/3
f 817/5/3 810/5/3 816/5/3
f 825/3/3 819/3/3 818/3/3
f 826/4/3 820/4/3 819/4/3
f 826/3/3 819/3/3 825/3/3
f 827/2/3 821/2/3 820/2/3
f 827/4/3 820/4/3 826/4/3
f 828/3/3 822/3/3 821/3/3
f 828/2/3 821/2/3 827/2/3
f 829/4/3 823/4/3 822/4/3
f 829/3/3 822/3/3 828/3/3
f 830/5/3 824/5/3 823/5/3
f 830/4/3 823/4/3 829/4/3
f 831/5/3 824/5/3 830/5/3
f 839/3/3 833/3/3 832/3/3
f 840/4/3 834/4/3 833/4/3
f 840/3/3 833/3/3 839/3/3
f 841/2/3 835/2/3 834/2/3
f 841/4/3 834/4/3 840/4/3
f 842/3/3 836/3/3 835/3/3
f 842/2/3 835/2/3 841/2/3
f 843/4/3 837/4/3 836/4/3
f 843/3/3 836/3/3 842/3/3
f 844/5/3 838/5/3 837/5/3
f 844/4/3 837/4/3 843/4/3
f 845/5/3 838/5/3 844/5/3
f 855/4/3 850/4/3 849/4/3
f 855/3/3 851/3/3 850/3/3
f 856/4/3 852/4/3 851/4/3
f 856/3/3 851/3/3 855/3/3
f 857/4/3 852/4/3 856/4/3
f 858/4/3 852/4/3 857/4/3
f 859/3/3 847/3/3 846/3/3
f 860/4/3 848/4/3 847/4/3
f 860/3/3 847/3/3 859/3/3
f 861/3/3 849/3/3 848/3/3
f 861/4/3 848/4/3 860/4/3
f 862/4/3 855/4/3 849/4/3
f 862/3/3 849/3/3 861/3/3
f 862/4/3 856/4/3 855/4/3
f 862/4/3 857/4/3 856/4/3
f 863/3/3 858/3/3 857/3/3
f 863/4/3 857/4/3 862/4/3
f 864/4/3 852/4/3 858/4/3
f 864/3/3 858/3/3 863/3/3
f 865/4/3 852/4/3 864/4/3
f 866/4/3 854/4/3 853/4/3
f 867/4/3 854/4/3 866/4/3
f 875/3/3 869/3/3 868/3/3
f 876/4/3 870/4/3 869/4/3
f 876/3/3 869/3/3 875/3/3
f 877/2/3 871/2/3 870/2/3
f 877/4/3 870/4/3 876/4/3
f 878/3/3 872/3/3 871/3/3
f 878/2/3 871/2/3 877/2/3
f 879/4/3 873/4/3 872/4/3
f 879/3/3 872/3/3 878/3/3
f 880/5/3 874/5/3 873/5/3
f 880/4/3 873/4/3 879/4/3
f 881/5/3 874/5/3 880/5/3
f 889/3/3 883/3/3 882/3/3
f 890/4/3 884/4/3 883/4/3
f 890/3/3 883/3/3 889/3/3
f 891/2/3 885/2/3 884/2/3
f 891/4/3 884/4/3 890/4/3
f 892/3/3 886/3/3 885/3/3
f 892/2/3 885/2/3 891/2/3
f 893/4/3 887/4/3 886/4/3
f 893/3/3 886/3/3 892/3/3
f 894/5/3 888/5/3 887/5/3
f 894/4/3 887/4/3 893/4/3
f 895/5/3 888/5/3 894/5/3
f 903/3/3 897/3/3 896/3/3
f 904/4/3 898/4/3 897/4/3
f 904/3/3 897/3/3 903/3/3
f 905/2/3 899/2/3 898/2/3
f 905/4/3 898/4/3 904/4/3
f 906/3/3 900/3/3 899/3/3
f 906/2/3 899/2/3 905/2/3
f 907/4/3 901/4/3 900/4/3
f 907/3/3 900/3/3 906/3/3
f 908/5/3 902/5/3 901/5/3
f 908/4/3 901/4/3 907/4/3
f 909/5/3 902/5/3 908/5/3
f 912/2/3 911/2/3 910/2/3
f 913/2/3 911/2/3 912/2/3
f 921/3/3 917/3/3 916/3/3
f 922/3/3 917/3/3 921/3/3
f 923/4/3 922/4/3 921/4/3
f 924/4/3 922/4/3 923/4/3
f 925/3/3 917/3/3 922/3/3
f 925/4/3 922/4/3 924/4/3
f 926/4/3 918/4/3 917/4/3
f 926/3/3 917/3/3 925/3/3
f 927/4/3 925/4/3 924/4/3
f 927/3/3 924/3/3 923/3/3
f 927/4/3 926/4/3 925/4/3
f 928/4/3 918/4/3 926/4/3
f 928/4/3 926/4/3 927/4/3
f 929/3/3 915/3/3 914/3/3
f 930/4/3 916/4/3 915/4/3
f 930/3/3 915/3/3 929/3/3
f 931/3/3 921/3/3 916/3/3
f 931/4/3 916/4/3 930/4/3
f 932/4/3 923/4/3 921/4/3
f 932/3/3 921/3/3 931/3/3
f 933/3/3 927/3/3 923/3/3
f 933/4/3 923/4/3 932/4/3
f 933/3/3 928/3/3 927/3/3
f 934/3/3 928/3/3 933/3/3
f 935/4/3 920/4/3 919/4/3
f 936/4/3 920/4/3 935/4/3
f 944/3/3 938/3/3 937/3/3
f 945/4/3 939/4/3 938/4/3
f 945/3/3 938/3/3 944/3/3
f 946/2/3 940/2/3 939/2/3
f 946/4/3 939/4/3 945/4/3
f 947/3/3 941/3/3 940/3/3
f 947/2/3 940/2/3 946/2/3
f 948/4/3 942/4/3 941/4/3
f 948/3/3 941/3/3 947/3/3
f 949/5/3 943/5/3 942/5/3
f 949/4/3 942/4/3 948/4/3
f 950/5/3 943/5/3 949/5/3
f 958/3/3 952/3/3 951/3/3
f 959/4/3 953/4/3 952/4/3
f 959/3/3 952/3/3 958/3/3
f 960/2/3 954/2/3 953/2/3
f 960/4/3 953/4/3 959/4/3
f 961/3/3 955/3/3 954/3/3
f 961/2/3 954/2/3 960/2/3
f 962/4/3 956/4/3 955/4/3
f 962/3/3 955/3/3 961/3/3
f 963/5/3 957/5/3 956/5/3
f 963/4/3 956/4/3 962/4/3
f 964/5/3 957/5/3 963/5/3
f 972/3/3 966/3/3 965/3/3
f 973/4/3 967/4/3 966/4/3
f 973/3/3 966/3/3 972/3/3
f 974/2/3 968/2/3 967/2/3
f 974/4/3 967/4/3 973/4/3
f 975/3/3 969/3/3 968/3/3
f 975/2/3 968/2/3 974/2/3
f 976/4/3 970/4/3 969/4/3
f 976/3/3 969/3/3 975/3/3
f 977/5/3 971/5/3 970/5/3
f 977/4/3 970/4/3 976/4/3
f 978/5/3 971/5/3 977/5/3
f 981/2/3 980/2/3 979/2/3
f 982/2/3 980/2/3 981/2/3
f 990/3/3 986/3/3 985/3/3
f 991/3/3 986/3/3 990/3/3
f 992/4/3 991/4/3 990/4/3
f 993/4/3 991/4/3 992/4/3
f 994/3/3 986/3/3 991/3/3
f 994/4/3 991/4/3 993/4/3
f 995/4/3 987/4/3 986/4/3
f 995/3/3 986/3/3 994/3/3
f 996/4/3 994/4/3 993/4/3
f 996/3/3 993/3/3 992/3/3
f 996/4/3 995/4/3 994/4/3
f 997/4/3 987/4/3 995/4/3
f 997/4/3 995/4/3 996/4/3
f 998/3/3 984/3/3 983/3/3
f 999/4/3 985/4/3 984/4/3
f 999/3/3 984/3/3 998/3/3
f 1000/3/3 990/3/3 985/3/3
f 1000/4/3 985/4/3 999/4/3
f 1001/4/3 992/4/3 990/4/3
f 1001/3/3 990/3/3 1000/3/3
f 1002/3/3 996/3/3 992/3/3
f 1002/4/3 992/4/3 1001/4/3
f 1002/3/3 997/3/3 996/3/3
f 1003/3/3 997/3/3 1002/3/3
f 1004/4/3 989/4/3 988/4/3
f 1005/4/3 989/4/3 1004/4/3
f 1009/4/4 1010/4/4 1015/4/4
f 1015/4/4 1010/4/4 1016/4/4
f 1010/3/4 1011/3/4 1017/3/4
f 1016/4/4 1010/4/4 1017/4/4
f 1011/4/4 1012/4/4 1018/4/4
f 1017/3/4 1011/3/4 1018/3/4
f 1006/3/4 1007/3/4 1019/3/4
f 1007/4/4 1008/4/4 1020/4/4
f 1019/3/4 1007/3/4 1020/3/4
f 1008/3/4 1009/3/4 1021/3/4
f 1020/4/4 1008/4/4 1021/4/4
f 1009/4/4 1015/4/4 1022/4/4
f 1021/3/4 1009/3/4 1022/3/4
f 1015/3/4 1016/3/4 1023/3/4
f 1022/4/4 1015/4/4 1023/4/4
f 1016/4/4 1017/4/4 1024/4/4
f 1023/3/4 1016/3/4 1024/3/4
f 1017/4/4 1018/4/4 1024/4/4
f 1018/4/4 1012/4/4 1025/4/4
f 1024/4/4 1018/4/4 1025/4/4
f 1013/4/4 1014/4/4 1026/4/4
f 1026/4/4 1014/4/4 1027/4/4
f 1028/3/4 1029/3/4 1035/3/4
f 1029/4/4 1030/4/4 1036/4/4
f 1035/3/4 1029/3/4 1036/3/4
f 1030/2/4 1031/2/4 1037/2/4
f 1036/4/4 1030/4/4 1037/4/4
f 1031/3/4 1032/3/4 1038/3/4
f 1037/2/4 1031/2/4 1038/2/4
f 1032/4/4 1033/4/4 1039/4/4
f 1038/3/4 1032/3/4 1039/3/4
f 1033/5/4 1034/5/4 1040/5/4
f 1039/4/4 1033/4/4 1040/4/4
f 1040/5/4 1034/5/4 1041/5/4
f 1042/3/4 1043/3/4 1049/3/4
f 1043/4/4 1044/4/4 1050/4/4
f 1049/3/4 1043/3/4 1050/3/4
f 1044/2/4 1045/2/4 1051/2/4
f 1050/4/4 1044/4/4 1051/4/4
f 1045/3/4 1046/3/4 1052/3/4
f 1051/2/4 1045/2/4 1052/2/4
f 1046/4/4 1047/4/4 1053/4/4
f 1052/3/4 1046/3/4 1053/3/4
f 1047/5/4 1048/5/4 1054/5/4
f 1053/4/4 1047/4/4 1054/4/4
f 1054/5/4 1048/5/4 1055/5/4
f 1056/3/4 1057/3/4 1063/3/4
f 1057/4/4 1058/4/4 1064/4/4
f 1063/3/4 1057/3/4 1064/3/4
f 1058/2/4 1059/2/4 1065/2/4
f 1064/4/4 1058/4/4 1065/4/4
f 1059/3/4 1060/3/4 1066/3/4
f 1065/2/4 1059/2/4 1066/2/4
f 1060/4/4 1061/4/4 1067/4/4
f 1066/3/4 1060/3/4 1067/3/4
f 1061/5/4 1062/5/4 1068/5/4
f 1067/4/4 1061/4/4 1068/4/4
f 1068/5/4 1062/5/4 1069/5/4
f 1070/3/4 1071/3/4 1077/3/4
f 1071/4/4 1072/4/4 1078/4/4
f 1077/3/4 1071/3/4 1078/3/4
f 1072/2/4 1073/2/4 1079/2/4
f 1078/4/4 1072/4/4 1079/4/4
f 1073/3/4 1074/3/4 1080/3/4
f 1079/2/4 1073/2/4 1080/2/4
f 1074/4/4 1075/4/4 1081/4/4
f 1080/3/4 1074/3/4 1081/3/4
f 1075/5/4 1076/5/4 1082/5/4
f 1081/4/4 1075/4/4 1082/4/4
f 1082/5/4 1076/5/4 1083/5/4
f 1084/3/4 1085/3/4 1091/3/4
f 1085/4/4 1086/4/4 1092/4/4
f 1091/3/4 1085/3/4 1092/3/4
f 1086/2/4 1087/2/4 1093/2/4
f 1092/4/4 1086/4/4 1093/4/4
f 1087/3/4 1088/3/4 1094/3/4
f 1093/2/4 1087/2/4 1094/2/4
f 1088/4/4 1089/4/4 1095/4/4
f 1094/3/4 1088/3/4 1095/3/4
f 1089/5/4 1090/5/4 1096/5/4
f 1095/4/4 1089/4/4 1096/4/4
f 1096/5/4 1090/5/4 1097/5/4
f 1098/3/4 1099/3/4 1105/3/4
f 1099/4/4 1100/4/4 1106/4/4
f 1105/3/4 1099/3/4 1106/3/4
f 1100/2/4 1101/2/4 1107/2/4
f 1106/4/4 1100/4/4 1107/4/4
f 1101/3/4 1102/3/4 1108/3/4
f 1107/2/4 1101/2/4 1108/2/4
f 1102/4/4 1103/4/4 1109/4/4
f 1108/3/4 1102/3/4 1109/3/4
f 1103/5/4 1104/5/4 1110/5/4
f 1109/4/4 1103/4/4 1110/4/4
f 1110/5/4 1104/5/4 1111/5/4
f 1114/3/4 1115/3/4 1119/3/4
f 1119/3/4 1115/3/4 1120/3/4
f 1119/4/4 1120/4/4 1121/4/4
f 1121/4/4 1120/4/4 1122/4/4
f 1120/3/4 1115/3/4 1123/3/4
f 1122/4/4 1120/4/4 1123/4/4
f 1115/4/4 1116/4/4 1124/4/4
f 1123/3/4 1115/3/4 1124/3/4
f 1122/4/4 1123/4/4 1125/4/4
f 1121/3/4 1122/3/4 1125/3/4
f 1123/4/4 1124/4/4 1125/4/4
f 1124/4/4 1116/4/4 1126/4/4
f 1125/4/4 1124/4/4 1126/4/4
f 1112/3/4 1113/3/4 1128/3/4
f 1113/4/4 1114/4/4 1129/4/4
f 1128/3/4 1113/3/4 1129/3/4
f 1114/3/4 1119/3/4 1130/3/4
f 1129/4/4 1114/4/4 1130/4/4
f 1119/4/4 1121/4/4 1131/4/4
f 1130/3/4 1119/3/4 1131/3/4
f 1121/3/4 1125/3/4 1132/3/4
f 1131/4/4 1121/4/4 1132/4/4
f 1125/3/4 1126/3/4 1132/3/4
f 1132/3/4 1126/3/4 1133/3/4
f 1117/4/4 1118/4/4 1134/4/4
f 1134/4/4 1118/4/4 1135/4/4
f 1127/1/4 1128/1/4 1136/1/4
f 1136/1/4 1128/1/4 1137/1/4
f 1133/1/4 1134/1/4 1141/1/4
f 1141/1/4 1134/1/4 1142/1/4
f 1139/3/4 1140/3/4 1144/3/4
f 1144/3/4 1140/3/4 1145/3/4
f 1144/4/4 1145/4/4 1146/4/4
f 1146/4/4 1145/4/4 1147/4/4
f 1145/3/4 1140/3/4 1148/3/4
f 1147/4/4 1145/4/4 1148/4/4
f 1140/4/4 1141/4/4 1149/4/4
f 1148/3/4 1140/3/4 1149/3/4
f 1147/4/4 1148/4/4 1150/4/4
f 1146/3/4 1147/3/4 1150/3/4
f 1148/4/4 1149/4/4 1150/4/4
f 1149/4/4 1141/4/4 1151/4/4
f 1150/4/4 1149/4/4 1151/4/4
f 1141/3/4 1142/3/4 1151/3/4
f 1136/4/4 1137/4/4 1152/4/4
f 1137/3/4 1138/3/4 1153/3/4
f 1152/4/4 1137/4/4 1153/4/4
f 1138/4/4 1139/4/4 1154/4/4
f 1153/3/4 1138/3/4 1154/3/4
f 1139/3/4 1144/3/4 1155/3/4
f 1154/4/4 1139/4/4 1155/4/4
f 1144/4/4 1146/4/4 1156/4/4
f 1155/3/4 1144/3/4 1156/3/4
f 1146/3/4 1150/3/4 1157/3/4
f 1156/4/4 1146/4/4 1157/4/4
f 1150/3/4 1151/3/4 1157/3/4
f 1151/3/4 1142/3/4 1158/3/4
f 1157/3/4 1151/3/4 1158/3/4
f 1142/4/4 1143/4/4 1159/4/4
f 1158/3/4 1142/3/4 1159/3/4
f 1159/4/4 1143/4/4 1160/4/4
f 1152/1/4 1153/1/4 1161/1/4
f 1161/1/4 1153/1/4 1162/1/4
f 1158/1/4 1159/1/4 1167/1/4
f 1167/1/4 1159/1/4 1168/1/4
f 1166/3/4 1167/3/4 1170/3/4
f 1167/3/4 1168/3/4 1170/3/4
f 1170/3/4 1168/3/4 1171/3/4
f 1165/4/4 1166/4/4 1172/4/4
f 1166/3/4 1170/3/4 1172/3/4
f 1170/4/4 1171/4/4 1173/4/4
f 1172/3/4 1170/3/4 1173/3/4
f 1173/4/4 1171/4/4 1174/4/4
f 1174/4/4 1171/4/4 1175/4/4
f 1164/3/4 1165/3/4 1176/3/4
f 1165/4/4 1172/4/4 1176/4/4
f 1172/4/4 1173/4/4 1176/4/4
f 1173/4/4 1174/4/4 1176/4/4
f 1174/3/4 1175/3/4 1177/3/4
f 1176/4/4 1174/4/4 1177/4/4
f 1161/4/4 1162/4/4 1178/4/4
f 1162/3/4 1163/3/4 1179/3/4
f 1178/4/4 1162/4/4 1179/4/4
f 1163/4/4 1164/4/4 1180/4/4
f 1179/3/4 1163/3/4 1180/3/4
f 1164/3/4 1176/3/4 1181/3/4
f 1180/4/4 1164/4/4 1181/4/4
f 1176/3/4 1177/3/4 1181/3/4
f 1177/3/4 1175/3/4 1182/3/4
f 1181/3/4 1177/3/4 1182/3/4
f 1175/4/4 1171/4/4 1182/4/4
f 1171/3/4 1168/3/4 1183/3/4
f 1182/4/4 1171/4/4 1183/4/4
f 1168/4/4 1169/4/4 1184/4/4
f 1183/3/4 1168/3/4 1184/3/4
f 1184/4/4 1169/4/4 1185/4/4
f 1186/2/4 1187/2/4 1190/2/4
f 1190/2/4 1187/2/4 1191/2/4
f 1192/2/4 1193/2/4 1194/2/4
f 1194/2/4 1193/2/4 1195/2/4
f 1188/2/4 1189/2/4 1198/2/4
f 1198/2/4 1189/2/4 1199/2/4
f 1196/2/4 1197/2/4 1200/2/4
f 1200/2/4 1197/2/4 1201/2/4
f 1202/3/4 1203/3/4 1209/3/4
f 1203/4/4 1204/4/4 1210/4/4
f 1209/3/4 1203/3/4 1210/3/4
f 1204/2/4 1205/2/4 1211/2/4
f 1210/4/4 1204/4/4 1211/4/4
f 1205/3/4 1206/3/4 1212/3/4
f 1211/2/4 1205/2/4 1212/2/4
f 1206/4/4 1207/4/4 1213/4/4
f 1212/3/4 1206/3/4 1213/3/4
f 1207/5/4 1208/5/4 1214/5/4
f 1213/4/4 1207/4/4 1214/4/4
f 1214/5/4 1208/5/4 1215/5/4
f 1216/3/4 1217/3/4 1223/3/4
f 1217/4/4 1218/4/4 1224/4/4
f 1223/3/4 1217/3/4 1224/3/4
f 1218/2/4 1219/2/4 1225/2/4
f 1224/4/4 1218/4/4 1225/4/4
f 1219/3/4 1220/3/4 1226/3/4
f 1225/2/4 1219/2/4 1226/2/4
f 1220/4/4 1221/4/4 1227/4/4
f 1226/3/4 1220/3/4 1227/3/4
f 1221/5/4 1222/5/4 1228/5/4
f 1227/4/4 1221/4/4 1228/4/4
f 1228/5/4 1222/5/4 1229/5/4
f 1230/3/4 1231/3/4 1237/3/4
f 1231/4/4 1232/4/4 1238/4/4
f 1237/3/4 1231/3/4 1238/3/4
f 1232/2/4 1233/2/4 1239/2/4
f 1238/4/4 1232/4/4 1239/4/4
f 1233/3/4 1234/3/4 1240/3/4
f 1239/2/4 1233/2/4 1240/2/4
f 1234/4/4 1235/4/4 1241/4/4
f 1240/3/4 1234/3/4 1241/3/4
f 1235/5/4 1236/5/4 1242/5/4
f 1241/4/4 1235/4/4 1242/4/4
f 1242/5/4 1236/5/4 1243/5/4
f 1248/3/4 1249/3/4 1252/3/4
f 1252/3/4 1249/3/4 1253/3/4
f 1247/4/4 1248/4/4 1254/4/4
f 1248/3/4 1252/3/4 1254/3/4
f 1252/4/4 1253/4/4 1255/4/4
f 1254/3/4 1252/3/4 1255/3/4
f 1255/4/4 1253/4/4 1256/4/4
f 1256/4/4 1253/4/4 1257/4/4
f 1246/3/4 1247/3/4 1258/3/4
f 1247/4/4 1254/4/4 1258/4/4
f 1254/4/4 1255/4/4 1258/4/4
f 1255/4/4 1256/4/4 1258/4/4
f 1256/3/4 1257/3/4 1259/3/4
f 1258/4/4 1256/4/4 1259/4/4
f 1244/3/4 1245/3/4 1260/3/4
f 1245/4/4 1246/4/4 1261/4/4
f 1260/3/4 1245/3/4 1261/3/4
f 1246/3/4 1258/3/4 1262/3/4
f 1261/4/4 1246/4/4 1262/4/4
f 1258/3/4 1259/3/4 1262/3/4
f 1259/3/4 1257/3/4 1263/3/4
f 1262/3/4 1259/3/4 1263/3/4
f 1257/4/4 1253/4/4 1263/4/4
f 1263/4/4 1253/4/4 1264/4/4
f 1250/4/4 1251/4/4 1265/4/4
f 1265/4/4 1251/4/4 1266/4/4
f 1267/2/4 1268/2/4 1269/2/4
f 1269/2/4 1268/2/4 1270/2/4
f 1271/3/4 1272/3/4 1278/3/4
f 1272/4/4 1273/4/4 1279/4/4
f 1278/3/4 1272/3/4 1279/3/4
f 1273/2/4 1274/2/4 1280/2/4
f 1279/4/4 1273/4/4 1280/4/4
f 1274/3/4 1275/3/4 1281/3/4
f 1280/2/4 1274/2/4 1281/2/4
f 1275/4/4 1276/4/4 1282/4/4
f 1281/3/4 1275/3/4 1282/3/4
f 1276/5/4 1277/5/4 1283/5/4
f 1282/4/4 1276/4/4 1283/4/4
f 1283/5/4 1277/5/4 1284/5/4
f 1285/3/4 1286/3/4 1292/3/4
f 1286/4/4 1287/4/4 1293/4/4
f 1292/3/4 1286/3/4 1293/3/4
f 1287/2/4 1288/2/4 1294/2/4
f 1293/4/4 1287/4/4 1294/4/4
f 1288/3/4 1289/3/4 1295/3/4
f 1294/2/4 1288/2/4 1295/2/4
f 1289/4/4 1290/4/4 1296/4/4
f 1295/3/4 1289/3/4 1296/3/4
f 1290/5/4 1291/5/4 1297/5/4
f 1296/4/4 1290/4/4 1297/4/4
f 1297/5/4 1291/5/4 1298/5/4
f 1299/3/4 1300/3/4 1306/3/4
f 1300/4/4 1301/4/4 1307/4/4
f 1306/3/4 1300/3/4 1307/3/4
f 1301/2/4 1302/2/4 1308/2/4
f 1307/4/4 1301/4/4 1308/4/4
f 1302/3/4 1303/3/4 1309/3/4
f 1308/2/4 1302/2/4 1309/2/4
f 1303/4/4 1304/4/4 1310/4/4
f 1309/3/4 1303/3/4 1310/3/4
f 1304/5/4 1305/5/4 1311/5/4
f 1310/4/4 1304/4/4 1311/4/4
f 1311/5/4 1305/5/4 1312/5/4
f 1318/3/4 1319/3/4 1321/3/4
f 1321/3/4 1319/3/4 1322/3/4
f 1317/4/4 1318/4/4 1323/4/4
f 1318/3/4 1321/3/4 1323/3/4
f 1321/4/4 1322/4/4 1324/4/4
f 1323/3/4 1321/3/4 1324/3/4
f 1324/4/4 1322/4/4 1325/4/4
f 1325/4/4 1322/4/4 1326/4/4
f 1316/3/4 1317/3/4 1327/3/4
f 1317/4/4 1323/4/4 1327/4/4
f 1323/4/4 1324/4/4 1327/4/4
f 1324/4/4 1325/4/4 1327/4/4
f 1325/3/4 1326/3/4 1328/3/4
f 1327/4/4 1325/4/4 1328/4/4
f 1313/4/4 1314/4/4 1329/4/4
f 1314/3/4 1315/3/4 1330/3/4
f 1329/4/4 1314/4/4 1330/4/4
f 1315/4/4 1316/4/4 1331/4/4
f 1330/3/4 1315/3/4 1331/3/4
f 1316/3/4 1327/3/4 1332/3/4
f 1331/4/4 1316/4/4 1332/4/4
f 1327/3/4 1328/3/4 1332/3/4
f 1328/3/4 1326/3/4 1333/3/4
f 1332/3/4 1328/3/4 1333/3/4
f 1326/4/4 1322/4/4 1333/4/4
f 1322/3/4 1319/3/4 1334/3/4
f 1333/4/4 1322/4/4 1334/4/4
f 1319/4/4 1320/4/4 1335/4/4
f 1334/3/4 1319/3/4 1335/3/4
f 1335/4/4 1320/4/4 1336/4/4
f 1337/2/4 1338/2/4 1341/2/4
f 1341/2/4 1338/2/4 1342/2/4
f 1339/2/4 1340/2/4 1343/2/4
f 1343/2/4 1340/2/4 1344/2/4
f 1347/2/5 1346/2/5 1345/2/5
f 1348/2/5 1346/2/5 1347/2/5
f 1349/2/5 1347/2/5 1345/2/5
f 1350/2/5 1347/2/5 1349/2/5
f 1355/1/5 1352/1/5 1351/1/5
f 1356/1/5 1352/1/5 1355/1/5
f 1357/1/5 1352/1/5 1356/1/5
f 1358/1/5 1352/1/5 1357/1/5
f 1359/1/5 1352/1/5 1358/1/5
f 1360/1/5 1352/1/5 1359/1/5
f 1361/1/5 1352/1/5 1360/1/5
f 1362/1/5 1354/1/5 1353/1/5
f 1363/1/5 1354/1/5 1362/1/5
f 1364/1/5 1354/1/5 1363/1/5
f 1365/1/5 1354/1/5 1364/1/5
f 1366/1/5 1354/1/5 1365/1/5
f 1367/1/5 1354/1/5 1366/1/5
f 1370/1/5 1355/1/5 1351/1/5
f 1371/1/5 1355/1/5 1370/1/5
f 1372/1/5 1357/1/5 1356/1/5
f 1373/1/5 1357/1/5 1372/1/5
f 1374/1/5 1359/1/5 1358/1/5
f 1375/1/5 1359/1/5 1374/1/5
f 1376/1/5 1361/1/5 1360/1/5
f 1377/1/5 1362/1/5 1353/1/5
f 1378/1/5 1362/1/5 1377/1/5
f 1379/1/5 1364/1/5 1363/1/5
f 1380/1/5 1364/1/5 1379/1/5
f 1381/1/5 1366/1/5 1365/1/5
f 1382/1/5 1366/1/5 1381/1/5
f 1383/1/5 1354/1/5 1367/1/5
f 1384/1/5 1354/1/5 1383/1/5
f 1385/3/5 1369/3/5 1368/3/5
f 1386/3/5 1369/3/5 1385/3/5
f 1389/1/5 1375/1/5 1374/1/5
f 1389/1/5 1371/1/5 1370/1/5
f 1389/1/5 1373/1/5 1372/1/5
f 1389/1/5 1376/1/5 1375/1/5
f 1389/1/5 1372/1/5 1371/1/5
f 1389/1/5 1374/1/5 1373/1/5
f 1390/1/5 1361/1/5 1376/1/5
f 1390/1/5 1376/1/5 1389/1/5
f 1391/1/5 1384/1/5 1383/1/5
f 1391/1/5 1382/1/5 1381/1/5
f 1391/1/5 1380/1/5 1379/1/5
f 1391/1/5 1378/1/5 1377/1/5
f 1391/1/5 1379/1/5 1378/1/5
f 1391/1/5 1383/1/5 1382/1/5
f 1391/1/5 1381/1/5 1380/1/5
f 1392/1/5 1384/1/5 1391/1/5
f 1393/1/5 1388/1/5 1387/1/5
f 1393/1/5 1389/1/5 1388/1/5
f 1394/1/5 1389/1/5 1393/1/5
f 1395/1/5 1393/1/5 1387/1/5
f 1396/1/5 1389/1/5 1394/1/5
f 1397/1/5 1395/1/5 1387/1/5
f 1397/1/5 1396/1/5 1395/1/5
f 1398/1/5 1389/1/5 1396/1/5
f 1398/1/5 1396/1/5 1397/1/5
f 1399/1/5 1397/1/5 1387/1/5
f 1400/1/5 1389/1/5 1398/1/5
f 1401/1/5 1399/1/5 1387/1/5
f 1401/1/5 1400/1/5 1399/1/5
f 1402/1/5 1389/1/5 1400/1/5
f 1402/1/5 1400/1/5 1401/1/5
f 1403/1/5 1401/1/5 1387/1/5
f 1404/1/5 1389/1/5 1402/1/5
f 1405/1/5 1403/1/5 1387/1/5
f 1405/1/5 1404/1/5 1403/1/5
f 1406/1/5 1389/1/5 1404/1/5
f 1406/1/5 1404/1/5 1405/1/5
f 1407/1/5 1389/1/5 1406/1/5
f 1411/1/5 1409/1/5 1408/1/5
f 1411/1/5 1410/1/5 1409/1/5
f 1412/1/5 1410/1/5 1411/1/5
f 1413/1/5 1411/1/5 1408/1/5
f 1414/1/5 1410/1/5 1412/1/5
f 1415/1/5 1413/1/5 1408/1/5
f 1415/1/5 1414/1/5 1413/1/5
f 1416/1/5 1410/1/5 1414/1/5
f 1416/1/5 1414/1/5 1415/1/5
f 1417/1/5 1415/1/5 1408/1/5
f 1418/1/5 1410/1/5 1416/1/5
f 1419/1/5 1417/1/5 1408/1/5
f 1419/1/5 1418/1/5 1417/1/5
f 1420/1/5 1410/1/5 1418/1/5
f 1420/1/5 1418/1/5 1419/1/5
f 1421/1/5 1419/1/5 1408/1/5
f 1422/1/5 1410/1/5 1420/1/5
f 1423/1/5 1421/1/5 1408/1/5
f 1423/1/5 1422/1/5 1421/1/5
f 1424/1/5 1410/1/5 1422/1/5
f 1424/1/5 1422/1/5 1423/1/5
f 1425/1/5 1410/1/5 1424/1/5
f 1432/2/5 1427/2/5 1426/2/5
f 1433/2/5 1427/2/5 1432/2/5
f 1434/2/5 1429/2/5 1428/2/5
f 1435/2/5 1429/2/5 1434/2/5
f 1436/2/5 1431/2/5 1430/2/5
f 1437/2/5 1431/2/5 1436/2/5
f 1440/2/5 1439/2/5 1438/2/5
f 1441/2/5 1439/2/5 1440/2/5
f 1442/2/5 1432/2/5 1426/2/5
f 1443/2/5 1427/2/5 1433/2/5
f 1444/2/5 1434/2/5 1428/2/5
f 1445/2/5 1429/2/5 1435/2/5
f 1446/2/5 1436/2/5 1430/2/5
f 1447/2/5 1431/2/5 1437/2/5
f 1448/2/5 1442/2/5 1426/2/5
f 1448/2/5 1443/2/5 1442/2/5
f 1449/2/5 1427/2/5 1443/2/5
f 1449/2/5 1443/2/5 1448/2/5
f 1450/2/5 1444/2/5 1428/2/5
f 1450/2/5 1445/2/5 1444/2/5
f 1451/2/5 1429/2/5 1445/2/5
f 1451/2/5 1445/2/5 1450/2/5
f 1452/2/5 1447/2/5 1446/2/5
f 1452/2/5 1446/2/5 1430/2/5
f 1453/2/5 1431/2/5 1447/2/5
f 1453/2/5 1447/2/5 1452/2/5
f 1456/2/5 1455/2/5 1454/2/5
f 1457/2/5 1455/2/5 1456/2/5
f 1458/2/5 1456/2/5 1454/2/5
f 1459/2/5 1455/2/5 1457/2/5
f 1460/2/5 1458/2/5 1454/2/5
f 1460/2/5 1459/2/5 1458/2/5
f 1461/2/5 1455/2/5 1459/2/5
f 1461/2/5 1459/2/5 1460/2/5
f 1464/2/5 1463/2/5 1462/2/5
f 1465/2/5 1463/2/5 1464/2/5
f 1466/2/5 1464/2/5 1462/2/5
f 1467/2/5 1463/2/5 1465/2/5
f 1468/2/5 1466/2/5 1462/2/5
f 1468/2/5 1467/2/5 1466/2/5
f 1469/2/5 1463/2/5 1467/2/5
f 1469/2/5 1467/2/5 1468/2/5
f 1470/2/6 1471/2/6 1472/2/6
f 1472/2/6 1471/2/6 1473/2/6
f 1473/2/6 1471/2/6 1474/2/6
f 1474/2/6 1471/2/6 1475/2/6
f 1475/2/6 1471/2/6 1476/2/6
f 1476/2/6 1471/2/6 1477/2/6
f 1470/2/6 1472/2/6 1478/2/6
f 1477/2/6 1471/2/6 1483/2/6
f 1481/2/6 1482/2/6 1484/2/6
f 1482/2/6 1483/2/6 1484/2/6
f 1479/2/6 1480/2/6 1484/2/6
f 1480/2/6 1481/2/6 1484/2/6
f 1483/2/6 1471/2/6 1485/2/6
f 1484/2/6 1483/2/6 1485/2/6
f 1470/2/6 1478/2/6 1486/2/6
f 1479/2/6 1484/2/6 1487/2/6
f 1470/2/6 1486/2/6 1488/2/6
f 1487/2/6 1484/2/6 1489/2/6
f 1470/2/6 1488/2/6 1490/2/6
f 1489/2/6 1484/2/6 1491/2/6
f 1470/2/6 1490/2/6 1492/2/6
f 1491/2/6 1484/2/6 1493/2/6
f 1470/2/6 1492/2/6 1494/2/6
f 1492/2/6 1493/2/6 1494/2/6
f 1493/2/6 1484/2/6 1495/2/6
f 1494/2/6 1493/2/6 1495/2/6
f 1496/1/6 1497/1/6 1500/1/6
f 1500/1/6 1497/1/6 1501/1/6
f 1501/1/6 1497/1/6 1502/1/6
f 1502/1/6 1497/1/6 1503/1/6
f 1503/1/6 1497/1/6 1504/1/6
f 1504/1/6 1497/1/6 1505/1/6
f 1498/1/6 1499/1/6 1506/1/6
f 1506/1/6 1499/1/6 1507/1/6
f 1507/1/6 1499/1/6 1508/1/6
f 1508/1/6 1499/1/6 1509/1/6
f 1509/1/6 1499/1/6 1510/1/6
f 1510/1/6 1499/1/6 1511/1/6
f 1496/1/6 1500/1/6 1514/1/6
f 1501/1/6 1502/1/6 1515/1/6
f 1515/1/6 1502/1/6 1516/1/6
f 1503/1/6 1504/1/6 1517/1/6
f 1517/1/6 1504/1/6 1518/1/6
f 1505/1/6 1497/1/6 1519/1/6
f 1498/1/6 1506/1/6 1520/1/6
f 1507/1/6 1508/1/6 1521/1/6
f 1521/1/6 1508/1/6 1522/1/6
f 1509/1/6 1510/1/6 1523/1/6
f 1523/1/6 1510/1/6 1524/1/6
f 1511/1/6 1499/1/6 1525/1/6
f 1512/4/6 1513/4/6 1526/4/6
f 1526/4/6 1513/4/6 1527/4/6
f 1517/1/6 1518/1/6 1529/1/6
f 1496/1/6 1514/1/6 1529/1/6
f 1515/1/6 1516/1/6 1529/1/6
f 1518/1/6 1519/1/6 1529/1/6
f 1514/1/6 1515/1/6 1529/1/6
f 1516/1/6 1517/1/6 1529/1/6
f 1519/1/6 1497/1/6 1530/1/6
f 1529/1/6 1519/1/6 1530/1/6
f 1524/1/6 1525/1/6 1531/1/6
f 1523/1/6 1524/1/6 1531/1/6
f 1521/1/6 1522/1/6 1531/1/6
f 1520/1/6 1521/1/6 1531/1/6
f 1498/1/6 1520/1/6 1531/1/6
f 1522/1/6 1523/1/6 1531/1/6
f 1525/1/6 1499/1/6 1532/1/6
f 1531/1/6 1525/1/6 1532/1/6
f 1528/1/6 1529/1/6 1533/1/6
f 1533/1/6 1529/1/6 1534/1/6
f 1528/1/6 1533/1/6 1535/1/6
f 1534/1/6 1529/1/6 1536/1/6
f 1528/1/6 1535/1/6 1537/1/6
f 1535/1/6 1536/1/6 1537/1/6
f 1536/1/6 1529/1/6 1538/1/6
f 1537/1/6 1536/1/6 1538/1/6
f 1528/1/6 1537/1/6 1539/1/6
f 1538/1/6 1529/1/6 1540/1/6
f 1528/1/6 1539/1/6 1541/1/6
f 1539/1/6 1540/1/6 1541/1/6
f 1540/1/6 1529/1/6 1542/1/6
f 1541/1/6 1540/1/6 1542/1/6
f 1528/1/6 1541/1/6 1543/1/6
f 1542/1/6 1529/1/6 1544/1/6
f 1528/1/6 1543/1/6 1545/1/6
f 1543/1/6 1544/1/6 1545/1/6
f 1544/1/6 1529/1/6 1546/1/6
f 1545/1/6 1544/1/6 1546/1/6
f 1547/1/6 1548/1/6 1549/1/6
f 1549/1/6 1548/1/6 1550/1/6
f 1547/1/6 1549/1/6 1551/1/6
f 1550/1/6 1548/1/6 1552/1/6
f 1547/1/6 1551/1/6 1553/1/6
f 1551/1/6 1552/1/6 1553/1/6
f 1552/1/6 1548/1/6 1554/1/6
f 1553/1/6 1552/1/6 1554/1/6
f 1547/1/6 1553/1/6 1555/1/6
f 1554/1/6 1548/1/6 1556/1/6
f 1547/1/6 1555/1/6 1557/1/6
f 1555/1/6 1556/1/6 1557/1/6
f 1556/1/6 1548/1/6 1558/1/6
f 1557/1/6 1556/1/6 1558/1/6
f 1547/1/6 1557/1/6 1559/1/6
f 1558/1/6 1548/1/6 1560/1/6
f 1547/1/6 1559/1/6 1561/1/6
f 1559/1/6 1560/1/6 1561/1/6
f 1560/1/6 1548/1/6 1562/1/6
f 1561/1/6 1560/1/6 1562/1/6
f 1567/3/6 1568/3/6 1569/3/6
f 1569/3/6 1568/3/6 1570/3/6
f 1563/1/6 1564/1/6 1572/1/6
f 1572/1/6 1564/1/6 1573/1/6
f 1565/1/6 1566/1/6 1574/1/6
f 1574/1/6 1566/1/6 1575/1/6
f 1571/1/6 1572/1/6 1576/1/6
f 1576/1/6 1572/1/6 1577/1/6
f 1578/1/6 1579/1/6 1580/1/6
f 1580/1/6 1579/1/6 1581/1/6
f 1582/2/6 1583/2/6 1588/2/6
f 1588/2/6 1583/2/6 1589/2/6
f 1584/2/6 1585/2/6 1590/2/6
f 1590/2/6 1585/2/6 1591/2/6
f 1586/2/6 1587/2/6 1592/2/6
f 1592/2/6 1587/2/6 1593/2/6
f 1594/2/6 1595/2/6 1596/2/6
f 1596/2/6 1595/2/6 1597/2/6
f 1598/2/6 1599/2/6 1600/2/6
f 1600/2/6 1599/2/6 1601/2/6
